<?xml version="1.0" encoding="UTF-8" standalone="no"?>
<!DOCTYPE svg PUBLIC "-//W3C//DTD SVG 1.1//EN"
 "http://www.w3.org/Graphics/SVG/1.1/DTD/svg11.dtd">
<!-- Generated by graphviz version 2.40.1 (20161225.0304)
 -->
<!-- Title: G Pages: 1 -->
<svg width="1869pt" height="646pt"
 viewBox="0.00 0.00 1869.47 646.00" xmlns="http://www.w3.org/2000/svg" xmlns:xlink="http://www.w3.org/1999/xlink">
<g id="graph0" class="graph" transform="scale(1 1) rotate(0) translate(4 642)">
<title>G</title>
<polygon fill="#ffffff" stroke="transparent" points="-4,4 -4,-642 1865.4727,-642 1865.4727,4 -4,4"/>
<!-- 0 -->
<g id="node1" class="node">
<title>0</title>
<text text-anchor="middle" x="86.957" y="-615.8" font-family="Times,serif" font-size="14.00" fill="#000000">0 (None)</text>
</g>
<!-- 21 -->
<g id="node2" class="node">
<title>21</title>
<text text-anchor="middle" x="86.957" y="-529.8" font-family="Times,serif" font-size="14.00" fill="#000000">21 (menitipkan)</text>
</g>
<!-- 0&#45;&gt;21 -->
<g id="edge1" class="edge">
<title>0&#45;&gt;21</title>
<path fill="none" stroke="#000000" d="M86.957,-601.7616C86.957,-590.3597 86.957,-575.4342 86.957,-562.494"/>
<polygon fill="#000000" stroke="#000000" points="90.4571,-562.2121 86.957,-552.2121 83.4571,-562.2121 90.4571,-562.2121"/>
<text text-anchor="middle" x="98.2329" y="-572.8" font-family="Times,serif" font-size="14.00" fill="#000000">root</text>
</g>
<!-- 22 -->
<g id="node23" class="node">
<title>22</title>
<text text-anchor="middle" x="43.957" y="-443.8" font-family="Times,serif" font-size="14.00" fill="#000000">22 (pesanan)</text>
</g>
<!-- 21&#45;&gt;22 -->
<g id="edge22" class="edge">
<title>21&#45;&gt;22</title>
<path fill="none" stroke="#000000" d="M77.8378,-515.7616C71.9658,-504.0176 64.2248,-488.5355 57.6245,-475.3349"/>
<polygon fill="#000000" stroke="#000000" points="60.6658,-473.5911 53.0631,-466.2121 54.4048,-476.7216 60.6658,-473.5911"/>
<text text-anchor="middle" x="77.9019" y="-486.8" font-family="Times,serif" font-size="14.00" fill="#000000">obj</text>
</g>
<!-- 25 -->
<g id="node24" class="node">
<title>25</title>
<text text-anchor="middle" x="142.957" y="-443.8" font-family="Times,serif" font-size="14.00" fill="#000000">25 (orang)</text>
</g>
<!-- 21&#45;&gt;25 -->
<g id="edge23" class="edge">
<title>21&#45;&gt;25</title>
<path fill="none" stroke="#000000" d="M98.8332,-515.7616C106.5547,-503.9036 116.7578,-488.2345 125.4075,-474.951"/>
<polygon fill="#000000" stroke="#000000" points="128.5742,-476.502 131.098,-466.2121 122.7082,-472.6822 128.5742,-476.502"/>
<text text-anchor="middle" x="134.9019" y="-486.8" font-family="Times,serif" font-size="14.00" fill="#000000">nmod</text>
</g>
<!-- 1 -->
<g id="node3" class="node">
<title>1</title>
<text text-anchor="middle" x="694.957" y="-615.8" font-family="Times,serif" font-size="14.00" fill="#000000">1 (Kuala)</text>
</g>
<!-- 2 -->
<g id="node4" class="node">
<title>2</title>
<text text-anchor="middle" x="592.957" y="-529.8" font-family="Times,serif" font-size="14.00" fill="#000000">2 (Lumpur)</text>
</g>
<!-- 1&#45;&gt;2 -->
<g id="edge2" class="edge">
<title>1&#45;&gt;2</title>
<path fill="none" stroke="#000000" d="M673.3255,-601.7616C658.4499,-589.2195 638.5176,-572.4138 622.2251,-558.677"/>
<polygon fill="#000000" stroke="#000000" points="624.4588,-555.9823 614.5574,-552.2121 619.9466,-561.3339 624.4588,-555.9823"/>
<text text-anchor="middle" x="659.9019" y="-572.8" font-family="Times,serif" font-size="14.00" fill="#000000">flat</text>
</g>
<!-- 3 -->
<g id="node5" class="node">
<title>3</title>
<text text-anchor="middle" x="694.957" y="-529.8" font-family="Times,serif" font-size="14.00" fill="#000000">3 (Sempena)</text>
</g>
<!-- 1&#45;&gt;3 -->
<g id="edge3" class="edge">
<title>1&#45;&gt;3</title>
<path fill="none" stroke="#000000" d="M694.957,-601.7616C694.957,-590.3597 694.957,-575.4342 694.957,-562.494"/>
<polygon fill="#000000" stroke="#000000" points="698.4571,-562.2121 694.957,-552.2121 691.4571,-562.2121 698.4571,-562.2121"/>
<text text-anchor="middle" x="703.9019" y="-572.8" font-family="Times,serif" font-size="14.00" fill="#000000">flat</text>
</g>
<!-- 4 -->
<g id="node6" class="node">
<title>4</title>
<text text-anchor="middle" x="703.957" y="-443.8" font-family="Times,serif" font-size="14.00" fill="#000000">4 (sambutan)</text>
</g>
<!-- 3&#45;&gt;4 -->
<g id="edge4" class="edge">
<title>3&#45;&gt;4</title>
<path fill="none" stroke="#000000" d="M694.3974,-515.8874C694.3261,-506.3648 694.589,-494.5162 695.8535,-484 696.1614,-481.4399 696.5727,-478.7949 697.0474,-476.1549"/>
<polygon fill="#000000" stroke="#000000" points="700.5107,-476.6904 699.1073,-466.1889 693.6556,-475.2734 700.5107,-476.6904"/>
<text text-anchor="middle" x="725.5088" y="-486.8" font-family="Times,serif" font-size="14.00" fill="#000000">compound</text>
</g>
<!-- 6 -->
<g id="node7" class="node">
<title>6</title>
<text text-anchor="middle" x="601.957" y="-443.8" font-family="Times,serif" font-size="14.00" fill="#000000">6 (minggu)</text>
</g>
<!-- 3&#45;&gt;6 -->
<g id="edge5" class="edge">
<title>3&#45;&gt;6</title>
<path fill="none" stroke="#000000" d="M656.0505,-515.9755C647.4841,-510.9165 638.8809,-504.885 631.8535,-498 625.2071,-491.4881 619.4766,-483.1991 614.8622,-475.2514"/>
<polygon fill="#000000" stroke="#000000" points="617.8055,-473.3362 609.9698,-466.205 611.6482,-476.6661 617.8055,-473.3362"/>
<text text-anchor="middle" x="661.5088" y="-486.8" font-family="Times,serif" font-size="14.00" fill="#000000">compound</text>
</g>
<!-- 5 -->
<g id="node8" class="node">
<title>5</title>
<text text-anchor="middle" x="757.957" y="-357.8" font-family="Times,serif" font-size="14.00" fill="#000000">5 (Aidilfitri)</text>
</g>
<!-- 4&#45;&gt;5 -->
<g id="edge6" class="edge">
<title>4&#45;&gt;5</title>
<path fill="none" stroke="#000000" d="M715.409,-429.7616C722.8548,-417.9036 732.6935,-402.2345 741.0343,-388.951"/>
<polygon fill="#000000" stroke="#000000" points="744.1679,-390.5422 746.5215,-380.2121 738.2397,-386.8198 744.1679,-390.5422"/>
<text text-anchor="middle" x="743.9019" y="-400.8" font-family="Times,serif" font-size="14.00" fill="#000000">flat</text>
</g>
<!-- 8 -->
<g id="node9" class="node">
<title>8</title>
<text text-anchor="middle" x="601.957" y="-357.8" font-family="Times,serif" font-size="14.00" fill="#000000">8 (Perdana)</text>
</g>
<!-- 6&#45;&gt;8 -->
<g id="edge8" class="edge">
<title>6&#45;&gt;8</title>
<path fill="none" stroke="#000000" d="M601.957,-429.7616C601.957,-418.3597 601.957,-403.4342 601.957,-390.494"/>
<polygon fill="#000000" stroke="#000000" points="605.4571,-390.2121 601.957,-380.2121 598.4571,-390.2121 605.4571,-390.2121"/>
<text text-anchor="middle" x="610.9019" y="-400.8" font-family="Times,serif" font-size="14.00" fill="#000000">flat</text>
</g>
<!-- 5&#45;&gt;1 -->
<g id="edge7" class="edge">
<title>5&#45;&gt;1</title>
<path fill="none" stroke="#000000" d="M760.9006,-380.1682C765.7292,-415.0533 772.5176,-493.1697 747.957,-552 741.5382,-567.375 730.681,-582.2358 720.4588,-594.1227"/>
<polygon fill="#000000" stroke="#000000" points="717.6068,-592.0611 713.5456,-601.8467 722.8227,-596.7295 717.6068,-592.0611"/>
<text text-anchor="middle" x="772.9019" y="-486.8" font-family="Times,serif" font-size="14.00" fill="#000000">flat</text>
</g>
<!-- 7 -->
<g id="node10" class="node">
<title>7</title>
<text text-anchor="middle" x="555.957" y="-271.8" font-family="Times,serif" font-size="14.00" fill="#000000">7 (depan)</text>
</g>
<!-- 8&#45;&gt;7 -->
<g id="edge9" class="edge">
<title>8&#45;&gt;7</title>
<path fill="none" stroke="#000000" d="M588.1453,-343.8012C584.2386,-338.2439 580.1556,-332.0102 576.8535,-326 572.9476,-318.8907 569.3023,-310.8987 566.1853,-303.425"/>
<polygon fill="#000000" stroke="#000000" points="569.3834,-301.9964 562.4143,-294.0163 562.8859,-304.6007 569.3834,-301.9964"/>
<text text-anchor="middle" x="592.5088" y="-314.8" font-family="Times,serif" font-size="14.00" fill="#000000">amod</text>
</g>
<!-- 9 -->
<g id="node11" class="node">
<title>9</title>
<text text-anchor="middle" x="648.957" y="-271.8" font-family="Times,serif" font-size="14.00" fill="#000000">9 (Menteri)</text>
</g>
<!-- 8&#45;&gt;9 -->
<g id="edge10" class="edge">
<title>8&#45;&gt;9</title>
<path fill="none" stroke="#000000" d="M611.9245,-343.7616C618.3428,-332.0176 626.8039,-316.5355 634.0182,-303.3349"/>
<polygon fill="#000000" stroke="#000000" points="637.2795,-304.6657 639.0039,-294.2121 631.1369,-301.3087 637.2795,-304.6657"/>
<text text-anchor="middle" x="637.9019" y="-314.8" font-family="Times,serif" font-size="14.00" fill="#000000">flat</text>
</g>
<!-- 10 -->
<g id="node12" class="node">
<title>10</title>
<text text-anchor="middle" x="648.957" y="-185.8" font-family="Times,serif" font-size="14.00" fill="#000000">10 (Tun)</text>
</g>
<!-- 9&#45;&gt;10 -->
<g id="edge11" class="edge">
<title>9&#45;&gt;10</title>
<path fill="none" stroke="#000000" d="M648.957,-257.7616C648.957,-246.3597 648.957,-231.4342 648.957,-218.494"/>
<polygon fill="#000000" stroke="#000000" points="652.4571,-218.2121 648.957,-208.2121 645.4571,-218.2121 652.4571,-218.2121"/>
<text text-anchor="middle" x="657.9019" y="-228.8" font-family="Times,serif" font-size="14.00" fill="#000000">flat</text>
</g>
<!-- 11 -->
<g id="node13" class="node">
<title>11</title>
<text text-anchor="middle" x="899.957" y="-615.8" font-family="Times,serif" font-size="14.00" fill="#000000">11 (Dr)</text>
</g>
<!-- 11&#45;&gt;11 -->
<g id="edge12" class="edge">
<title>11&#45;&gt;11</title>
<path fill="none" stroke="#000000" d="M928.5899,-627.8731C938.4977,-627.9564 946.499,-625.332 946.499,-620 946.499,-616.6675 943.3735,-614.3926 938.6105,-613.1755"/>
<polygon fill="#000000" stroke="#000000" points="938.8999,-609.6868 928.5899,-612.1269 938.1713,-616.6487 938.8999,-609.6868"/>
<text text-anchor="middle" x="955.4438" y="-615.8" font-family="Times,serif" font-size="14.00" fill="#000000">flat</text>
</g>
<!-- 12 -->
<g id="node14" class="node">
<title>12</title>
<text text-anchor="middle" x="899.957" y="-529.8" font-family="Times,serif" font-size="14.00" fill="#000000">12 (Mahathir)</text>
</g>
<!-- 11&#45;&gt;12 -->
<g id="edge13" class="edge">
<title>11&#45;&gt;12</title>
<path fill="none" stroke="#000000" d="M899.957,-601.7616C899.957,-590.3597 899.957,-575.4342 899.957,-562.494"/>
<polygon fill="#000000" stroke="#000000" points="903.4571,-562.2121 899.957,-552.2121 896.4571,-562.2121 903.4571,-562.2121"/>
<text text-anchor="middle" x="908.9019" y="-572.8" font-family="Times,serif" font-size="14.00" fill="#000000">flat</text>
</g>
<!-- 13 -->
<g id="node15" class="node">
<title>13</title>
<text text-anchor="middle" x="861.957" y="-443.8" font-family="Times,serif" font-size="14.00" fill="#000000">13 (Mohamad)</text>
</g>
<!-- 12&#45;&gt;13 -->
<g id="edge14" class="edge">
<title>12&#45;&gt;13</title>
<path fill="none" stroke="#000000" d="M891.8982,-515.7616C886.7594,-504.1316 880.0007,-488.8357 874.2054,-475.72"/>
<polygon fill="#000000" stroke="#000000" points="877.2473,-473.9444 870.0042,-466.2121 870.8445,-476.7736 877.2473,-473.9444"/>
<text text-anchor="middle" x="892.9019" y="-486.8" font-family="Times,serif" font-size="14.00" fill="#000000">flat</text>
</g>
<!-- 15 -->
<g id="node16" class="node">
<title>15</title>
<text text-anchor="middle" x="972.957" y="-443.8" font-family="Times,serif" font-size="14.00" fill="#000000">15 (Menteri)</text>
</g>
<!-- 12&#45;&gt;15 -->
<g id="edge15" class="edge">
<title>12&#45;&gt;15</title>
<path fill="none" stroke="#000000" d="M915.4385,-515.7616C925.6976,-503.6756 939.3172,-487.6304 950.7282,-474.1874"/>
<polygon fill="#000000" stroke="#000000" points="953.6949,-476.1009 957.4979,-466.2121 948.3582,-471.5709 953.6949,-476.1009"/>
<text text-anchor="middle" x="953.0088" y="-486.8" font-family="Times,serif" font-size="14.00" fill="#000000">conj</text>
</g>
<!-- 14 -->
<g id="node17" class="node">
<title>14</title>
<text text-anchor="middle" x="883.957" y="-357.8" font-family="Times,serif" font-size="14.00" fill="#000000">14 (dan)</text>
</g>
<!-- 15&#45;&gt;14 -->
<g id="edge16" class="edge">
<title>15&#45;&gt;14</title>
<path fill="none" stroke="#000000" d="M954.0824,-429.7616C941.3388,-417.4475 924.3419,-401.0235 910.2734,-387.4293"/>
<polygon fill="#000000" stroke="#000000" points="912.4278,-384.644 902.8044,-380.2121 907.5636,-389.6779 912.4278,-384.644"/>
<text text-anchor="middle" x="940.1709" y="-400.8" font-family="Times,serif" font-size="14.00" fill="#000000">cc</text>
</g>
<!-- 16 -->
<g id="node18" class="node">
<title>16</title>
<text text-anchor="middle" x="994.957" y="-357.8" font-family="Times,serif" font-size="14.00" fill="#000000">16 (Pengangkutan)</text>
</g>
<!-- 15&#45;&gt;16 -->
<g id="edge17" class="edge">
<title>15&#45;&gt;16</title>
<path fill="none" stroke="#000000" d="M977.6227,-429.7616C980.5686,-418.2456 984.434,-403.1353 987.767,-390.1064"/>
<polygon fill="#000000" stroke="#000000" points="991.2105,-390.7676 990.2981,-380.2121 984.4289,-389.0327 991.2105,-390.7676"/>
<text text-anchor="middle" x="994.9019" y="-400.8" font-family="Times,serif" font-size="14.00" fill="#000000">flat</text>
</g>
<!-- 17 -->
<g id="node19" class="node">
<title>17</title>
<text text-anchor="middle" x="909.957" y="-271.8" font-family="Times,serif" font-size="14.00" fill="#000000">17 (Anthony)</text>
</g>
<!-- 16&#45;&gt;17 -->
<g id="edge18" class="edge">
<title>16&#45;&gt;17</title>
<path fill="none" stroke="#000000" d="M976.9307,-343.7616C964.7598,-331.4475 948.5268,-315.0235 935.0906,-301.4293"/>
<polygon fill="#000000" stroke="#000000" points="937.4763,-298.8641 927.9574,-294.2121 932.4977,-303.7848 937.4763,-298.8641"/>
<text text-anchor="middle" x="966.9019" y="-314.8" font-family="Times,serif" font-size="14.00" fill="#000000">flat</text>
</g>
<!-- 18 -->
<g id="node20" class="node">
<title>18</title>
<text text-anchor="middle" x="1009.957" y="-271.8" font-family="Times,serif" font-size="14.00" fill="#000000">18 (Loke)</text>
</g>
<!-- 16&#45;&gt;18 -->
<g id="edge19" class="edge">
<title>16&#45;&gt;18</title>
<path fill="none" stroke="#000000" d="M998.1381,-343.7616C1000.1467,-332.2456 1002.7823,-317.1353 1005.0548,-304.1064"/>
<polygon fill="#000000" stroke="#000000" points="1008.5101,-304.6648 1006.7805,-294.2121 1001.6142,-303.462 1008.5101,-304.6648"/>
<text text-anchor="middle" x="1012.9019" y="-314.8" font-family="Times,serif" font-size="14.00" fill="#000000">flat</text>
</g>
<!-- 19 -->
<g id="node21" class="node">
<title>19</title>
<text text-anchor="middle" x="964.957" y="-185.8" font-family="Times,serif" font-size="14.00" fill="#000000">19 (Siew)</text>
</g>
<!-- 18&#45;&gt;19 -->
<g id="edge20" class="edge">
<title>18&#45;&gt;19</title>
<path fill="none" stroke="#000000" d="M1000.4137,-257.7616C994.2686,-246.0176 986.1675,-230.5355 979.2602,-217.3349"/>
<polygon fill="#000000" stroke="#000000" points="982.224,-215.4497 974.4866,-208.2121 976.0218,-218.6951 982.224,-215.4497"/>
<text text-anchor="middle" x="999.9019" y="-228.8" font-family="Times,serif" font-size="14.00" fill="#000000">flat</text>
</g>
<!-- 20 -->
<g id="node22" class="node">
<title>20</title>
<text text-anchor="middle" x="1053.957" y="-185.8" font-family="Times,serif" font-size="14.00" fill="#000000">20 (Fook)</text>
</g>
<!-- 18&#45;&gt;20 -->
<g id="edge21" class="edge">
<title>18&#45;&gt;20</title>
<path fill="none" stroke="#000000" d="M1019.2883,-257.7616C1025.2969,-246.0176 1033.218,-230.5355 1039.9717,-217.3349"/>
<polygon fill="#000000" stroke="#000000" points="1043.2003,-218.7088 1044.6392,-208.2121 1036.9685,-215.5204 1043.2003,-218.7088"/>
<text text-anchor="middle" x="1043.9019" y="-228.8" font-family="Times,serif" font-size="14.00" fill="#000000">flat</text>
</g>
<!-- 23 -->
<g id="node25" class="node">
<title>23</title>
<text text-anchor="middle" x="43.957" y="-357.8" font-family="Times,serif" font-size="14.00" fill="#000000">23 (khas)</text>
</g>
<!-- 22&#45;&gt;23 -->
<g id="edge24" class="edge">
<title>22&#45;&gt;23</title>
<path fill="none" stroke="#000000" d="M43.957,-429.7616C43.957,-418.3597 43.957,-403.4342 43.957,-390.494"/>
<polygon fill="#000000" stroke="#000000" points="47.4571,-390.2121 43.957,-380.2121 40.4571,-390.2121 47.4571,-390.2121"/>
<text text-anchor="middle" x="59.5088" y="-400.8" font-family="Times,serif" font-size="14.00" fill="#000000">amod</text>
</g>
<!-- 24 -->
<g id="node27" class="node">
<title>24</title>
<text text-anchor="middle" x="139.957" y="-357.8" font-family="Times,serif" font-size="14.00" fill="#000000">24 (kepada)</text>
</g>
<!-- 25&#45;&gt;24 -->
<g id="edge26" class="edge">
<title>25&#45;&gt;24</title>
<path fill="none" stroke="#000000" d="M142.3208,-429.7616C141.9231,-418.3597 141.4024,-403.4342 140.951,-390.494"/>
<polygon fill="#000000" stroke="#000000" points="144.4389,-390.084 140.5923,-380.2121 137.4432,-390.3281 144.4389,-390.084"/>
<text text-anchor="middle" x="154.002" y="-400.8" font-family="Times,serif" font-size="14.00" fill="#000000">case</text>
</g>
<!-- 29 -->
<g id="node28" class="node">
<title>29</title>
<text text-anchor="middle" x="239.957" y="-357.8" font-family="Times,serif" font-size="14.00" fill="#000000">29 (pulang)</text>
</g>
<!-- 25&#45;&gt;29 -->
<g id="edge27" class="edge">
<title>25&#45;&gt;29</title>
<path fill="none" stroke="#000000" d="M163.5282,-429.7616C177.546,-417.3335 196.2856,-400.719 211.7003,-387.0524"/>
<polygon fill="#000000" stroke="#000000" points="214.2548,-389.4651 219.4155,-380.2121 209.6109,-384.2273 214.2548,-389.4651"/>
<text text-anchor="middle" x="206.1157" y="-400.8" font-family="Times,serif" font-size="14.00" fill="#000000">acl</text>
</g>
<!-- 26 -->
<g id="node26" class="node">
<title>26</title>
<text text-anchor="middle" x="43.957" y="-271.8" font-family="Times,serif" font-size="14.00" fill="#000000">26 (ramai)</text>
</g>
<!-- 23&#45;&gt;26 -->
<g id="edge25" class="edge">
<title>23&#45;&gt;26</title>
<path fill="none" stroke="#000000" d="M43.957,-343.7616C43.957,-332.3597 43.957,-317.4342 43.957,-304.494"/>
<polygon fill="#000000" stroke="#000000" points="47.4571,-304.2121 43.957,-294.2121 40.4571,-304.2121 47.4571,-304.2121"/>
<text text-anchor="middle" x="59.5088" y="-314.8" font-family="Times,serif" font-size="14.00" fill="#000000">amod</text>
</g>
<!-- 27 -->
<g id="node29" class="node">
<title>27</title>
<text text-anchor="middle" x="149.957" y="-271.8" font-family="Times,serif" font-size="14.00" fill="#000000">27 (yang)</text>
</g>
<!-- 29&#45;&gt;27 -->
<g id="edge30" class="edge">
<title>29&#45;&gt;27</title>
<path fill="none" stroke="#000000" d="M220.8703,-343.7616C207.9835,-331.4475 190.7956,-315.0235 176.5691,-301.4293"/>
<polygon fill="#000000" stroke="#000000" points="178.6641,-298.5902 169.0162,-294.2121 173.8281,-303.6512 178.6641,-298.5902"/>
<text text-anchor="middle" x="216.126" y="-314.8" font-family="Times,serif" font-size="14.00" fill="#000000">nsubj</text>
</g>
<!-- 28 -->
<g id="node30" class="node">
<title>28</title>
<text text-anchor="middle" x="239.957" y="-271.8" font-family="Times,serif" font-size="14.00" fill="#000000">28 (mahu)</text>
</g>
<!-- 29&#45;&gt;28 -->
<g id="edge31" class="edge">
<title>29&#45;&gt;28</title>
<path fill="none" stroke="#000000" d="M239.957,-343.7616C239.957,-332.3597 239.957,-317.4342 239.957,-304.494"/>
<polygon fill="#000000" stroke="#000000" points="243.4571,-304.2121 239.957,-294.2121 236.4571,-304.2121 243.4571,-304.2121"/>
<text text-anchor="middle" x="262.5088" y="-314.8" font-family="Times,serif" font-size="14.00" fill="#000000">advmod</text>
</g>
<!-- 35 -->
<g id="node33" class="node">
<title>35</title>
<text text-anchor="middle" x="413.957" y="-271.8" font-family="Times,serif" font-size="14.00" fill="#000000">35 (video)</text>
</g>
<!-- 29&#45;&gt;35 -->
<g id="edge32" class="edge">
<title>29&#45;&gt;35</title>
<path fill="none" stroke="#000000" d="M276.4331,-343.9716C303.2297,-330.7273 339.8124,-312.6462 368.5107,-298.462"/>
<polygon fill="#000000" stroke="#000000" points="370.115,-301.5733 377.529,-294.0047 367.0133,-295.2979 370.115,-301.5733"/>
<text text-anchor="middle" x="346.9019" y="-314.8" font-family="Times,serif" font-size="14.00" fill="#000000">obl</text>
</g>
<!-- 31 -->
<g id="node31" class="node">
<title>31</title>
<text text-anchor="middle" x="122.957" y="-185.8" font-family="Times,serif" font-size="14.00" fill="#000000">31 (kampung)</text>
</g>
<!-- 28&#45;&gt;31 -->
<g id="edge28" class="edge">
<title>28&#45;&gt;31</title>
<path fill="none" stroke="#000000" d="M215.43,-257.9716C198.0356,-245.186 174.5088,-227.8928 155.5392,-213.9493"/>
<polygon fill="#000000" stroke="#000000" points="157.5822,-211.1072 147.4518,-208.0047 153.4364,-216.7474 157.5822,-211.1072"/>
<text text-anchor="middle" x="197.9019" y="-228.8" font-family="Times,serif" font-size="14.00" fill="#000000">obl</text>
</g>
<!-- 46 -->
<g id="node32" class="node">
<title>46</title>
<text text-anchor="middle" x="239.957" y="-185.8" font-family="Times,serif" font-size="14.00" fill="#000000">46 (menasihati)</text>
</g>
<!-- 28&#45;&gt;46 -->
<g id="edge29" class="edge">
<title>28&#45;&gt;46</title>
<path fill="none" stroke="#000000" d="M239.957,-257.7616C239.957,-246.3597 239.957,-231.4342 239.957,-218.494"/>
<polygon fill="#000000" stroke="#000000" points="243.4571,-218.2121 239.957,-208.2121 236.4571,-218.2121 243.4571,-218.2121"/>
<text text-anchor="middle" x="258.6157" y="-228.8" font-family="Times,serif" font-size="14.00" fill="#000000">ccomp</text>
</g>
<!-- 30 -->
<g id="node34" class="node">
<title>30</title>
<text text-anchor="middle" x="77.957" y="-99.8" font-family="Times,serif" font-size="14.00" fill="#000000">30 (ke)</text>
</g>
<!-- 31&#45;&gt;30 -->
<g id="edge33" class="edge">
<title>31&#45;&gt;30</title>
<path fill="none" stroke="#000000" d="M111.2844,-171.935C107.788,-166.2759 104.0422,-159.9523 100.8672,-154 97.098,-146.9337 93.3394,-139.1304 89.9889,-131.8317"/>
<polygon fill="#000000" stroke="#000000" points="93.0012,-129.9957 85.7106,-122.3082 86.6159,-132.8643 93.0012,-129.9957"/>
<text text-anchor="middle" x="113.002" y="-142.8" font-family="Times,serif" font-size="14.00" fill="#000000">case</text>
</g>
<!-- 32 -->
<g id="node35" class="node">
<title>32</title>
<text text-anchor="middle" x="168.957" y="-99.8" font-family="Times,serif" font-size="14.00" fill="#000000">32 (halaman)</text>
</g>
<!-- 31&#45;&gt;32 -->
<g id="edge34" class="edge">
<title>31&#45;&gt;32</title>
<path fill="none" stroke="#000000" d="M132.7124,-171.7616C138.9941,-160.0176 147.2753,-144.5355 154.3361,-131.3349"/>
<polygon fill="#000000" stroke="#000000" points="157.5854,-132.6808 159.2157,-122.2121 151.4129,-129.3792 157.5854,-132.6808"/>
<text text-anchor="middle" x="178.5088" y="-142.8" font-family="Times,serif" font-size="14.00" fill="#000000">compound</text>
</g>
<!-- 36 -->
<g id="node38" class="node">
<title>36</title>
<text text-anchor="middle" x="350.957" y="-185.8" font-family="Times,serif" font-size="14.00" fill="#000000">36 (pendek)</text>
</g>
<!-- 35&#45;&gt;36 -->
<g id="edge36" class="edge">
<title>35&#45;&gt;36</title>
<path fill="none" stroke="#000000" d="M400.5964,-257.7616C391.8261,-245.7896 380.2101,-229.9328 370.42,-216.5685"/>
<polygon fill="#000000" stroke="#000000" points="373.0315,-214.2108 364.2985,-208.2121 367.3846,-218.3475 373.0315,-214.2108"/>
<text text-anchor="middle" x="402.5088" y="-228.8" font-family="Times,serif" font-size="14.00" fill="#000000">amod</text>
</g>
<!-- 37 -->
<g id="node39" class="node">
<title>37</title>
<text text-anchor="middle" x="452.957" y="-185.8" font-family="Times,serif" font-size="14.00" fill="#000000">37 (terbitan)</text>
</g>
<!-- 35&#45;&gt;37 -->
<g id="edge37" class="edge">
<title>35&#45;&gt;37</title>
<path fill="none" stroke="#000000" d="M422.2279,-257.7616C427.5537,-246.0176 434.5747,-230.5355 440.561,-217.3349"/>
<polygon fill="#000000" stroke="#000000" points="443.7555,-218.7649 444.6981,-208.2121 437.3804,-215.8739 443.7555,-218.7649"/>
<text text-anchor="middle" x="465.5088" y="-228.8" font-family="Times,serif" font-size="14.00" fill="#000000">compound</text>
</g>
<!-- 38 -->
<g id="node40" class="node">
<title>38</title>
<text text-anchor="middle" x="555.957" y="-185.8" font-family="Times,serif" font-size="14.00" fill="#000000">38 (Jabatan)</text>
</g>
<!-- 35&#45;&gt;38 -->
<g id="edge38" class="edge">
<title>35&#45;&gt;38</title>
<path fill="none" stroke="#000000" d="M451.2137,-263.2052C466.5542,-257.1886 484.1602,-249.284 498.957,-240 510.1075,-233.0038 521.2442,-223.844 530.6764,-215.2784"/>
<polygon fill="#000000" stroke="#000000" points="533.2449,-217.6686 538.1615,-208.2837 528.4654,-212.5542 533.2449,-217.6686"/>
<text text-anchor="middle" x="547.5088" y="-228.8" font-family="Times,serif" font-size="14.00" fill="#000000">compound</text>
</g>
<!-- 33 -->
<g id="node36" class="node">
<title>33</title>
<text text-anchor="middle" x="168.957" y="-13.8" font-family="Times,serif" font-size="14.00" fill="#000000">33 (masing&#45;masing)</text>
</g>
<!-- 32&#45;&gt;33 -->
<g id="edge35" class="edge">
<title>32&#45;&gt;33</title>
<path fill="none" stroke="#000000" d="M168.957,-85.7616C168.957,-74.3597 168.957,-59.4342 168.957,-46.494"/>
<polygon fill="#000000" stroke="#000000" points="172.4571,-46.2121 168.957,-36.2121 165.4571,-46.2121 172.4571,-46.2121"/>
<text text-anchor="middle" x="177.9019" y="-56.8" font-family="Times,serif" font-size="14.00" fill="#000000">flat</text>
</g>
<!-- 34 -->
<g id="node37" class="node">
<title>34</title>
<text text-anchor="middle" x="350.957" y="-99.8" font-family="Times,serif" font-size="14.00" fill="#000000">34 (Dalam)</text>
</g>
<!-- 36&#45;&gt;34 -->
<g id="edge39" class="edge">
<title>36&#45;&gt;34</title>
<path fill="none" stroke="#000000" d="M350.957,-171.7616C350.957,-160.3597 350.957,-145.4342 350.957,-132.494"/>
<polygon fill="#000000" stroke="#000000" points="354.4571,-132.2121 350.957,-122.2121 347.4571,-132.2121 354.4571,-132.2121"/>
<text text-anchor="middle" x="363.002" y="-142.8" font-family="Times,serif" font-size="14.00" fill="#000000">case</text>
</g>
<!-- 39 -->
<g id="node41" class="node">
<title>39</title>
<text text-anchor="middle" x="1483.957" y="-529.8" font-family="Times,serif" font-size="14.00" fill="#000000">39 (Keselamatan)</text>
</g>
<!-- 40 -->
<g id="node42" class="node">
<title>40</title>
<text text-anchor="middle" x="1594.957" y="-529.8" font-family="Times,serif" font-size="14.00" fill="#000000">40 (Jalan)</text>
</g>
<!-- 41 -->
<g id="node43" class="node">
<title>41</title>
<text text-anchor="middle" x="1105.957" y="-271.8" font-family="Times,serif" font-size="14.00" fill="#000000">41 (Raya)</text>
</g>
<!-- 42 -->
<g id="node44" class="node">
<title>42</title>
<text text-anchor="middle" x="1105.957" y="-357.8" font-family="Times,serif" font-size="14.00" fill="#000000">42 (Jkjr)</text>
</g>
<!-- 42&#45;&gt;41 -->
<g id="edge40" class="edge">
<title>42&#45;&gt;41</title>
<path fill="none" stroke="#000000" d="M1105.957,-343.7616C1105.957,-332.3597 1105.957,-317.4342 1105.957,-304.494"/>
<polygon fill="#000000" stroke="#000000" points="1109.4571,-304.2121 1105.957,-294.2121 1102.4571,-304.2121 1109.4571,-304.2121"/>
<text text-anchor="middle" x="1114.9019" y="-314.8" font-family="Times,serif" font-size="14.00" fill="#000000">flat</text>
</g>
<!-- 43 -->
<g id="node45" class="node">
<title>43</title>
<text text-anchor="middle" x="1184.957" y="-357.8" font-family="Times,serif" font-size="14.00" fill="#000000">43 (itu)</text>
</g>
<!-- 44 -->
<g id="node46" class="node">
<title>44</title>
<text text-anchor="middle" x="1163.957" y="-443.8" font-family="Times,serif" font-size="14.00" fill="#000000">44 (Dr)</text>
</g>
<!-- 44&#45;&gt;42 -->
<g id="edge41" class="edge">
<title>44&#45;&gt;42</title>
<path fill="none" stroke="#000000" d="M1151.6567,-429.7616C1143.5826,-417.7896 1132.8885,-401.9328 1123.8753,-388.5685"/>
<polygon fill="#000000" stroke="#000000" points="1126.7328,-386.5458 1118.2396,-380.2121 1120.9293,-390.4598 1126.7328,-386.5458"/>
<text text-anchor="middle" x="1147.9019" y="-400.8" font-family="Times,serif" font-size="14.00" fill="#000000">flat</text>
</g>
<!-- 44&#45;&gt;43 -->
<g id="edge42" class="edge">
<title>44&#45;&gt;43</title>
<path fill="none" stroke="#000000" d="M1168.4106,-429.7616C1171.2226,-418.2456 1174.9124,-403.1353 1178.0938,-390.1064"/>
<polygon fill="#000000" stroke="#000000" points="1181.5378,-390.757 1180.5099,-380.2121 1174.7376,-389.0964 1181.5378,-390.757"/>
<text text-anchor="middle" x="1184.5088" y="-400.8" font-family="Times,serif" font-size="14.00" fill="#000000">det</text>
</g>
<!-- 45 -->
<g id="node47" class="node">
<title>45</title>
<text text-anchor="middle" x="1647.957" y="-615.8" font-family="Times,serif" font-size="14.00" fill="#000000">45 (Mahathir)</text>
</g>
<!-- 45&#45;&gt;45 -->
<g id="edge43" class="edge">
<title>45&#45;&gt;45</title>
<path fill="none" stroke="#000000" d="M1695.0437,-627.663C1705.4493,-626.943 1713.0278,-624.3887 1713.0278,-620 1713.0278,-617.1885 1709.9176,-615.1298 1704.9464,-613.8239"/>
<polygon fill="#000000" stroke="#000000" points="1705.4526,-610.3608 1695.0437,-612.337 1704.4131,-617.2832 1705.4526,-610.3608"/>
<text text-anchor="middle" x="1721.9727" y="-615.8" font-family="Times,serif" font-size="14.00" fill="#000000">flat</text>
</g>
<!-- 47 -->
<g id="node48" class="node">
<title>47</title>
<text text-anchor="middle" x="1365.957" y="-529.8" font-family="Times,serif" font-size="14.00" fill="#000000">47 (mereka)</text>
</g>
<!-- 47&#45;&gt;44 -->
<g id="edge44" class="edge">
<title>47&#45;&gt;44</title>
<path fill="none" stroke="#000000" d="M1323.9364,-518.3775C1307.8075,-512.2284 1289.2793,-504.9786 1272.6191,-498 1240.8205,-484.6803 1233.2393,-480.4909 1201.957,-466 1201.8618,-465.9559 1201.7665,-465.9117 1201.671,-465.8675"/>
<polygon fill="#000000" stroke="#000000" points="1203.1079,-462.6757 1192.5662,-461.616 1200.1462,-469.0183 1203.1079,-462.6757"/>
<text text-anchor="middle" x="1288.126" y="-486.8" font-family="Times,serif" font-size="14.00" fill="#000000">nsubj</text>
</g>
<!-- 54 -->
<g id="node49" class="node">
<title>54</title>
<text text-anchor="middle" x="1258.957" y="-443.8" font-family="Times,serif" font-size="14.00" fill="#000000">54 (sekiranya)</text>
</g>
<!-- 47&#45;&gt;54 -->
<g id="edge45" class="edge">
<title>47&#45;&gt;54</title>
<path fill="none" stroke="#000000" d="M1343.5263,-515.9716C1327.8327,-503.358 1306.6806,-486.3573 1289.4568,-472.5139"/>
<polygon fill="#000000" stroke="#000000" points="1291.3453,-469.5414 1281.3582,-466.0047 1286.96,-474.9975 1291.3453,-469.5414"/>
<text text-anchor="middle" x="1334.126" y="-486.8" font-family="Times,serif" font-size="14.00" fill="#000000">nsubj</text>
</g>
<!-- 48 -->
<g id="node50" class="node">
<title>48</title>
<text text-anchor="middle" x="1365.957" y="-443.8" font-family="Times,serif" font-size="14.00" fill="#000000">48 (supaya)</text>
</g>
<!-- 47&#45;&gt;48 -->
<g id="edge46" class="edge">
<title>47&#45;&gt;48</title>
<path fill="none" stroke="#000000" d="M1365.957,-515.7616C1365.957,-504.3597 1365.957,-489.4342 1365.957,-476.494"/>
<polygon fill="#000000" stroke="#000000" points="1369.4571,-476.2121 1365.957,-466.2121 1362.4571,-476.2121 1369.4571,-476.2121"/>
<text text-anchor="middle" x="1380.3398" y="-486.8" font-family="Times,serif" font-size="14.00" fill="#000000">mark</text>
</g>
<!-- 49 -->
<g id="node51" class="node">
<title>49</title>
<text text-anchor="middle" x="1538.957" y="-615.8" font-family="Times,serif" font-size="14.00" fill="#000000">49 (berhenti)</text>
</g>
<!-- 47&#45;&gt;49 -->
<g id="edge47" class="edge">
<title>47&#45;&gt;49</title>
<path fill="none" stroke="#000000" d="M1402.1758,-552.0047C1428.8067,-565.2432 1465.178,-583.3237 1493.7208,-597.5126"/>
<polygon fill="#000000" stroke="#000000" points="1492.1779,-600.6542 1502.6906,-601.9716 1495.294,-594.386 1492.1779,-600.6542"/>
<text text-anchor="middle" x="1478.1157" y="-572.8" font-family="Times,serif" font-size="14.00" fill="#000000">advcl</text>
</g>
<!-- 50 -->
<g id="node52" class="node">
<title>50</title>
<text text-anchor="middle" x="1466.957" y="-443.8" font-family="Times,serif" font-size="14.00" fill="#000000">50 (berehat)</text>
</g>
<!-- 47&#45;&gt;50 -->
<g id="edge48" class="edge">
<title>47&#45;&gt;50</title>
<path fill="none" stroke="#000000" d="M1387.3765,-515.7616C1401.9723,-503.3335 1421.4847,-486.719 1437.535,-473.0524"/>
<polygon fill="#000000" stroke="#000000" points="1440.2236,-475.36 1445.5684,-466.2121 1435.6855,-470.0303 1440.2236,-475.36"/>
<text text-anchor="middle" x="1431.9019" y="-486.8" font-family="Times,serif" font-size="14.00" fill="#000000">obj</text>
</g>
<!-- 52 -->
<g id="node53" class="node">
<title>52</title>
<text text-anchor="middle" x="1561.957" y="-443.8" font-family="Times,serif" font-size="14.00" fill="#000000">52 (tidur)</text>
</g>
<!-- 47&#45;&gt;52 -->
<g id="edge49" class="edge">
<title>47&#45;&gt;52</title>
<path fill="none" stroke="#000000" d="M1407.0451,-515.9716C1439.4322,-501.7609 1484.5102,-481.9818 1517.6916,-467.4226"/>
<polygon fill="#000000" stroke="#000000" points="1519.3954,-470.4971 1527.1464,-463.274 1516.5828,-464.087 1519.3954,-470.4971"/>
<text text-anchor="middle" x="1488.0088" y="-486.8" font-family="Times,serif" font-size="14.00" fill="#000000">conj</text>
</g>
<!-- 49&#45;&gt;39 -->
<g id="edge50" class="edge">
<title>49&#45;&gt;39</title>
<path fill="none" stroke="#000000" d="M1527.2929,-601.7616C1519.7093,-589.9036 1509.6884,-574.2345 1501.1932,-560.951"/>
<polygon fill="#000000" stroke="#000000" points="1503.9407,-558.7509 1495.6043,-552.2121 1498.0435,-562.5223 1503.9407,-558.7509"/>
<text text-anchor="middle" x="1523.5088" y="-572.8" font-family="Times,serif" font-size="14.00" fill="#000000">det</text>
</g>
<!-- 49&#45;&gt;40 -->
<g id="edge51" class="edge">
<title>49&#45;&gt;40</title>
<path fill="none" stroke="#000000" d="M1550.8332,-601.7616C1558.5547,-589.9036 1568.7578,-574.2345 1577.4075,-560.951"/>
<polygon fill="#000000" stroke="#000000" points="1580.5742,-562.502 1583.098,-552.2121 1574.7082,-558.6822 1580.5742,-562.502"/>
<text text-anchor="middle" x="1586.126" y="-572.8" font-family="Times,serif" font-size="14.00" fill="#000000">nsubj</text>
</g>
<!-- 49&#45;&gt;47 -->
<g id="edge52" class="edge">
<title>49&#45;&gt;47</title>
<path fill="none" stroke="#000000" d="M1494.53,-611.3348C1471.6066,-605.6758 1443.7684,-596.8953 1421.0674,-584 1409.6589,-577.5194 1398.6286,-568.3112 1389.472,-559.5597"/>
<polygon fill="#000000" stroke="#000000" points="1391.8139,-556.9526 1382.2539,-552.3856 1386.8793,-561.9175 1391.8139,-556.9526"/>
<text text-anchor="middle" x="1430.9019" y="-572.8" font-family="Times,serif" font-size="14.00" fill="#000000">obj</text>
</g>
<!-- 53 -->
<g id="node54" class="node">
<title>53</title>
<text text-anchor="middle" x="1693.957" y="-529.8" font-family="Times,serif" font-size="14.00" fill="#000000">53 (sebentar)</text>
</g>
<!-- 49&#45;&gt;53 -->
<g id="edge53" class="edge">
<title>49&#45;&gt;53</title>
<path fill="none" stroke="#000000" d="M1572.2388,-601.9515C1582.7233,-596.2376 1594.3373,-589.879 1604.957,-584 1620.6223,-575.3277 1637.7847,-565.713 1652.8227,-557.2504"/>
<polygon fill="#000000" stroke="#000000" points="1654.8842,-560.1063 1661.8791,-552.1488 1651.4485,-554.0074 1654.8842,-560.1063"/>
<text text-anchor="middle" x="1652.5088" y="-572.8" font-family="Times,serif" font-size="14.00" fill="#000000">advmod</text>
</g>
<!-- 55 -->
<g id="node55" class="node">
<title>55</title>
<text text-anchor="middle" x="1808.957" y="-529.8" font-family="Times,serif" font-size="14.00" fill="#000000">55 (mengantuk)</text>
</g>
<!-- 49&#45;&gt;55 -->
<g id="edge54" class="edge">
<title>49&#45;&gt;55</title>
<path fill="none" stroke="#000000" d="M1583.3672,-604.4735C1586.2625,-603.5988 1589.1441,-602.7655 1591.957,-602 1630.0569,-591.6313 1641.0709,-595.1242 1678.957,-584 1705.3649,-576.2461 1733.988,-565.5034 1757.6366,-555.9623"/>
<polygon fill="#000000" stroke="#000000" points="1759.172,-559.116 1767.1092,-552.098 1756.5279,-552.6346 1759.172,-559.116"/>
<text text-anchor="middle" x="1734.1157" y="-572.8" font-family="Times,serif" font-size="14.00" fill="#000000">advcl</text>
</g>
<!-- 51 -->
<g id="node56" class="node">
<title>51</title>
<text text-anchor="middle" x="1561.957" y="-357.8" font-family="Times,serif" font-size="14.00" fill="#000000">51 (dan)</text>
</g>
<!-- 52&#45;&gt;51 -->
<g id="edge55" class="edge">
<title>52&#45;&gt;51</title>
<path fill="none" stroke="#000000" d="M1561.957,-429.7616C1561.957,-418.3597 1561.957,-403.4342 1561.957,-390.494"/>
<polygon fill="#000000" stroke="#000000" points="1565.4571,-390.2121 1561.957,-380.2121 1558.4571,-390.2121 1565.4571,-390.2121"/>
<text text-anchor="middle" x="1568.1709" y="-400.8" font-family="Times,serif" font-size="14.00" fill="#000000">cc</text>
</g>
<!-- 57 -->
<g id="node57" class="node">
<title>57</title>
<text text-anchor="middle" x="1693.957" y="-443.8" font-family="Times,serif" font-size="14.00" fill="#000000">57 (memandu)</text>
</g>
<!-- 53&#45;&gt;57 -->
<g id="edge56" class="edge">
<title>53&#45;&gt;57</title>
<path fill="none" stroke="#000000" d="M1693.957,-515.7616C1693.957,-504.3597 1693.957,-489.4342 1693.957,-476.494"/>
<polygon fill="#000000" stroke="#000000" points="1697.4571,-476.2121 1693.957,-466.2121 1690.4571,-476.2121 1697.4571,-476.2121"/>
<text text-anchor="middle" x="1709.1157" y="-486.8" font-family="Times,serif" font-size="14.00" fill="#000000">advcl</text>
</g>
<!-- 56 -->
<g id="node58" class="node">
<title>56</title>
<text text-anchor="middle" x="1808.957" y="-443.8" font-family="Times,serif" font-size="14.00" fill="#000000">56 (ketika)</text>
</g>
<!-- 55&#45;&gt;56 -->
<g id="edge57" class="edge">
<title>55&#45;&gt;56</title>
<path fill="none" stroke="#000000" d="M1808.957,-515.7616C1808.957,-504.3597 1808.957,-489.4342 1808.957,-476.494"/>
<polygon fill="#000000" stroke="#000000" points="1812.4571,-476.2121 1808.957,-466.2121 1805.4571,-476.2121 1812.4571,-476.2121"/>
<text text-anchor="middle" x="1823.3398" y="-486.8" font-family="Times,serif" font-size="14.00" fill="#000000">mark</text>
</g>
</g>
</svg>
