<?xml version="1.0" encoding="UTF-8" standalone="no"?>
<!DOCTYPE svg PUBLIC "-//W3C//DTD SVG 1.1//EN"
 "http://www.w3.org/Graphics/SVG/1.1/DTD/svg11.dtd">
<!-- Generated by graphviz version 2.40.1 (20161225.0304)
 -->
<!-- Title: G Pages: 1 -->
<svg width="2295pt" height="818pt"
 viewBox="0.00 0.00 2295.47 818.00" xmlns="http://www.w3.org/2000/svg" xmlns:xlink="http://www.w3.org/1999/xlink">
<g id="graph0" class="graph" transform="scale(1 1) rotate(0) translate(4 814)">
<title>G</title>
<polygon fill="#ffffff" stroke="transparent" points="-4,4 -4,-814 2291.4658,-814 2291.4658,4 -4,4"/>
<!-- 0 -->
<g id="node1" class="node">
<title>0</title>
<text text-anchor="middle" x="138.2329" y="-787.8" font-family="Times,serif" font-size="14.00" fill="#000000">0 (None)</text>
</g>
<!-- 21 -->
<g id="node2" class="node">
<title>21</title>
<text text-anchor="middle" x="138.2329" y="-701.8" font-family="Times,serif" font-size="14.00" fill="#000000">21 (menitipkan)</text>
</g>
<!-- 0&#45;&gt;21 -->
<g id="edge1" class="edge">
<title>0&#45;&gt;21</title>
<path fill="none" stroke="#000000" d="M138.2329,-773.7616C138.2329,-762.3597 138.2329,-747.4342 138.2329,-734.494"/>
<polygon fill="#000000" stroke="#000000" points="141.733,-734.2121 138.2329,-724.2121 134.733,-734.2121 141.733,-734.2121"/>
<text text-anchor="middle" x="149.5088" y="-744.8" font-family="Times,serif" font-size="14.00" fill="#000000">root</text>
</g>
<!-- 25 -->
<g id="node23" class="node">
<title>25</title>
<text text-anchor="middle" x="138.2329" y="-615.8" font-family="Times,serif" font-size="14.00" fill="#000000">25 (orang)</text>
</g>
<!-- 21&#45;&gt;25 -->
<g id="edge22" class="edge">
<title>21&#45;&gt;25</title>
<path fill="none" stroke="#000000" d="M138.2329,-687.7616C138.2329,-676.3597 138.2329,-661.4342 138.2329,-648.494"/>
<polygon fill="#000000" stroke="#000000" points="141.733,-648.2121 138.2329,-638.2121 134.733,-648.2121 141.733,-648.2121"/>
<text text-anchor="middle" x="154.1777" y="-658.8" font-family="Times,serif" font-size="14.00" fill="#000000">nmod</text>
</g>
<!-- 1 -->
<g id="node3" class="node">
<title>1</title>
<text text-anchor="middle" x="753.2329" y="-787.8" font-family="Times,serif" font-size="14.00" fill="#000000">1 (Kuala)</text>
</g>
<!-- 2 -->
<g id="node4" class="node">
<title>2</title>
<text text-anchor="middle" x="601.2329" y="-701.8" font-family="Times,serif" font-size="14.00" fill="#000000">2 (Lumpur)</text>
</g>
<!-- 1&#45;&gt;2 -->
<g id="edge2" class="edge">
<title>1&#45;&gt;2</title>
<path fill="none" stroke="#000000" d="M721.3687,-773.9716C698.2642,-760.8993 666.8316,-743.115 641.9133,-729.0165"/>
<polygon fill="#000000" stroke="#000000" points="643.4822,-725.8829 633.0551,-724.0047 640.0351,-731.9753 643.4822,-725.8829"/>
<text text-anchor="middle" x="696.1777" y="-744.8" font-family="Times,serif" font-size="14.00" fill="#000000">flat</text>
</g>
<!-- 3 -->
<g id="node5" class="node">
<title>3</title>
<text text-anchor="middle" x="703.2329" y="-701.8" font-family="Times,serif" font-size="14.00" fill="#000000">3 (Sempena)</text>
</g>
<!-- 1&#45;&gt;3 -->
<g id="edge3" class="edge">
<title>1&#45;&gt;3</title>
<path fill="none" stroke="#000000" d="M742.6292,-773.7616C735.735,-761.9036 726.6251,-746.2345 718.9021,-732.951"/>
<polygon fill="#000000" stroke="#000000" points="721.8734,-731.098 713.8213,-724.2121 715.8218,-734.6164 721.8734,-731.098"/>
<text text-anchor="middle" x="740.1777" y="-744.8" font-family="Times,serif" font-size="14.00" fill="#000000">flat</text>
</g>
<!-- 8 -->
<g id="node6" class="node">
<title>8</title>
<text text-anchor="middle" x="805.2329" y="-701.8" font-family="Times,serif" font-size="14.00" fill="#000000">8 (Perdana)</text>
</g>
<!-- 1&#45;&gt;8 -->
<g id="edge4" class="edge">
<title>1&#45;&gt;8</title>
<path fill="none" stroke="#000000" d="M764.2608,-773.7616C771.4307,-761.9036 780.9051,-746.2345 788.9369,-732.951"/>
<polygon fill="#000000" stroke="#000000" points="792.0418,-734.5804 794.2209,-724.2121 786.0516,-730.9584 792.0418,-734.5804"/>
<text text-anchor="middle" x="792.1777" y="-744.8" font-family="Times,serif" font-size="14.00" fill="#000000">flat</text>
</g>
<!-- 4 -->
<g id="node7" class="node">
<title>4</title>
<text text-anchor="middle" x="679.2329" y="-615.8" font-family="Times,serif" font-size="14.00" fill="#000000">4 (sambutan)</text>
</g>
<!-- 3&#45;&gt;4 -->
<g id="edge5" class="edge">
<title>3&#45;&gt;4</title>
<path fill="none" stroke="#000000" d="M698.1431,-687.7616C694.9294,-676.2456 690.7125,-661.1353 687.0766,-648.1064"/>
<polygon fill="#000000" stroke="#000000" points="690.3746,-646.9032 684.3154,-638.2121 683.6322,-648.7849 690.3746,-646.9032"/>
<text text-anchor="middle" x="705.2778" y="-658.8" font-family="Times,serif" font-size="14.00" fill="#000000">case</text>
</g>
<!-- 9 -->
<g id="node12" class="node">
<title>9</title>
<text text-anchor="middle" x="805.2329" y="-615.8" font-family="Times,serif" font-size="14.00" fill="#000000">9 (Menteri)</text>
</g>
<!-- 8&#45;&gt;9 -->
<g id="edge10" class="edge">
<title>8&#45;&gt;9</title>
<path fill="none" stroke="#000000" d="M805.2329,-687.7616C805.2329,-676.3597 805.2329,-661.4342 805.2329,-648.494"/>
<polygon fill="#000000" stroke="#000000" points="808.733,-648.2121 805.2329,-638.2121 801.733,-648.2121 808.733,-648.2121"/>
<text text-anchor="middle" x="814.1777" y="-658.8" font-family="Times,serif" font-size="14.00" fill="#000000">flat</text>
</g>
<!-- 5 -->
<g id="node8" class="node">
<title>5</title>
<text text-anchor="middle" x="579.2329" y="-529.8" font-family="Times,serif" font-size="14.00" fill="#000000">5 (Aidilfitri)</text>
</g>
<!-- 4&#45;&gt;5 -->
<g id="edge6" class="edge">
<title>4&#45;&gt;5</title>
<path fill="none" stroke="#000000" d="M658.0255,-601.7616C643.5742,-589.3335 624.2551,-572.719 608.3636,-559.0524"/>
<polygon fill="#000000" stroke="#000000" points="610.2738,-556.0789 600.4098,-552.2121 605.7095,-561.3862 610.2738,-556.0789"/>
<text text-anchor="middle" x="644.1777" y="-572.8" font-family="Times,serif" font-size="14.00" fill="#000000">flat</text>
</g>
<!-- 6 -->
<g id="node9" class="node">
<title>6</title>
<text text-anchor="middle" x="679.2329" y="-529.8" font-family="Times,serif" font-size="14.00" fill="#000000">6 (minggu)</text>
</g>
<!-- 4&#45;&gt;6 -->
<g id="edge7" class="edge">
<title>4&#45;&gt;6</title>
<path fill="none" stroke="#000000" d="M679.2329,-601.7616C679.2329,-590.3597 679.2329,-575.4342 679.2329,-562.494"/>
<polygon fill="#000000" stroke="#000000" points="682.733,-562.2121 679.2329,-552.2121 675.733,-562.2121 682.733,-562.2121"/>
<text text-anchor="middle" x="695.1777" y="-572.8" font-family="Times,serif" font-size="14.00" fill="#000000">nmod</text>
</g>
<!-- 7 -->
<g id="node10" class="node">
<title>7</title>
<text text-anchor="middle" x="579.2329" y="-443.8" font-family="Times,serif" font-size="14.00" fill="#000000">7 (depan)</text>
</g>
<!-- 5&#45;&gt;7 -->
<g id="edge8" class="edge">
<title>5&#45;&gt;7</title>
<path fill="none" stroke="#000000" d="M579.2329,-515.7616C579.2329,-504.3597 579.2329,-489.4342 579.2329,-476.494"/>
<polygon fill="#000000" stroke="#000000" points="582.733,-476.2121 579.2329,-466.2121 575.733,-476.2121 582.733,-476.2121"/>
<text text-anchor="middle" x="591.2778" y="-486.8" font-family="Times,serif" font-size="14.00" fill="#000000">case</text>
</g>
<!-- 15 -->
<g id="node11" class="node">
<title>15</title>
<text text-anchor="middle" x="579.2329" y="-357.8" font-family="Times,serif" font-size="14.00" fill="#000000">15 (Menteri)</text>
</g>
<!-- 7&#45;&gt;15 -->
<g id="edge9" class="edge">
<title>7&#45;&gt;15</title>
<path fill="none" stroke="#000000" d="M579.2329,-429.7616C579.2329,-418.3597 579.2329,-403.4342 579.2329,-390.494"/>
<polygon fill="#000000" stroke="#000000" points="582.733,-390.2121 579.2329,-380.2121 575.733,-390.2121 582.733,-390.2121"/>
<text text-anchor="middle" x="591.2847" y="-400.8" font-family="Times,serif" font-size="14.00" fill="#000000">conj</text>
</g>
<!-- 14 -->
<g id="node17" class="node">
<title>14</title>
<text text-anchor="middle" x="542.2329" y="-271.8" font-family="Times,serif" font-size="14.00" fill="#000000">14 (dan)</text>
</g>
<!-- 15&#45;&gt;14 -->
<g id="edge16" class="edge">
<title>15&#45;&gt;14</title>
<path fill="none" stroke="#000000" d="M571.3862,-343.7616C566.3826,-332.1316 559.8018,-316.8357 554.159,-303.72"/>
<polygon fill="#000000" stroke="#000000" points="557.2356,-302.0148 550.0683,-294.2121 550.8054,-304.7813 557.2356,-302.0148"/>
<text text-anchor="middle" x="569.4468" y="-314.8" font-family="Times,serif" font-size="14.00" fill="#000000">cc</text>
</g>
<!-- 16 -->
<g id="node18" class="node">
<title>16</title>
<text text-anchor="middle" x="653.2329" y="-271.8" font-family="Times,serif" font-size="14.00" fill="#000000">16 (Pengangkutan)</text>
</g>
<!-- 15&#45;&gt;16 -->
<g id="edge17" class="edge">
<title>15&#45;&gt;16</title>
<path fill="none" stroke="#000000" d="M594.9264,-343.7616C605.4242,-331.5615 619.3931,-315.3273 631.0264,-301.8076"/>
<polygon fill="#000000" stroke="#000000" points="633.6926,-304.0751 637.562,-294.2121 628.3865,-299.5094 633.6926,-304.0751"/>
<text text-anchor="middle" x="630.1777" y="-314.8" font-family="Times,serif" font-size="14.00" fill="#000000">flat</text>
</g>
<!-- 10 -->
<g id="node13" class="node">
<title>10</title>
<text text-anchor="middle" x="769.2329" y="-529.8" font-family="Times,serif" font-size="14.00" fill="#000000">10 (Tun)</text>
</g>
<!-- 9&#45;&gt;10 -->
<g id="edge11" class="edge">
<title>9&#45;&gt;10</title>
<path fill="none" stroke="#000000" d="M797.0313,-601.7369C794.5242,-596.0696 791.7852,-589.7914 789.3433,-584 786.2942,-576.7689 783.0844,-568.9088 780.1464,-561.6082"/>
<polygon fill="#000000" stroke="#000000" points="783.3117,-560.0971 776.3492,-552.1111 776.8119,-562.6959 783.3117,-560.0971"/>
<text text-anchor="middle" x="799.1777" y="-572.8" font-family="Times,serif" font-size="14.00" fill="#000000">flat</text>
</g>
<!-- 11 -->
<g id="node14" class="node">
<title>11</title>
<text text-anchor="middle" x="848.2329" y="-529.8" font-family="Times,serif" font-size="14.00" fill="#000000">11 (Dr)</text>
</g>
<!-- 9&#45;&gt;11 -->
<g id="edge12" class="edge">
<title>9&#45;&gt;11</title>
<path fill="none" stroke="#000000" d="M814.3521,-601.7616C820.2241,-590.0176 827.9652,-574.5355 834.5655,-561.3349"/>
<polygon fill="#000000" stroke="#000000" points="837.7852,-562.7216 839.1269,-552.2121 831.5242,-559.5911 837.7852,-562.7216"/>
<text text-anchor="middle" x="839.1777" y="-572.8" font-family="Times,serif" font-size="14.00" fill="#000000">flat</text>
</g>
<!-- 12 -->
<g id="node15" class="node">
<title>12</title>
<text text-anchor="middle" x="834.2329" y="-443.8" font-family="Times,serif" font-size="14.00" fill="#000000">12 (Mahathir)</text>
</g>
<!-- 11&#45;&gt;12 -->
<g id="edge13" class="edge">
<title>11&#45;&gt;12</title>
<path fill="none" stroke="#000000" d="M845.2639,-515.7616C843.3892,-504.2456 840.9294,-489.1353 838.8084,-476.1064"/>
<polygon fill="#000000" stroke="#000000" points="842.259,-475.5198 837.1977,-466.2121 835.35,-476.6446 842.259,-475.5198"/>
<text text-anchor="middle" x="851.1777" y="-486.8" font-family="Times,serif" font-size="14.00" fill="#000000">flat</text>
</g>
<!-- 13 -->
<g id="node16" class="node">
<title>13</title>
<text text-anchor="middle" x="882.2329" y="-357.8" font-family="Times,serif" font-size="14.00" fill="#000000">13 (Mohamad)</text>
</g>
<!-- 12&#45;&gt;13 -->
<g id="edge14" class="edge">
<title>12&#45;&gt;13</title>
<path fill="none" stroke="#000000" d="M844.4125,-429.7616C851.0309,-417.9036 859.7764,-402.2345 867.1905,-388.951"/>
<polygon fill="#000000" stroke="#000000" points="870.2505,-390.6499 872.068,-380.2121 864.1381,-387.2383 870.2505,-390.6499"/>
<text text-anchor="middle" x="870.1777" y="-400.8" font-family="Times,serif" font-size="14.00" fill="#000000">flat</text>
</g>
<!-- 13&#45;&gt;1 -->
<g id="edge15" class="edge">
<title>13&#45;&gt;1</title>
<path fill="none" stroke="#000000" d="M891.5248,-380.2696C899.3349,-397.3335 909.2329,-423.7439 909.2329,-448 909.2329,-706 909.2329,-706 909.2329,-706 909.2329,-757.0342 844.412,-778.009 798.3382,-786.4717"/>
<polygon fill="#000000" stroke="#000000" points="797.5159,-783.0611 788.2424,-788.1847 798.687,-789.9625 797.5159,-783.0611"/>
<text text-anchor="middle" x="918.1777" y="-572.8" font-family="Times,serif" font-size="14.00" fill="#000000">flat</text>
</g>
<!-- 17 -->
<g id="node19" class="node">
<title>17</title>
<text text-anchor="middle" x="618.2329" y="-185.8" font-family="Times,serif" font-size="14.00" fill="#000000">17 (Anthony)</text>
</g>
<!-- 16&#45;&gt;17 -->
<g id="edge18" class="edge">
<title>16&#45;&gt;17</title>
<path fill="none" stroke="#000000" d="M645.8103,-257.7616C641.0772,-246.1316 634.8521,-230.8357 629.5143,-217.72"/>
<polygon fill="#000000" stroke="#000000" points="632.6562,-216.1551 625.6448,-208.2121 626.1726,-218.7938 632.6562,-216.1551"/>
<text text-anchor="middle" x="647.1777" y="-228.8" font-family="Times,serif" font-size="14.00" fill="#000000">flat</text>
</g>
<!-- 18 -->
<g id="node20" class="node">
<title>18</title>
<text text-anchor="middle" x="718.2329" y="-185.8" font-family="Times,serif" font-size="14.00" fill="#000000">18 (Loke)</text>
</g>
<!-- 16&#45;&gt;18 -->
<g id="edge19" class="edge">
<title>16&#45;&gt;18</title>
<path fill="none" stroke="#000000" d="M667.0177,-257.7616C676.0664,-245.7896 688.0511,-229.9328 698.152,-216.5685"/>
<polygon fill="#000000" stroke="#000000" points="701.2305,-218.3002 704.468,-208.2121 695.6461,-214.0794 701.2305,-218.3002"/>
<text text-anchor="middle" x="699.1777" y="-228.8" font-family="Times,serif" font-size="14.00" fill="#000000">flat</text>
</g>
<!-- 19 -->
<g id="node21" class="node">
<title>19</title>
<text text-anchor="middle" x="718.2329" y="-99.8" font-family="Times,serif" font-size="14.00" fill="#000000">19 (Siew)</text>
</g>
<!-- 18&#45;&gt;19 -->
<g id="edge20" class="edge">
<title>18&#45;&gt;19</title>
<path fill="none" stroke="#000000" d="M718.2329,-171.7616C718.2329,-160.3597 718.2329,-145.4342 718.2329,-132.494"/>
<polygon fill="#000000" stroke="#000000" points="721.733,-132.2121 718.2329,-122.2121 714.733,-132.2121 721.733,-132.2121"/>
<text text-anchor="middle" x="727.1777" y="-142.8" font-family="Times,serif" font-size="14.00" fill="#000000">flat</text>
</g>
<!-- 20 -->
<g id="node22" class="node">
<title>20</title>
<text text-anchor="middle" x="718.2329" y="-13.8" font-family="Times,serif" font-size="14.00" fill="#000000">20 (Fook)</text>
</g>
<!-- 19&#45;&gt;20 -->
<g id="edge21" class="edge">
<title>19&#45;&gt;20</title>
<path fill="none" stroke="#000000" d="M718.2329,-85.7616C718.2329,-74.3597 718.2329,-59.4342 718.2329,-46.494"/>
<polygon fill="#000000" stroke="#000000" points="721.733,-46.2121 718.2329,-36.2121 714.733,-46.2121 721.733,-46.2121"/>
<text text-anchor="middle" x="727.1777" y="-56.8" font-family="Times,serif" font-size="14.00" fill="#000000">flat</text>
</g>
<!-- 24 -->
<g id="node26" class="node">
<title>24</title>
<text text-anchor="middle" x="41.2329" y="-529.8" font-family="Times,serif" font-size="14.00" fill="#000000">24 (kepada)</text>
</g>
<!-- 25&#45;&gt;24 -->
<g id="edge25" class="edge">
<title>25&#45;&gt;24</title>
<path fill="none" stroke="#000000" d="M117.6617,-601.7616C103.6439,-589.3335 84.9044,-572.719 69.4897,-559.0524"/>
<polygon fill="#000000" stroke="#000000" points="71.579,-556.2273 61.7745,-552.2121 66.9352,-561.4651 71.579,-556.2273"/>
<text text-anchor="middle" x="108.2778" y="-572.8" font-family="Times,serif" font-size="14.00" fill="#000000">case</text>
</g>
<!-- 26 -->
<g id="node27" class="node">
<title>26</title>
<text text-anchor="middle" x="138.2329" y="-529.8" font-family="Times,serif" font-size="14.00" fill="#000000">26 (ramai)</text>
</g>
<!-- 25&#45;&gt;26 -->
<g id="edge26" class="edge">
<title>25&#45;&gt;26</title>
<path fill="none" stroke="#000000" d="M138.2329,-601.7616C138.2329,-590.3597 138.2329,-575.4342 138.2329,-562.494"/>
<polygon fill="#000000" stroke="#000000" points="141.733,-562.2121 138.2329,-552.2121 134.733,-562.2121 141.733,-562.2121"/>
<text text-anchor="middle" x="153.7847" y="-572.8" font-family="Times,serif" font-size="14.00" fill="#000000">amod</text>
</g>
<!-- 29 -->
<g id="node28" class="node">
<title>29</title>
<text text-anchor="middle" x="234.2329" y="-529.8" font-family="Times,serif" font-size="14.00" fill="#000000">29 (pulang)</text>
</g>
<!-- 25&#45;&gt;29 -->
<g id="edge27" class="edge">
<title>25&#45;&gt;29</title>
<path fill="none" stroke="#000000" d="M158.592,-601.7616C172.4653,-589.3335 191.0117,-572.719 206.2675,-559.0524"/>
<polygon fill="#000000" stroke="#000000" points="208.7901,-561.4915 213.9031,-552.2121 204.1194,-556.2777 208.7901,-561.4915"/>
<text text-anchor="middle" x="200.3916" y="-572.8" font-family="Times,serif" font-size="14.00" fill="#000000">acl</text>
</g>
<!-- 22 -->
<g id="node24" class="node">
<title>22</title>
<text text-anchor="middle" x="971.2329" y="-787.8" font-family="Times,serif" font-size="14.00" fill="#000000">22 (pesanan)</text>
</g>
<!-- 22&#45;&gt;22 -->
<g id="edge23" class="edge">
<title>22&#45;&gt;22</title>
<path fill="none" stroke="#000000" d="M1015.2268,-799.7193C1025.5638,-799.0848 1033.1899,-796.5117 1033.1899,-792 1033.1899,-789.1802 1030.211,-787.1176 1025.4531,-785.8124"/>
<polygon fill="#000000" stroke="#000000" points="1025.635,-782.3006 1015.2268,-784.2807 1024.598,-789.2234 1025.635,-782.3006"/>
<text text-anchor="middle" x="1042.1348" y="-787.8" font-family="Times,serif" font-size="14.00" fill="#000000">obj</text>
</g>
<!-- 23 -->
<g id="node25" class="node">
<title>23</title>
<text text-anchor="middle" x="971.2329" y="-701.8" font-family="Times,serif" font-size="14.00" fill="#000000">23 (khas)</text>
</g>
<!-- 22&#45;&gt;23 -->
<g id="edge24" class="edge">
<title>22&#45;&gt;23</title>
<path fill="none" stroke="#000000" d="M971.2329,-773.7616C971.2329,-762.3597 971.2329,-747.4342 971.2329,-734.494"/>
<polygon fill="#000000" stroke="#000000" points="974.733,-734.2121 971.2329,-724.2121 967.733,-734.2121 974.733,-734.2121"/>
<text text-anchor="middle" x="986.7847" y="-744.8" font-family="Times,serif" font-size="14.00" fill="#000000">amod</text>
</g>
<!-- 31 -->
<g id="node31" class="node">
<title>31</title>
<text text-anchor="middle" x="234.2329" y="-443.8" font-family="Times,serif" font-size="14.00" fill="#000000">31 (kampung)</text>
</g>
<!-- 29&#45;&gt;31 -->
<g id="edge29" class="edge">
<title>29&#45;&gt;31</title>
<path fill="none" stroke="#000000" d="M234.2329,-515.7616C234.2329,-504.3597 234.2329,-489.4342 234.2329,-476.494"/>
<polygon fill="#000000" stroke="#000000" points="237.733,-476.2121 234.2329,-466.2121 230.733,-476.2121 237.733,-476.2121"/>
<text text-anchor="middle" x="243.1777" y="-486.8" font-family="Times,serif" font-size="14.00" fill="#000000">obl</text>
</g>
<!-- 27 -->
<g id="node29" class="node">
<title>27</title>
<text text-anchor="middle" x="60.2329" y="-271.8" font-family="Times,serif" font-size="14.00" fill="#000000">27 (yang)</text>
</g>
<!-- 28 -->
<g id="node30" class="node">
<title>28</title>
<text text-anchor="middle" x="60.2329" y="-357.8" font-family="Times,serif" font-size="14.00" fill="#000000">28 (mahu)</text>
</g>
<!-- 28&#45;&gt;27 -->
<g id="edge28" class="edge">
<title>28&#45;&gt;27</title>
<path fill="none" stroke="#000000" d="M60.2329,-343.7616C60.2329,-332.3597 60.2329,-317.4342 60.2329,-304.494"/>
<polygon fill="#000000" stroke="#000000" points="63.733,-304.2121 60.2329,-294.2121 56.733,-304.2121 63.733,-304.2121"/>
<text text-anchor="middle" x="75.4019" y="-314.8" font-family="Times,serif" font-size="14.00" fill="#000000">nsubj</text>
</g>
<!-- 31&#45;&gt;28 -->
<g id="edge30" class="edge">
<title>31&#45;&gt;28</title>
<path fill="none" stroke="#000000" d="M186.6252,-433.3093C169.97,-427.4948 151.3804,-420.2251 135.1294,-412 120.6222,-404.6575 105.5412,-395.0288 92.747,-386.1833"/>
<polygon fill="#000000" stroke="#000000" points="94.48,-383.1228 84.2899,-380.2223 90.4471,-388.8443 94.48,-383.1228"/>
<text text-anchor="middle" x="157.7847" y="-400.8" font-family="Times,serif" font-size="14.00" fill="#000000">advmod</text>
</g>
<!-- 30 -->
<g id="node32" class="node">
<title>30</title>
<text text-anchor="middle" x="143.2329" y="-357.8" font-family="Times,serif" font-size="14.00" fill="#000000">30 (ke)</text>
</g>
<!-- 31&#45;&gt;30 -->
<g id="edge31" class="edge">
<title>31&#45;&gt;30</title>
<path fill="none" stroke="#000000" d="M214.9342,-429.7616C201.9041,-417.4475 184.5253,-401.0235 170.1406,-387.4293"/>
<polygon fill="#000000" stroke="#000000" points="172.1758,-384.5369 162.5039,-380.2121 167.3678,-389.6245 172.1758,-384.5369"/>
<text text-anchor="middle" x="206.2778" y="-400.8" font-family="Times,serif" font-size="14.00" fill="#000000">case</text>
</g>
<!-- 32 -->
<g id="node33" class="node">
<title>32</title>
<text text-anchor="middle" x="234.2329" y="-357.8" font-family="Times,serif" font-size="14.00" fill="#000000">32 (halaman)</text>
</g>
<!-- 31&#45;&gt;32 -->
<g id="edge32" class="edge">
<title>31&#45;&gt;32</title>
<path fill="none" stroke="#000000" d="M234.2329,-429.7616C234.2329,-418.3597 234.2329,-403.4342 234.2329,-390.494"/>
<polygon fill="#000000" stroke="#000000" points="237.733,-390.2121 234.2329,-380.2121 230.733,-390.2121 237.733,-390.2121"/>
<text text-anchor="middle" x="263.7847" y="-400.8" font-family="Times,serif" font-size="14.00" fill="#000000">compound</text>
</g>
<!-- 33 -->
<g id="node34" class="node">
<title>33</title>
<text text-anchor="middle" x="361.2329" y="-357.8" font-family="Times,serif" font-size="14.00" fill="#000000">33 (masing&#45;masing)</text>
</g>
<!-- 31&#45;&gt;33 -->
<g id="edge33" class="edge">
<title>31&#45;&gt;33</title>
<path fill="none" stroke="#000000" d="M268.1261,-429.8196C277.708,-424.3631 288.0287,-418.1784 297.2329,-412 308.7799,-404.249 320.9295,-395.0485 331.5034,-386.666"/>
<polygon fill="#000000" stroke="#000000" points="333.9975,-389.152 339.6039,-380.1621 329.615,-383.6936 333.9975,-389.152"/>
<text text-anchor="middle" x="345.7847" y="-400.8" font-family="Times,serif" font-size="14.00" fill="#000000">compound</text>
</g>
<!-- 35 -->
<g id="node35" class="node">
<title>35</title>
<text text-anchor="middle" x="480.2329" y="-357.8" font-family="Times,serif" font-size="14.00" fill="#000000">35 (video)</text>
</g>
<!-- 31&#45;&gt;35 -->
<g id="edge34" class="edge">
<title>31&#45;&gt;35</title>
<path fill="none" stroke="#000000" d="M281.6968,-438.9304C310.3946,-432.7823 347.4538,-423.655 379.2329,-412 399.5683,-404.542 421.2032,-394.1842 439.211,-384.8292"/>
<polygon fill="#000000" stroke="#000000" points="441.0598,-387.8111 448.2712,-380.0493 437.7934,-381.6199 441.0598,-387.8111"/>
<text text-anchor="middle" x="420.1777" y="-400.8" font-family="Times,serif" font-size="14.00" fill="#000000">obl</text>
</g>
<!-- 34 -->
<g id="node36" class="node">
<title>34</title>
<text text-anchor="middle" x="1063.2329" y="-701.8" font-family="Times,serif" font-size="14.00" fill="#000000">34 (Dalam)</text>
</g>
<!-- 36 -->
<g id="node37" class="node">
<title>36</title>
<text text-anchor="middle" x="1469.2329" y="-787.8" font-family="Times,serif" font-size="14.00" fill="#000000">36 (pendek)</text>
</g>
<!-- 36&#45;&gt;36 -->
<g id="edge35" class="edge">
<title>36&#45;&gt;36</title>
<path fill="none" stroke="#000000" d="M1511.0264,-799.752C1521.2504,-799.1777 1528.8589,-796.5938 1528.8589,-792 1528.8589,-789.1289 1525.8868,-787.0429 1521.1617,-785.7419"/>
<polygon fill="#000000" stroke="#000000" points="1521.4299,-782.2437 1511.0264,-784.248 1520.4091,-789.1689 1521.4299,-782.2437"/>
<text text-anchor="middle" x="1544.4106" y="-787.8" font-family="Times,serif" font-size="14.00" fill="#000000">amod</text>
</g>
<!-- 46 -->
<g id="node38" class="node">
<title>46</title>
<text text-anchor="middle" x="1469.2329" y="-701.8" font-family="Times,serif" font-size="14.00" fill="#000000">46 (menasihati)</text>
</g>
<!-- 36&#45;&gt;46 -->
<g id="edge36" class="edge">
<title>36&#45;&gt;46</title>
<path fill="none" stroke="#000000" d="M1469.2329,-773.7616C1469.2329,-762.3597 1469.2329,-747.4342 1469.2329,-734.494"/>
<polygon fill="#000000" stroke="#000000" points="1472.733,-734.2121 1469.2329,-724.2121 1465.733,-734.2121 1472.733,-734.2121"/>
<text text-anchor="middle" x="1484.3916" y="-744.8" font-family="Times,serif" font-size="14.00" fill="#000000">advcl</text>
</g>
<!-- 37 -->
<g id="node39" class="node">
<title>37</title>
<text text-anchor="middle" x="1164.2329" y="-701.8" font-family="Times,serif" font-size="14.00" fill="#000000">37 (terbitan)</text>
</g>
<!-- 38 -->
<g id="node40" class="node">
<title>38</title>
<text text-anchor="middle" x="1267.2329" y="-701.8" font-family="Times,serif" font-size="14.00" fill="#000000">38 (Jabatan)</text>
</g>
<!-- 41 -->
<g id="node41" class="node">
<title>41</title>
<text text-anchor="middle" x="1267.2329" y="-615.8" font-family="Times,serif" font-size="14.00" fill="#000000">41 (Raya)</text>
</g>
<!-- 38&#45;&gt;41 -->
<g id="edge37" class="edge">
<title>38&#45;&gt;41</title>
<path fill="none" stroke="#000000" d="M1267.2329,-687.7616C1267.2329,-676.3597 1267.2329,-661.4342 1267.2329,-648.494"/>
<polygon fill="#000000" stroke="#000000" points="1270.733,-648.2121 1267.2329,-638.2121 1263.733,-648.2121 1270.733,-648.2121"/>
<text text-anchor="middle" x="1276.1777" y="-658.8" font-family="Times,serif" font-size="14.00" fill="#000000">flat</text>
</g>
<!-- 39 -->
<g id="node42" class="node">
<title>39</title>
<text text-anchor="middle" x="1211.2329" y="-787.8" font-family="Times,serif" font-size="14.00" fill="#000000">39 (Keselamatan)</text>
</g>
<!-- 39&#45;&gt;34 -->
<g id="edge38" class="edge">
<title>39&#45;&gt;34</title>
<path fill="none" stroke="#000000" d="M1175.9772,-773.9837C1165.3377,-768.3799 1153.6864,-762.075 1143.1431,-756 1128.7195,-747.6893 1113.142,-738.089 1099.6047,-729.536"/>
<polygon fill="#000000" stroke="#000000" points="1101.3532,-726.5003 1091.036,-724.0908 1097.5988,-732.4083 1101.3532,-726.5003"/>
<text text-anchor="middle" x="1155.2778" y="-744.8" font-family="Times,serif" font-size="14.00" fill="#000000">case</text>
</g>
<!-- 39&#45;&gt;37 -->
<g id="edge39" class="edge">
<title>39&#45;&gt;37</title>
<path fill="none" stroke="#000000" d="M1189.7761,-773.7838C1184.6604,-768.508 1179.6654,-762.4239 1176.1294,-756 1172.5029,-749.4118 1169.9749,-741.7422 1168.215,-734.4173"/>
<polygon fill="#000000" stroke="#000000" points="1171.611,-733.5517 1166.2043,-724.4403 1164.749,-734.9347 1171.611,-733.5517"/>
<text text-anchor="middle" x="1205.7847" y="-744.8" font-family="Times,serif" font-size="14.00" fill="#000000">compound</text>
</g>
<!-- 39&#45;&gt;38 -->
<g id="edge40" class="edge">
<title>39&#45;&gt;38</title>
<path fill="none" stroke="#000000" d="M1223.5087,-773.7297C1227.2909,-768.0622 1231.4535,-761.7856 1235.2329,-756 1240.1754,-748.4341 1245.4864,-740.185 1250.3336,-732.6083"/>
<polygon fill="#000000" stroke="#000000" points="1253.3315,-734.4167 1255.7609,-724.1042 1247.4307,-730.6509 1253.3315,-734.4167"/>
<text text-anchor="middle" x="1273.7847" y="-744.8" font-family="Times,serif" font-size="14.00" fill="#000000">compound</text>
</g>
<!-- 39&#45;&gt;39 -->
<g id="edge41" class="edge">
<title>39&#45;&gt;39</title>
<path fill="none" stroke="#000000" d="M1268.8863,-799.4424C1279.4114,-798.5003 1286.7935,-796.0195 1286.7935,-792 1286.7935,-789.425 1283.7639,-787.4815 1278.8191,-786.1694"/>
<polygon fill="#000000" stroke="#000000" points="1279.3178,-782.7047 1268.8863,-784.5576 1278.1965,-789.6143 1279.3178,-782.7047"/>
<text text-anchor="middle" x="1296.9004" y="-787.8" font-family="Times,serif" font-size="14.00" fill="#000000">dep</text>
</g>
<!-- 40 -->
<g id="node43" class="node">
<title>40</title>
<text text-anchor="middle" x="1363.2329" y="-701.8" font-family="Times,serif" font-size="14.00" fill="#000000">40 (Jalan)</text>
</g>
<!-- 39&#45;&gt;40 -->
<g id="edge42" class="edge">
<title>39&#45;&gt;40</title>
<path fill="none" stroke="#000000" d="M1268.9473,-774.3108C1281.9723,-769.2529 1295.4279,-763.1376 1307.2329,-756 1318.5605,-749.151 1329.7142,-739.8668 1339.0491,-731.1575"/>
<polygon fill="#000000" stroke="#000000" points="1341.6579,-733.504 1346.4265,-724.043 1336.7987,-728.4653 1341.6579,-733.504"/>
<text text-anchor="middle" x="1341.4019" y="-744.8" font-family="Times,serif" font-size="14.00" fill="#000000">nsubj</text>
</g>
<!-- 42 -->
<g id="node44" class="node">
<title>42</title>
<text text-anchor="middle" x="1571.2329" y="-701.8" font-family="Times,serif" font-size="14.00" fill="#000000">42 (Jkjr)</text>
</g>
<!-- 43 -->
<g id="node45" class="node">
<title>43</title>
<text text-anchor="middle" x="1650.2329" y="-615.8" font-family="Times,serif" font-size="14.00" fill="#000000">43 (itu)</text>
</g>
<!-- 44 -->
<g id="node46" class="node">
<title>44</title>
<text text-anchor="middle" x="1650.2329" y="-701.8" font-family="Times,serif" font-size="14.00" fill="#000000">44 (Dr)</text>
</g>
<!-- 44&#45;&gt;43 -->
<g id="edge43" class="edge">
<title>44&#45;&gt;43</title>
<path fill="none" stroke="#000000" d="M1650.2329,-687.7616C1650.2329,-676.3597 1650.2329,-661.4342 1650.2329,-648.494"/>
<polygon fill="#000000" stroke="#000000" points="1653.733,-648.2121 1650.2329,-638.2121 1646.733,-648.2121 1653.733,-648.2121"/>
<text text-anchor="middle" x="1658.7847" y="-658.8" font-family="Times,serif" font-size="14.00" fill="#000000">det</text>
</g>
<!-- 45 -->
<g id="node47" class="node">
<title>45</title>
<text text-anchor="middle" x="1954.2329" y="-787.8" font-family="Times,serif" font-size="14.00" fill="#000000">45 (Mahathir)</text>
</g>
<!-- 45&#45;&gt;45 -->
<g id="edge44" class="edge">
<title>45&#45;&gt;45</title>
<path fill="none" stroke="#000000" d="M2001.3196,-799.663C2011.7252,-798.943 2019.3037,-796.3887 2019.3037,-792 2019.3037,-789.1885 2016.1935,-787.1298 2011.2223,-785.8239"/>
<polygon fill="#000000" stroke="#000000" points="2011.7285,-782.3608 2001.3196,-784.337 2010.689,-789.2832 2011.7285,-782.3608"/>
<text text-anchor="middle" x="2028.2485" y="-787.8" font-family="Times,serif" font-size="14.00" fill="#000000">flat</text>
</g>
<!-- 47 -->
<g id="node48" class="node">
<title>47</title>
<text text-anchor="middle" x="1775.2329" y="-787.8" font-family="Times,serif" font-size="14.00" fill="#000000">47 (mereka)</text>
</g>
<!-- 47&#45;&gt;42 -->
<g id="edge45" class="edge">
<title>47&#45;&gt;42</title>
<path fill="none" stroke="#000000" d="M1732.9592,-776.8967C1716.1611,-770.6959 1696.7323,-763.2736 1679.3433,-756 1656.945,-746.6311 1632.3523,-735.3392 1612.289,-725.8586"/>
<polygon fill="#000000" stroke="#000000" points="1613.6588,-722.6345 1603.1242,-721.5054 1610.6554,-728.9575 1613.6588,-722.6345"/>
<text text-anchor="middle" x="1689.1777" y="-744.8" font-family="Times,serif" font-size="14.00" fill="#000000">flat</text>
</g>
<!-- 47&#45;&gt;44 -->
<g id="edge46" class="edge">
<title>47&#45;&gt;44</title>
<path fill="none" stroke="#000000" d="M1746.9162,-773.9331C1738.1949,-768.2739 1728.5998,-761.9508 1719.895,-756 1707.7312,-747.6845 1694.5599,-738.325 1682.9785,-729.9717"/>
<polygon fill="#000000" stroke="#000000" points="1685.0161,-727.1259 1674.8636,-724.0964 1680.911,-732.7959 1685.0161,-727.1259"/>
<text text-anchor="middle" x="1734.4019" y="-744.8" font-family="Times,serif" font-size="14.00" fill="#000000">nsubj</text>
</g>
<!-- 47&#45;&gt;47 -->
<g id="edge47" class="edge">
<title>47&#45;&gt;47</title>
<path fill="none" stroke="#000000" d="M1817.2947,-799.752C1827.5843,-799.1777 1835.2417,-796.5938 1835.2417,-792 1835.2417,-789.1289 1832.2505,-787.0429 1827.4951,-785.7419"/>
<polygon fill="#000000" stroke="#000000" points="1827.6964,-782.2341 1817.2947,-784.248 1826.682,-789.1603 1827.6964,-782.2341"/>
<text text-anchor="middle" x="1843.7935" y="-787.8" font-family="Times,serif" font-size="14.00" fill="#000000">det</text>
</g>
<!-- 48 -->
<g id="node49" class="node">
<title>48</title>
<text text-anchor="middle" x="1738.2329" y="-701.8" font-family="Times,serif" font-size="14.00" fill="#000000">48 (supaya)</text>
</g>
<!-- 47&#45;&gt;48 -->
<g id="edge48" class="edge">
<title>47&#45;&gt;48</title>
<path fill="none" stroke="#000000" d="M1767.3862,-773.7616C1762.3826,-762.1316 1755.8018,-746.8357 1750.159,-733.72"/>
<polygon fill="#000000" stroke="#000000" points="1753.2356,-732.0148 1746.0683,-724.2121 1746.8054,-734.7813 1753.2356,-732.0148"/>
<text text-anchor="middle" x="1772.6157" y="-744.8" font-family="Times,serif" font-size="14.00" fill="#000000">mark</text>
</g>
<!-- 50 -->
<g id="node50" class="node">
<title>50</title>
<text text-anchor="middle" x="1839.2329" y="-701.8" font-family="Times,serif" font-size="14.00" fill="#000000">50 (berehat)</text>
</g>
<!-- 47&#45;&gt;50 -->
<g id="edge49" class="edge">
<title>47&#45;&gt;50</title>
<path fill="none" stroke="#000000" d="M1788.8057,-773.7616C1797.7151,-761.7896 1809.5155,-745.9328 1819.461,-732.5685"/>
<polygon fill="#000000" stroke="#000000" points="1822.5174,-734.324 1825.6797,-724.2121 1816.9018,-730.1449 1822.5174,-734.324"/>
<text text-anchor="middle" x="1819.1777" y="-744.8" font-family="Times,serif" font-size="14.00" fill="#000000">obj</text>
</g>
<!-- 51 -->
<g id="node51" class="node">
<title>51</title>
<text text-anchor="middle" x="1931.2329" y="-701.8" font-family="Times,serif" font-size="14.00" fill="#000000">51 (dan)</text>
</g>
<!-- 47&#45;&gt;51 -->
<g id="edge50" class="edge">
<title>47&#45;&gt;51</title>
<path fill="none" stroke="#000000" d="M1807.9356,-773.9716C1832.0718,-760.6657 1865.0635,-742.478 1890.8463,-728.2644"/>
<polygon fill="#000000" stroke="#000000" points="1892.5714,-731.3101 1899.639,-723.4171 1889.1919,-725.1799 1892.5714,-731.3101"/>
<text text-anchor="middle" x="1868.4468" y="-744.8" font-family="Times,serif" font-size="14.00" fill="#000000">cc</text>
</g>
<!-- 52 -->
<g id="node52" class="node">
<title>52</title>
<text text-anchor="middle" x="2015.2329" y="-701.8" font-family="Times,serif" font-size="14.00" fill="#000000">52 (tidur)</text>
</g>
<!-- 47&#45;&gt;52 -->
<g id="edge51" class="edge">
<title>47&#45;&gt;52</title>
<path fill="none" stroke="#000000" d="M1817.4022,-778.3136C1855.3699,-765.7971 1912.8649,-746.3655 1970.8845,-724.4195"/>
<polygon fill="#000000" stroke="#000000" points="1972.4745,-727.5594 1980.5759,-720.7317 1969.9849,-721.017 1972.4745,-727.5594"/>
<text text-anchor="middle" x="1930.2847" y="-744.8" font-family="Times,serif" font-size="14.00" fill="#000000">conj</text>
</g>
<!-- 53 -->
<g id="node56" class="node">
<title>53</title>
<text text-anchor="middle" x="1931.2329" y="-615.8" font-family="Times,serif" font-size="14.00" fill="#000000">53 (sebentar)</text>
</g>
<!-- 51&#45;&gt;53 -->
<g id="edge55" class="edge">
<title>51&#45;&gt;53</title>
<path fill="none" stroke="#000000" d="M1931.2329,-687.7616C1931.2329,-676.3597 1931.2329,-661.4342 1931.2329,-648.494"/>
<polygon fill="#000000" stroke="#000000" points="1934.733,-648.2121 1931.2329,-638.2121 1927.733,-648.2121 1934.733,-648.2121"/>
<text text-anchor="middle" x="1953.7847" y="-658.8" font-family="Times,serif" font-size="14.00" fill="#000000">advmod</text>
</g>
<!-- 49 -->
<g id="node53" class="node">
<title>49</title>
<text text-anchor="middle" x="2179.2329" y="-787.8" font-family="Times,serif" font-size="14.00" fill="#000000">49 (berhenti)</text>
</g>
<!-- 49&#45;&gt;49 -->
<g id="edge52" class="edge">
<title>49&#45;&gt;49</title>
<path fill="none" stroke="#000000" d="M2223.5035,-799.7193C2233.9055,-799.0848 2241.5796,-796.5117 2241.5796,-792 2241.5796,-789.1097 2238.4301,-787.015 2233.4316,-785.7159"/>
<polygon fill="#000000" stroke="#000000" points="2233.9014,-782.2475 2223.5035,-784.2807 2232.8999,-789.1755 2233.9014,-782.2475"/>
<text text-anchor="middle" x="2256.7383" y="-787.8" font-family="Times,serif" font-size="14.00" fill="#000000">advcl</text>
</g>
<!-- 55 -->
<g id="node54" class="node">
<title>55</title>
<text text-anchor="middle" x="2120.2329" y="-701.8" font-family="Times,serif" font-size="14.00" fill="#000000">55 (mengantuk)</text>
</g>
<!-- 49&#45;&gt;55 -->
<g id="edge53" class="edge">
<title>49&#45;&gt;55</title>
<path fill="none" stroke="#000000" d="M2166.7205,-773.7616C2158.5071,-761.7896 2147.6287,-745.9328 2138.4602,-732.5685"/>
<polygon fill="#000000" stroke="#000000" points="2141.2706,-730.4781 2132.7273,-724.2121 2135.4983,-734.4381 2141.2706,-730.4781"/>
<text text-anchor="middle" x="2168.3916" y="-744.8" font-family="Times,serif" font-size="14.00" fill="#000000">advcl</text>
</g>
<!-- 54 -->
<g id="node55" class="node">
<title>54</title>
<text text-anchor="middle" x="2239.2329" y="-701.8" font-family="Times,serif" font-size="14.00" fill="#000000">54 (sekiranya)</text>
</g>
<!-- 49&#45;&gt;54 -->
<g id="edge54" class="edge">
<title>49&#45;&gt;54</title>
<path fill="none" stroke="#000000" d="M2191.9574,-773.7616C2200.31,-761.7896 2211.3728,-745.9328 2220.6967,-732.5685"/>
<polygon fill="#000000" stroke="#000000" points="2223.6754,-734.416 2226.5268,-724.2121 2217.9345,-730.4107 2223.6754,-734.416"/>
<text text-anchor="middle" x="2227.4019" y="-744.8" font-family="Times,serif" font-size="14.00" fill="#000000">nsubj</text>
</g>
<!-- 56 -->
<g id="node57" class="node">
<title>56</title>
<text text-anchor="middle" x="2120.2329" y="-615.8" font-family="Times,serif" font-size="14.00" fill="#000000">56 (ketika)</text>
</g>
<!-- 55&#45;&gt;56 -->
<g id="edge56" class="edge">
<title>55&#45;&gt;56</title>
<path fill="none" stroke="#000000" d="M2120.2329,-687.7616C2120.2329,-676.3597 2120.2329,-661.4342 2120.2329,-648.494"/>
<polygon fill="#000000" stroke="#000000" points="2123.733,-648.2121 2120.2329,-638.2121 2116.733,-648.2121 2123.733,-648.2121"/>
<text text-anchor="middle" x="2134.6157" y="-658.8" font-family="Times,serif" font-size="14.00" fill="#000000">mark</text>
</g>
<!-- 57 -->
<g id="node58" class="node">
<title>57</title>
<text text-anchor="middle" x="2120.2329" y="-529.8" font-family="Times,serif" font-size="14.00" fill="#000000">57 (memandu)</text>
</g>
<!-- 56&#45;&gt;57 -->
<g id="edge57" class="edge">
<title>56&#45;&gt;57</title>
<path fill="none" stroke="#000000" d="M2120.2329,-601.7616C2120.2329,-590.3597 2120.2329,-575.4342 2120.2329,-562.494"/>
<polygon fill="#000000" stroke="#000000" points="2123.733,-562.2121 2120.2329,-552.2121 2116.733,-562.2121 2123.733,-562.2121"/>
<text text-anchor="middle" x="2135.3916" y="-572.8" font-family="Times,serif" font-size="14.00" fill="#000000">advcl</text>
</g>
</g>
</svg>
