<?xml version="1.0" encoding="UTF-8" standalone="no"?>
<!DOCTYPE svg PUBLIC "-//W3C//DTD SVG 1.1//EN"
 "http://www.w3.org/Graphics/SVG/1.1/DTD/svg11.dtd">
<!-- Generated by graphviz version 2.42.3 (20191010.1750)
 -->
<!-- Title: G Pages: 1 -->
<svg width="500pt" height="474pt"
 viewBox="0.00 0.00 500.09 474.00" xmlns="http://www.w3.org/2000/svg" xmlns:xlink="http://www.w3.org/1999/xlink">
<g id="graph0" class="graph" transform="scale(1 1) rotate(0) translate(4 470)">
<title>G</title>
<polygon fill="white" stroke="transparent" points="-4,4 -4,-470 496.09,-470 496.09,4 -4,4"/>
<!-- 0 -->
<g id="node1" class="node">
<title>0</title>
<text text-anchor="middle" x="135.57" y="-443.8" font-family="Times,serif" font-size="14.00">0 (None)</text>
</g>
<!-- 3 -->
<g id="node2" class="node">
<title>3</title>
<text text-anchor="middle" x="135.57" y="-357.8" font-family="Times,serif" font-size="14.00">3 (menasihati)</text>
</g>
<!-- 0&#45;&gt;3 -->
<g id="edge1" class="edge">
<title>0&#45;&gt;3</title>
<path fill="none" stroke="black" d="M135.57,-429.6C135.57,-418.26 135.57,-403.23 135.57,-390.32"/>
<polygon fill="black" stroke="black" points="139.07,-390.1 135.57,-380.1 132.07,-390.1 139.07,-390.1"/>
<text text-anchor="middle" x="146.85" y="-400.8" font-family="Times,serif" font-size="14.00">root</text>
</g>
<!-- 1 -->
<g id="node3" class="node">
<title>1</title>
<text text-anchor="middle" x="45.57" y="-271.8" font-family="Times,serif" font-size="14.00">1 (Dr)</text>
</g>
<!-- 3&#45;&gt;1 -->
<g id="edge3" class="edge">
<title>3&#45;&gt;1</title>
<path fill="none" stroke="black" d="M116.92,-343.6C103.8,-331.35 86.07,-314.8 71.56,-301.26"/>
<polygon fill="black" stroke="black" points="73.59,-298.36 63.89,-294.1 68.81,-303.48 73.59,-298.36"/>
<text text-anchor="middle" x="111.74" y="-314.8" font-family="Times,serif" font-size="14.00">nsubj</text>
</g>
<!-- 4 -->
<g id="node5" class="node">
<title>4</title>
<text text-anchor="middle" x="135.57" y="-271.8" font-family="Times,serif" font-size="14.00">4 (mereka)</text>
</g>
<!-- 3&#45;&gt;4 -->
<g id="edge4" class="edge">
<title>3&#45;&gt;4</title>
<path fill="none" stroke="black" d="M135.57,-343.6C135.57,-332.26 135.57,-317.23 135.57,-304.32"/>
<polygon fill="black" stroke="black" points="139.07,-304.1 135.57,-294.1 132.07,-304.1 139.07,-304.1"/>
<text text-anchor="middle" x="144.52" y="-314.8" font-family="Times,serif" font-size="14.00">obj</text>
</g>
<!-- 6 -->
<g id="node6" class="node">
<title>6</title>
<text text-anchor="middle" x="235.57" y="-271.8" font-family="Times,serif" font-size="14.00">6 (berhenti)</text>
</g>
<!-- 3&#45;&gt;6 -->
<g id="edge5" class="edge">
<title>3&#45;&gt;6</title>
<path fill="none" stroke="black" d="M156.29,-343.6C171,-331.24 190.94,-314.49 207.14,-300.88"/>
<polygon fill="black" stroke="black" points="209.81,-303.21 215.22,-294.1 205.31,-297.85 209.81,-303.21"/>
<text text-anchor="middle" x="210.62" y="-314.8" font-family="Times,serif" font-size="14.00">xcomp</text>
</g>
<!-- 2 -->
<g id="node4" class="node">
<title>2</title>
<text text-anchor="middle" x="43.57" y="-185.8" font-family="Times,serif" font-size="14.00">2 (Mahathir)</text>
</g>
<!-- 1&#45;&gt;2 -->
<g id="edge2" class="edge">
<title>1&#45;&gt;2</title>
<path fill="none" stroke="black" d="M45.16,-257.6C44.89,-246.26 44.53,-231.23 44.22,-218.32"/>
<polygon fill="black" stroke="black" points="47.71,-218.01 43.98,-208.1 40.72,-218.18 47.71,-218.01"/>
<text text-anchor="middle" x="54.52" y="-228.8" font-family="Times,serif" font-size="14.00">flat</text>
</g>
<!-- 5 -->
<g id="node7" class="node">
<title>5</title>
<text text-anchor="middle" x="142.57" y="-185.8" font-family="Times,serif" font-size="14.00">5 (supaya)</text>
</g>
<!-- 6&#45;&gt;5 -->
<g id="edge6" class="edge">
<title>6&#45;&gt;5</title>
<path fill="none" stroke="black" d="M216.3,-257.6C202.62,-245.24 184.08,-228.49 169.01,-214.88"/>
<polygon fill="black" stroke="black" points="171.26,-212.2 161.5,-208.1 166.57,-217.4 171.26,-212.2"/>
<text text-anchor="middle" x="207.62" y="-228.8" font-family="Times,serif" font-size="14.00">case</text>
</g>
<!-- 7 -->
<g id="node8" class="node">
<title>7</title>
<text text-anchor="middle" x="236.57" y="-185.8" font-family="Times,serif" font-size="14.00">7 (berehat)</text>
</g>
<!-- 6&#45;&gt;7 -->
<g id="edge7" class="edge">
<title>6&#45;&gt;7</title>
<path fill="none" stroke="black" d="M235.78,-257.6C235.91,-246.26 236.09,-231.23 236.25,-218.32"/>
<polygon fill="black" stroke="black" points="239.75,-218.14 236.37,-208.1 232.75,-218.05 239.75,-218.14"/>
<text text-anchor="middle" x="254.62" y="-228.8" font-family="Times,serif" font-size="14.00">xcomp</text>
</g>
<!-- 9 -->
<g id="node9" class="node">
<title>9</title>
<text text-anchor="middle" x="324.57" y="-185.8" font-family="Times,serif" font-size="14.00">9 (tidur)</text>
</g>
<!-- 6&#45;&gt;9 -->
<g id="edge8" class="edge">
<title>6&#45;&gt;9</title>
<path fill="none" stroke="black" d="M257.33,-257.64C263.96,-252.15 271.18,-245.96 277.57,-240 285.72,-232.4 294.25,-223.74 301.78,-215.83"/>
<polygon fill="black" stroke="black" points="304.62,-217.92 308.92,-208.24 299.52,-213.12 304.62,-217.92"/>
<text text-anchor="middle" x="302.62" y="-228.8" font-family="Times,serif" font-size="14.00">conj</text>
</g>
<!-- 8 -->
<g id="node10" class="node">
<title>8</title>
<text text-anchor="middle" x="233.57" y="-99.8" font-family="Times,serif" font-size="14.00">8 (dan)</text>
</g>
<!-- 9&#45;&gt;8 -->
<g id="edge9" class="edge">
<title>9&#45;&gt;8</title>
<path fill="none" stroke="black" d="M305.72,-171.6C292.33,-159.24 274.19,-142.49 259.45,-128.88"/>
<polygon fill="black" stroke="black" points="261.81,-126.31 252.09,-122.1 257.06,-131.45 261.81,-126.31"/>
<text text-anchor="middle" x="289.78" y="-142.8" font-family="Times,serif" font-size="14.00">cc</text>
</g>
<!-- 10 -->
<g id="node11" class="node">
<title>10</title>
<text text-anchor="middle" x="324.57" y="-99.8" font-family="Times,serif" font-size="14.00">10 (sebentar)</text>
</g>
<!-- 9&#45;&gt;10 -->
<g id="edge10" class="edge">
<title>9&#45;&gt;10</title>
<path fill="none" stroke="black" d="M324.57,-171.6C324.57,-160.26 324.57,-145.23 324.57,-132.32"/>
<polygon fill="black" stroke="black" points="328.07,-132.1 324.57,-122.1 321.07,-132.1 328.07,-132.1"/>
<text text-anchor="middle" x="347.12" y="-142.8" font-family="Times,serif" font-size="14.00">advmod</text>
</g>
<!-- 12 -->
<g id="node12" class="node">
<title>12</title>
<text text-anchor="middle" x="439.57" y="-99.8" font-family="Times,serif" font-size="14.00">12 (mengantuk)</text>
</g>
<!-- 9&#45;&gt;12 -->
<g id="edge11" class="edge">
<title>9&#45;&gt;12</title>
<path fill="none" stroke="black" d="M348.56,-172C356.54,-166.31 365.46,-159.91 373.57,-154 385.06,-145.63 397.6,-136.36 408.64,-128.15"/>
<polygon fill="black" stroke="black" points="410.81,-130.89 416.74,-122.11 406.63,-125.28 410.81,-130.89"/>
<text text-anchor="middle" x="406.73" y="-142.8" font-family="Times,serif" font-size="14.00">advcl</text>
</g>
<!-- 11 -->
<g id="node13" class="node">
<title>11</title>
<text text-anchor="middle" x="439.57" y="-13.8" font-family="Times,serif" font-size="14.00">11 (sekiranya)</text>
</g>
<!-- 12&#45;&gt;11 -->
<g id="edge12" class="edge">
<title>12&#45;&gt;11</title>
<path fill="none" stroke="black" d="M439.57,-85.6C439.57,-74.26 439.57,-59.23 439.57,-46.32"/>
<polygon fill="black" stroke="black" points="443.07,-46.1 439.57,-36.1 436.07,-46.1 443.07,-46.1"/>
<text text-anchor="middle" x="462.12" y="-56.8" font-family="Times,serif" font-size="14.00">advmod</text>
</g>
<!-- 13 -->
<g id="node14" class="node">
<title>13</title>
<text text-anchor="middle" x="238.57" y="-443.8" font-family="Times,serif" font-size="14.00">13 (ketika)</text>
</g>
<!-- 14 -->
<g id="node15" class="node">
<title>14</title>
<text text-anchor="middle" x="271.57" y="-357.8" font-family="Times,serif" font-size="14.00">14 (memandu.)</text>
</g>
<!-- 13&#45;&gt;14 -->
<g id="edge13" class="edge">
<title>13&#45;&gt;14</title>
<path fill="none" stroke="black" d="M230.21,-429.56C226.79,-419.9 224.61,-407.87 229.25,-398 231.08,-394.12 233.57,-390.52 236.44,-387.22"/>
<polygon fill="black" stroke="black" points="239.01,-389.61 243.67,-380.1 234.09,-384.62 239.01,-389.61"/>
<text text-anchor="middle" x="243.73" y="-400.8" font-family="Times,serif" font-size="14.00">advcl</text>
</g>
<!-- 14&#45;&gt;13 -->
<g id="edge14" class="edge">
<title>14&#45;&gt;13</title>
<path fill="none" stroke="black" d="M268.68,-380.18C266.74,-389.76 263.77,-401.79 259.57,-412 258.37,-414.92 256.95,-417.88 255.42,-420.79"/>
<polygon fill="black" stroke="black" points="252.24,-419.31 250.33,-429.73 258.32,-422.78 252.24,-419.31"/>
<text text-anchor="middle" x="277.95" y="-400.8" font-family="Times,serif" font-size="14.00">mark</text>
</g>
</g>
</svg>
