<?xml version="1.0" encoding="UTF-8" standalone="no"?>
<!DOCTYPE svg PUBLIC "-//W3C//DTD SVG 1.1//EN"
 "http://www.w3.org/Graphics/SVG/1.1/DTD/svg11.dtd">
<!-- Generated by graphviz version 2.40.1 (20161225.0304)
 -->
<!-- Title: G Pages: 1 -->
<svg width="366pt" height="732pt"
 viewBox="0.00 0.00 365.92 732.00" xmlns="http://www.w3.org/2000/svg" xmlns:xlink="http://www.w3.org/1999/xlink">
<g id="graph0" class="graph" transform="scale(1 1) rotate(0) translate(4 728)">
<title>G</title>
<polygon fill="#ffffff" stroke="transparent" points="-4,4 -4,-728 361.9209,-728 361.9209,4 -4,4"/>
<!-- 0 -->
<g id="node1" class="node">
<title>0</title>
<text text-anchor="middle" x="208.5708" y="-701.8" font-family="Times,serif" font-size="14.00" fill="#000000">0 (None)</text>
</g>
<!-- 1 -->
<g id="node2" class="node">
<title>1</title>
<text text-anchor="middle" x="286.5708" y="-701.8" font-family="Times,serif" font-size="14.00" fill="#000000">1 (Dr)</text>
</g>
<!-- 12 -->
<g id="node3" class="node">
<title>12</title>
<text text-anchor="middle" x="214.5708" y="-615.8" font-family="Times,serif" font-size="14.00" fill="#000000">12 (mengantuk)</text>
</g>
<!-- 1&#45;&gt;12 -->
<g id="edge1" class="edge">
<title>1&#45;&gt;12</title>
<path fill="none" stroke="#000000" d="M271.3015,-687.7616C261.1829,-675.6756 247.7498,-659.6304 236.4951,-646.1874"/>
<polygon fill="#000000" stroke="#000000" points="238.9212,-643.6329 229.8181,-638.2121 233.5539,-648.1265 238.9212,-643.6329"/>
<text text-anchor="middle" x="270.7363" y="-658.8" font-family="Times,serif" font-size="14.00" fill="#000000">UNK</text>
</g>
<!-- 10 -->
<g id="node15" class="node">
<title>10</title>
<text text-anchor="middle" x="156.5708" y="-529.8" font-family="Times,serif" font-size="14.00" fill="#000000">10 (sebentar)</text>
</g>
<!-- 12&#45;&gt;10 -->
<g id="edge13" class="edge">
<title>12&#45;&gt;10</title>
<path fill="none" stroke="#000000" d="M202.2705,-601.7616C194.1963,-589.7896 183.5022,-573.9328 174.4891,-560.5685"/>
<polygon fill="#000000" stroke="#000000" points="177.3466,-558.5458 168.8534,-552.2121 171.5431,-562.4598 177.3466,-558.5458"/>
<text text-anchor="middle" x="212.1226" y="-572.8" font-family="Times,serif" font-size="14.00" fill="#000000">advmod</text>
</g>
<!-- 2 -->
<g id="node4" class="node">
<title>2</title>
<text text-anchor="middle" x="43.5708" y="-443.8" font-family="Times,serif" font-size="14.00" fill="#000000">2 (Mahathir)</text>
</g>
<!-- 3 -->
<g id="node5" class="node">
<title>3</title>
<text text-anchor="middle" x="121.5708" y="-185.8" font-family="Times,serif" font-size="14.00" fill="#000000">3 (menasihati)</text>
</g>
<!-- 4 -->
<g id="node6" class="node">
<title>4</title>
<text text-anchor="middle" x="226.5708" y="-185.8" font-family="Times,serif" font-size="14.00" fill="#000000">4 (mereka)</text>
</g>
<!-- 9 -->
<g id="node7" class="node">
<title>9</title>
<text text-anchor="middle" x="226.5708" y="-99.8" font-family="Times,serif" font-size="14.00" fill="#000000">9 (tidur)</text>
</g>
<!-- 4&#45;&gt;9 -->
<g id="edge2" class="edge">
<title>4&#45;&gt;9</title>
<path fill="none" stroke="#000000" d="M226.5708,-171.7616C226.5708,-160.3597 226.5708,-145.4342 226.5708,-132.494"/>
<polygon fill="#000000" stroke="#000000" points="230.0709,-132.2121 226.5708,-122.2121 223.0709,-132.2121 230.0709,-132.2121"/>
<text text-anchor="middle" x="238.6226" y="-142.8" font-family="Times,serif" font-size="14.00" fill="#000000">conj</text>
</g>
<!-- 11 -->
<g id="node13" class="node">
<title>11</title>
<text text-anchor="middle" x="174.5708" y="-13.8" font-family="Times,serif" font-size="14.00" fill="#000000">11 (sekiranya)</text>
</g>
<!-- 9&#45;&gt;11 -->
<g id="edge8" class="edge">
<title>9&#45;&gt;11</title>
<path fill="none" stroke="#000000" d="M215.5429,-85.7616C208.373,-73.9036 198.8986,-58.2345 190.8668,-44.951"/>
<polygon fill="#000000" stroke="#000000" points="193.7521,-42.9584 185.5828,-36.2121 187.7619,-46.5804 193.7521,-42.9584"/>
<text text-anchor="middle" x="227.1226" y="-56.8" font-family="Times,serif" font-size="14.00" fill="#000000">advmod</text>
</g>
<!-- 13 -->
<g id="node14" class="node">
<title>13</title>
<text text-anchor="middle" x="278.5708" y="-13.8" font-family="Times,serif" font-size="14.00" fill="#000000">13 (ketika)</text>
</g>
<!-- 9&#45;&gt;13 -->
<g id="edge9" class="edge">
<title>9&#45;&gt;13</title>
<path fill="none" stroke="#000000" d="M241.243,-85.7645C245.4397,-80.2063 249.8743,-73.9811 253.5708,-68 258.0194,-60.8021 262.3376,-52.7074 266.0982,-45.1617"/>
<polygon fill="#000000" stroke="#000000" points="269.3234,-46.5321 270.5314,-36.0063 263.0231,-43.4814 269.3234,-46.5321"/>
<text text-anchor="middle" x="273.6157" y="-56.8" font-family="Times,serif" font-size="14.00" fill="#000000">case</text>
</g>
<!-- 5 -->
<g id="node8" class="node">
<title>5</title>
<text text-anchor="middle" x="320.5708" y="-185.8" font-family="Times,serif" font-size="14.00" fill="#000000">5 (supaya)</text>
</g>
<!-- 5&#45;&gt;1 -->
<g id="edge3" class="edge">
<title>5&#45;&gt;1</title>
<path fill="none" stroke="#000000" d="M319.9048,-208.117C319.323,-225.5192 318.5708,-252.5527 318.5708,-276 318.5708,-620 318.5708,-620 318.5708,-620 318.5708,-640.6414 310.3733,-662.4189 302.2764,-678.8948"/>
<polygon fill="#000000" stroke="#000000" points="299.0848,-677.4463 297.5834,-687.9342 305.2975,-680.6717 299.0848,-677.4463"/>
<text text-anchor="middle" x="327.1226" y="-443.8" font-family="Times,serif" font-size="14.00" fill="#000000">det</text>
</g>
<!-- 6 -->
<g id="node9" class="node">
<title>6</title>
<text text-anchor="middle" x="145.5708" y="-443.8" font-family="Times,serif" font-size="14.00" fill="#000000">6 (berhenti)</text>
</g>
<!-- 7 -->
<g id="node10" class="node">
<title>7</title>
<text text-anchor="middle" x="242.5708" y="-443.8" font-family="Times,serif" font-size="14.00" fill="#000000">7 (berehat)</text>
</g>
<!-- 14 -->
<g id="node11" class="node">
<title>14</title>
<text text-anchor="middle" x="240.5708" y="-357.8" font-family="Times,serif" font-size="14.00" fill="#000000">14 (memandu)</text>
</g>
<!-- 7&#45;&gt;14 -->
<g id="edge4" class="edge">
<title>7&#45;&gt;14</title>
<path fill="none" stroke="#000000" d="M242.1467,-429.7616C241.8815,-418.3597 241.5344,-403.4342 241.2335,-390.494"/>
<polygon fill="#000000" stroke="#000000" points="244.726,-390.128 240.9943,-380.2121 237.7279,-390.2908 244.726,-390.128"/>
<text text-anchor="middle" x="261.6226" y="-400.8" font-family="Times,serif" font-size="14.00" fill="#000000">xcomp</text>
</g>
<!-- 8 -->
<g id="node12" class="node">
<title>8</title>
<text text-anchor="middle" x="228.5708" y="-271.8" font-family="Times,serif" font-size="14.00" fill="#000000">8 (dan)</text>
</g>
<!-- 14&#45;&gt;8 -->
<g id="edge14" class="edge">
<title>14&#45;&gt;8</title>
<path fill="none" stroke="#000000" d="M238.0259,-343.7616C236.4349,-332.3597 234.3523,-317.4342 232.5467,-304.494"/>
<polygon fill="#000000" stroke="#000000" points="235.9605,-303.6324 231.112,-294.2121 229.0276,-304.5999 235.9605,-303.6324"/>
<text text-anchor="middle" x="241.7847" y="-314.8" font-family="Times,serif" font-size="14.00" fill="#000000">cc</text>
</g>
<!-- 8&#45;&gt;3 -->
<g id="edge5" class="edge">
<title>8&#45;&gt;3</title>
<path fill="none" stroke="#000000" d="M206.1401,-257.9716C190.4464,-245.358 169.2944,-228.3573 152.0706,-214.5139"/>
<polygon fill="#000000" stroke="#000000" points="153.9591,-211.5414 143.972,-208.0047 149.5738,-216.9975 153.9591,-211.5414"/>
<text text-anchor="middle" x="193.6226" y="-228.8" font-family="Times,serif" font-size="14.00" fill="#000000">conj</text>
</g>
<!-- 8&#45;&gt;4 -->
<g id="edge6" class="edge">
<title>8&#45;&gt;4</title>
<path fill="none" stroke="#000000" d="M228.1467,-257.7616C227.8815,-246.3597 227.5344,-231.4342 227.2335,-218.494"/>
<polygon fill="#000000" stroke="#000000" points="230.726,-218.128 226.9943,-208.2121 223.7279,-218.2908 230.726,-218.128"/>
<text text-anchor="middle" x="237.5156" y="-228.8" font-family="Times,serif" font-size="14.00" fill="#000000">obj</text>
</g>
<!-- 8&#45;&gt;5 -->
<g id="edge7" class="edge">
<title>8&#45;&gt;5</title>
<path fill="none" stroke="#000000" d="M247.1614,-257.789C256.9893,-248.2394 269.3027,-236.3965 280.481,-226 284.3211,-222.4284 288.4019,-218.6947 292.4339,-215.041"/>
<polygon fill="#000000" stroke="#000000" points="294.965,-217.4716 300.0511,-208.1774 290.2792,-212.2713 294.965,-217.4716"/>
<text text-anchor="middle" x="292.6157" y="-228.8" font-family="Times,serif" font-size="14.00" fill="#000000">case</text>
</g>
<!-- 10&#45;&gt;2 -->
<g id="edge10" class="edge">
<title>10&#45;&gt;2</title>
<path fill="none" stroke="#000000" d="M132.8823,-515.9716C116.1579,-503.2433 93.5638,-486.0478 75.2858,-472.1371"/>
<polygon fill="#000000" stroke="#000000" points="77.3054,-469.2758 67.2281,-466.0047 73.066,-474.8461 77.3054,-469.2758"/>
<text text-anchor="middle" x="122.7397" y="-486.8" font-family="Times,serif" font-size="14.00" fill="#000000">nsubj</text>
</g>
<!-- 10&#45;&gt;6 -->
<g id="edge11" class="edge">
<title>10&#45;&gt;6</title>
<path fill="none" stroke="#000000" d="M154.238,-515.7616C152.7796,-504.3597 150.8705,-489.4342 149.2154,-476.494"/>
<polygon fill="#000000" stroke="#000000" points="152.6408,-475.6872 147.9003,-466.2121 145.6974,-476.5754 152.6408,-475.6872"/>
<text text-anchor="middle" x="171.6226" y="-486.8" font-family="Times,serif" font-size="14.00" fill="#000000">xcomp</text>
</g>
<!-- 10&#45;&gt;7 -->
<g id="edge12" class="edge">
<title>10&#45;&gt;7</title>
<path fill="none" stroke="#000000" d="M176.0723,-515.8611C182.0635,-510.1989 188.6394,-503.8923 194.5708,-498 202.382,-490.2403 210.7414,-481.6401 218.2593,-473.7914"/>
<polygon fill="#000000" stroke="#000000" points="221.0792,-475.9058 225.4452,-466.2523 216.0122,-471.0761 221.0792,-475.9058"/>
<text text-anchor="middle" x="223.7295" y="-486.8" font-family="Times,serif" font-size="14.00" fill="#000000">advcl</text>
</g>
</g>
</svg>
