<?xml version="1.0" encoding="UTF-8" standalone="no"?>
<!DOCTYPE svg PUBLIC "-//W3C//DTD SVG 1.1//EN"
 "http://www.w3.org/Graphics/SVG/1.1/DTD/svg11.dtd">
<!-- Generated by graphviz version 2.40.1 (20161225.0304)
 -->
<!-- Title: G Pages: 1 -->
<svg width="500pt" height="560pt"
 viewBox="0.00 0.00 499.59 560.00" xmlns="http://www.w3.org/2000/svg" xmlns:xlink="http://www.w3.org/1999/xlink">
<g id="graph0" class="graph" transform="scale(1 1) rotate(0) translate(4 556)">
<title>G</title>
<polygon fill="#ffffff" stroke="transparent" points="-4,4 -4,-556 495.5864,-556 495.5864,4 -4,4"/>
<!-- 0 -->
<g id="node1" class="node">
<title>0</title>
<text text-anchor="middle" x="135.5708" y="-529.8" font-family="Times,serif" font-size="14.00" fill="#000000">0 (None)</text>
</g>
<!-- 3 -->
<g id="node2" class="node">
<title>3</title>
<text text-anchor="middle" x="135.5708" y="-443.8" font-family="Times,serif" font-size="14.00" fill="#000000">3 (menasihati)</text>
</g>
<!-- 0&#45;&gt;3 -->
<g id="edge1" class="edge">
<title>0&#45;&gt;3</title>
<path fill="none" stroke="#000000" d="M135.5708,-515.7616C135.5708,-504.3597 135.5708,-489.4342 135.5708,-476.494"/>
<polygon fill="#000000" stroke="#000000" points="139.0709,-476.2121 135.5708,-466.2121 132.0709,-476.2121 139.0709,-476.2121"/>
<text text-anchor="middle" x="146.8467" y="-486.8" font-family="Times,serif" font-size="14.00" fill="#000000">root</text>
</g>
<!-- 1 -->
<g id="node3" class="node">
<title>1</title>
<text text-anchor="middle" x="45.5708" y="-357.8" font-family="Times,serif" font-size="14.00" fill="#000000">1 (Dr)</text>
</g>
<!-- 3&#45;&gt;1 -->
<g id="edge3" class="edge">
<title>3&#45;&gt;1</title>
<path fill="none" stroke="#000000" d="M116.4841,-429.7616C103.5973,-417.4475 86.4094,-401.0235 72.1828,-387.4293"/>
<polygon fill="#000000" stroke="#000000" points="74.2779,-384.5902 64.63,-380.2121 69.4419,-389.6512 74.2779,-384.5902"/>
<text text-anchor="middle" x="111.7397" y="-400.8" font-family="Times,serif" font-size="14.00" fill="#000000">nsubj</text>
</g>
<!-- 4 -->
<g id="node5" class="node">
<title>4</title>
<text text-anchor="middle" x="135.5708" y="-357.8" font-family="Times,serif" font-size="14.00" fill="#000000">4 (mereka)</text>
</g>
<!-- 3&#45;&gt;4 -->
<g id="edge4" class="edge">
<title>3&#45;&gt;4</title>
<path fill="none" stroke="#000000" d="M135.5708,-429.7616C135.5708,-418.3597 135.5708,-403.4342 135.5708,-390.494"/>
<polygon fill="#000000" stroke="#000000" points="139.0709,-390.2121 135.5708,-380.2121 132.0709,-390.2121 139.0709,-390.2121"/>
<text text-anchor="middle" x="150.7397" y="-400.8" font-family="Times,serif" font-size="14.00" fill="#000000">nsubj</text>
</g>
<!-- 6 -->
<g id="node6" class="node">
<title>6</title>
<text text-anchor="middle" x="235.5708" y="-357.8" font-family="Times,serif" font-size="14.00" fill="#000000">6 (berhenti)</text>
</g>
<!-- 3&#45;&gt;6 -->
<g id="edge5" class="edge">
<title>3&#45;&gt;6</title>
<path fill="none" stroke="#000000" d="M156.7782,-429.7616C171.2295,-417.3335 190.5487,-400.719 206.4401,-387.0524"/>
<polygon fill="#000000" stroke="#000000" points="209.0942,-389.3862 214.3939,-380.2121 204.5299,-384.0789 209.0942,-389.3862"/>
<text text-anchor="middle" x="210.6226" y="-400.8" font-family="Times,serif" font-size="14.00" fill="#000000">xcomp</text>
</g>
<!-- 2 -->
<g id="node4" class="node">
<title>2</title>
<text text-anchor="middle" x="43.5708" y="-271.8" font-family="Times,serif" font-size="14.00" fill="#000000">2 (Mahathir)</text>
</g>
<!-- 1&#45;&gt;2 -->
<g id="edge2" class="edge">
<title>1&#45;&gt;2</title>
<path fill="none" stroke="#000000" d="M45.1467,-343.7616C44.8815,-332.3597 44.5344,-317.4342 44.2335,-304.494"/>
<polygon fill="#000000" stroke="#000000" points="47.726,-304.128 43.9943,-294.2121 40.7279,-304.2908 47.726,-304.128"/>
<text text-anchor="middle" x="75.1226" y="-314.8" font-family="Times,serif" font-size="14.00" fill="#000000">compound</text>
</g>
<!-- 5 -->
<g id="node7" class="node">
<title>5</title>
<text text-anchor="middle" x="142.5708" y="-271.8" font-family="Times,serif" font-size="14.00" fill="#000000">5 (supaya)</text>
</g>
<!-- 6&#45;&gt;5 -->
<g id="edge6" class="edge">
<title>6&#45;&gt;5</title>
<path fill="none" stroke="#000000" d="M215.8479,-343.7616C202.4082,-331.3335 184.4414,-314.719 169.6623,-301.0524"/>
<polygon fill="#000000" stroke="#000000" points="171.9836,-298.4318 162.2653,-294.2121 167.231,-303.5712 171.9836,-298.4318"/>
<text text-anchor="middle" x="207.6157" y="-314.8" font-family="Times,serif" font-size="14.00" fill="#000000">case</text>
</g>
<!-- 7 -->
<g id="node8" class="node">
<title>7</title>
<text text-anchor="middle" x="236.5708" y="-271.8" font-family="Times,serif" font-size="14.00" fill="#000000">7 (berehat)</text>
</g>
<!-- 6&#45;&gt;7 -->
<g id="edge7" class="edge">
<title>6&#45;&gt;7</title>
<path fill="none" stroke="#000000" d="M235.7829,-343.7616C235.9155,-332.3597 236.089,-317.4342 236.2395,-304.494"/>
<polygon fill="#000000" stroke="#000000" points="239.7424,-304.2522 236.359,-294.2121 232.7429,-304.1707 239.7424,-304.2522"/>
<text text-anchor="middle" x="255.2295" y="-314.8" font-family="Times,serif" font-size="14.00" fill="#000000">ccomp</text>
</g>
<!-- 9 -->
<g id="node9" class="node">
<title>9</title>
<text text-anchor="middle" x="324.5708" y="-271.8" font-family="Times,serif" font-size="14.00" fill="#000000">9 (tidur)</text>
</g>
<!-- 6&#45;&gt;9 -->
<g id="edge8" class="edge">
<title>6&#45;&gt;9</title>
<path fill="none" stroke="#000000" d="M257.7635,-343.7505C264.274,-338.1919 271.3205,-331.97 277.5708,-326 285.5828,-318.3472 293.9764,-309.656 301.4168,-301.6908"/>
<polygon fill="#000000" stroke="#000000" points="304.276,-303.7536 308.4902,-294.0329 299.1339,-299.004 304.276,-303.7536"/>
<text text-anchor="middle" x="303.6226" y="-314.8" font-family="Times,serif" font-size="14.00" fill="#000000">conj</text>
</g>
<!-- 8 -->
<g id="node10" class="node">
<title>8</title>
<text text-anchor="middle" x="293.5708" y="-185.8" font-family="Times,serif" font-size="14.00" fill="#000000">8 (dan)</text>
</g>
<!-- 9&#45;&gt;8 -->
<g id="edge9" class="edge">
<title>9&#45;&gt;8</title>
<path fill="none" stroke="#000000" d="M317.9965,-257.7616C313.8043,-246.1316 308.2907,-230.8357 303.5629,-217.72"/>
<polygon fill="#000000" stroke="#000000" points="306.8194,-216.4327 300.1356,-208.2121 300.2341,-218.8065 306.8194,-216.4327"/>
<text text-anchor="middle" x="316.7847" y="-228.8" font-family="Times,serif" font-size="14.00" fill="#000000">cc</text>
</g>
<!-- 10 -->
<g id="node11" class="node">
<title>10</title>
<text text-anchor="middle" x="384.5708" y="-185.8" font-family="Times,serif" font-size="14.00" fill="#000000">10 (sebentar)</text>
</g>
<!-- 9&#45;&gt;10 -->
<g id="edge10" class="edge">
<title>9&#45;&gt;10</title>
<path fill="none" stroke="#000000" d="M337.2953,-257.7616C345.6478,-245.7896 356.7107,-229.9328 366.0346,-216.5685"/>
<polygon fill="#000000" stroke="#000000" points="369.0133,-218.416 371.8647,-208.2121 363.2724,-214.4107 369.0133,-218.416"/>
<text text-anchor="middle" x="369.6157" y="-228.8" font-family="Times,serif" font-size="14.00" fill="#000000">case</text>
</g>
<!-- 12 -->
<g id="node12" class="node">
<title>12</title>
<text text-anchor="middle" x="384.5708" y="-99.8" font-family="Times,serif" font-size="14.00" fill="#000000">12 (mengantuk)</text>
</g>
<!-- 10&#45;&gt;12 -->
<g id="edge11" class="edge">
<title>10&#45;&gt;12</title>
<path fill="none" stroke="#000000" d="M384.5708,-171.7616C384.5708,-160.3597 384.5708,-145.4342 384.5708,-132.494"/>
<polygon fill="#000000" stroke="#000000" points="388.0709,-132.2121 384.5708,-122.2121 381.0709,-132.2121 388.0709,-132.2121"/>
<text text-anchor="middle" x="400.1226" y="-142.8" font-family="Times,serif" font-size="14.00" fill="#000000">amod</text>
</g>
<!-- 11 -->
<g id="node13" class="node">
<title>11</title>
<text text-anchor="middle" x="327.5708" y="-13.8" font-family="Times,serif" font-size="14.00" fill="#000000">11 (sekiranya)</text>
</g>
<!-- 12&#45;&gt;11 -->
<g id="edge12" class="edge">
<title>12&#45;&gt;11</title>
<path fill="none" stroke="#000000" d="M372.4826,-85.7616C364.5476,-73.7896 354.0379,-57.9328 345.1802,-44.5685"/>
<polygon fill="#000000" stroke="#000000" points="348.0837,-42.6139 339.6416,-36.2121 342.2489,-46.4811 348.0837,-42.6139"/>
<text text-anchor="middle" x="367.5156" y="-56.8" font-family="Times,serif" font-size="14.00" fill="#000000">obl</text>
</g>
<!-- 14 -->
<g id="node14" class="node">
<title>14</title>
<text text-anchor="middle" x="442.5708" y="-13.8" font-family="Times,serif" font-size="14.00" fill="#000000">14 (memandu)</text>
</g>
<!-- 12&#45;&gt;14 -->
<g id="edge13" class="edge">
<title>12&#45;&gt;14</title>
<path fill="none" stroke="#000000" d="M396.8711,-85.7616C404.9453,-73.7896 415.6394,-57.9328 424.6525,-44.5685"/>
<polygon fill="#000000" stroke="#000000" points="427.5985,-46.4598 430.2882,-36.2121 421.795,-42.5458 427.5985,-46.4598"/>
<text text-anchor="middle" x="435.6226" y="-56.8" font-family="Times,serif" font-size="14.00" fill="#000000">xcomp</text>
</g>
<!-- 13 -->
<g id="node15" class="node">
<title>13</title>
<text text-anchor="middle" x="225.5708" y="-529.8" font-family="Times,serif" font-size="14.00" fill="#000000">13 (ketika)</text>
</g>
<!-- 13&#45;&gt;13 -->
<g id="edge14" class="edge">
<title>13&#45;&gt;13</title>
<path fill="none" stroke="#000000" d="M264.1366,-541.8058C274.3505,-541.3597 282.0864,-538.7578 282.0864,-534 282.0864,-531.0264 279.0646,-528.8949 274.3046,-527.6055"/>
<polygon fill="#000000" stroke="#000000" points="274.5229,-524.1024 264.1366,-526.1942 273.5604,-531.0359 274.5229,-524.1024"/>
<text text-anchor="middle" x="294.1313" y="-529.8" font-family="Times,serif" font-size="14.00" fill="#000000">case</text>
</g>
</g>
</svg>
