<?xml version="1.0" encoding="UTF-8" standalone="no"?>
<!DOCTYPE svg PUBLIC "-//W3C//DTD SVG 1.1//EN"
 "http://www.w3.org/Graphics/SVG/1.1/DTD/svg11.dtd">
<!-- Generated by graphviz version 2.40.1 (20161225.0304)
 -->
<!-- Title: G Pages: 1 -->
<svg width="513pt" height="474pt"
 viewBox="0.00 0.00 512.59 474.00" xmlns="http://www.w3.org/2000/svg" xmlns:xlink="http://www.w3.org/1999/xlink">
<g id="graph0" class="graph" transform="scale(1 1) rotate(0) translate(4 470)">
<title>G</title>
<polygon fill="#ffffff" stroke="transparent" points="-4,4 -4,-470 508.5864,-470 508.5864,4 -4,4"/>
<!-- 0 -->
<g id="node1" class="node">
<title>0</title>
<text text-anchor="middle" x="151.5708" y="-443.8" font-family="Times,serif" font-size="14.00" fill="#000000">0 (None)</text>
</g>
<!-- 3 -->
<g id="node2" class="node">
<title>3</title>
<text text-anchor="middle" x="151.5708" y="-357.8" font-family="Times,serif" font-size="14.00" fill="#000000">3 (menasihati)</text>
</g>
<!-- 0&#45;&gt;3 -->
<g id="edge1" class="edge">
<title>0&#45;&gt;3</title>
<path fill="none" stroke="#000000" d="M151.5708,-429.7616C151.5708,-418.3597 151.5708,-403.4342 151.5708,-390.494"/>
<polygon fill="#000000" stroke="#000000" points="155.0709,-390.2121 151.5708,-380.2121 148.0709,-390.2121 155.0709,-390.2121"/>
<text text-anchor="middle" x="162.8467" y="-400.8" font-family="Times,serif" font-size="14.00" fill="#000000">root</text>
</g>
<!-- 1 -->
<g id="node3" class="node">
<title>1</title>
<text text-anchor="middle" x="45.5708" y="-271.8" font-family="Times,serif" font-size="14.00" fill="#000000">1 (Dr)</text>
</g>
<!-- 3&#45;&gt;1 -->
<g id="edge3" class="edge">
<title>3&#45;&gt;1</title>
<path fill="none" stroke="#000000" d="M128.4413,-343.7669C121.2988,-338.101 113.4216,-331.8158 106.2329,-326 96.1199,-317.8183 85.1284,-308.798 75.3145,-300.6977"/>
<polygon fill="#000000" stroke="#000000" points="77.3302,-297.8229 67.3929,-294.1485 72.8698,-303.2179 77.3302,-297.8229"/>
<text text-anchor="middle" x="121.7397" y="-314.8" font-family="Times,serif" font-size="14.00" fill="#000000">nsubj</text>
</g>
<!-- 4 -->
<g id="node5" class="node">
<title>4</title>
<text text-anchor="middle" x="131.5708" y="-271.8" font-family="Times,serif" font-size="14.00" fill="#000000">4 (mereka)</text>
</g>
<!-- 3&#45;&gt;4 -->
<g id="edge4" class="edge">
<title>3&#45;&gt;4</title>
<path fill="none" stroke="#000000" d="M147.3293,-343.7616C144.6512,-332.2456 141.1372,-317.1353 138.1072,-304.1064"/>
<polygon fill="#000000" stroke="#000000" points="141.4804,-303.1594 135.8062,-294.2121 134.6624,-304.745 141.4804,-303.1594"/>
<text text-anchor="middle" x="152.5156" y="-314.8" font-family="Times,serif" font-size="14.00" fill="#000000">obj</text>
</g>
<!-- 6 -->
<g id="node6" class="node">
<title>6</title>
<text text-anchor="middle" x="228.5708" y="-271.8" font-family="Times,serif" font-size="14.00" fill="#000000">6 (berhenti)</text>
</g>
<!-- 3&#45;&gt;6 -->
<g id="edge5" class="edge">
<title>3&#45;&gt;6</title>
<path fill="none" stroke="#000000" d="M167.9005,-343.7616C178.8238,-331.5615 193.3591,-315.3273 205.464,-301.8076"/>
<polygon fill="#000000" stroke="#000000" points="208.2017,-303.9969 212.2646,-294.2121 202.9865,-299.3276 208.2017,-303.9969"/>
<text text-anchor="middle" x="214.6226" y="-314.8" font-family="Times,serif" font-size="14.00" fill="#000000">xcomp</text>
</g>
<!-- 12 -->
<g id="node7" class="node">
<title>12</title>
<text text-anchor="middle" x="340.5708" y="-271.8" font-family="Times,serif" font-size="14.00" fill="#000000">12 (mengantuk)</text>
</g>
<!-- 3&#45;&gt;12 -->
<g id="edge6" class="edge">
<title>3&#45;&gt;12</title>
<path fill="none" stroke="#000000" d="M195.9665,-343.9678C209.3999,-338.3635 224.147,-332.0622 237.5708,-326 256.7,-317.3612 277.5726,-307.3422 295.4958,-298.5513"/>
<polygon fill="#000000" stroke="#000000" points="297.15,-301.6381 304.5747,-294.0801 294.0573,-295.3584 297.15,-301.6381"/>
<text text-anchor="middle" x="282.1226" y="-314.8" font-family="Times,serif" font-size="14.00" fill="#000000">amod</text>
</g>
<!-- 2 -->
<g id="node4" class="node">
<title>2</title>
<text text-anchor="middle" x="43.5708" y="-185.8" font-family="Times,serif" font-size="14.00" fill="#000000">2 (Mahathir)</text>
</g>
<!-- 1&#45;&gt;2 -->
<g id="edge2" class="edge">
<title>1&#45;&gt;2</title>
<path fill="none" stroke="#000000" d="M45.1467,-257.7616C44.8815,-246.3597 44.5344,-231.4342 44.2335,-218.494"/>
<polygon fill="#000000" stroke="#000000" points="47.726,-218.128 43.9943,-208.2121 40.7279,-218.2908 47.726,-218.128"/>
<text text-anchor="middle" x="54.5156" y="-228.8" font-family="Times,serif" font-size="14.00" fill="#000000">flat</text>
</g>
<!-- 5 -->
<g id="node8" class="node">
<title>5</title>
<text text-anchor="middle" x="142.5708" y="-185.8" font-family="Times,serif" font-size="14.00" fill="#000000">5 (supaya)</text>
</g>
<!-- 6&#45;&gt;5 -->
<g id="edge7" class="edge">
<title>6&#45;&gt;5</title>
<path fill="none" stroke="#000000" d="M210.3324,-257.7616C198.0183,-245.4475 181.5943,-229.0235 168.0001,-215.4293"/>
<polygon fill="#000000" stroke="#000000" points="170.3289,-212.8083 160.7829,-208.2121 165.3791,-217.7581 170.3289,-212.8083"/>
<text text-anchor="middle" x="203.6157" y="-228.8" font-family="Times,serif" font-size="14.00" fill="#000000">case</text>
</g>
<!-- 7 -->
<g id="node9" class="node">
<title>7</title>
<text text-anchor="middle" x="236.5708" y="-185.8" font-family="Times,serif" font-size="14.00" fill="#000000">7 (berehat)</text>
</g>
<!-- 6&#45;&gt;7 -->
<g id="edge8" class="edge">
<title>6&#45;&gt;7</title>
<path fill="none" stroke="#000000" d="M230.2674,-257.7616C231.328,-246.3597 232.7165,-231.4342 233.9202,-218.494"/>
<polygon fill="#000000" stroke="#000000" points="237.4353,-218.4933 234.8767,-208.2121 230.4654,-217.8449 237.4353,-218.4933"/>
<text text-anchor="middle" x="242.5156" y="-228.8" font-family="Times,serif" font-size="14.00" fill="#000000">obj</text>
</g>
<!-- 11 -->
<g id="node13" class="node">
<title>11</title>
<text text-anchor="middle" x="340.5708" y="-185.8" font-family="Times,serif" font-size="14.00" fill="#000000">11 (sekiranya)</text>
</g>
<!-- 12&#45;&gt;11 -->
<g id="edge12" class="edge">
<title>12&#45;&gt;11</title>
<path fill="none" stroke="#000000" d="M340.5708,-257.7616C340.5708,-246.3597 340.5708,-231.4342 340.5708,-218.494"/>
<polygon fill="#000000" stroke="#000000" points="344.0709,-218.2121 340.5708,-208.2121 337.0709,-218.2121 344.0709,-218.2121"/>
<text text-anchor="middle" x="354.9536" y="-228.8" font-family="Times,serif" font-size="14.00" fill="#000000">mark</text>
</g>
<!-- 14 -->
<g id="node14" class="node">
<title>14</title>
<text text-anchor="middle" x="455.5708" y="-185.8" font-family="Times,serif" font-size="14.00" fill="#000000">14 (memandu)</text>
</g>
<!-- 12&#45;&gt;14 -->
<g id="edge13" class="edge">
<title>12&#45;&gt;14</title>
<path fill="none" stroke="#000000" d="M364.6786,-257.9716C381.6989,-245.2433 404.6929,-228.0478 423.2945,-214.1371"/>
<polygon fill="#000000" stroke="#000000" points="425.5825,-216.7965 431.4948,-208.0047 421.3903,-211.1906 425.5825,-216.7965"/>
<text text-anchor="middle" x="419.7295" y="-228.8" font-family="Times,serif" font-size="14.00" fill="#000000">advcl</text>
</g>
<!-- 9 -->
<g id="node10" class="node">
<title>9</title>
<text text-anchor="middle" x="236.5708" y="-99.8" font-family="Times,serif" font-size="14.00" fill="#000000">9 (tidur)</text>
</g>
<!-- 7&#45;&gt;9 -->
<g id="edge9" class="edge">
<title>7&#45;&gt;9</title>
<path fill="none" stroke="#000000" d="M236.5708,-171.7616C236.5708,-160.3597 236.5708,-145.4342 236.5708,-132.494"/>
<polygon fill="#000000" stroke="#000000" points="240.0709,-132.2121 236.5708,-122.2121 233.0709,-132.2121 240.0709,-132.2121"/>
<text text-anchor="middle" x="248.6226" y="-142.8" font-family="Times,serif" font-size="14.00" fill="#000000">conj</text>
</g>
<!-- 8 -->
<g id="node11" class="node">
<title>8</title>
<text text-anchor="middle" x="191.5708" y="-13.8" font-family="Times,serif" font-size="14.00" fill="#000000">8 (dan)</text>
</g>
<!-- 9&#45;&gt;8 -->
<g id="edge10" class="edge">
<title>9&#45;&gt;8</title>
<path fill="none" stroke="#000000" d="M227.0275,-85.7616C220.8823,-74.0176 212.7812,-58.5355 205.8739,-45.3349"/>
<polygon fill="#000000" stroke="#000000" points="208.8378,-43.4497 201.1004,-36.2121 202.6355,-46.6951 208.8378,-43.4497"/>
<text text-anchor="middle" x="223.7847" y="-56.8" font-family="Times,serif" font-size="14.00" fill="#000000">cc</text>
</g>
<!-- 10 -->
<g id="node12" class="node">
<title>10</title>
<text text-anchor="middle" x="282.5708" y="-13.8" font-family="Times,serif" font-size="14.00" fill="#000000">10 (sebentar)</text>
</g>
<!-- 9&#45;&gt;10 -->
<g id="edge11" class="edge">
<title>9&#45;&gt;10</title>
<path fill="none" stroke="#000000" d="M246.3262,-85.7616C252.6079,-74.0176 260.889,-58.5355 267.9498,-45.3349"/>
<polygon fill="#000000" stroke="#000000" points="271.1991,-46.6808 272.8294,-36.2121 265.0266,-43.3792 271.1991,-46.6808"/>
<text text-anchor="middle" x="281.2295" y="-56.8" font-family="Times,serif" font-size="14.00" fill="#000000">ccomp</text>
</g>
<!-- 13 -->
<g id="node15" class="node">
<title>13</title>
<text text-anchor="middle" x="241.5708" y="-443.8" font-family="Times,serif" font-size="14.00" fill="#000000">13 (ketika)</text>
</g>
<!-- 13&#45;&gt;13 -->
<g id="edge14" class="edge">
<title>13&#45;&gt;13</title>
<path fill="none" stroke="#000000" d="M280.1366,-455.8058C290.3505,-455.3597 298.0864,-452.7578 298.0864,-448 298.0864,-445.0264 295.0646,-442.8949 290.3046,-441.6055"/>
<polygon fill="#000000" stroke="#000000" points="290.5229,-438.1024 280.1366,-440.1942 289.5604,-445.0359 290.5229,-438.1024"/>
<text text-anchor="middle" x="312.4692" y="-443.8" font-family="Times,serif" font-size="14.00" fill="#000000">mark</text>
</g>
</g>
</svg>
