<?xml version="1.0" encoding="UTF-8" standalone="no"?>
<!DOCTYPE svg PUBLIC "-//W3C//DTD SVG 1.1//EN"
 "http://www.w3.org/Graphics/SVG/1.1/DTD/svg11.dtd">
<!-- Generated by graphviz version 2.40.1 (20161225.0304)
 -->
<!-- Title: G Pages: 1 -->
<svg width="460pt" height="560pt"
 viewBox="0.00 0.00 459.59 560.00" xmlns="http://www.w3.org/2000/svg" xmlns:xlink="http://www.w3.org/1999/xlink">
<g id="graph0" class="graph" transform="scale(1 1) rotate(0) translate(4 556)">
<title>G</title>
<polygon fill="#ffffff" stroke="transparent" points="-4,4 -4,-556 455.5864,-556 455.5864,4 -4,4"/>
<!-- 0 -->
<g id="node1" class="node">
<title>0</title>
<text text-anchor="middle" x="143.5708" y="-529.8" font-family="Times,serif" font-size="14.00" fill="#000000">0 (None)</text>
</g>
<!-- 3 -->
<g id="node2" class="node">
<title>3</title>
<text text-anchor="middle" x="143.5708" y="-443.8" font-family="Times,serif" font-size="14.00" fill="#000000">3 (menasihati)</text>
</g>
<!-- 0&#45;&gt;3 -->
<g id="edge1" class="edge">
<title>0&#45;&gt;3</title>
<path fill="none" stroke="#000000" d="M143.5708,-515.7616C143.5708,-504.3597 143.5708,-489.4342 143.5708,-476.494"/>
<polygon fill="#000000" stroke="#000000" points="147.0709,-476.2121 143.5708,-466.2121 140.0709,-476.2121 147.0709,-476.2121"/>
<text text-anchor="middle" x="154.8467" y="-486.8" font-family="Times,serif" font-size="14.00" fill="#000000">root</text>
</g>
<!-- 2 -->
<g id="node4" class="node">
<title>2</title>
<text text-anchor="middle" x="43.5708" y="-357.8" font-family="Times,serif" font-size="14.00" fill="#000000">2 (Mahathir)</text>
</g>
<!-- 3&#45;&gt;2 -->
<g id="edge3" class="edge">
<title>3&#45;&gt;2</title>
<path fill="none" stroke="#000000" d="M122.3634,-429.7616C107.9121,-417.3335 88.5929,-400.719 72.7015,-387.0524"/>
<polygon fill="#000000" stroke="#000000" points="74.6117,-384.0789 64.7477,-380.2121 70.0474,-389.3862 74.6117,-384.0789"/>
<text text-anchor="middle" x="115.5156" y="-400.8" font-family="Times,serif" font-size="14.00" fill="#000000">nmod</text>
</g>
<!-- 4 -->
<g id="node5" class="node">
<title>4</title>
<text text-anchor="middle" x="143.5708" y="-357.8" font-family="Times,serif" font-size="14.00" fill="#000000">4 (mereka)</text>
</g>
<!-- 3&#45;&gt;4 -->
<g id="edge4" class="edge">
<title>3&#45;&gt;4</title>
<path fill="none" stroke="#000000" d="M143.5708,-429.7616C143.5708,-418.3597 143.5708,-403.4342 143.5708,-390.494"/>
<polygon fill="#000000" stroke="#000000" points="147.0709,-390.2121 143.5708,-380.2121 140.0709,-390.2121 147.0709,-390.2121"/>
<text text-anchor="middle" x="152.5156" y="-400.8" font-family="Times,serif" font-size="14.00" fill="#000000">obj</text>
</g>
<!-- 6 -->
<g id="node6" class="node">
<title>6</title>
<text text-anchor="middle" x="240.5708" y="-357.8" font-family="Times,serif" font-size="14.00" fill="#000000">6 (berhenti)</text>
</g>
<!-- 3&#45;&gt;6 -->
<g id="edge5" class="edge">
<title>3&#45;&gt;6</title>
<path fill="none" stroke="#000000" d="M164.142,-429.7616C178.1598,-417.3335 196.8993,-400.719 212.314,-387.0524"/>
<polygon fill="#000000" stroke="#000000" points="214.8686,-389.4651 220.0292,-380.2121 210.2247,-384.2273 214.8686,-389.4651"/>
<text text-anchor="middle" x="217.6226" y="-400.8" font-family="Times,serif" font-size="14.00" fill="#000000">xcomp</text>
</g>
<!-- 1 -->
<g id="node3" class="node">
<title>1</title>
<text text-anchor="middle" x="43.5708" y="-271.8" font-family="Times,serif" font-size="14.00" fill="#000000">1 (Dr)</text>
</g>
<!-- 2&#45;&gt;1 -->
<g id="edge2" class="edge">
<title>2&#45;&gt;1</title>
<path fill="none" stroke="#000000" d="M43.5708,-343.7616C43.5708,-332.3597 43.5708,-317.4342 43.5708,-304.494"/>
<polygon fill="#000000" stroke="#000000" points="47.0709,-304.2121 43.5708,-294.2121 40.0709,-304.2121 47.0709,-304.2121"/>
<text text-anchor="middle" x="58.7397" y="-314.8" font-family="Times,serif" font-size="14.00" fill="#000000">nsubj</text>
</g>
<!-- 5 -->
<g id="node7" class="node">
<title>5</title>
<text text-anchor="middle" x="181.5708" y="-271.8" font-family="Times,serif" font-size="14.00" fill="#000000">5 (supaya)</text>
</g>
<!-- 6&#45;&gt;5 -->
<g id="edge7" class="edge">
<title>6&#45;&gt;5</title>
<path fill="none" stroke="#000000" d="M228.0584,-343.7616C219.845,-331.7896 208.9666,-315.9328 199.798,-302.5685"/>
<polygon fill="#000000" stroke="#000000" points="202.6084,-300.4781 194.0651,-294.2121 196.8362,-304.4381 202.6084,-300.4781"/>
<text text-anchor="middle" x="227.6157" y="-314.8" font-family="Times,serif" font-size="14.00" fill="#000000">case</text>
</g>
<!-- 7 -->
<g id="node9" class="node">
<title>7</title>
<text text-anchor="middle" x="275.5708" y="-271.8" font-family="Times,serif" font-size="14.00" fill="#000000">7 (berehat)</text>
</g>
<!-- 6&#45;&gt;7 -->
<g id="edge8" class="edge">
<title>6&#45;&gt;7</title>
<path fill="none" stroke="#000000" d="M247.9934,-343.7616C252.7265,-332.1316 258.9516,-316.8357 264.2894,-303.72"/>
<polygon fill="#000000" stroke="#000000" points="267.6311,-304.7938 268.1589,-294.2121 261.1475,-302.1551 267.6311,-304.7938"/>
<text text-anchor="middle" x="279.2295" y="-314.8" font-family="Times,serif" font-size="14.00" fill="#000000">ccomp</text>
</g>
<!-- 9 -->
<g id="node8" class="node">
<title>9</title>
<text text-anchor="middle" x="181.5708" y="-185.8" font-family="Times,serif" font-size="14.00" fill="#000000">9 (tidur)</text>
</g>
<!-- 5&#45;&gt;9 -->
<g id="edge6" class="edge">
<title>5&#45;&gt;9</title>
<path fill="none" stroke="#000000" d="M181.5708,-257.7616C181.5708,-246.3597 181.5708,-231.4342 181.5708,-218.494"/>
<polygon fill="#000000" stroke="#000000" points="185.0709,-218.2121 181.5708,-208.2121 178.0709,-218.2121 185.0709,-218.2121"/>
<text text-anchor="middle" x="193.6226" y="-228.8" font-family="Times,serif" font-size="14.00" fill="#000000">conj</text>
</g>
<!-- 8 -->
<g id="node10" class="node">
<title>8</title>
<text text-anchor="middle" x="90.5708" y="-99.8" font-family="Times,serif" font-size="14.00" fill="#000000">8 (dan)</text>
</g>
<!-- 9&#45;&gt;8 -->
<g id="edge9" class="edge">
<title>9&#45;&gt;8</title>
<path fill="none" stroke="#000000" d="M162.272,-171.7616C149.242,-159.4475 131.8632,-143.0235 117.4785,-129.4293"/>
<polygon fill="#000000" stroke="#000000" points="119.5137,-126.5369 109.8417,-122.2121 114.7057,-131.6245 119.5137,-126.5369"/>
<text text-anchor="middle" x="147.7847" y="-142.8" font-family="Times,serif" font-size="14.00" fill="#000000">cc</text>
</g>
<!-- 10 -->
<g id="node11" class="node">
<title>10</title>
<text text-anchor="middle" x="181.5708" y="-99.8" font-family="Times,serif" font-size="14.00" fill="#000000">10 (sebentar)</text>
</g>
<!-- 9&#45;&gt;10 -->
<g id="edge10" class="edge">
<title>9&#45;&gt;10</title>
<path fill="none" stroke="#000000" d="M181.5708,-171.7616C181.5708,-160.3597 181.5708,-145.4342 181.5708,-132.494"/>
<polygon fill="#000000" stroke="#000000" points="185.0709,-132.2121 181.5708,-122.2121 178.0709,-132.2121 185.0709,-132.2121"/>
<text text-anchor="middle" x="190.1226" y="-142.8" font-family="Times,serif" font-size="14.00" fill="#000000">det</text>
</g>
<!-- 12 -->
<g id="node12" class="node">
<title>12</title>
<text text-anchor="middle" x="296.5708" y="-99.8" font-family="Times,serif" font-size="14.00" fill="#000000">12 (mengantuk)</text>
</g>
<!-- 9&#45;&gt;12 -->
<g id="edge11" class="edge">
<title>9&#45;&gt;12</title>
<path fill="none" stroke="#000000" d="M205.6786,-171.9716C222.6989,-159.2433 245.6929,-142.0478 264.2945,-128.1371"/>
<polygon fill="#000000" stroke="#000000" points="266.5825,-130.7965 272.4948,-122.0047 262.3903,-125.1906 266.5825,-130.7965"/>
<text text-anchor="middle" x="262.1226" y="-142.8" font-family="Times,serif" font-size="14.00" fill="#000000">amod</text>
</g>
<!-- 11 -->
<g id="node13" class="node">
<title>11</title>
<text text-anchor="middle" x="192.5708" y="-13.8" font-family="Times,serif" font-size="14.00" fill="#000000">11 (sekiranya)</text>
</g>
<!-- 12&#45;&gt;11 -->
<g id="edge12" class="edge">
<title>12&#45;&gt;11</title>
<path fill="none" stroke="#000000" d="M274.769,-85.9716C259.5153,-73.358 238.9563,-56.3573 222.2155,-42.5139"/>
<polygon fill="#000000" stroke="#000000" points="224.2808,-39.6801 214.3439,-36.0047 219.8199,-45.0746 224.2808,-39.6801"/>
<text text-anchor="middle" x="265.9536" y="-56.8" font-family="Times,serif" font-size="14.00" fill="#000000">mark</text>
</g>
<!-- 13 -->
<g id="node14" class="node">
<title>13</title>
<text text-anchor="middle" x="296.5708" y="-13.8" font-family="Times,serif" font-size="14.00" fill="#000000">13 (ketika)</text>
</g>
<!-- 12&#45;&gt;13 -->
<g id="edge13" class="edge">
<title>12&#45;&gt;13</title>
<path fill="none" stroke="#000000" d="M296.5708,-85.7616C296.5708,-74.3597 296.5708,-59.4342 296.5708,-46.494"/>
<polygon fill="#000000" stroke="#000000" points="300.0709,-46.2121 296.5708,-36.2121 293.0709,-46.2121 300.0709,-46.2121"/>
<text text-anchor="middle" x="310.9536" y="-56.8" font-family="Times,serif" font-size="14.00" fill="#000000">mark</text>
</g>
<!-- 14 -->
<g id="node15" class="node">
<title>14</title>
<text text-anchor="middle" x="402.5708" y="-13.8" font-family="Times,serif" font-size="14.00" fill="#000000">14 (memandu)</text>
</g>
<!-- 12&#45;&gt;14 -->
<g id="edge14" class="edge">
<title>12&#45;&gt;14</title>
<path fill="none" stroke="#000000" d="M318.7919,-85.9716C334.3389,-73.358 355.2932,-56.3573 372.3561,-42.5139"/>
<polygon fill="#000000" stroke="#000000" points="374.8185,-45.0231 380.379,-36.0047 370.4082,-39.5872 374.8185,-45.0231"/>
<text text-anchor="middle" x="371.7295" y="-56.8" font-family="Times,serif" font-size="14.00" fill="#000000">advcl</text>
</g>
</g>
</svg>
