<?xml version="1.0" encoding="UTF-8" standalone="no"?>
<!DOCTYPE svg PUBLIC "-//W3C//DTD SVG 1.1//EN"
 "http://www.w3.org/Graphics/SVG/1.1/DTD/svg11.dtd">
<!-- Generated by graphviz version 2.40.1 (20161225.0304)
 -->
<!-- Title: G Pages: 1 -->
<svg width="544pt" height="474pt"
 viewBox="0.00 0.00 543.85 474.00" xmlns="http://www.w3.org/2000/svg" xmlns:xlink="http://www.w3.org/1999/xlink">
<g id="graph0" class="graph" transform="scale(1 1) rotate(0) translate(4 470)">
<title>G</title>
<polygon fill="#ffffff" stroke="transparent" points="-4,4 -4,-470 539.8521,-470 539.8521,4 -4,4"/>
<!-- 0 -->
<g id="node1" class="node">
<title>0</title>
<text text-anchor="middle" x="131.5708" y="-443.8" font-family="Times,serif" font-size="14.00" fill="#000000">0 (None)</text>
</g>
<!-- 3 -->
<g id="node2" class="node">
<title>3</title>
<text text-anchor="middle" x="131.5708" y="-357.8" font-family="Times,serif" font-size="14.00" fill="#000000">3 (menasihati)</text>
</g>
<!-- 0&#45;&gt;3 -->
<g id="edge1" class="edge">
<title>0&#45;&gt;3</title>
<path fill="none" stroke="#000000" d="M131.5708,-429.7616C131.5708,-418.3597 131.5708,-403.4342 131.5708,-390.494"/>
<polygon fill="#000000" stroke="#000000" points="135.0709,-390.2121 131.5708,-380.2121 128.0709,-390.2121 135.0709,-390.2121"/>
<text text-anchor="middle" x="142.8467" y="-400.8" font-family="Times,serif" font-size="14.00" fill="#000000">root</text>
</g>
<!-- 1 -->
<g id="node3" class="node">
<title>1</title>
<text text-anchor="middle" x="44.5708" y="-271.8" font-family="Times,serif" font-size="14.00" fill="#000000">1 (Dr)</text>
</g>
<!-- 3&#45;&gt;1 -->
<g id="edge3" class="edge">
<title>3&#45;&gt;1</title>
<path fill="none" stroke="#000000" d="M113.1203,-343.7616C100.6631,-331.4475 84.0481,-315.0235 70.2958,-301.4293"/>
<polygon fill="#000000" stroke="#000000" points="72.5671,-298.7531 62.9947,-294.2121 67.646,-303.7314 72.5671,-298.7531"/>
<text text-anchor="middle" x="108.7397" y="-314.8" font-family="Times,serif" font-size="14.00" fill="#000000">nsubj</text>
</g>
<!-- 4 -->
<g id="node5" class="node">
<title>4</title>
<text text-anchor="middle" x="131.5708" y="-271.8" font-family="Times,serif" font-size="14.00" fill="#000000">4 (mereka)</text>
</g>
<!-- 3&#45;&gt;4 -->
<g id="edge4" class="edge">
<title>3&#45;&gt;4</title>
<path fill="none" stroke="#000000" d="M131.5708,-343.7616C131.5708,-332.3597 131.5708,-317.4342 131.5708,-304.494"/>
<polygon fill="#000000" stroke="#000000" points="135.0709,-304.2121 131.5708,-294.2121 128.0709,-304.2121 135.0709,-304.2121"/>
<text text-anchor="middle" x="140.1226" y="-314.8" font-family="Times,serif" font-size="14.00" fill="#000000">det</text>
</g>
<!-- 6 -->
<g id="node6" class="node">
<title>6</title>
<text text-anchor="middle" x="229.5708" y="-271.8" font-family="Times,serif" font-size="14.00" fill="#000000">6 (berhenti)</text>
</g>
<!-- 3&#45;&gt;6 -->
<g id="edge5" class="edge">
<title>3&#45;&gt;6</title>
<path fill="none" stroke="#000000" d="M152.3541,-343.7616C166.5164,-331.3335 185.4491,-314.719 201.0227,-301.0524"/>
<polygon fill="#000000" stroke="#000000" points="203.6098,-303.4387 208.8175,-294.2121 198.9926,-298.1773 203.6098,-303.4387"/>
<text text-anchor="middle" x="201.7295" y="-314.8" font-family="Times,serif" font-size="14.00" fill="#000000">advcl</text>
</g>
<!-- 2 -->
<g id="node4" class="node">
<title>2</title>
<text text-anchor="middle" x="43.5708" y="-185.8" font-family="Times,serif" font-size="14.00" fill="#000000">2 (Mahathir)</text>
</g>
<!-- 1&#45;&gt;2 -->
<g id="edge2" class="edge">
<title>1&#45;&gt;2</title>
<path fill="none" stroke="#000000" d="M44.3587,-257.7616C44.2261,-246.3597 44.0526,-231.4342 43.9021,-218.494"/>
<polygon fill="#000000" stroke="#000000" points="47.3987,-218.1707 43.7826,-208.2121 40.3992,-218.2522 47.3987,-218.1707"/>
<text text-anchor="middle" x="53.5156" y="-228.8" font-family="Times,serif" font-size="14.00" fill="#000000">flat</text>
</g>
<!-- 5 -->
<g id="node7" class="node">
<title>5</title>
<text text-anchor="middle" x="142.5708" y="-185.8" font-family="Times,serif" font-size="14.00" fill="#000000">5 (supaya)</text>
</g>
<!-- 6&#45;&gt;5 -->
<g id="edge6" class="edge">
<title>6&#45;&gt;5</title>
<path fill="none" stroke="#000000" d="M211.1203,-257.7616C198.6631,-245.4475 182.0481,-229.0235 168.2958,-215.4293"/>
<polygon fill="#000000" stroke="#000000" points="170.5671,-212.7531 160.9947,-208.2121 165.646,-217.7314 170.5671,-212.7531"/>
<text text-anchor="middle" x="205.9536" y="-228.8" font-family="Times,serif" font-size="14.00" fill="#000000">mark</text>
</g>
<!-- 7 -->
<g id="node8" class="node">
<title>7</title>
<text text-anchor="middle" x="236.5708" y="-185.8" font-family="Times,serif" font-size="14.00" fill="#000000">7 (berehat)</text>
</g>
<!-- 6&#45;&gt;7 -->
<g id="edge7" class="edge">
<title>6&#45;&gt;7</title>
<path fill="none" stroke="#000000" d="M231.0553,-257.7616C231.9834,-246.3597 233.1983,-231.4342 234.2515,-218.494"/>
<polygon fill="#000000" stroke="#000000" points="237.7655,-218.4631 235.0884,-208.2121 230.7886,-217.8952 237.7655,-218.4631"/>
<text text-anchor="middle" x="242.5156" y="-228.8" font-family="Times,serif" font-size="14.00" fill="#000000">obj</text>
</g>
<!-- 12 -->
<g id="node9" class="node">
<title>12</title>
<text text-anchor="middle" x="345.5708" y="-185.8" font-family="Times,serif" font-size="14.00" fill="#000000">12 (mengantuk)</text>
</g>
<!-- 6&#45;&gt;12 -->
<g id="edge8" class="edge">
<title>6&#45;&gt;12</title>
<path fill="none" stroke="#000000" d="M253.8882,-257.9716C271.0566,-245.2433 294.2505,-228.0478 313.0138,-214.1371"/>
<polygon fill="#000000" stroke="#000000" points="315.3367,-216.7719 321.2854,-208.0047 311.1678,-211.1487 315.3367,-216.7719"/>
<text text-anchor="middle" x="309.7295" y="-228.8" font-family="Times,serif" font-size="14.00" fill="#000000">advcl</text>
</g>
<!-- 9 -->
<g id="node10" class="node">
<title>9</title>
<text text-anchor="middle" x="236.5708" y="-99.8" font-family="Times,serif" font-size="14.00" fill="#000000">9 (tidur)</text>
</g>
<!-- 7&#45;&gt;9 -->
<g id="edge9" class="edge">
<title>7&#45;&gt;9</title>
<path fill="none" stroke="#000000" d="M236.5708,-171.7616C236.5708,-160.3597 236.5708,-145.4342 236.5708,-132.494"/>
<polygon fill="#000000" stroke="#000000" points="240.0709,-132.2121 236.5708,-122.2121 233.0709,-132.2121 240.0709,-132.2121"/>
<text text-anchor="middle" x="248.6226" y="-142.8" font-family="Times,serif" font-size="14.00" fill="#000000">conj</text>
</g>
<!-- 8 -->
<g id="node11" class="node">
<title>8</title>
<text text-anchor="middle" x="236.5708" y="-13.8" font-family="Times,serif" font-size="14.00" fill="#000000">8 (dan)</text>
</g>
<!-- 9&#45;&gt;8 -->
<g id="edge10" class="edge">
<title>9&#45;&gt;8</title>
<path fill="none" stroke="#000000" d="M236.5708,-85.7616C236.5708,-74.3597 236.5708,-59.4342 236.5708,-46.494"/>
<polygon fill="#000000" stroke="#000000" points="240.0709,-46.2121 236.5708,-36.2121 233.0709,-46.2121 240.0709,-46.2121"/>
<text text-anchor="middle" x="242.7847" y="-56.8" font-family="Times,serif" font-size="14.00" fill="#000000">cc</text>
</g>
<!-- 10 -->
<g id="node12" class="node">
<title>10</title>
<text text-anchor="middle" x="242.5708" y="-357.8" font-family="Times,serif" font-size="14.00" fill="#000000">10 (sebentar)</text>
</g>
<!-- 11 -->
<g id="node13" class="node">
<title>11</title>
<text text-anchor="middle" x="298.5708" y="-443.8" font-family="Times,serif" font-size="14.00" fill="#000000">11 (sekiranya)</text>
</g>
<!-- 11&#45;&gt;10 -->
<g id="edge11" class="edge">
<title>11&#45;&gt;10</title>
<path fill="none" stroke="#000000" d="M286.6946,-429.7616C278.9731,-417.9036 268.77,-402.2345 260.1203,-388.951"/>
<polygon fill="#000000" stroke="#000000" points="262.8196,-386.6822 254.4298,-380.2121 256.9536,-390.502 262.8196,-386.6822"/>
<text text-anchor="middle" x="297.1226" y="-400.8" font-family="Times,serif" font-size="14.00" fill="#000000">advmod</text>
</g>
<!-- 11&#45;&gt;11 -->
<g id="edge12" class="edge">
<title>11&#45;&gt;11</title>
<path fill="none" stroke="#000000" d="M346.608,-455.6424C357.0063,-454.8951 364.5474,-452.3477 364.5474,-448 364.5474,-445.2827 361.6017,-443.2686 356.8537,-441.9578"/>
<polygon fill="#000000" stroke="#000000" points="357.0283,-438.4427 346.608,-440.3576 355.9481,-445.3588 357.0283,-438.4427"/>
<text text-anchor="middle" x="379.7163" y="-443.8" font-family="Times,serif" font-size="14.00" fill="#000000">nsubj</text>
</g>
<!-- 14 -->
<g id="node14" class="node">
<title>14</title>
<text text-anchor="middle" x="354.5708" y="-357.8" font-family="Times,serif" font-size="14.00" fill="#000000">14 (memandu)</text>
</g>
<!-- 11&#45;&gt;14 -->
<g id="edge13" class="edge">
<title>11&#45;&gt;14</title>
<path fill="none" stroke="#000000" d="M311.4746,-429.8113C315.4192,-424.1471 319.7286,-417.8518 323.5708,-412 328.3795,-404.6762 333.4463,-396.6466 338.0582,-389.2064"/>
<polygon fill="#000000" stroke="#000000" points="341.3434,-390.546 343.6032,-380.195 335.3816,-386.8776 341.3434,-390.546"/>
<text text-anchor="middle" x="347.7295" y="-400.8" font-family="Times,serif" font-size="14.00" fill="#000000">advcl</text>
</g>
<!-- 13 -->
<g id="node15" class="node">
<title>13</title>
<text text-anchor="middle" x="450.5708" y="-443.8" font-family="Times,serif" font-size="14.00" fill="#000000">13 (ketika)</text>
</g>
<!-- 13&#45;&gt;13 -->
<g id="edge14" class="edge">
<title>13&#45;&gt;13</title>
<path fill="none" stroke="#000000" d="M489.1366,-455.8058C499.3505,-455.3597 507.0864,-452.7578 507.0864,-448 507.0864,-445.0264 504.0646,-442.8949 499.3046,-441.6055"/>
<polygon fill="#000000" stroke="#000000" points="499.5229,-438.1024 489.1366,-440.1942 498.5604,-445.0359 499.5229,-438.1024"/>
<text text-anchor="middle" x="521.4692" y="-443.8" font-family="Times,serif" font-size="14.00" fill="#000000">mark</text>
</g>
</g>
</svg>
