<?xml version="1.0" encoding="UTF-8" standalone="no"?>
<!DOCTYPE svg PUBLIC "-//W3C//DTD SVG 1.1//EN"
 "http://www.w3.org/Graphics/SVG/1.1/DTD/svg11.dtd">
<!-- Generated by graphviz version 2.40.1 (20161225.0304)
 -->
<!-- Title: G Pages: 1 -->
<svg width="3110pt" height="388pt"
 viewBox="0.00 0.00 3110.24 388.00" xmlns="http://www.w3.org/2000/svg" xmlns:xlink="http://www.w3.org/1999/xlink">
<g id="graph0" class="graph" transform="scale(1 1) rotate(0) translate(4 384)">
<title>G</title>
<polygon fill="#ffffff" stroke="transparent" points="-4,4 -4,-384 3106.2417,-384 3106.2417,4 -4,4"/>
<!-- 0 -->
<g id="node1" class="node">
<title>0</title>
<text text-anchor="middle" x="1955.064" y="-357.8" font-family="Times,serif" font-size="14.00" fill="#000000">0 (None)</text>
</g>
<!-- 1 -->
<g id="node2" class="node">
<title>1</title>
<text text-anchor="middle" x="2064.064" y="-357.8" font-family="Times,serif" font-size="14.00" fill="#000000">1 (kuala&#45;location)</text>
</g>
<!-- 1&#45;&gt;1 -->
<g id="edge1" class="edge">
<title>1&#45;&gt;1</title>
<path fill="none" stroke="#000000" d="M2122.0146,-369.4424C2132.5941,-368.5003 2140.0142,-366.0195 2140.0142,-362 2140.0142,-359.425 2136.9689,-357.4815 2131.9987,-356.1694"/>
<polygon fill="#000000" stroke="#000000" points="2132.4446,-352.6962 2122.0146,-354.5576 2131.3289,-359.6067 2132.4446,-352.6962"/>
<text text-anchor="middle" x="2143.5142" y="-357.8" font-family="Times,serif" font-size="14.00" fill="#000000">_</text>
</g>
<!-- 2 -->
<g id="node3" class="node">
<title>2</title>
<text text-anchor="middle" x="1198.064" y="-271.8" font-family="Times,serif" font-size="14.00" fill="#000000">2 (lumpur&#45;location)</text>
</g>
<!-- 1&#45;&gt;2 -->
<g id="edge2" class="edge">
<title>1&#45;&gt;2</title>
<path fill="none" stroke="#000000" d="M2006.1298,-345.5726C2003.0769,-344.9778 2000.0417,-344.4467 1997.064,-344 1773.2052,-310.418 1713.5003,-346.4689 1488.064,-326 1393.6809,-317.4303 1367.7775,-313.2813 1271.0989,-294.1249"/>
<polygon fill="#000000" stroke="#000000" points="1271.6903,-290.6741 1261.2003,-292.1606 1270.3277,-297.5402 1271.6903,-290.6741"/>
<text text-anchor="middle" x="1491.564" y="-314.8" font-family="Times,serif" font-size="14.00" fill="#000000">_</text>
</g>
<!-- 5 -->
<g id="node4" class="node">
<title>5</title>
<text text-anchor="middle" x="1337.064" y="-271.8" font-family="Times,serif" font-size="14.00" fill="#000000">5 (aidilfitri&#45;event)</text>
</g>
<!-- 1&#45;&gt;5 -->
<g id="edge3" class="edge">
<title>1&#45;&gt;5</title>
<path fill="none" stroke="#000000" d="M2006.1232,-345.6157C2003.072,-345.0097 2000.039,-344.4644 1997.064,-344 1829.5697,-317.8569 1784.7643,-342.6728 1616.064,-326 1524.385,-316.9393 1499.0015,-313.7182 1405.0052,-294.0939"/>
<polygon fill="#000000" stroke="#000000" points="1405.5777,-290.638 1395.0725,-292.0131 1404.1423,-297.4892 1405.5777,-290.638"/>
<text text-anchor="middle" x="1619.564" y="-314.8" font-family="Times,serif" font-size="14.00" fill="#000000">_</text>
</g>
<!-- 6 -->
<g id="node5" class="node">
<title>6</title>
<text text-anchor="middle" x="1467.064" y="-271.8" font-family="Times,serif" font-size="14.00" fill="#000000">6 (minggu&#45;time)</text>
</g>
<!-- 1&#45;&gt;6 -->
<g id="edge4" class="edge">
<title>1&#45;&gt;6</title>
<path fill="none" stroke="#000000" d="M2006.1087,-345.7053C2003.0613,-345.0758 2000.0331,-344.501 1997.064,-344 1887.2181,-325.4643 1857.7999,-338.1343 1747.064,-326 1653.2796,-315.7232 1627.0346,-314.6106 1531.0693,-294.0872"/>
<polygon fill="#000000" stroke="#000000" points="1531.7582,-290.6553 1521.2454,-291.9712 1530.2843,-297.4984 1531.7582,-290.6553"/>
<text text-anchor="middle" x="1750.564" y="-314.8" font-family="Times,serif" font-size="14.00" fill="#000000">_</text>
</g>
<!-- 7 -->
<g id="node6" class="node">
<title>7</title>
<text text-anchor="middle" x="1588.064" y="-271.8" font-family="Times,serif" font-size="14.00" fill="#000000">7 (depan&#45;time)</text>
</g>
<!-- 1&#45;&gt;7 -->
<g id="edge5" class="edge">
<title>1&#45;&gt;7</title>
<path fill="none" stroke="#000000" d="M2006.0702,-345.9144C2003.0329,-345.2304 2000.0174,-344.5866 1997.064,-344 1936.3963,-331.9494 1920.2819,-334.8397 1859.064,-326 1769.0997,-313.0094 1746.0367,-312.6057 1657.064,-294 1653.9133,-293.3411 1650.6909,-292.6304 1647.4438,-291.8852"/>
<polygon fill="#000000" stroke="#000000" points="1648.2139,-288.4708 1637.6755,-289.5634 1646.5951,-295.2811 1648.2139,-288.4708"/>
<text text-anchor="middle" x="1862.564" y="-314.8" font-family="Times,serif" font-size="14.00" fill="#000000">_</text>
</g>
<!-- 8 -->
<g id="node7" class="node">
<title>8</title>
<text text-anchor="middle" x="1727.064" y="-271.8" font-family="Times,serif" font-size="14.00" fill="#000000">8 (perdana&#45;person)</text>
</g>
<!-- 1&#45;&gt;8 -->
<g id="edge6" class="edge">
<title>1&#45;&gt;8</title>
<path fill="none" stroke="#000000" d="M2005.9757,-346.3276C2002.9631,-345.5357 1999.9787,-344.7558 1997.064,-344 1911.4041,-321.7878 1887.4929,-316.8484 1797.9049,-294.2035"/>
<polygon fill="#000000" stroke="#000000" points="1798.6944,-290.793 1788.1412,-291.7313 1796.9761,-297.5789 1798.6944,-290.793"/>
<text text-anchor="middle" x="1928.564" y="-314.8" font-family="Times,serif" font-size="14.00" fill="#000000">_</text>
</g>
<!-- 9 -->
<g id="node8" class="node">
<title>9</title>
<text text-anchor="middle" x="1866.064" y="-271.8" font-family="Times,serif" font-size="14.00" fill="#000000">9 (menteri&#45;person)</text>
</g>
<!-- 1&#45;&gt;9 -->
<g id="edge7" class="edge">
<title>1&#45;&gt;9</title>
<path fill="none" stroke="#000000" d="M2022.5567,-343.9716C1991.8,-330.6126 1949.7138,-312.3328 1916.9325,-298.0944"/>
<polygon fill="#000000" stroke="#000000" points="1918.0832,-294.7784 1907.5166,-294.0047 1915.2944,-301.1989 1918.0832,-294.7784"/>
<text text-anchor="middle" x="1980.564" y="-314.8" font-family="Times,serif" font-size="14.00" fill="#000000">_</text>
</g>
<!-- 10 -->
<g id="node9" class="node">
<title>10</title>
<text text-anchor="middle" x="1996.064" y="-271.8" font-family="Times,serif" font-size="14.00" fill="#000000">10 (tun&#45;person)</text>
</g>
<!-- 1&#45;&gt;10 -->
<g id="edge8" class="edge">
<title>1&#45;&gt;10</title>
<path fill="none" stroke="#000000" d="M2049.6429,-343.7616C2040.0865,-331.6756 2027.3997,-315.6304 2016.7703,-302.1874"/>
<polygon fill="#000000" stroke="#000000" points="2019.4121,-299.8854 2010.4642,-294.2121 2013.9212,-304.2271 2019.4121,-299.8854"/>
<text text-anchor="middle" x="2038.564" y="-314.8" font-family="Times,serif" font-size="14.00" fill="#000000">_</text>
</g>
<!-- 12 -->
<g id="node10" class="node">
<title>12</title>
<text text-anchor="middle" x="2132.064" y="-271.8" font-family="Times,serif" font-size="14.00" fill="#000000">12 (mahathir&#45;person)</text>
</g>
<!-- 1&#45;&gt;12 -->
<g id="edge9" class="edge">
<title>1&#45;&gt;12</title>
<path fill="none" stroke="#000000" d="M2078.485,-343.7616C2088.0414,-331.6756 2100.7283,-315.6304 2111.3577,-302.1874"/>
<polygon fill="#000000" stroke="#000000" points="2114.2068,-304.2271 2117.6637,-294.2121 2108.7158,-299.8854 2114.2068,-304.2271"/>
<text text-anchor="middle" x="2106.564" y="-314.8" font-family="Times,serif" font-size="14.00" fill="#000000">_</text>
</g>
<!-- 13 -->
<g id="node11" class="node">
<title>13</title>
<text text-anchor="middle" x="2287.064" y="-271.8" font-family="Times,serif" font-size="14.00" fill="#000000">13 (mohamad&#45;person)</text>
</g>
<!-- 1&#45;&gt;13 -->
<g id="edge10" class="edge">
<title>1&#45;&gt;13</title>
<path fill="none" stroke="#000000" d="M2110.8121,-343.9716C2145.7495,-330.498 2193.6669,-312.0186 2230.721,-297.7287"/>
<polygon fill="#000000" stroke="#000000" points="2232.3066,-300.8685 2240.3774,-294.0047 2229.7878,-294.3374 2232.3066,-300.8685"/>
<text text-anchor="middle" x="2192.564" y="-314.8" font-family="Times,serif" font-size="14.00" fill="#000000">_</text>
</g>
<!-- 20 -->
<g id="node12" class="node">
<title>20</title>
<text text-anchor="middle" x="2430.064" y="-271.8" font-family="Times,serif" font-size="14.00" fill="#000000">20 (fook&#45;person)</text>
</g>
<!-- 1&#45;&gt;20 -->
<g id="edge11" class="edge">
<title>1&#45;&gt;20</title>
<path fill="none" stroke="#000000" d="M2122.1751,-349.8663C2180.9998,-337.3694 2274.7793,-316.8612 2364.7869,-294.2674"/>
<polygon fill="#000000" stroke="#000000" points="2365.7688,-297.6294 2374.6089,-291.7896 2364.0566,-290.8421 2365.7688,-297.6294"/>
<text text-anchor="middle" x="2295.564" y="-314.8" font-family="Times,serif" font-size="14.00" fill="#000000">_</text>
</g>
<!-- 21 -->
<g id="node13" class="node">
<title>21</title>
<text text-anchor="middle" x="2582.064" y="-271.8" font-family="Times,serif" font-size="14.00" fill="#000000">21 (menitipkan&#45;OTHER)</text>
</g>
<!-- 1&#45;&gt;21 -->
<g id="edge12" class="edge">
<title>1&#45;&gt;21</title>
<path fill="none" stroke="#000000" d="M2122.3096,-353.8095C2203.1971,-342.2089 2354.3187,-319.7191 2493.4159,-294.0847"/>
<polygon fill="#000000" stroke="#000000" points="2494.2137,-297.4965 2503.4089,-292.2337 2492.9387,-290.6136 2494.2137,-297.4965"/>
<text text-anchor="middle" x="2392.564" y="-314.8" font-family="Times,serif" font-size="14.00" fill="#000000">_</text>
</g>
<!-- 35 -->
<g id="node14" class="node">
<title>35</title>
<text text-anchor="middle" x="2741.064" y="-271.8" font-family="Times,serif" font-size="14.00" fill="#000000">35 (video&#45;OTHER)</text>
</g>
<!-- 1&#45;&gt;35 -->
<g id="edge13" class="edge">
<title>1&#45;&gt;35</title>
<path fill="none" stroke="#000000" d="M2122.1223,-358.2563C2228.7627,-350.7778 2463.0088,-331.553 2668.0091,-294.2733"/>
<polygon fill="#000000" stroke="#000000" points="2668.854,-297.6767 2678.0569,-292.4271 2667.589,-290.792 2668.854,-297.6767"/>
<text text-anchor="middle" x="2558.564" y="-314.8" font-family="Times,serif" font-size="14.00" fill="#000000">_</text>
</g>
<!-- 36 -->
<g id="node15" class="node">
<title>36</title>
<text text-anchor="middle" x="2889.064" y="-271.8" font-family="Times,serif" font-size="14.00" fill="#000000">36 (pendek&#45;OTHER)</text>
</g>
<!-- 1&#45;&gt;36 -->
<g id="edge14" class="edge">
<title>1&#45;&gt;36</title>
<path fill="none" stroke="#000000" d="M2122.3397,-360.282C2247.3817,-355.8266 2550.5971,-340.9055 2811.5505,-294.1811"/>
<polygon fill="#000000" stroke="#000000" points="2812.3789,-297.5881 2821.5955,-292.3628 2811.132,-290.7 2812.3789,-297.5881"/>
<text text-anchor="middle" x="2695.564" y="-314.8" font-family="Times,serif" font-size="14.00" fill="#000000">_</text>
</g>
<!-- 56 -->
<g id="node16" class="node">
<title>56</title>
<text text-anchor="middle" x="3038.064" y="-271.8" font-family="Times,serif" font-size="14.00" fill="#000000">56 (ketika&#45;OTHER)</text>
</g>
<!-- 1&#45;&gt;56 -->
<g id="edge15" class="edge">
<title>1&#45;&gt;56</title>
<path fill="none" stroke="#000000" d="M2122.3058,-359.9918C2234.7404,-355.8332 2489.4621,-345.0409 2703.064,-326 2816.7154,-315.8689 2847.9908,-315.2206 2963.7053,-294.1499"/>
<polygon fill="#000000" stroke="#000000" points="2964.4632,-297.5694 2973.6683,-292.3237 2963.2011,-290.6841 2964.4632,-297.5694"/>
<text text-anchor="middle" x="2851.564" y="-314.8" font-family="Times,serif" font-size="14.00" fill="#000000">_</text>
</g>
<!-- 18 -->
<g id="node19" class="node">
<title>18</title>
<text text-anchor="middle" x="1013.064" y="-185.8" font-family="Times,serif" font-size="14.00" fill="#000000">18 (loke&#45;person)</text>
</g>
<!-- 7&#45;&gt;18 -->
<g id="edge16" class="edge">
<title>7&#45;&gt;18</title>
<path fill="none" stroke="#000000" d="M1538.5731,-259.8539C1535.7096,-259.1657 1532.859,-258.5397 1530.064,-258 1432.4337,-239.1497 1405.9063,-250.8264 1307.064,-240 1207.2528,-229.0674 1179.2119,-229.3698 1077.6455,-208.201"/>
<polygon fill="#000000" stroke="#000000" points="1078.0884,-204.7176 1067.5821,-206.0842 1076.6475,-211.5677 1078.0884,-204.7176"/>
<text text-anchor="middle" x="1310.564" y="-228.8" font-family="Times,serif" font-size="14.00" fill="#000000">_</text>
</g>
<!-- 27 -->
<g id="node20" class="node">
<title>27</title>
<text text-anchor="middle" x="1146.064" y="-185.8" font-family="Times,serif" font-size="14.00" fill="#000000">27 (yang&#45;OTHER)</text>
</g>
<!-- 7&#45;&gt;27 -->
<g id="edge17" class="edge">
<title>7&#45;&gt;27</title>
<path fill="none" stroke="#000000" d="M1538.522,-260.0949C1535.6716,-259.3453 1532.8377,-258.6401 1530.064,-258 1478.7993,-246.1705 1465.0333,-248.1971 1413.064,-240 1328.1063,-226.5997 1303.9682,-226.3809 1216.7356,-208.2689"/>
<polygon fill="#000000" stroke="#000000" points="1217.4481,-204.8422 1206.9427,-206.2162 1216.012,-211.6934 1217.4481,-204.8422"/>
<text text-anchor="middle" x="1416.564" y="-228.8" font-family="Times,serif" font-size="14.00" fill="#000000">_</text>
</g>
<!-- 28 -->
<g id="node21" class="node">
<title>28</title>
<text text-anchor="middle" x="1287.064" y="-185.8" font-family="Times,serif" font-size="14.00" fill="#000000">28 (mahu&#45;OTHER)</text>
</g>
<!-- 7&#45;&gt;28 -->
<g id="edge18" class="edge">
<title>7&#45;&gt;28</title>
<path fill="none" stroke="#000000" d="M1538.7315,-260.5867C1535.8013,-259.7033 1532.8954,-258.8354 1530.064,-258 1472.9669,-241.1548 1408.0172,-223.0331 1359.6394,-209.7363"/>
<polygon fill="#000000" stroke="#000000" points="1360.4543,-206.3306 1349.8845,-207.0588 1358.6014,-213.081 1360.4543,-206.3306"/>
<text text-anchor="middle" x="1467.564" y="-228.8" font-family="Times,serif" font-size="14.00" fill="#000000">_</text>
</g>
<!-- 29 -->
<g id="node22" class="node">
<title>29</title>
<text text-anchor="middle" x="1434.064" y="-185.8" font-family="Times,serif" font-size="14.00" fill="#000000">29 (pulang&#45;OTHER)</text>
</g>
<!-- 7&#45;&gt;29 -->
<g id="edge19" class="edge">
<title>7&#45;&gt;29</title>
<path fill="none" stroke="#000000" d="M1555.7805,-257.9716C1532.372,-244.8993 1500.5258,-227.115 1475.2796,-213.0165"/>
<polygon fill="#000000" stroke="#000000" points="1476.7423,-209.8246 1466.3049,-208.0047 1473.3293,-215.9362 1476.7423,-209.8246"/>
<text text-anchor="middle" x="1524.564" y="-228.8" font-family="Times,serif" font-size="14.00" fill="#000000">_</text>
</g>
<!-- 49 -->
<g id="node23" class="node">
<title>49</title>
<text text-anchor="middle" x="1588.064" y="-185.8" font-family="Times,serif" font-size="14.00" fill="#000000">49 (berhenti&#45;OTHER)</text>
</g>
<!-- 7&#45;&gt;49 -->
<g id="edge20" class="edge">
<title>7&#45;&gt;49</title>
<path fill="none" stroke="#000000" d="M1588.064,-257.7616C1588.064,-246.3597 1588.064,-231.4342 1588.064,-218.494"/>
<polygon fill="#000000" stroke="#000000" points="1591.5641,-218.2121 1588.064,-208.2121 1584.5641,-218.2121 1591.5641,-218.2121"/>
<text text-anchor="middle" x="1591.564" y="-228.8" font-family="Times,serif" font-size="14.00" fill="#000000">_</text>
</g>
<!-- 30 -->
<g id="node24" class="node">
<title>30</title>
<text text-anchor="middle" x="1730.064" y="-185.8" font-family="Times,serif" font-size="14.00" fill="#000000">30 (ke&#45;OTHER)</text>
</g>
<!-- 9&#45;&gt;30 -->
<g id="edge21" class="edge">
<title>9&#45;&gt;30</title>
<path fill="none" stroke="#000000" d="M1837.5539,-257.9716C1817.0628,-245.014 1789.2504,-227.4267 1767.0503,-213.3884"/>
<polygon fill="#000000" stroke="#000000" points="1768.8591,-210.3912 1758.5365,-208.0047 1765.1178,-216.3075 1768.8591,-210.3912"/>
<text text-anchor="middle" x="1810.564" y="-228.8" font-family="Times,serif" font-size="14.00" fill="#000000">_</text>
</g>
<!-- 34 -->
<g id="node25" class="node">
<title>34</title>
<text text-anchor="middle" x="1866.064" y="-185.8" font-family="Times,serif" font-size="14.00" fill="#000000">34 (dalam&#45;OTHER)</text>
</g>
<!-- 9&#45;&gt;34 -->
<g id="edge22" class="edge">
<title>9&#45;&gt;34</title>
<path fill="none" stroke="#000000" d="M1866.064,-257.7616C1866.064,-246.3597 1866.064,-231.4342 1866.064,-218.494"/>
<polygon fill="#000000" stroke="#000000" points="1869.5641,-218.2121 1866.064,-208.2121 1862.5641,-218.2121 1869.5641,-218.2121"/>
<text text-anchor="middle" x="1869.564" y="-228.8" font-family="Times,serif" font-size="14.00" fill="#000000">_</text>
</g>
<!-- 37 -->
<g id="node26" class="node">
<title>37</title>
<text text-anchor="middle" x="2017.064" y="-185.8" font-family="Times,serif" font-size="14.00" fill="#000000">37 (terbitan&#45;OTHER)</text>
</g>
<!-- 9&#45;&gt;37 -->
<g id="edge23" class="edge">
<title>9&#45;&gt;37</title>
<path fill="none" stroke="#000000" d="M1897.7185,-257.9716C1920.671,-244.8993 1951.8969,-227.115 1976.6512,-213.0165"/>
<polygon fill="#000000" stroke="#000000" points="1978.4937,-215.9951 1985.4511,-208.0047 1975.0294,-209.9124 1978.4937,-215.9951"/>
<text text-anchor="middle" x="1954.564" y="-228.8" font-family="Times,serif" font-size="14.00" fill="#000000">_</text>
</g>
<!-- 43 -->
<g id="node27" class="node">
<title>43</title>
<text text-anchor="middle" x="2158.064" y="-185.8" font-family="Times,serif" font-size="14.00" fill="#000000">43 (itu&#45;OTHER)</text>
</g>
<!-- 9&#45;&gt;43 -->
<g id="edge24" class="edge">
<title>9&#45;&gt;43</title>
<path fill="none" stroke="#000000" d="M1926.2125,-258.285C1975.0458,-243.9026 2043.7529,-223.667 2093.6886,-208.9599"/>
<polygon fill="#000000" stroke="#000000" points="2094.8103,-212.2782 2103.414,-206.0955 2092.8326,-205.5634 2094.8103,-212.2782"/>
<text text-anchor="middle" x="2033.564" y="-228.8" font-family="Times,serif" font-size="14.00" fill="#000000">_</text>
</g>
<!-- 48 -->
<g id="node28" class="node">
<title>48</title>
<text text-anchor="middle" x="2297.064" y="-185.8" font-family="Times,serif" font-size="14.00" fill="#000000">48 (supaya&#45;OTHER)</text>
</g>
<!-- 9&#45;&gt;48 -->
<g id="edge25" class="edge">
<title>9&#45;&gt;48</title>
<path fill="none" stroke="#000000" d="M1926.3189,-260.1719C1929.6093,-259.4119 1932.8736,-258.6824 1936.064,-258 1982.3639,-248.096 1994.4222,-248.1437 2041.064,-240 2117.9807,-226.5702 2139.8145,-224.6205 2220.2731,-208.1061"/>
<polygon fill="#000000" stroke="#000000" points="2221.2979,-211.4684 2230.3834,-206.0182 2219.8822,-204.6131 2221.2979,-211.4684"/>
<text text-anchor="middle" x="2126.564" y="-228.8" font-family="Times,serif" font-size="14.00" fill="#000000">_</text>
</g>
<!-- 51 -->
<g id="node29" class="node">
<title>51</title>
<text text-anchor="middle" x="2439.064" y="-185.8" font-family="Times,serif" font-size="14.00" fill="#000000">51 (dan&#45;OTHER)</text>
</g>
<!-- 9&#45;&gt;51 -->
<g id="edge26" class="edge">
<title>9&#45;&gt;51</title>
<path fill="none" stroke="#000000" d="M1926.2595,-259.865C1929.5653,-259.1843 1932.8491,-258.5557 1936.064,-258 2023.1355,-242.9482 2046.2535,-249.8654 2134.064,-240 2237.3399,-228.3971 2266.2882,-229.1954 2371.498,-208.1937"/>
<polygon fill="#000000" stroke="#000000" points="2372.4676,-211.5688 2381.579,-206.162 2371.0846,-204.7067 2372.4676,-211.5688"/>
<text text-anchor="middle" x="2270.564" y="-228.8" font-family="Times,serif" font-size="14.00" fill="#000000">_</text>
</g>
<!-- 54 -->
<g id="node30" class="node">
<title>54</title>
<text text-anchor="middle" x="2588.064" y="-185.8" font-family="Times,serif" font-size="14.00" fill="#000000">54 (sekiranya&#45;OTHER)</text>
</g>
<!-- 9&#45;&gt;54 -->
<g id="edge27" class="edge">
<title>9&#45;&gt;54</title>
<path fill="none" stroke="#000000" d="M1926.2353,-259.7166C1929.5473,-259.0741 1932.8391,-258.4944 1936.064,-258 2086.5162,-234.9325 2126.559,-254.6374 2278.064,-240 2376.309,-230.5082 2403.111,-226.1932 2503.9148,-208.1544"/>
<polygon fill="#000000" stroke="#000000" points="2504.6794,-211.5732 2513.9059,-206.3652 2503.4455,-204.6828 2504.6794,-211.5732"/>
<text text-anchor="middle" x="2399.564" y="-228.8" font-family="Times,serif" font-size="14.00" fill="#000000">_</text>
</g>
<!-- 3 -->
<g id="node17" class="node">
<title>3</title>
<text text-anchor="middle" x="68.064" y="-13.8" font-family="Times,serif" font-size="14.00" fill="#000000">3 (sempena&#45;OTHER)</text>
</g>
<!-- 4 -->
<g id="node18" class="node">
<title>4</title>
<text text-anchor="middle" x="1208.064" y="-99.8" font-family="Times,serif" font-size="14.00" fill="#000000">4 (sambutan&#45;event)</text>
</g>
<!-- 37&#45;&gt;4 -->
<g id="edge47" class="edge">
<title>37&#45;&gt;4</title>
<path fill="none" stroke="#000000" d="M1948.2886,-173.3958C1945.1797,-172.8768 1942.0942,-172.4069 1939.064,-172 1741.5647,-145.4805 1689.4375,-172.8993 1491.064,-154 1399.3536,-145.2626 1374.1264,-141.1215 1280.2438,-122.1598"/>
<polygon fill="#000000" stroke="#000000" points="1280.8181,-118.7052 1270.3227,-120.153 1279.4302,-125.5662 1280.8181,-118.7052"/>
<text text-anchor="middle" x="1494.564" y="-142.8" font-family="Times,serif" font-size="14.00" fill="#000000">_</text>
</g>
<!-- 11 -->
<g id="node31" class="node">
<title>11</title>
<text text-anchor="middle" x="1336.064" y="-99.8" font-family="Times,serif" font-size="14.00" fill="#000000">11 (dr&#45;person)</text>
</g>
<!-- 37&#45;&gt;11 -->
<g id="edge48" class="edge">
<title>37&#45;&gt;11</title>
<path fill="none" stroke="#000000" d="M1948.2708,-173.5206C1945.1667,-172.9678 1942.0871,-172.4567 1939.064,-172 1830.668,-155.6265 1802.2493,-163.8151 1693.064,-154 1562.7733,-142.2877 1526.0938,-149.0852 1393.8823,-121.9302"/>
<polygon fill="#000000" stroke="#000000" points="1394.2774,-118.4375 1383.7741,-119.8269 1392.8514,-125.2908 1394.2774,-118.4375"/>
<text text-anchor="middle" x="1696.564" y="-142.8" font-family="Times,serif" font-size="14.00" fill="#000000">_</text>
</g>
<!-- 15 -->
<g id="node33" class="node">
<title>15</title>
<text text-anchor="middle" x="1482.064" y="-99.8" font-family="Times,serif" font-size="14.00" fill="#000000">15 (menteri&#45;organization)</text>
</g>
<!-- 37&#45;&gt;15 -->
<g id="edge49" class="edge">
<title>37&#45;&gt;15</title>
<path fill="none" stroke="#000000" d="M1948.6536,-173.8391C1945.4171,-173.1923 1942.2082,-172.5752 1939.064,-172 1860.7359,-157.6722 1666.7323,-137.2398 1572.0195,-122.0714"/>
<polygon fill="#000000" stroke="#000000" points="1572.5078,-118.6048 1562.0722,-120.4348 1571.3713,-125.5119 1572.5078,-118.6048"/>
<text text-anchor="middle" x="1810.564" y="-142.8" font-family="Times,serif" font-size="14.00" fill="#000000">_</text>
</g>
<!-- 16 -->
<g id="node49" class="node">
<title>16</title>
<text text-anchor="middle" x="1678.064" y="-99.8" font-family="Times,serif" font-size="14.00" fill="#000000">16 (pengangkutan&#45;organization)</text>
</g>
<!-- 37&#45;&gt;16 -->
<g id="edge50" class="edge">
<title>37&#45;&gt;16</title>
<path fill="none" stroke="#000000" d="M1948.4623,-172.5966C1893.6867,-158.7008 1816.8082,-139.1977 1759.0204,-124.5376"/>
<polygon fill="#000000" stroke="#000000" points="1759.7444,-121.1105 1749.1908,-122.044 1758.0231,-127.8956 1759.7444,-121.1105"/>
<text text-anchor="middle" x="1871.564" y="-142.8" font-family="Times,serif" font-size="14.00" fill="#000000">_</text>
</g>
<!-- 25 -->
<g id="node52" class="node">
<title>25</title>
<text text-anchor="middle" x="1857.064" y="-99.8" font-family="Times,serif" font-size="14.00" fill="#000000">25 (orang&#45;OTHER)</text>
</g>
<!-- 37&#45;&gt;25 -->
<g id="edge51" class="edge">
<title>37&#45;&gt;25</title>
<path fill="none" stroke="#000000" d="M1983.5227,-171.9716C1959.0955,-158.842 1925.8248,-140.959 1899.5407,-126.8313"/>
<polygon fill="#000000" stroke="#000000" points="1901.0264,-123.6563 1890.561,-122.0047 1897.7122,-129.8221 1901.0264,-123.6563"/>
<text text-anchor="middle" x="1950.564" y="-142.8" font-family="Times,serif" font-size="14.00" fill="#000000">_</text>
</g>
<!-- 38 -->
<g id="node53" class="node">
<title>38</title>
<text text-anchor="middle" x="2017.064" y="-99.8" font-family="Times,serif" font-size="14.00" fill="#000000">38 (jabatan&#45;organization)</text>
</g>
<!-- 37&#45;&gt;38 -->
<g id="edge52" class="edge">
<title>37&#45;&gt;38</title>
<path fill="none" stroke="#000000" d="M2017.064,-171.7616C2017.064,-160.3597 2017.064,-145.4342 2017.064,-132.494"/>
<polygon fill="#000000" stroke="#000000" points="2020.5641,-132.2121 2017.064,-122.2121 2013.5641,-132.2121 2020.5641,-132.2121"/>
<text text-anchor="middle" x="2020.564" y="-142.8" font-family="Times,serif" font-size="14.00" fill="#000000">_</text>
</g>
<!-- 40 -->
<g id="node54" class="node">
<title>40</title>
<text text-anchor="middle" x="2186.064" y="-99.8" font-family="Times,serif" font-size="14.00" fill="#000000">40 (jalan&#45;organization)</text>
</g>
<!-- 37&#45;&gt;40 -->
<g id="edge53" class="edge">
<title>37&#45;&gt;40</title>
<path fill="none" stroke="#000000" d="M2052.4919,-171.9716C2078.4058,-158.7846 2113.7424,-140.8027 2141.5612,-126.6464"/>
<polygon fill="#000000" stroke="#000000" points="2143.3576,-129.6594 2150.6827,-122.0047 2140.1829,-123.4207 2143.3576,-129.6594"/>
<text text-anchor="middle" x="2115.564" y="-142.8" font-family="Times,serif" font-size="14.00" fill="#000000">_</text>
</g>
<!-- 41 -->
<g id="node55" class="node">
<title>41</title>
<text text-anchor="middle" x="2347.064" y="-99.8" font-family="Times,serif" font-size="14.00" fill="#000000">41 (raya&#45;organization)</text>
</g>
<!-- 37&#45;&gt;41 -->
<g id="edge54" class="edge">
<title>37&#45;&gt;41</title>
<path fill="none" stroke="#000000" d="M2085.8411,-172.0763C2138.9431,-158.2376 2212.4836,-139.0725 2268.0097,-124.602"/>
<polygon fill="#000000" stroke="#000000" points="2269.014,-127.9573 2277.8082,-122.0485 2267.2487,-121.1835 2269.014,-127.9573"/>
<text text-anchor="middle" x="2205.564" y="-142.8" font-family="Times,serif" font-size="14.00" fill="#000000">_</text>
</g>
<!-- 42 -->
<g id="node56" class="node">
<title>42</title>
<text text-anchor="middle" x="2492.064" y="-99.8" font-family="Times,serif" font-size="14.00" fill="#000000">42 (jkjr&#45;OTHER)</text>
</g>
<!-- 37&#45;&gt;42 -->
<g id="edge55" class="edge">
<title>37&#45;&gt;42</title>
<path fill="none" stroke="#000000" d="M2085.4848,-173.8955C2088.7185,-173.2335 2091.9239,-172.5978 2095.064,-172 2165.4942,-158.5908 2339.7516,-139.1318 2425.1313,-122.2426"/>
<polygon fill="#000000" stroke="#000000" points="2425.999,-125.6375 2435.0899,-120.1962 2424.59,-118.7807 2425.999,-125.6375"/>
<text text-anchor="middle" x="2318.564" y="-142.8" font-family="Times,serif" font-size="14.00" fill="#000000">_</text>
</g>
<!-- 44 -->
<g id="node57" class="node">
<title>44</title>
<text text-anchor="middle" x="2615.064" y="-99.8" font-family="Times,serif" font-size="14.00" fill="#000000">44 (dr&#45;person)</text>
</g>
<!-- 37&#45;&gt;44 -->
<g id="edge56" class="edge">
<title>37&#45;&gt;44</title>
<path fill="none" stroke="#000000" d="M2085.8599,-173.5385C2088.9632,-172.9808 2092.0419,-172.4638 2095.064,-172 2196.8501,-156.3789 2223.6796,-165.0402 2326.064,-154 2426.4185,-143.1787 2454.816,-144.7541 2556.9233,-122.078"/>
<polygon fill="#000000" stroke="#000000" points="2557.7154,-125.4873 2566.7061,-119.8822 2556.1823,-118.6573 2557.7154,-125.4873"/>
<text text-anchor="middle" x="2462.564" y="-142.8" font-family="Times,serif" font-size="14.00" fill="#000000">_</text>
</g>
<!-- 45 -->
<g id="node58" class="node">
<title>45</title>
<text text-anchor="middle" x="2748.064" y="-99.8" font-family="Times,serif" font-size="14.00" fill="#000000">45 (mahathir&#45;person)</text>
</g>
<!-- 37&#45;&gt;45 -->
<g id="edge57" class="edge">
<title>37&#45;&gt;45</title>
<path fill="none" stroke="#000000" d="M2085.8434,-173.4255C2088.9512,-172.8984 2092.0353,-172.4187 2095.064,-172 2260.3504,-149.1488 2304.0818,-171.0792 2470.064,-154 2557.305,-145.0231 2581.2272,-139.9617 2670.5462,-122.2501"/>
<polygon fill="#000000" stroke="#000000" points="2671.4475,-125.6397 2680.5766,-120.2629 2670.087,-118.7732 2671.4475,-125.6397"/>
<text text-anchor="middle" x="2578.564" y="-142.8" font-family="Times,serif" font-size="14.00" fill="#000000">_</text>
</g>
<!-- 14 -->
<g id="node32" class="node">
<title>14</title>
<text text-anchor="middle" x="211.064" y="-13.8" font-family="Times,serif" font-size="14.00" fill="#000000">14 (dan&#45;OTHER)</text>
</g>
<!-- 15&#45;&gt;3 -->
<g id="edge28" class="edge">
<title>15&#45;&gt;3</title>
<path fill="none" stroke="#000000" d="M1401.6364,-87.0518C1398.749,-86.6608 1395.8848,-86.3075 1393.064,-86 1167.2554,-61.3842 597.4994,-85.9563 371.064,-68 273.0954,-60.2311 246.423,-55.0099 146.3495,-36.1801"/>
<polygon fill="#000000" stroke="#000000" points="146.9056,-32.7234 136.4309,-34.3148 145.6118,-39.6028 146.9056,-32.7234"/>
<text text-anchor="middle" x="374.564" y="-56.8" font-family="Times,serif" font-size="14.00" fill="#000000">_</text>
</g>
<!-- 15&#45;&gt;14 -->
<g id="edge29" class="edge">
<title>15&#45;&gt;14</title>
<path fill="none" stroke="#000000" d="M1401.6351,-87.0636C1398.7481,-86.6692 1395.8843,-86.312 1393.064,-86 1011.3101,-43.7624 912.1083,-96.2312 529.064,-68 419.6587,-59.9366 389.487,-58.1186 278.462,-36.1576"/>
<polygon fill="#000000" stroke="#000000" points="279.0349,-32.703 268.5442,-34.1854 277.6696,-39.5686 279.0349,-32.703"/>
<text text-anchor="middle" x="532.564" y="-56.8" font-family="Times,serif" font-size="14.00" fill="#000000">_</text>
</g>
<!-- 22 -->
<g id="node34" class="node">
<title>22</title>
<text text-anchor="middle" x="356.064" y="-13.8" font-family="Times,serif" font-size="14.00" fill="#000000">22 (pesanan&#45;OTHER)</text>
</g>
<!-- 15&#45;&gt;22 -->
<g id="edge30" class="edge">
<title>15&#45;&gt;22</title>
<path fill="none" stroke="#000000" d="M1401.6335,-87.0783C1398.7469,-86.6798 1395.8837,-86.3177 1393.064,-86 1073.2109,-49.9592 989.9018,-93.8456 669.064,-68 567.6024,-59.8266 539.9888,-55.0818 435.7714,-36.0594"/>
<polygon fill="#000000" stroke="#000000" points="436.2483,-32.5887 425.7823,-34.2356 434.991,-39.4749 436.2483,-32.5887"/>
<text text-anchor="middle" x="672.564" y="-56.8" font-family="Times,serif" font-size="14.00" fill="#000000">_</text>
</g>
<!-- 23 -->
<g id="node35" class="node">
<title>23</title>
<text text-anchor="middle" x="504.064" y="-13.8" font-family="Times,serif" font-size="14.00" fill="#000000">23 (khas&#45;OTHER)</text>
</g>
<!-- 15&#45;&gt;23 -->
<g id="edge31" class="edge">
<title>15&#45;&gt;23</title>
<path fill="none" stroke="#000000" d="M1401.6305,-87.1043C1398.7447,-86.6984 1395.8825,-86.3277 1393.064,-86 1144.3894,-57.0846 1079.6545,-87.4871 830.064,-68 718.5589,-59.2941 687.8297,-57.7681 574.3097,-36.1206"/>
<polygon fill="#000000" stroke="#000000" points="574.649,-32.622 564.1687,-34.1759 573.3306,-39.4967 574.649,-32.622"/>
<text text-anchor="middle" x="833.564" y="-56.8" font-family="Times,serif" font-size="14.00" fill="#000000">_</text>
</g>
<!-- 24 -->
<g id="node36" class="node">
<title>24</title>
<text text-anchor="middle" x="649.064" y="-13.8" font-family="Times,serif" font-size="14.00" fill="#000000">24 (kepada&#45;OTHER)</text>
</g>
<!-- 15&#45;&gt;24 -->
<g id="edge32" class="edge">
<title>15&#45;&gt;24</title>
<path fill="none" stroke="#000000" d="M1401.6254,-87.1474C1398.7411,-86.7293 1395.8806,-86.3444 1393.064,-86 1211.5737,-63.81 1164.2638,-83.3082 982.064,-68 870.6122,-58.636 840.0575,-56.5221 726.2822,-36.1289"/>
<polygon fill="#000000" stroke="#000000" points="726.5799,-32.6263 716.1178,-34.2985 725.3392,-39.5155 726.5799,-32.6263"/>
<text text-anchor="middle" x="985.564" y="-56.8" font-family="Times,serif" font-size="14.00" fill="#000000">_</text>
</g>
<!-- 26 -->
<g id="node37" class="node">
<title>26</title>
<text text-anchor="middle" x="797.064" y="-13.8" font-family="Times,serif" font-size="14.00" fill="#000000">26 (ramai&#45;OTHER)</text>
</g>
<!-- 15&#45;&gt;26 -->
<g id="edge33" class="edge">
<title>15&#45;&gt;26</title>
<path fill="none" stroke="#000000" d="M1402.0905,-87.3385C1399.0477,-86.8594 1396.0309,-86.4106 1393.064,-86 1287.9856,-71.4577 1260.6809,-77.8993 1155.064,-68 1030.9512,-56.3671 996.6681,-58.5492 870.2481,-36.0909"/>
<polygon fill="#000000" stroke="#000000" points="870.6376,-32.605 860.1768,-34.2848 869.4019,-39.495 870.6376,-32.605"/>
<text text-anchor="middle" x="1158.564" y="-56.8" font-family="Times,serif" font-size="14.00" fill="#000000">_</text>
</g>
<!-- 31 -->
<g id="node38" class="node">
<title>31</title>
<text text-anchor="middle" x="951.064" y="-13.8" font-family="Times,serif" font-size="14.00" fill="#000000">31 (kampung&#45;OTHER)</text>
</g>
<!-- 15&#45;&gt;31 -->
<g id="edge34" class="edge">
<title>15&#45;&gt;31</title>
<path fill="none" stroke="#000000" d="M1402.0538,-87.5764C1399.0212,-87.0307 1396.0166,-86.5031 1393.064,-86 1355.431,-79.5873 1102.7698,-46.9737 1034.2843,-36.0478"/>
<polygon fill="#000000" stroke="#000000" points="1034.7659,-32.5798 1024.3249,-34.3786 1033.6088,-39.4835 1034.7659,-32.5798"/>
<text text-anchor="middle" x="1264.564" y="-56.8" font-family="Times,serif" font-size="14.00" fill="#000000">_</text>
</g>
<!-- 32 -->
<g id="node39" class="node">
<title>32</title>
<text text-anchor="middle" x="1113.064" y="-13.8" font-family="Times,serif" font-size="14.00" fill="#000000">32 (halaman&#45;OTHER)</text>
</g>
<!-- 15&#45;&gt;32 -->
<g id="edge35" class="edge">
<title>15&#45;&gt;32</title>
<path fill="none" stroke="#000000" d="M1404.7095,-85.9716C1342.8239,-71.5484 1256.326,-51.389 1193.6132,-36.773"/>
<polygon fill="#000000" stroke="#000000" points="1194.2932,-33.3378 1183.7598,-34.4765 1192.7043,-40.1551 1194.2932,-33.3378"/>
<text text-anchor="middle" x="1323.564" y="-56.8" font-family="Times,serif" font-size="14.00" fill="#000000">_</text>
</g>
<!-- 33 -->
<g id="node40" class="node">
<title>33</title>
<text text-anchor="middle" x="1292.064" y="-13.8" font-family="Times,serif" font-size="14.00" fill="#000000">33 (masing&#45;masing&#45;OTHER)</text>
</g>
<!-- 15&#45;&gt;33 -->
<g id="edge36" class="edge">
<title>15&#45;&gt;33</title>
<path fill="none" stroke="#000000" d="M1442.2337,-85.9716C1412.8465,-72.67 1372.6805,-54.4896 1341.2827,-40.278"/>
<polygon fill="#000000" stroke="#000000" points="1342.3953,-36.9397 1331.8418,-36.0047 1339.5087,-43.3169 1342.3953,-36.9397"/>
<text text-anchor="middle" x="1402.564" y="-56.8" font-family="Times,serif" font-size="14.00" fill="#000000">_</text>
</g>
<!-- 39 -->
<g id="node41" class="node">
<title>39</title>
<text text-anchor="middle" x="1482.064" y="-13.8" font-family="Times,serif" font-size="14.00" fill="#000000">39 (keselamatan&#45;OTHER)</text>
</g>
<!-- 15&#45;&gt;39 -->
<g id="edge37" class="edge">
<title>15&#45;&gt;39</title>
<path fill="none" stroke="#000000" d="M1482.064,-85.7616C1482.064,-74.3597 1482.064,-59.4342 1482.064,-46.494"/>
<polygon fill="#000000" stroke="#000000" points="1485.5641,-46.2121 1482.064,-36.2121 1478.5641,-46.2121 1485.5641,-46.2121"/>
<text text-anchor="middle" x="1485.564" y="-56.8" font-family="Times,serif" font-size="14.00" fill="#000000">_</text>
</g>
<!-- 46 -->
<g id="node42" class="node">
<title>46</title>
<text text-anchor="middle" x="1659.064" y="-13.8" font-family="Times,serif" font-size="14.00" fill="#000000">46 (menasihati&#45;OTHER)</text>
</g>
<!-- 15&#45;&gt;46 -->
<g id="edge38" class="edge">
<title>15&#45;&gt;46</title>
<path fill="none" stroke="#000000" d="M1519.169,-85.9716C1546.4275,-72.7273 1583.6409,-54.6462 1612.8341,-40.462"/>
<polygon fill="#000000" stroke="#000000" points="1614.5429,-43.523 1622.0078,-36.0047 1611.4837,-37.2269 1614.5429,-43.523"/>
<text text-anchor="middle" x="1585.564" y="-56.8" font-family="Times,serif" font-size="14.00" fill="#000000">_</text>
</g>
<!-- 47 -->
<g id="node43" class="node">
<title>47</title>
<text text-anchor="middle" x="1822.064" y="-13.8" font-family="Times,serif" font-size="14.00" fill="#000000">47 (mereka&#45;OTHER)</text>
</g>
<!-- 15&#45;&gt;47 -->
<g id="edge39" class="edge">
<title>15&#45;&gt;47</title>
<path fill="none" stroke="#000000" d="M1553.3391,-85.9716C1609.298,-71.8173 1687.0974,-52.1386 1744.591,-37.5961"/>
<polygon fill="#000000" stroke="#000000" points="1745.5208,-40.9712 1754.3572,-35.1258 1743.8042,-34.185 1745.5208,-40.9712"/>
<text text-anchor="middle" x="1676.564" y="-56.8" font-family="Times,serif" font-size="14.00" fill="#000000">_</text>
</g>
<!-- 50 -->
<g id="node44" class="node">
<title>50</title>
<text text-anchor="middle" x="1975.064" y="-13.8" font-family="Times,serif" font-size="14.00" fill="#000000">50 (berehat&#45;OTHER)</text>
</g>
<!-- 15&#45;&gt;50 -->
<g id="edge40" class="edge">
<title>15&#45;&gt;50</title>
<path fill="none" stroke="#000000" d="M1562.0829,-87.6267C1565.113,-87.067 1568.1147,-86.5227 1571.064,-86 1713.0016,-60.8435 1752.5463,-63.9683 1897.0413,-36.3238"/>
<polygon fill="#000000" stroke="#000000" points="1898.0148,-39.7006 1907.1703,-34.3688 1896.6882,-32.8274 1898.0148,-39.7006"/>
<text text-anchor="middle" x="1795.564" y="-56.8" font-family="Times,serif" font-size="14.00" fill="#000000">_</text>
</g>
<!-- 52 -->
<g id="node45" class="node">
<title>52</title>
<text text-anchor="middle" x="2121.064" y="-13.8" font-family="Times,serif" font-size="14.00" fill="#000000">52 (tidur&#45;OTHER)</text>
</g>
<!-- 15&#45;&gt;52 -->
<g id="edge41" class="edge">
<title>15&#45;&gt;52</title>
<path fill="none" stroke="#000000" d="M1562.0384,-87.3459C1565.081,-86.8648 1568.0974,-86.4135 1571.064,-86 1673.4947,-71.7226 1700.1871,-78.5947 1803.064,-68 1910.9105,-56.8935 1940.8479,-57.2083 2050.7633,-36.1408"/>
<polygon fill="#000000" stroke="#000000" points="2051.4274,-39.5773 2060.5817,-34.2434 2050.0992,-32.7044 2051.4274,-39.5773"/>
<text text-anchor="middle" x="1944.564" y="-56.8" font-family="Times,serif" font-size="14.00" fill="#000000">_</text>
</g>
<!-- 53 -->
<g id="node46" class="node">
<title>53</title>
<text text-anchor="middle" x="2269.064" y="-13.8" font-family="Times,serif" font-size="14.00" fill="#000000">53 (sebentar&#45;OTHER)</text>
</g>
<!-- 15&#45;&gt;53 -->
<g id="edge42" class="edge">
<title>15&#45;&gt;53</title>
<path fill="none" stroke="#000000" d="M1562.5041,-87.16C1565.388,-86.7383 1568.248,-86.3492 1571.064,-86 1739.2975,-65.137 1783.2344,-83.3091 1952.064,-68 2055.1396,-58.6533 2083.3483,-55.1959 2188.8124,-36.1574"/>
<polygon fill="#000000" stroke="#000000" points="2189.7034,-39.5531 2198.9202,-34.3281 2188.4567,-32.6649 2189.7034,-39.5531"/>
<text text-anchor="middle" x="2083.564" y="-56.8" font-family="Times,serif" font-size="14.00" fill="#000000">_</text>
</g>
<!-- 55 -->
<g id="node47" class="node">
<title>55</title>
<text text-anchor="middle" x="2435.064" y="-13.8" font-family="Times,serif" font-size="14.00" fill="#000000">55 (mengantuk&#45;OTHER)</text>
</g>
<!-- 15&#45;&gt;55 -->
<g id="edge43" class="edge">
<title>15&#45;&gt;55</title>
<path fill="none" stroke="#000000" d="M1562.4985,-87.1139C1565.384,-86.7053 1568.2458,-86.3315 1571.064,-86 1800.7304,-58.9875 1860.54,-86.3048 2091.064,-68 2202.5575,-59.1468 2232.8088,-55.0229 2346.69,-36.1736"/>
<polygon fill="#000000" stroke="#000000" points="2347.5714,-39.5753 2356.8646,-34.4874 2346.4269,-32.6695 2347.5714,-39.5753"/>
<text text-anchor="middle" x="2232.564" y="-56.8" font-family="Times,serif" font-size="14.00" fill="#000000">_</text>
</g>
<!-- 57 -->
<g id="node48" class="node">
<title>57</title>
<text text-anchor="middle" x="2606.064" y="-13.8" font-family="Times,serif" font-size="14.00" fill="#000000">57 (memandu&#45;OTHER)</text>
</g>
<!-- 15&#45;&gt;57 -->
<g id="edge44" class="edge">
<title>15&#45;&gt;57</title>
<path fill="none" stroke="#000000" d="M1562.4953,-87.0858C1565.3817,-86.6851 1568.2446,-86.3206 1571.064,-86 1866.6003,-52.3935 1943.3503,-88.7877 2240.064,-68 2362.6983,-59.4083 2395.909,-56.4981 2521.0559,-36.0916"/>
<polygon fill="#000000" stroke="#000000" points="2521.7235,-39.529 2531.0273,-34.4606 2520.5935,-32.6208 2521.7235,-39.529"/>
<text text-anchor="middle" x="2404.564" y="-56.8" font-family="Times,serif" font-size="14.00" fill="#000000">_</text>
</g>
<!-- 17 -->
<g id="node50" class="node">
<title>17</title>
<text text-anchor="middle" x="2764.064" y="-13.8" font-family="Times,serif" font-size="14.00" fill="#000000">17 (anthony&#45;person)</text>
</g>
<!-- 19 -->
<g id="node51" class="node">
<title>19</title>
<text text-anchor="middle" x="2902.064" y="-13.8" font-family="Times,serif" font-size="14.00" fill="#000000">19 (siew&#45;person)</text>
</g>
<!-- 25&#45;&gt;17 -->
<g id="edge45" class="edge">
<title>25&#45;&gt;17</title>
<path fill="none" stroke="#000000" d="M1920.1277,-87.4051C1923.1378,-86.8744 1926.1277,-86.4005 1929.064,-86 2080.6019,-65.3296 2466.5125,-94.9308 2617.064,-68 2649.7021,-62.1617 2684.9115,-50.3914 2712.687,-39.737"/>
<polygon fill="#000000" stroke="#000000" points="2714.1442,-42.9254 2722.1851,-36.0265 2711.597,-36.4053 2714.1442,-42.9254"/>
<text text-anchor="middle" x="2674.564" y="-56.8" font-family="Times,serif" font-size="14.00" fill="#000000">_</text>
</g>
<!-- 25&#45;&gt;19 -->
<g id="edge46" class="edge">
<title>25&#45;&gt;19</title>
<path fill="none" stroke="#000000" d="M1920.1266,-87.3969C1923.137,-86.8683 1926.1272,-86.3972 1929.064,-86 2260.8056,-41.1303 2349.4409,-105.7845 2682.064,-68 2734.7783,-62.0119 2793.2984,-48.3631 2836.7236,-36.8365"/>
<polygon fill="#000000" stroke="#000000" points="2837.8376,-40.1614 2846.5867,-34.1862 2836.021,-33.4012 2837.8376,-40.1614"/>
<text text-anchor="middle" x="2765.564" y="-56.8" font-family="Times,serif" font-size="14.00" fill="#000000">_</text>
</g>
</g>
</svg>
