<?xml version="1.0" encoding="UTF-8" standalone="no"?>
<!DOCTYPE svg PUBLIC "-//W3C//DTD SVG 1.1//EN"
 "http://www.w3.org/Graphics/SVG/1.1/DTD/svg11.dtd">
<!-- Generated by graphviz version 2.40.1 (20161225.0304)
 -->
<!-- Title: G Pages: 1 -->
<svg width="737pt" height="302pt"
 viewBox="0.00 0.00 736.85 302.00" xmlns="http://www.w3.org/2000/svg" xmlns:xlink="http://www.w3.org/1999/xlink">
<g id="graph0" class="graph" transform="scale(1 1) rotate(0) translate(4 298)">
<title>G</title>
<polygon fill="#ffffff" stroke="transparent" points="-4,4 -4,-298 732.8521,-298 732.8521,4 -4,4"/>
<!-- 0 -->
<g id="node1" class="node">
<title>0</title>
<text text-anchor="middle" x="127.5708" y="-271.8" font-family="Times,serif" font-size="14.00" fill="#000000">0 (None)</text>
</g>
<!-- 3 -->
<g id="node2" class="node">
<title>3</title>
<text text-anchor="middle" x="127.5708" y="-185.8" font-family="Times,serif" font-size="14.00" fill="#000000">3 (menasihati)</text>
</g>
<!-- 0&#45;&gt;3 -->
<g id="edge1" class="edge">
<title>0&#45;&gt;3</title>
<path fill="none" stroke="#000000" d="M127.5708,-257.7616C127.5708,-246.3597 127.5708,-231.4342 127.5708,-218.494"/>
<polygon fill="#000000" stroke="#000000" points="131.0709,-218.2121 127.5708,-208.2121 124.0709,-218.2121 131.0709,-218.2121"/>
<text text-anchor="middle" x="138.8467" y="-228.8" font-family="Times,serif" font-size="14.00" fill="#000000">root</text>
</g>
<!-- 1 -->
<g id="node3" class="node">
<title>1</title>
<text text-anchor="middle" x="43.5708" y="-99.8" font-family="Times,serif" font-size="14.00" fill="#000000">1 (Dr)</text>
</g>
<!-- 3&#45;&gt;1 -->
<g id="edge3" class="edge">
<title>3&#45;&gt;1</title>
<path fill="none" stroke="#000000" d="M109.7566,-171.7616C97.7288,-159.4475 81.6868,-143.0235 68.4087,-129.4293"/>
<polygon fill="#000000" stroke="#000000" points="70.8506,-126.9203 61.3594,-122.2121 65.843,-131.8115 70.8506,-126.9203"/>
<text text-anchor="middle" x="106.7397" y="-142.8" font-family="Times,serif" font-size="14.00" fill="#000000">nsubj</text>
</g>
<!-- 4 -->
<g id="node5" class="node">
<title>4</title>
<text text-anchor="middle" x="127.5708" y="-99.8" font-family="Times,serif" font-size="14.00" fill="#000000">4 (mereka)</text>
</g>
<!-- 3&#45;&gt;4 -->
<g id="edge4" class="edge">
<title>3&#45;&gt;4</title>
<path fill="none" stroke="#000000" d="M127.5708,-171.7616C127.5708,-160.3597 127.5708,-145.4342 127.5708,-132.494"/>
<polygon fill="#000000" stroke="#000000" points="131.0709,-132.2121 127.5708,-122.2121 124.0709,-132.2121 131.0709,-132.2121"/>
<text text-anchor="middle" x="136.1226" y="-142.8" font-family="Times,serif" font-size="14.00" fill="#000000">det</text>
</g>
<!-- 14 -->
<g id="node6" class="node">
<title>14</title>
<text text-anchor="middle" x="233.5708" y="-99.8" font-family="Times,serif" font-size="14.00" fill="#000000">14 (memandu)</text>
</g>
<!-- 3&#45;&gt;14 -->
<g id="edge5" class="edge">
<title>3&#45;&gt;14</title>
<path fill="none" stroke="#000000" d="M149.7919,-171.9716C165.3389,-159.358 186.2932,-142.3573 203.3561,-128.5139"/>
<polygon fill="#000000" stroke="#000000" points="205.8185,-131.0231 211.379,-122.0047 201.4082,-125.5872 205.8185,-131.0231"/>
<text text-anchor="middle" x="202.7295" y="-142.8" font-family="Times,serif" font-size="14.00" fill="#000000">advcl</text>
</g>
<!-- 2 -->
<g id="node4" class="node">
<title>2</title>
<text text-anchor="middle" x="43.5708" y="-13.8" font-family="Times,serif" font-size="14.00" fill="#000000">2 (Mahathir)</text>
</g>
<!-- 1&#45;&gt;2 -->
<g id="edge2" class="edge">
<title>1&#45;&gt;2</title>
<path fill="none" stroke="#000000" d="M43.5708,-85.7616C43.5708,-74.3597 43.5708,-59.4342 43.5708,-46.494"/>
<polygon fill="#000000" stroke="#000000" points="47.0709,-46.2121 43.5708,-36.2121 40.0709,-46.2121 47.0709,-46.2121"/>
<text text-anchor="middle" x="52.5156" y="-56.8" font-family="Times,serif" font-size="14.00" fill="#000000">flat</text>
</g>
<!-- 5 -->
<g id="node7" class="node">
<title>5</title>
<text text-anchor="middle" x="337.5708" y="-99.8" font-family="Times,serif" font-size="14.00" fill="#000000">5 (supaya)</text>
</g>
<!-- 6 -->
<g id="node8" class="node">
<title>6</title>
<text text-anchor="middle" x="431.5708" y="-185.8" font-family="Times,serif" font-size="14.00" fill="#000000">6 (berhenti)</text>
</g>
<!-- 6&#45;&gt;5 -->
<g id="edge6" class="edge">
<title>6&#45;&gt;5</title>
<path fill="none" stroke="#000000" d="M411.6358,-171.7616C398.0516,-159.3335 379.8916,-142.719 364.9536,-129.0524"/>
<polygon fill="#000000" stroke="#000000" points="367.2177,-126.3799 357.477,-122.2121 362.4926,-131.5446 367.2177,-126.3799"/>
<text text-anchor="middle" x="404.9536" y="-142.8" font-family="Times,serif" font-size="14.00" fill="#000000">mark</text>
</g>
<!-- 7 -->
<g id="node9" class="node">
<title>7</title>
<text text-anchor="middle" x="431.5708" y="-99.8" font-family="Times,serif" font-size="14.00" fill="#000000">7 (berehat)</text>
</g>
<!-- 6&#45;&gt;7 -->
<g id="edge7" class="edge">
<title>6&#45;&gt;7</title>
<path fill="none" stroke="#000000" d="M431.5708,-171.7616C431.5708,-160.3597 431.5708,-145.4342 431.5708,-132.494"/>
<polygon fill="#000000" stroke="#000000" points="435.0709,-132.2121 431.5708,-122.2121 428.0709,-132.2121 435.0709,-132.2121"/>
<text text-anchor="middle" x="447.1226" y="-142.8" font-family="Times,serif" font-size="14.00" fill="#000000">amod</text>
</g>
<!-- 9 -->
<g id="node10" class="node">
<title>9</title>
<text text-anchor="middle" x="519.5708" y="-99.8" font-family="Times,serif" font-size="14.00" fill="#000000">9 (tidur)</text>
</g>
<!-- 6&#45;&gt;9 -->
<g id="edge8" class="edge">
<title>6&#45;&gt;9</title>
<path fill="none" stroke="#000000" d="M450.2333,-171.7616C462.8338,-159.4475 479.6397,-143.0235 493.5501,-129.4293"/>
<polygon fill="#000000" stroke="#000000" points="496.2295,-131.7046 500.9352,-122.2121 491.337,-126.6983 496.2295,-131.7046"/>
<text text-anchor="middle" x="493.6226" y="-142.8" font-family="Times,serif" font-size="14.00" fill="#000000">conj</text>
</g>
<!-- 8 -->
<g id="node11" class="node">
<title>8</title>
<text text-anchor="middle" x="519.5708" y="-13.8" font-family="Times,serif" font-size="14.00" fill="#000000">8 (dan)</text>
</g>
<!-- 9&#45;&gt;8 -->
<g id="edge9" class="edge">
<title>9&#45;&gt;8</title>
<path fill="none" stroke="#000000" d="M519.5708,-85.7616C519.5708,-74.3597 519.5708,-59.4342 519.5708,-46.494"/>
<polygon fill="#000000" stroke="#000000" points="523.0709,-46.2121 519.5708,-36.2121 516.0709,-46.2121 523.0709,-46.2121"/>
<text text-anchor="middle" x="525.7847" y="-56.8" font-family="Times,serif" font-size="14.00" fill="#000000">cc</text>
</g>
<!-- 10 -->
<g id="node12" class="node">
<title>10</title>
<text text-anchor="middle" x="542.5708" y="-271.8" font-family="Times,serif" font-size="14.00" fill="#000000">10 (sebentar)</text>
</g>
<!-- 10&#45;&gt;6 -->
<g id="edge10" class="edge">
<title>10&#45;&gt;6</title>
<path fill="none" stroke="#000000" d="M519.3016,-257.9716C502.8732,-245.2433 480.679,-228.0478 462.7245,-214.1371"/>
<polygon fill="#000000" stroke="#000000" points="464.8581,-211.3626 454.8094,-208.0047 460.5708,-216.8961 464.8581,-211.3626"/>
<text text-anchor="middle" x="509.7295" y="-228.8" font-family="Times,serif" font-size="14.00" fill="#000000">advcl</text>
</g>
<!-- 12 -->
<g id="node13" class="node">
<title>12</title>
<text text-anchor="middle" x="542.5708" y="-185.8" font-family="Times,serif" font-size="14.00" fill="#000000">12 (mengantuk)</text>
</g>
<!-- 10&#45;&gt;12 -->
<g id="edge11" class="edge">
<title>10&#45;&gt;12</title>
<path fill="none" stroke="#000000" d="M542.5708,-257.7616C542.5708,-246.3597 542.5708,-231.4342 542.5708,-218.494"/>
<polygon fill="#000000" stroke="#000000" points="546.0709,-218.2121 542.5708,-208.2121 539.0709,-218.2121 546.0709,-218.2121"/>
<text text-anchor="middle" x="557.7295" y="-228.8" font-family="Times,serif" font-size="14.00" fill="#000000">advcl</text>
</g>
<!-- 11 -->
<g id="node14" class="node">
<title>11</title>
<text text-anchor="middle" x="624.5708" y="-99.8" font-family="Times,serif" font-size="14.00" fill="#000000">11 (sekiranya)</text>
</g>
<!-- 12&#45;&gt;11 -->
<g id="edge13" class="edge">
<title>12&#45;&gt;11</title>
<path fill="none" stroke="#000000" d="M558.3763,-171.6524C566.7801,-162.0654 577.385,-150.2303 587.2329,-140 590.6441,-136.4563 594.2996,-132.7858 597.9398,-129.204"/>
<polygon fill="#000000" stroke="#000000" points="600.5742,-131.5243 605.3071,-122.0453 595.6961,-126.504 600.5742,-131.5243"/>
<text text-anchor="middle" x="602.7397" y="-142.8" font-family="Times,serif" font-size="14.00" fill="#000000">nsubj</text>
</g>
<!-- 11&#45;&gt;10 -->
<g id="edge12" class="edge">
<title>11&#45;&gt;10</title>
<path fill="none" stroke="#000000" d="M624.1593,-122.3083C622.9935,-143.9189 618.8518,-180.4032 604.5708,-208 596.3013,-223.9801 583.308,-239.0609 571.3479,-250.9407"/>
<polygon fill="#000000" stroke="#000000" points="568.8819,-248.4562 564.0859,-257.9033 573.7265,-253.5089 568.8819,-248.4562"/>
<text text-anchor="middle" x="640.1226" y="-185.8" font-family="Times,serif" font-size="14.00" fill="#000000">advmod</text>
</g>
<!-- 13 -->
<g id="node15" class="node">
<title>13</title>
<text text-anchor="middle" x="643.5708" y="-271.8" font-family="Times,serif" font-size="14.00" fill="#000000">13 (ketika)</text>
</g>
<!-- 13&#45;&gt;13 -->
<g id="edge14" class="edge">
<title>13&#45;&gt;13</title>
<path fill="none" stroke="#000000" d="M682.1366,-283.8058C692.3505,-283.3597 700.0864,-280.7578 700.0864,-276 700.0864,-273.0264 697.0646,-270.8949 692.3046,-269.6055"/>
<polygon fill="#000000" stroke="#000000" points="692.5229,-266.1024 682.1366,-268.1942 691.5604,-273.0359 692.5229,-266.1024"/>
<text text-anchor="middle" x="714.4692" y="-271.8" font-family="Times,serif" font-size="14.00" fill="#000000">mark</text>
</g>
</g>
</svg>
