<?xml version="1.0" encoding="UTF-8" standalone="no"?>
<!DOCTYPE svg PUBLIC "-//W3C//DTD SVG 1.1//EN"
 "http://www.w3.org/Graphics/SVG/1.1/DTD/svg11.dtd">
<!-- Generated by graphviz version 2.40.1 (20161225.0304)
 -->
<!-- Title: G Pages: 1 -->
<svg width="711pt" height="302pt"
 viewBox="0.00 0.00 710.59 302.00" xmlns="http://www.w3.org/2000/svg" xmlns:xlink="http://www.w3.org/1999/xlink">
<g id="graph0" class="graph" transform="scale(1 1) rotate(0) translate(4 298)">
<title>G</title>
<polygon fill="#ffffff" stroke="transparent" points="-4,4 -4,-298 706.5864,-298 706.5864,4 -4,4"/>
<!-- 0 -->
<g id="node1" class="node">
<title>0</title>
<text text-anchor="middle" x="231.5708" y="-271.8" font-family="Times,serif" font-size="14.00" fill="#000000">0 (None)</text>
</g>
<!-- 3 -->
<g id="node2" class="node">
<title>3</title>
<text text-anchor="middle" x="231.5708" y="-185.8" font-family="Times,serif" font-size="14.00" fill="#000000">3 (menasihati)</text>
</g>
<!-- 0&#45;&gt;3 -->
<g id="edge1" class="edge">
<title>0&#45;&gt;3</title>
<path fill="none" stroke="#000000" d="M231.5708,-257.7616C231.5708,-246.3597 231.5708,-231.4342 231.5708,-218.494"/>
<polygon fill="#000000" stroke="#000000" points="235.0709,-218.2121 231.5708,-208.2121 228.0709,-218.2121 235.0709,-218.2121"/>
<text text-anchor="middle" x="242.8467" y="-228.8" font-family="Times,serif" font-size="14.00" fill="#000000">root</text>
</g>
<!-- 1 -->
<g id="node3" class="node">
<title>1</title>
<text text-anchor="middle" x="47.5708" y="-99.8" font-family="Times,serif" font-size="14.00" fill="#000000">1 (Dr)</text>
</g>
<!-- 3&#45;&gt;1 -->
<g id="edge3" class="edge">
<title>3&#45;&gt;1</title>
<path fill="none" stroke="#000000" d="M184.9101,-171.9458C171.3549,-166.4427 156.6039,-160.2019 143.2329,-154 123.2552,-144.7336 101.4607,-133.4385 83.7271,-123.9298"/>
<polygon fill="#000000" stroke="#000000" points="85.3172,-120.8108 74.8549,-119.1405 81.992,-126.9707 85.3172,-120.8108"/>
<text text-anchor="middle" x="158.7397" y="-142.8" font-family="Times,serif" font-size="14.00" fill="#000000">nsubj</text>
</g>
<!-- 4 -->
<g id="node5" class="node">
<title>4</title>
<text text-anchor="middle" x="134.5708" y="-99.8" font-family="Times,serif" font-size="14.00" fill="#000000">4 (mereka)</text>
</g>
<!-- 3&#45;&gt;4 -->
<g id="edge4" class="edge">
<title>3&#45;&gt;4</title>
<path fill="none" stroke="#000000" d="M210.9996,-171.7616C196.9818,-159.3335 178.2423,-142.719 162.8276,-129.0524"/>
<polygon fill="#000000" stroke="#000000" points="164.9169,-126.2273 155.1124,-122.2121 160.273,-131.4651 164.9169,-126.2273"/>
<text text-anchor="middle" x="198.1226" y="-142.8" font-family="Times,serif" font-size="14.00" fill="#000000">det</text>
</g>
<!-- 6 -->
<g id="node6" class="node">
<title>6</title>
<text text-anchor="middle" x="231.5708" y="-99.8" font-family="Times,serif" font-size="14.00" fill="#000000">6 (berhenti)</text>
</g>
<!-- 3&#45;&gt;6 -->
<g id="edge5" class="edge">
<title>3&#45;&gt;6</title>
<path fill="none" stroke="#000000" d="M231.5708,-171.7616C231.5708,-160.3597 231.5708,-145.4342 231.5708,-132.494"/>
<polygon fill="#000000" stroke="#000000" points="235.0709,-132.2121 231.5708,-122.2121 228.0709,-132.2121 235.0709,-132.2121"/>
<text text-anchor="middle" x="250.6226" y="-142.8" font-family="Times,serif" font-size="14.00" fill="#000000">xcomp</text>
</g>
<!-- 9 -->
<g id="node7" class="node">
<title>9</title>
<text text-anchor="middle" x="321.5708" y="-99.8" font-family="Times,serif" font-size="14.00" fill="#000000">9 (tidur)</text>
</g>
<!-- 3&#45;&gt;9 -->
<g id="edge6" class="edge">
<title>3&#45;&gt;9</title>
<path fill="none" stroke="#000000" d="M253.724,-171.709C260.2334,-166.1491 267.2892,-159.9371 273.5708,-154 281.5726,-146.437 289.9864,-137.8929 297.4954,-130.0351"/>
<polygon fill="#000000" stroke="#000000" points="300.3243,-132.1377 304.6541,-122.4679 295.2392,-127.327 300.3243,-132.1377"/>
<text text-anchor="middle" x="299.6226" y="-142.8" font-family="Times,serif" font-size="14.00" fill="#000000">conj</text>
</g>
<!-- 10 -->
<g id="node8" class="node">
<title>10</title>
<text text-anchor="middle" x="488.5708" y="-99.8" font-family="Times,serif" font-size="14.00" fill="#000000">10 (sebentar)</text>
</g>
<!-- 3&#45;&gt;10 -->
<g id="edge7" class="edge">
<title>3&#45;&gt;10</title>
<path fill="none" stroke="#000000" d="M279.9105,-173.8241C323.6654,-159.1824 388.0656,-137.6321 433.7289,-122.3518"/>
<polygon fill="#000000" stroke="#000000" points="435.09,-125.5871 443.4624,-119.0946 432.8686,-118.9489 435.09,-125.5871"/>
<text text-anchor="middle" x="398.1226" y="-142.8" font-family="Times,serif" font-size="14.00" fill="#000000">advmod</text>
</g>
<!-- 2 -->
<g id="node4" class="node">
<title>2</title>
<text text-anchor="middle" x="43.5708" y="-13.8" font-family="Times,serif" font-size="14.00" fill="#000000">2 (Mahathir)</text>
</g>
<!-- 1&#45;&gt;2 -->
<g id="edge2" class="edge">
<title>1&#45;&gt;2</title>
<path fill="none" stroke="#000000" d="M46.7225,-85.7616C46.1922,-74.3597 45.498,-59.4342 44.8961,-46.494"/>
<polygon fill="#000000" stroke="#000000" points="48.3788,-46.0387 44.4179,-36.2121 41.3864,-46.3639 48.3788,-46.0387"/>
<text text-anchor="middle" x="55.5156" y="-56.8" font-family="Times,serif" font-size="14.00" fill="#000000">flat</text>
</g>
<!-- 5 -->
<g id="node9" class="node">
<title>5</title>
<text text-anchor="middle" x="142.5708" y="-13.8" font-family="Times,serif" font-size="14.00" fill="#000000">5 (supaya)</text>
</g>
<!-- 6&#45;&gt;5 -->
<g id="edge8" class="edge">
<title>6&#45;&gt;5</title>
<path fill="none" stroke="#000000" d="M212.6962,-85.7616C199.9525,-73.4475 182.9556,-57.0235 168.8871,-43.4293"/>
<polygon fill="#000000" stroke="#000000" points="171.0416,-40.644 161.4182,-36.2121 166.1774,-45.6779 171.0416,-40.644"/>
<text text-anchor="middle" x="204.6157" y="-56.8" font-family="Times,serif" font-size="14.00" fill="#000000">case</text>
</g>
<!-- 7 -->
<g id="node10" class="node">
<title>7</title>
<text text-anchor="middle" x="236.5708" y="-13.8" font-family="Times,serif" font-size="14.00" fill="#000000">7 (berehat)</text>
</g>
<!-- 6&#45;&gt;7 -->
<g id="edge9" class="edge">
<title>6&#45;&gt;7</title>
<path fill="none" stroke="#000000" d="M232.6312,-85.7616C233.2941,-74.3597 234.1618,-59.4342 234.9142,-46.494"/>
<polygon fill="#000000" stroke="#000000" points="238.4256,-46.3984 235.512,-36.2121 231.4374,-45.9921 238.4256,-46.3984"/>
<text text-anchor="middle" x="253.2295" y="-56.8" font-family="Times,serif" font-size="14.00" fill="#000000">ccomp</text>
</g>
<!-- 8 -->
<g id="node11" class="node">
<title>8</title>
<text text-anchor="middle" x="321.5708" y="-13.8" font-family="Times,serif" font-size="14.00" fill="#000000">8 (dan)</text>
</g>
<!-- 9&#45;&gt;8 -->
<g id="edge10" class="edge">
<title>9&#45;&gt;8</title>
<path fill="none" stroke="#000000" d="M321.5708,-85.7616C321.5708,-74.3597 321.5708,-59.4342 321.5708,-46.494"/>
<polygon fill="#000000" stroke="#000000" points="325.0709,-46.2121 321.5708,-36.2121 318.0709,-46.2121 325.0709,-46.2121"/>
<text text-anchor="middle" x="327.7847" y="-56.8" font-family="Times,serif" font-size="14.00" fill="#000000">cc</text>
</g>
<!-- 11 -->
<g id="node12" class="node">
<title>11</title>
<text text-anchor="middle" x="415.5708" y="-13.8" font-family="Times,serif" font-size="14.00" fill="#000000">11 (sekiranya)</text>
</g>
<!-- 10&#45;&gt;11 -->
<g id="edge11" class="edge">
<title>10&#45;&gt;11</title>
<path fill="none" stroke="#000000" d="M473.0894,-85.7616C462.8303,-73.6756 449.2106,-57.6304 437.7996,-44.1874"/>
<polygon fill="#000000" stroke="#000000" points="440.1696,-41.5709 431.0299,-36.2121 434.833,-46.1009 440.1696,-41.5709"/>
<text text-anchor="middle" x="470.9536" y="-56.8" font-family="Times,serif" font-size="14.00" fill="#000000">mark</text>
</g>
<!-- 12 -->
<g id="node13" class="node">
<title>12</title>
<text text-anchor="middle" x="533.5708" y="-13.8" font-family="Times,serif" font-size="14.00" fill="#000000">12 (mengantuk)</text>
</g>
<!-- 10&#45;&gt;12 -->
<g id="edge12" class="edge">
<title>10&#45;&gt;12</title>
<path fill="none" stroke="#000000" d="M498.1141,-85.7616C504.2593,-74.0176 512.3604,-58.5355 519.2677,-45.3349"/>
<polygon fill="#000000" stroke="#000000" points="522.5061,-46.6951 524.0412,-36.2121 516.3038,-43.4497 522.5061,-46.6951"/>
<text text-anchor="middle" x="530.1226" y="-56.8" font-family="Times,serif" font-size="14.00" fill="#000000">amod</text>
</g>
<!-- 14 -->
<g id="node14" class="node">
<title>14</title>
<text text-anchor="middle" x="653.5708" y="-13.8" font-family="Times,serif" font-size="14.00" fill="#000000">14 (memandu)</text>
</g>
<!-- 10&#45;&gt;14 -->
<g id="edge13" class="edge">
<title>10&#45;&gt;14</title>
<path fill="none" stroke="#000000" d="M523.1602,-85.9716C548.4607,-72.7846 582.961,-54.8027 610.1213,-40.6464"/>
<polygon fill="#000000" stroke="#000000" points="611.7769,-43.7304 619.0269,-36.0047 608.5414,-37.523 611.7769,-43.7304"/>
<text text-anchor="middle" x="596.7295" y="-56.8" font-family="Times,serif" font-size="14.00" fill="#000000">advcl</text>
</g>
<!-- 13 -->
<g id="node15" class="node">
<title>13</title>
<text text-anchor="middle" x="321.5708" y="-271.8" font-family="Times,serif" font-size="14.00" fill="#000000">13 (ketika)</text>
</g>
<!-- 13&#45;&gt;13 -->
<g id="edge14" class="edge">
<title>13&#45;&gt;13</title>
<path fill="none" stroke="#000000" d="M360.1366,-283.8058C370.3505,-283.3597 378.0864,-280.7578 378.0864,-276 378.0864,-273.0264 375.0646,-270.8949 370.3046,-269.6055"/>
<polygon fill="#000000" stroke="#000000" points="370.5229,-266.1024 360.1366,-268.1942 369.5604,-273.0359 370.5229,-266.1024"/>
<text text-anchor="middle" x="392.4692" y="-271.8" font-family="Times,serif" font-size="14.00" fill="#000000">mark</text>
</g>
</g>
</svg>
