<?xml version="1.0" encoding="UTF-8" standalone="no"?>
<!DOCTYPE svg PUBLIC "-//W3C//DTD SVG 1.1//EN"
 "http://www.w3.org/Graphics/SVG/1.1/DTD/svg11.dtd">
<!-- Generated by graphviz version 2.40.1 (20161225.0304)
 -->
<!-- Title: G Pages: 1 -->
<svg width="532pt" height="474pt"
 viewBox="0.00 0.00 531.85 474.00" xmlns="http://www.w3.org/2000/svg" xmlns:xlink="http://www.w3.org/1999/xlink">
<g id="graph0" class="graph" transform="scale(1 1) rotate(0) translate(4 470)">
<title>G</title>
<polygon fill="#ffffff" stroke="transparent" points="-4,4 -4,-470 527.8521,-470 527.8521,4 -4,4"/>
<!-- 0 -->
<g id="node1" class="node">
<title>0</title>
<text text-anchor="middle" x="175.5708" y="-443.8" font-family="Times,serif" font-size="14.00" fill="#000000">0 (None)</text>
</g>
<!-- 3 -->
<g id="node2" class="node">
<title>3</title>
<text text-anchor="middle" x="175.5708" y="-357.8" font-family="Times,serif" font-size="14.00" fill="#000000">3 (menasihati)</text>
</g>
<!-- 0&#45;&gt;3 -->
<g id="edge1" class="edge">
<title>0&#45;&gt;3</title>
<path fill="none" stroke="#000000" d="M175.5708,-429.7616C175.5708,-418.3597 175.5708,-403.4342 175.5708,-390.494"/>
<polygon fill="#000000" stroke="#000000" points="179.0709,-390.2121 175.5708,-380.2121 172.0709,-390.2121 179.0709,-390.2121"/>
<text text-anchor="middle" x="186.8467" y="-400.8" font-family="Times,serif" font-size="14.00" fill="#000000">root</text>
</g>
<!-- 1 -->
<g id="node3" class="node">
<title>1</title>
<text text-anchor="middle" x="43.5708" y="-271.8" font-family="Times,serif" font-size="14.00" fill="#000000">1 (Dr)</text>
</g>
<!-- 3&#45;&gt;1 -->
<g id="edge3" class="edge">
<title>3&#45;&gt;1</title>
<path fill="none" stroke="#000000" d="M144.3052,-343.9194C134.8762,-338.3134 124.5568,-332.0234 115.2329,-326 102.5182,-317.7861 88.8281,-308.3792 76.8547,-299.9572"/>
<polygon fill="#000000" stroke="#000000" points="78.6628,-296.949 68.478,-294.0298 74.6194,-302.6632 78.6628,-296.949"/>
<text text-anchor="middle" x="130.7397" y="-314.8" font-family="Times,serif" font-size="14.00" fill="#000000">nsubj</text>
</g>
<!-- 4 -->
<g id="node5" class="node">
<title>4</title>
<text text-anchor="middle" x="127.5708" y="-271.8" font-family="Times,serif" font-size="14.00" fill="#000000">4 (mereka)</text>
</g>
<!-- 3&#45;&gt;4 -->
<g id="edge4" class="edge">
<title>3&#45;&gt;4</title>
<path fill="none" stroke="#000000" d="M165.3912,-343.7616C158.7728,-331.9036 150.0273,-316.2345 142.6132,-302.951"/>
<polygon fill="#000000" stroke="#000000" points="145.6656,-301.2383 137.7357,-294.2121 139.5532,-304.6499 145.6656,-301.2383"/>
<text text-anchor="middle" x="163.1226" y="-314.8" font-family="Times,serif" font-size="14.00" fill="#000000">det</text>
</g>
<!-- 6 -->
<g id="node6" class="node">
<title>6</title>
<text text-anchor="middle" x="224.5708" y="-271.8" font-family="Times,serif" font-size="14.00" fill="#000000">6 (berhenti)</text>
</g>
<!-- 3&#45;&gt;6 -->
<g id="edge5" class="edge">
<title>3&#45;&gt;6</title>
<path fill="none" stroke="#000000" d="M185.9624,-343.7616C192.7188,-331.9036 201.6465,-316.2345 209.215,-302.951"/>
<polygon fill="#000000" stroke="#000000" points="212.2846,-304.6334 214.1941,-294.2121 206.2026,-301.1681 212.2846,-304.6334"/>
<text text-anchor="middle" x="218.7295" y="-314.8" font-family="Times,serif" font-size="14.00" fill="#000000">advcl</text>
</g>
<!-- 14 -->
<g id="node7" class="node">
<title>14</title>
<text text-anchor="middle" x="332.5708" y="-271.8" font-family="Times,serif" font-size="14.00" fill="#000000">14 (memandu)</text>
</g>
<!-- 3&#45;&gt;14 -->
<g id="edge6" class="edge">
<title>3&#45;&gt;14</title>
<path fill="none" stroke="#000000" d="M208.4831,-343.9716C232.4523,-330.842 265.0992,-312.959 290.8905,-298.8313"/>
<polygon fill="#000000" stroke="#000000" points="292.6128,-301.8785 299.7018,-294.0047 289.2499,-295.7393 292.6128,-301.8785"/>
<text text-anchor="middle" x="278.7295" y="-314.8" font-family="Times,serif" font-size="14.00" fill="#000000">advcl</text>
</g>
<!-- 2 -->
<g id="node4" class="node">
<title>2</title>
<text text-anchor="middle" x="43.5708" y="-185.8" font-family="Times,serif" font-size="14.00" fill="#000000">2 (Mahathir)</text>
</g>
<!-- 1&#45;&gt;2 -->
<g id="edge2" class="edge">
<title>1&#45;&gt;2</title>
<path fill="none" stroke="#000000" d="M43.5708,-257.7616C43.5708,-246.3597 43.5708,-231.4342 43.5708,-218.494"/>
<polygon fill="#000000" stroke="#000000" points="47.0709,-218.2121 43.5708,-208.2121 40.0709,-218.2121 47.0709,-218.2121"/>
<text text-anchor="middle" x="52.5156" y="-228.8" font-family="Times,serif" font-size="14.00" fill="#000000">flat</text>
</g>
<!-- 5 -->
<g id="node8" class="node">
<title>5</title>
<text text-anchor="middle" x="157.5708" y="-185.8" font-family="Times,serif" font-size="14.00" fill="#000000">5 (supaya)</text>
</g>
<!-- 6&#45;&gt;5 -->
<g id="edge7" class="edge">
<title>6&#45;&gt;5</title>
<path fill="none" stroke="#000000" d="M210.3618,-257.7616C200.9459,-245.6756 188.4457,-229.6304 177.9726,-216.1874"/>
<polygon fill="#000000" stroke="#000000" points="180.6661,-213.9497 171.7593,-208.2121 175.1441,-218.2517 180.6661,-213.9497"/>
<text text-anchor="middle" x="209.9536" y="-228.8" font-family="Times,serif" font-size="14.00" fill="#000000">mark</text>
</g>
<!-- 7 -->
<g id="node9" class="node">
<title>7</title>
<text text-anchor="middle" x="251.5708" y="-185.8" font-family="Times,serif" font-size="14.00" fill="#000000">7 (berehat)</text>
</g>
<!-- 6&#45;&gt;7 -->
<g id="edge8" class="edge">
<title>6&#45;&gt;7</title>
<path fill="none" stroke="#000000" d="M230.2968,-257.7616C233.9123,-246.2456 238.6562,-231.1353 242.7467,-218.1064"/>
<polygon fill="#000000" stroke="#000000" points="246.1969,-218.8014 245.853,-208.2121 239.5183,-216.7045 246.1969,-218.8014"/>
<text text-anchor="middle" x="249.5156" y="-228.8" font-family="Times,serif" font-size="14.00" fill="#000000">obj</text>
</g>
<!-- 9 -->
<g id="node10" class="node">
<title>9</title>
<text text-anchor="middle" x="251.5708" y="-99.8" font-family="Times,serif" font-size="14.00" fill="#000000">9 (tidur)</text>
</g>
<!-- 7&#45;&gt;9 -->
<g id="edge9" class="edge">
<title>7&#45;&gt;9</title>
<path fill="none" stroke="#000000" d="M251.5708,-171.7616C251.5708,-160.3597 251.5708,-145.4342 251.5708,-132.494"/>
<polygon fill="#000000" stroke="#000000" points="255.0709,-132.2121 251.5708,-122.2121 248.0709,-132.2121 255.0709,-132.2121"/>
<text text-anchor="middle" x="263.6226" y="-142.8" font-family="Times,serif" font-size="14.00" fill="#000000">conj</text>
</g>
<!-- 8 -->
<g id="node11" class="node">
<title>8</title>
<text text-anchor="middle" x="202.5708" y="-13.8" font-family="Times,serif" font-size="14.00" fill="#000000">8 (dan)</text>
</g>
<!-- 9&#45;&gt;8 -->
<g id="edge10" class="edge">
<title>9&#45;&gt;8</title>
<path fill="none" stroke="#000000" d="M241.1792,-85.7616C234.4228,-73.9036 225.4951,-58.2345 217.9266,-44.951"/>
<polygon fill="#000000" stroke="#000000" points="220.939,-43.1681 212.9475,-36.2121 214.857,-46.6334 220.939,-43.1681"/>
<text text-anchor="middle" x="236.7847" y="-56.8" font-family="Times,serif" font-size="14.00" fill="#000000">cc</text>
</g>
<!-- 12 -->
<g id="node12" class="node">
<title>12</title>
<text text-anchor="middle" x="301.5708" y="-13.8" font-family="Times,serif" font-size="14.00" fill="#000000">12 (mengantuk)</text>
</g>
<!-- 9&#45;&gt;12 -->
<g id="edge11" class="edge">
<title>9&#45;&gt;12</title>
<path fill="none" stroke="#000000" d="M262.1745,-85.7616C269.0687,-73.9036 278.1787,-58.2345 285.9016,-44.951"/>
<polygon fill="#000000" stroke="#000000" points="288.9819,-46.6164 290.9824,-36.2121 282.9303,-43.098 288.9819,-46.6164"/>
<text text-anchor="middle" x="294.7295" y="-56.8" font-family="Times,serif" font-size="14.00" fill="#000000">advcl</text>
</g>
<!-- 10 -->
<g id="node13" class="node">
<title>10</title>
<text text-anchor="middle" x="286.5708" y="-357.8" font-family="Times,serif" font-size="14.00" fill="#000000">10 (sebentar)</text>
</g>
<!-- 11 -->
<g id="node14" class="node">
<title>11</title>
<text text-anchor="middle" x="286.5708" y="-443.8" font-family="Times,serif" font-size="14.00" fill="#000000">11 (sekiranya)</text>
</g>
<!-- 11&#45;&gt;10 -->
<g id="edge12" class="edge">
<title>11&#45;&gt;10</title>
<path fill="none" stroke="#000000" d="M286.5708,-429.7616C286.5708,-418.3597 286.5708,-403.4342 286.5708,-390.494"/>
<polygon fill="#000000" stroke="#000000" points="290.0709,-390.2121 286.5708,-380.2121 283.0709,-390.2121 290.0709,-390.2121"/>
<text text-anchor="middle" x="309.1226" y="-400.8" font-family="Times,serif" font-size="14.00" fill="#000000">advmod</text>
</g>
<!-- 11&#45;&gt;11 -->
<g id="edge13" class="edge">
<title>11&#45;&gt;11</title>
<path fill="none" stroke="#000000" d="M334.608,-455.6424C345.0063,-454.8951 352.5474,-452.3477 352.5474,-448 352.5474,-445.2827 349.6017,-443.2686 344.8537,-441.9578"/>
<polygon fill="#000000" stroke="#000000" points="345.0283,-438.4427 334.608,-440.3576 343.9481,-445.3588 345.0283,-438.4427"/>
<text text-anchor="middle" x="367.7163" y="-443.8" font-family="Times,serif" font-size="14.00" fill="#000000">nsubj</text>
</g>
<!-- 13 -->
<g id="node15" class="node">
<title>13</title>
<text text-anchor="middle" x="438.5708" y="-443.8" font-family="Times,serif" font-size="14.00" fill="#000000">13 (ketika)</text>
</g>
<!-- 13&#45;&gt;13 -->
<g id="edge14" class="edge">
<title>13&#45;&gt;13</title>
<path fill="none" stroke="#000000" d="M477.1366,-455.8058C487.3505,-455.3597 495.0864,-452.7578 495.0864,-448 495.0864,-445.0264 492.0646,-442.8949 487.3046,-441.6055"/>
<polygon fill="#000000" stroke="#000000" points="487.5229,-438.1024 477.1366,-440.1942 486.5604,-445.0359 487.5229,-438.1024"/>
<text text-anchor="middle" x="509.4692" y="-443.8" font-family="Times,serif" font-size="14.00" fill="#000000">mark</text>
</g>
</g>
</svg>
