<?xml version="1.0" encoding="UTF-8" standalone="no"?>
<!DOCTYPE svg PUBLIC "-//W3C//DTD SVG 1.1//EN"
 "http://www.w3.org/Graphics/SVG/1.1/DTD/svg11.dtd">
<!-- Generated by graphviz version 2.40.1 (20161225.0304)
 -->
<!-- Title: G Pages: 1 -->
<svg width="344pt" height="732pt"
 viewBox="0.00 0.00 344.09 732.00" xmlns="http://www.w3.org/2000/svg" xmlns:xlink="http://www.w3.org/1999/xlink">
<g id="graph0" class="graph" transform="scale(1 1) rotate(0) translate(4 728)">
<title>G</title>
<polygon fill="#ffffff" stroke="transparent" points="-4,4 -4,-728 340.0864,-728 340.0864,4 -4,4"/>
<!-- 0 -->
<g id="node1" class="node">
<title>0</title>
<text text-anchor="middle" x="63.5708" y="-701.8" font-family="Times,serif" font-size="14.00" fill="#000000">0 (None)</text>
</g>
<!-- 1 -->
<g id="node2" class="node">
<title>1</title>
<text text-anchor="middle" x="98.5708" y="-529.8" font-family="Times,serif" font-size="14.00" fill="#000000">1 (Dr)</text>
</g>
<!-- 12 -->
<g id="node3" class="node">
<title>12</title>
<text text-anchor="middle" x="98.5708" y="-443.8" font-family="Times,serif" font-size="14.00" fill="#000000">12 (mengantuk)</text>
</g>
<!-- 1&#45;&gt;12 -->
<g id="edge1" class="edge">
<title>1&#45;&gt;12</title>
<path fill="none" stroke="#000000" d="M98.5708,-515.7616C98.5708,-504.3597 98.5708,-489.4342 98.5708,-476.494"/>
<polygon fill="#000000" stroke="#000000" points="102.0709,-476.2121 98.5708,-466.2121 95.0709,-476.2121 102.0709,-476.2121"/>
<text text-anchor="middle" x="113.7363" y="-486.8" font-family="Times,serif" font-size="14.00" fill="#000000">UNK</text>
</g>
<!-- 10 -->
<g id="node15" class="node">
<title>10</title>
<text text-anchor="middle" x="98.5708" y="-357.8" font-family="Times,serif" font-size="14.00" fill="#000000">10 (sebentar)</text>
</g>
<!-- 12&#45;&gt;10 -->
<g id="edge13" class="edge">
<title>12&#45;&gt;10</title>
<path fill="none" stroke="#000000" d="M98.5708,-429.7616C98.5708,-418.3597 98.5708,-403.4342 98.5708,-390.494"/>
<polygon fill="#000000" stroke="#000000" points="102.0709,-390.2121 98.5708,-380.2121 95.0709,-390.2121 102.0709,-390.2121"/>
<text text-anchor="middle" x="121.1226" y="-400.8" font-family="Times,serif" font-size="14.00" fill="#000000">advmod</text>
</g>
<!-- 2 -->
<g id="node4" class="node">
<title>2</title>
<text text-anchor="middle" x="43.5708" y="-185.8" font-family="Times,serif" font-size="14.00" fill="#000000">2 (Mahathir)</text>
</g>
<!-- 3 -->
<g id="node5" class="node">
<title>3</title>
<text text-anchor="middle" x="98.5708" y="-615.8" font-family="Times,serif" font-size="14.00" fill="#000000">3 (menasihati)</text>
</g>
<!-- 3&#45;&gt;1 -->
<g id="edge2" class="edge">
<title>3&#45;&gt;1</title>
<path fill="none" stroke="#000000" d="M98.5708,-601.7616C98.5708,-590.3597 98.5708,-575.4342 98.5708,-562.494"/>
<polygon fill="#000000" stroke="#000000" points="102.0709,-562.2121 98.5708,-552.2121 95.0709,-562.2121 102.0709,-562.2121"/>
<text text-anchor="middle" x="110.6157" y="-572.8" font-family="Times,serif" font-size="14.00" fill="#000000">case</text>
</g>
<!-- 4 -->
<g id="node6" class="node">
<title>4</title>
<text text-anchor="middle" x="153.5708" y="-701.8" font-family="Times,serif" font-size="14.00" fill="#000000">4 (mereka)</text>
</g>
<!-- 4&#45;&gt;3 -->
<g id="edge3" class="edge">
<title>4&#45;&gt;3</title>
<path fill="none" stroke="#000000" d="M141.9067,-687.7616C134.3231,-675.9036 124.3022,-660.2345 115.8069,-646.951"/>
<polygon fill="#000000" stroke="#000000" points="118.5545,-644.7509 110.2181,-638.2121 112.6573,-648.5223 118.5545,-644.7509"/>
<text text-anchor="middle" x="137.7295" y="-658.8" font-family="Times,serif" font-size="14.00" fill="#000000">acl</text>
</g>
<!-- 4&#45;&gt;4 -->
<g id="edge4" class="edge">
<title>4&#45;&gt;4</title>
<path fill="none" stroke="#000000" d="M192.132,-713.8058C202.3446,-713.3597 210.0796,-710.7578 210.0796,-706 210.0796,-703.0264 207.0581,-700.8949 202.2987,-699.6055"/>
<polygon fill="#000000" stroke="#000000" points="202.5182,-696.1025 192.132,-698.1942 201.5557,-703.036 202.5182,-696.1025"/>
<text text-anchor="middle" x="219.0244" y="-701.8" font-family="Times,serif" font-size="14.00" fill="#000000">obj</text>
</g>
<!-- 9 -->
<g id="node7" class="node">
<title>9</title>
<text text-anchor="middle" x="195.5708" y="-615.8" font-family="Times,serif" font-size="14.00" fill="#000000">9 (tidur)</text>
</g>
<!-- 4&#45;&gt;9 -->
<g id="edge5" class="edge">
<title>4&#45;&gt;9</title>
<path fill="none" stroke="#000000" d="M162.4779,-687.7616C168.2134,-676.0176 175.7744,-660.5355 182.2212,-647.3349"/>
<polygon fill="#000000" stroke="#000000" points="185.4331,-648.7337 186.6765,-638.2121 179.1431,-645.6618 185.4331,-648.7337"/>
<text text-anchor="middle" x="189.6226" y="-658.8" font-family="Times,serif" font-size="14.00" fill="#000000">conj</text>
</g>
<!-- 11 -->
<g id="node13" class="node">
<title>11</title>
<text text-anchor="middle" x="193.5708" y="-529.8" font-family="Times,serif" font-size="14.00" fill="#000000">11 (sekiranya)</text>
</g>
<!-- 9&#45;&gt;11 -->
<g id="edge9" class="edge">
<title>9&#45;&gt;11</title>
<path fill="none" stroke="#000000" d="M195.1467,-601.7616C194.8815,-590.3597 194.5344,-575.4342 194.2335,-562.494"/>
<polygon fill="#000000" stroke="#000000" points="197.726,-562.128 193.9943,-552.2121 190.7279,-562.2908 197.726,-562.128"/>
<text text-anchor="middle" x="218.1226" y="-572.8" font-family="Times,serif" font-size="14.00" fill="#000000">advmod</text>
</g>
<!-- 13 -->
<g id="node14" class="node">
<title>13</title>
<text text-anchor="middle" x="297.5708" y="-529.8" font-family="Times,serif" font-size="14.00" fill="#000000">13 (ketika)</text>
</g>
<!-- 9&#45;&gt;13 -->
<g id="edge10" class="edge">
<title>9&#45;&gt;13</title>
<path fill="none" stroke="#000000" d="M221.4557,-601.8938C229.0511,-596.3392 237.2737,-590.0836 244.5708,-584 253.795,-576.3097 263.4667,-567.4469 271.9853,-559.3388"/>
<polygon fill="#000000" stroke="#000000" points="274.6641,-561.6181 279.4385,-552.16 269.8081,-556.5764 274.6641,-561.6181"/>
<text text-anchor="middle" x="271.6157" y="-572.8" font-family="Times,serif" font-size="14.00" fill="#000000">case</text>
</g>
<!-- 5 -->
<g id="node8" class="node">
<title>5</title>
<text text-anchor="middle" x="154.5708" y="-13.8" font-family="Times,serif" font-size="14.00" fill="#000000">5 (supaya)</text>
</g>
<!-- 6 -->
<g id="node9" class="node">
<title>6</title>
<text text-anchor="middle" x="50.5708" y="-271.8" font-family="Times,serif" font-size="14.00" fill="#000000">6 (berhenti)</text>
</g>
<!-- 6&#45;&gt;2 -->
<g id="edge6" class="edge">
<title>6&#45;&gt;2</title>
<path fill="none" stroke="#000000" d="M49.0863,-257.7616C48.1582,-246.3597 46.9433,-231.4342 45.8901,-218.494"/>
<polygon fill="#000000" stroke="#000000" points="49.353,-217.8952 45.0532,-208.2121 42.3761,-218.4631 49.353,-217.8952"/>
<text text-anchor="middle" x="56.5156" y="-228.8" font-family="Times,serif" font-size="14.00" fill="#000000">obl</text>
</g>
<!-- 7 -->
<g id="node10" class="node">
<title>7</title>
<text text-anchor="middle" x="150.5708" y="-271.8" font-family="Times,serif" font-size="14.00" fill="#000000">7 (berehat)</text>
</g>
<!-- 14 -->
<g id="node11" class="node">
<title>14</title>
<text text-anchor="middle" x="154.5708" y="-185.8" font-family="Times,serif" font-size="14.00" fill="#000000">14 (memandu)</text>
</g>
<!-- 7&#45;&gt;14 -->
<g id="edge7" class="edge">
<title>7&#45;&gt;14</title>
<path fill="none" stroke="#000000" d="M151.4191,-257.7616C151.9494,-246.3597 152.6436,-231.4342 153.2455,-218.494"/>
<polygon fill="#000000" stroke="#000000" points="156.7552,-218.3639 153.7237,-208.2121 149.7628,-218.0387 156.7552,-218.3639"/>
<text text-anchor="middle" x="172.6226" y="-228.8" font-family="Times,serif" font-size="14.00" fill="#000000">xcomp</text>
</g>
<!-- 8 -->
<g id="node12" class="node">
<title>8</title>
<text text-anchor="middle" x="154.5708" y="-99.8" font-family="Times,serif" font-size="14.00" fill="#000000">8 (dan)</text>
</g>
<!-- 14&#45;&gt;8 -->
<g id="edge14" class="edge">
<title>14&#45;&gt;8</title>
<path fill="none" stroke="#000000" d="M154.5708,-171.7616C154.5708,-160.3597 154.5708,-145.4342 154.5708,-132.494"/>
<polygon fill="#000000" stroke="#000000" points="158.0709,-132.2121 154.5708,-122.2121 151.0709,-132.2121 158.0709,-132.2121"/>
<text text-anchor="middle" x="160.7847" y="-142.8" font-family="Times,serif" font-size="14.00" fill="#000000">cc</text>
</g>
<!-- 8&#45;&gt;5 -->
<g id="edge8" class="edge">
<title>8&#45;&gt;5</title>
<path fill="none" stroke="#000000" d="M154.5708,-85.7616C154.5708,-74.3597 154.5708,-59.4342 154.5708,-46.494"/>
<polygon fill="#000000" stroke="#000000" points="158.0709,-46.2121 154.5708,-36.2121 151.0709,-46.2121 158.0709,-46.2121"/>
<text text-anchor="middle" x="166.6157" y="-56.8" font-family="Times,serif" font-size="14.00" fill="#000000">case</text>
</g>
<!-- 10&#45;&gt;6 -->
<g id="edge11" class="edge">
<title>10&#45;&gt;6</title>
<path fill="none" stroke="#000000" d="M88.3912,-343.7616C81.7728,-331.9036 73.0273,-316.2345 65.6132,-302.951"/>
<polygon fill="#000000" stroke="#000000" points="68.6656,-301.2383 60.7357,-294.2121 62.5532,-304.6499 68.6656,-301.2383"/>
<text text-anchor="middle" x="96.6226" y="-314.8" font-family="Times,serif" font-size="14.00" fill="#000000">xcomp</text>
</g>
<!-- 10&#45;&gt;7 -->
<g id="edge12" class="edge">
<title>10&#45;&gt;7</title>
<path fill="none" stroke="#000000" d="M109.5987,-343.7616C116.7686,-331.9036 126.243,-316.2345 134.2748,-302.951"/>
<polygon fill="#000000" stroke="#000000" points="137.3797,-304.5804 139.5588,-294.2121 131.3895,-300.9584 137.3797,-304.5804"/>
<text text-anchor="middle" x="143.7295" y="-314.8" font-family="Times,serif" font-size="14.00" fill="#000000">advcl</text>
</g>
</g>
</svg>
