<?xml version="1.0" encoding="UTF-8" standalone="no"?>
<!DOCTYPE svg PUBLIC "-//W3C//DTD SVG 1.1//EN"
 "http://www.w3.org/Graphics/SVG/1.1/DTD/svg11.dtd">
<!-- Generated by graphviz version 2.40.1 (20161225.0304)
 -->
<!-- Title: G Pages: 1 -->
<svg width="518pt" height="474pt"
 viewBox="0.00 0.00 517.85 474.00" xmlns="http://www.w3.org/2000/svg" xmlns:xlink="http://www.w3.org/1999/xlink">
<g id="graph0" class="graph" transform="scale(1 1) rotate(0) translate(4 470)">
<title>G</title>
<polygon fill="#ffffff" stroke="transparent" points="-4,4 -4,-470 513.8521,-470 513.8521,4 -4,4"/>
<!-- 0 -->
<g id="node1" class="node">
<title>0</title>
<text text-anchor="middle" x="127.5708" y="-443.8" font-family="Times,serif" font-size="14.00" fill="#000000">0 (None)</text>
</g>
<!-- 3 -->
<g id="node2" class="node">
<title>3</title>
<text text-anchor="middle" x="127.5708" y="-357.8" font-family="Times,serif" font-size="14.00" fill="#000000">3 (menasihati)</text>
</g>
<!-- 0&#45;&gt;3 -->
<g id="edge1" class="edge">
<title>0&#45;&gt;3</title>
<path fill="none" stroke="#000000" d="M127.5708,-429.7616C127.5708,-418.3597 127.5708,-403.4342 127.5708,-390.494"/>
<polygon fill="#000000" stroke="#000000" points="131.0709,-390.2121 127.5708,-380.2121 124.0709,-390.2121 131.0709,-390.2121"/>
<text text-anchor="middle" x="138.8467" y="-400.8" font-family="Times,serif" font-size="14.00" fill="#000000">root</text>
</g>
<!-- 1 -->
<g id="node3" class="node">
<title>1</title>
<text text-anchor="middle" x="43.5708" y="-271.8" font-family="Times,serif" font-size="14.00" fill="#000000">1 (Dr)</text>
</g>
<!-- 3&#45;&gt;1 -->
<g id="edge3" class="edge">
<title>3&#45;&gt;1</title>
<path fill="none" stroke="#000000" d="M109.7566,-343.7616C97.7288,-331.4475 81.6868,-315.0235 68.4087,-301.4293"/>
<polygon fill="#000000" stroke="#000000" points="70.8506,-298.9203 61.3594,-294.2121 65.843,-303.8115 70.8506,-298.9203"/>
<text text-anchor="middle" x="106.7397" y="-314.8" font-family="Times,serif" font-size="14.00" fill="#000000">nsubj</text>
</g>
<!-- 4 -->
<g id="node5" class="node">
<title>4</title>
<text text-anchor="middle" x="127.5708" y="-271.8" font-family="Times,serif" font-size="14.00" fill="#000000">4 (mereka)</text>
</g>
<!-- 3&#45;&gt;4 -->
<g id="edge4" class="edge">
<title>3&#45;&gt;4</title>
<path fill="none" stroke="#000000" d="M127.5708,-343.7616C127.5708,-332.3597 127.5708,-317.4342 127.5708,-304.494"/>
<polygon fill="#000000" stroke="#000000" points="131.0709,-304.2121 127.5708,-294.2121 124.0709,-304.2121 131.0709,-304.2121"/>
<text text-anchor="middle" x="136.1226" y="-314.8" font-family="Times,serif" font-size="14.00" fill="#000000">det</text>
</g>
<!-- 6 -->
<g id="node6" class="node">
<title>6</title>
<text text-anchor="middle" x="224.5708" y="-271.8" font-family="Times,serif" font-size="14.00" fill="#000000">6 (berhenti)</text>
</g>
<!-- 3&#45;&gt;6 -->
<g id="edge5" class="edge">
<title>3&#45;&gt;6</title>
<path fill="none" stroke="#000000" d="M148.142,-343.7616C162.1598,-331.3335 180.8993,-314.719 196.314,-301.0524"/>
<polygon fill="#000000" stroke="#000000" points="198.8686,-303.4651 204.0292,-294.2121 194.2247,-298.2273 198.8686,-303.4651"/>
<text text-anchor="middle" x="197.7295" y="-314.8" font-family="Times,serif" font-size="14.00" fill="#000000">advcl</text>
</g>
<!-- 2 -->
<g id="node4" class="node">
<title>2</title>
<text text-anchor="middle" x="43.5708" y="-185.8" font-family="Times,serif" font-size="14.00" fill="#000000">2 (Mahathir)</text>
</g>
<!-- 1&#45;&gt;2 -->
<g id="edge2" class="edge">
<title>1&#45;&gt;2</title>
<path fill="none" stroke="#000000" d="M43.5708,-257.7616C43.5708,-246.3597 43.5708,-231.4342 43.5708,-218.494"/>
<polygon fill="#000000" stroke="#000000" points="47.0709,-218.2121 43.5708,-208.2121 40.0709,-218.2121 47.0709,-218.2121"/>
<text text-anchor="middle" x="52.5156" y="-228.8" font-family="Times,serif" font-size="14.00" fill="#000000">flat</text>
</g>
<!-- 5 -->
<g id="node7" class="node">
<title>5</title>
<text text-anchor="middle" x="157.5708" y="-185.8" font-family="Times,serif" font-size="14.00" fill="#000000">5 (supaya)</text>
</g>
<!-- 6&#45;&gt;5 -->
<g id="edge6" class="edge">
<title>6&#45;&gt;5</title>
<path fill="none" stroke="#000000" d="M210.3618,-257.7616C200.9459,-245.6756 188.4457,-229.6304 177.9726,-216.1874"/>
<polygon fill="#000000" stroke="#000000" points="180.6661,-213.9497 171.7593,-208.2121 175.1441,-218.2517 180.6661,-213.9497"/>
<text text-anchor="middle" x="209.9536" y="-228.8" font-family="Times,serif" font-size="14.00" fill="#000000">mark</text>
</g>
<!-- 7 -->
<g id="node8" class="node">
<title>7</title>
<text text-anchor="middle" x="251.5708" y="-185.8" font-family="Times,serif" font-size="14.00" fill="#000000">7 (berehat)</text>
</g>
<!-- 6&#45;&gt;7 -->
<g id="edge7" class="edge">
<title>6&#45;&gt;7</title>
<path fill="none" stroke="#000000" d="M230.2968,-257.7616C233.9123,-246.2456 238.6562,-231.1353 242.7467,-218.1064"/>
<polygon fill="#000000" stroke="#000000" points="246.1969,-218.8014 245.853,-208.2121 239.5183,-216.7045 246.1969,-218.8014"/>
<text text-anchor="middle" x="249.5156" y="-228.8" font-family="Times,serif" font-size="14.00" fill="#000000">obj</text>
</g>
<!-- 9 -->
<g id="node9" class="node">
<title>9</title>
<text text-anchor="middle" x="251.5708" y="-99.8" font-family="Times,serif" font-size="14.00" fill="#000000">9 (tidur)</text>
</g>
<!-- 7&#45;&gt;9 -->
<g id="edge8" class="edge">
<title>7&#45;&gt;9</title>
<path fill="none" stroke="#000000" d="M251.5708,-171.7616C251.5708,-160.3597 251.5708,-145.4342 251.5708,-132.494"/>
<polygon fill="#000000" stroke="#000000" points="255.0709,-132.2121 251.5708,-122.2121 248.0709,-132.2121 255.0709,-132.2121"/>
<text text-anchor="middle" x="263.6226" y="-142.8" font-family="Times,serif" font-size="14.00" fill="#000000">conj</text>
</g>
<!-- 8 -->
<g id="node10" class="node">
<title>8</title>
<text text-anchor="middle" x="251.5708" y="-13.8" font-family="Times,serif" font-size="14.00" fill="#000000">8 (dan)</text>
</g>
<!-- 9&#45;&gt;8 -->
<g id="edge9" class="edge">
<title>9&#45;&gt;8</title>
<path fill="none" stroke="#000000" d="M251.5708,-85.7616C251.5708,-74.3597 251.5708,-59.4342 251.5708,-46.494"/>
<polygon fill="#000000" stroke="#000000" points="255.0709,-46.2121 251.5708,-36.2121 248.0709,-46.2121 255.0709,-46.2121"/>
<text text-anchor="middle" x="257.7847" y="-56.8" font-family="Times,serif" font-size="14.00" fill="#000000">cc</text>
</g>
<!-- 10 -->
<g id="node11" class="node">
<title>10</title>
<text text-anchor="middle" x="238.5708" y="-357.8" font-family="Times,serif" font-size="14.00" fill="#000000">10 (sebentar)</text>
</g>
<!-- 11 -->
<g id="node12" class="node">
<title>11</title>
<text text-anchor="middle" x="272.5708" y="-443.8" font-family="Times,serif" font-size="14.00" fill="#000000">11 (sekiranya)</text>
</g>
<!-- 11&#45;&gt;10 -->
<g id="edge10" class="edge">
<title>11&#45;&gt;10</title>
<path fill="none" stroke="#000000" d="M265.3603,-429.7616C260.7624,-418.1316 254.7152,-402.8357 249.5299,-389.72"/>
<polygon fill="#000000" stroke="#000000" points="252.7024,-388.2249 245.7709,-380.2121 246.1927,-390.7985 252.7024,-388.2249"/>
<text text-anchor="middle" x="281.1226" y="-400.8" font-family="Times,serif" font-size="14.00" fill="#000000">advmod</text>
</g>
<!-- 11&#45;&gt;11 -->
<g id="edge11" class="edge">
<title>11&#45;&gt;11</title>
<path fill="none" stroke="#000000" d="M320.608,-455.6424C331.0063,-454.8951 338.5474,-452.3477 338.5474,-448 338.5474,-445.2827 335.6017,-443.2686 330.8537,-441.9578"/>
<polygon fill="#000000" stroke="#000000" points="331.0283,-438.4427 320.608,-440.3576 329.9481,-445.3588 331.0283,-438.4427"/>
<text text-anchor="middle" x="353.7163" y="-443.8" font-family="Times,serif" font-size="14.00" fill="#000000">nsubj</text>
</g>
<!-- 12 -->
<g id="node13" class="node">
<title>12</title>
<text text-anchor="middle" x="353.5708" y="-357.8" font-family="Times,serif" font-size="14.00" fill="#000000">12 (mengantuk)</text>
</g>
<!-- 11&#45;&gt;12 -->
<g id="edge12" class="edge">
<title>11&#45;&gt;12</title>
<path fill="none" stroke="#000000" d="M290.4744,-429.78C295.9902,-424.1146 302.0603,-417.8265 307.5708,-412 314.9868,-404.1587 322.9781,-395.5352 330.186,-387.6904"/>
<polygon fill="#000000" stroke="#000000" points="332.9078,-389.9007 337.0824,-380.1629 327.7464,-385.172 332.9078,-389.9007"/>
<text text-anchor="middle" x="335.7295" y="-400.8" font-family="Times,serif" font-size="14.00" fill="#000000">advcl</text>
</g>
<!-- 14 -->
<g id="node14" class="node">
<title>14</title>
<text text-anchor="middle" x="353.5708" y="-271.8" font-family="Times,serif" font-size="14.00" fill="#000000">14 (memandu)</text>
</g>
<!-- 12&#45;&gt;14 -->
<g id="edge13" class="edge">
<title>12&#45;&gt;14</title>
<path fill="none" stroke="#000000" d="M353.5708,-343.7616C353.5708,-332.3597 353.5708,-317.4342 353.5708,-304.494"/>
<polygon fill="#000000" stroke="#000000" points="357.0709,-304.2121 353.5708,-294.2121 350.0709,-304.2121 357.0709,-304.2121"/>
<text text-anchor="middle" x="368.7295" y="-314.8" font-family="Times,serif" font-size="14.00" fill="#000000">advcl</text>
</g>
<!-- 13 -->
<g id="node15" class="node">
<title>13</title>
<text text-anchor="middle" x="424.5708" y="-443.8" font-family="Times,serif" font-size="14.00" fill="#000000">13 (ketika)</text>
</g>
<!-- 13&#45;&gt;13 -->
<g id="edge14" class="edge">
<title>13&#45;&gt;13</title>
<path fill="none" stroke="#000000" d="M463.1366,-455.8058C473.3505,-455.3597 481.0864,-452.7578 481.0864,-448 481.0864,-445.0264 478.0646,-442.8949 473.3046,-441.6055"/>
<polygon fill="#000000" stroke="#000000" points="473.5229,-438.1024 463.1366,-440.1942 472.5604,-445.0359 473.5229,-438.1024"/>
<text text-anchor="middle" x="495.4692" y="-443.8" font-family="Times,serif" font-size="14.00" fill="#000000">mark</text>
</g>
</g>
</svg>
