<?xml version="1.0" encoding="UTF-8" standalone="no"?>
<!DOCTYPE svg PUBLIC "-//W3C//DTD SVG 1.1//EN"
 "http://www.w3.org/Graphics/SVG/1.1/DTD/svg11.dtd">
<!-- Generated by graphviz version 2.40.1 (20161225.0304)
 -->
<!-- Title: G Pages: 1 -->
<svg width="488pt" height="474pt"
 viewBox="0.00 0.00 487.85 474.00" xmlns="http://www.w3.org/2000/svg" xmlns:xlink="http://www.w3.org/1999/xlink">
<g id="graph0" class="graph" transform="scale(1 1) rotate(0) translate(4 470)">
<title>G</title>
<polygon fill="#ffffff" stroke="transparent" points="-4,4 -4,-470 483.8521,-470 483.8521,4 -4,4"/>
<!-- 0 -->
<g id="node1" class="node">
<title>0</title>
<text text-anchor="middle" x="127.5708" y="-443.8" font-family="Times,serif" font-size="14.00" fill="#000000">0 (None)</text>
</g>
<!-- 3 -->
<g id="node2" class="node">
<title>3</title>
<text text-anchor="middle" x="127.5708" y="-357.8" font-family="Times,serif" font-size="14.00" fill="#000000">3 (menasihati)</text>
</g>
<!-- 0&#45;&gt;3 -->
<g id="edge1" class="edge">
<title>0&#45;&gt;3</title>
<path fill="none" stroke="#000000" d="M127.5708,-429.7616C127.5708,-418.3597 127.5708,-403.4342 127.5708,-390.494"/>
<polygon fill="#000000" stroke="#000000" points="131.0709,-390.2121 127.5708,-380.2121 124.0709,-390.2121 131.0709,-390.2121"/>
<text text-anchor="middle" x="138.8467" y="-400.8" font-family="Times,serif" font-size="14.00" fill="#000000">root</text>
</g>
<!-- 1 -->
<g id="node3" class="node">
<title>1</title>
<text text-anchor="middle" x="43.5708" y="-271.8" font-family="Times,serif" font-size="14.00" fill="#000000">1 (Dr)</text>
</g>
<!-- 3&#45;&gt;1 -->
<g id="edge3" class="edge">
<title>3&#45;&gt;1</title>
<path fill="none" stroke="#000000" d="M109.7566,-343.7616C97.7288,-331.4475 81.6868,-315.0235 68.4087,-301.4293"/>
<polygon fill="#000000" stroke="#000000" points="70.8506,-298.9203 61.3594,-294.2121 65.843,-303.8115 70.8506,-298.9203"/>
<text text-anchor="middle" x="106.7397" y="-314.8" font-family="Times,serif" font-size="14.00" fill="#000000">nsubj</text>
</g>
<!-- 4 -->
<g id="node5" class="node">
<title>4</title>
<text text-anchor="middle" x="127.5708" y="-271.8" font-family="Times,serif" font-size="14.00" fill="#000000">4 (mereka)</text>
</g>
<!-- 3&#45;&gt;4 -->
<g id="edge4" class="edge">
<title>3&#45;&gt;4</title>
<path fill="none" stroke="#000000" d="M127.5708,-343.7616C127.5708,-332.3597 127.5708,-317.4342 127.5708,-304.494"/>
<polygon fill="#000000" stroke="#000000" points="131.0709,-304.2121 127.5708,-294.2121 124.0709,-304.2121 131.0709,-304.2121"/>
<text text-anchor="middle" x="136.1226" y="-314.8" font-family="Times,serif" font-size="14.00" fill="#000000">det</text>
</g>
<!-- 6 -->
<g id="node6" class="node">
<title>6</title>
<text text-anchor="middle" x="224.5708" y="-271.8" font-family="Times,serif" font-size="14.00" fill="#000000">6 (berhenti)</text>
</g>
<!-- 3&#45;&gt;6 -->
<g id="edge5" class="edge">
<title>3&#45;&gt;6</title>
<path fill="none" stroke="#000000" d="M148.142,-343.7616C162.1598,-331.3335 180.8993,-314.719 196.314,-301.0524"/>
<polygon fill="#000000" stroke="#000000" points="198.8686,-303.4651 204.0292,-294.2121 194.2247,-298.2273 198.8686,-303.4651"/>
<text text-anchor="middle" x="197.7295" y="-314.8" font-family="Times,serif" font-size="14.00" fill="#000000">advcl</text>
</g>
<!-- 2 -->
<g id="node4" class="node">
<title>2</title>
<text text-anchor="middle" x="43.5708" y="-185.8" font-family="Times,serif" font-size="14.00" fill="#000000">2 (Mahathir)</text>
</g>
<!-- 1&#45;&gt;2 -->
<g id="edge2" class="edge">
<title>1&#45;&gt;2</title>
<path fill="none" stroke="#000000" d="M43.5708,-257.7616C43.5708,-246.3597 43.5708,-231.4342 43.5708,-218.494"/>
<polygon fill="#000000" stroke="#000000" points="47.0709,-218.2121 43.5708,-208.2121 40.0709,-218.2121 47.0709,-218.2121"/>
<text text-anchor="middle" x="52.5156" y="-228.8" font-family="Times,serif" font-size="14.00" fill="#000000">flat</text>
</g>
<!-- 5 -->
<g id="node7" class="node">
<title>5</title>
<text text-anchor="middle" x="157.5708" y="-185.8" font-family="Times,serif" font-size="14.00" fill="#000000">5 (supaya)</text>
</g>
<!-- 6&#45;&gt;5 -->
<g id="edge6" class="edge">
<title>6&#45;&gt;5</title>
<path fill="none" stroke="#000000" d="M210.3618,-257.7616C200.9459,-245.6756 188.4457,-229.6304 177.9726,-216.1874"/>
<polygon fill="#000000" stroke="#000000" points="180.6661,-213.9497 171.7593,-208.2121 175.1441,-218.2517 180.6661,-213.9497"/>
<text text-anchor="middle" x="209.9536" y="-228.8" font-family="Times,serif" font-size="14.00" fill="#000000">mark</text>
</g>
<!-- 7 -->
<g id="node8" class="node">
<title>7</title>
<text text-anchor="middle" x="251.5708" y="-185.8" font-family="Times,serif" font-size="14.00" fill="#000000">7 (berehat)</text>
</g>
<!-- 6&#45;&gt;7 -->
<g id="edge7" class="edge">
<title>6&#45;&gt;7</title>
<path fill="none" stroke="#000000" d="M230.2968,-257.7616C233.9123,-246.2456 238.6562,-231.1353 242.7467,-218.1064"/>
<polygon fill="#000000" stroke="#000000" points="246.1969,-218.8014 245.853,-208.2121 239.5183,-216.7045 246.1969,-218.8014"/>
<text text-anchor="middle" x="256.1226" y="-228.8" font-family="Times,serif" font-size="14.00" fill="#000000">amod</text>
</g>
<!-- 9 -->
<g id="node9" class="node">
<title>9</title>
<text text-anchor="middle" x="251.5708" y="-99.8" font-family="Times,serif" font-size="14.00" fill="#000000">9 (tidur)</text>
</g>
<!-- 7&#45;&gt;9 -->
<g id="edge8" class="edge">
<title>7&#45;&gt;9</title>
<path fill="none" stroke="#000000" d="M251.5708,-171.7616C251.5708,-160.3597 251.5708,-145.4342 251.5708,-132.494"/>
<polygon fill="#000000" stroke="#000000" points="255.0709,-132.2121 251.5708,-122.2121 248.0709,-132.2121 255.0709,-132.2121"/>
<text text-anchor="middle" x="263.6226" y="-142.8" font-family="Times,serif" font-size="14.00" fill="#000000">conj</text>
</g>
<!-- 8 -->
<g id="node10" class="node">
<title>8</title>
<text text-anchor="middle" x="160.5708" y="-13.8" font-family="Times,serif" font-size="14.00" fill="#000000">8 (dan)</text>
</g>
<!-- 9&#45;&gt;8 -->
<g id="edge9" class="edge">
<title>9&#45;&gt;8</title>
<path fill="none" stroke="#000000" d="M232.272,-85.7616C219.242,-73.4475 201.8632,-57.0235 187.4785,-43.4293"/>
<polygon fill="#000000" stroke="#000000" points="189.5137,-40.5369 179.8417,-36.2121 184.7057,-45.6245 189.5137,-40.5369"/>
<text text-anchor="middle" x="217.7847" y="-56.8" font-family="Times,serif" font-size="14.00" fill="#000000">cc</text>
</g>
<!-- 10 -->
<g id="node11" class="node">
<title>10</title>
<text text-anchor="middle" x="251.5708" y="-13.8" font-family="Times,serif" font-size="14.00" fill="#000000">10 (sebentar)</text>
</g>
<!-- 9&#45;&gt;10 -->
<g id="edge10" class="edge">
<title>9&#45;&gt;10</title>
<path fill="none" stroke="#000000" d="M251.5708,-85.7616C251.5708,-74.3597 251.5708,-59.4342 251.5708,-46.494"/>
<polygon fill="#000000" stroke="#000000" points="255.0709,-46.2121 251.5708,-36.2121 248.0709,-46.2121 255.0709,-46.2121"/>
<text text-anchor="middle" x="274.1226" y="-56.8" font-family="Times,serif" font-size="14.00" fill="#000000">advmod</text>
</g>
<!-- 12 -->
<g id="node12" class="node">
<title>12</title>
<text text-anchor="middle" x="366.5708" y="-13.8" font-family="Times,serif" font-size="14.00" fill="#000000">12 (mengantuk)</text>
</g>
<!-- 9&#45;&gt;12 -->
<g id="edge11" class="edge">
<title>9&#45;&gt;12</title>
<path fill="none" stroke="#000000" d="M276.2992,-85.9411C284.084,-80.2267 292.7023,-73.8705 300.5708,-68 311.7722,-59.643 323.9843,-50.4224 334.824,-42.1993"/>
<polygon fill="#000000" stroke="#000000" points="336.9598,-44.9722 342.8062,-36.1364 332.7258,-39.3979 336.9598,-44.9722"/>
<text text-anchor="middle" x="333.7295" y="-56.8" font-family="Times,serif" font-size="14.00" fill="#000000">advcl</text>
</g>
<!-- 11 -->
<g id="node13" class="node">
<title>11</title>
<text text-anchor="middle" x="242.5708" y="-443.8" font-family="Times,serif" font-size="14.00" fill="#000000">11 (sekiranya)</text>
</g>
<!-- 11&#45;&gt;11 -->
<g id="edge12" class="edge">
<title>11&#45;&gt;11</title>
<path fill="none" stroke="#000000" d="M290.608,-455.6424C301.0063,-454.8951 308.5474,-452.3477 308.5474,-448 308.5474,-445.2827 305.6017,-443.2686 300.8537,-441.9578"/>
<polygon fill="#000000" stroke="#000000" points="301.0283,-438.4427 290.608,-440.3576 299.9481,-445.3588 301.0283,-438.4427"/>
<text text-anchor="middle" x="323.7163" y="-443.8" font-family="Times,serif" font-size="14.00" fill="#000000">nsubj</text>
</g>
<!-- 14 -->
<g id="node14" class="node">
<title>14</title>
<text text-anchor="middle" x="242.5708" y="-357.8" font-family="Times,serif" font-size="14.00" fill="#000000">14 (memandu)</text>
</g>
<!-- 11&#45;&gt;14 -->
<g id="edge13" class="edge">
<title>11&#45;&gt;14</title>
<path fill="none" stroke="#000000" d="M242.5708,-429.7616C242.5708,-418.3597 242.5708,-403.4342 242.5708,-390.494"/>
<polygon fill="#000000" stroke="#000000" points="246.0709,-390.2121 242.5708,-380.2121 239.0709,-390.2121 246.0709,-390.2121"/>
<text text-anchor="middle" x="257.7295" y="-400.8" font-family="Times,serif" font-size="14.00" fill="#000000">advcl</text>
</g>
<!-- 13 -->
<g id="node15" class="node">
<title>13</title>
<text text-anchor="middle" x="394.5708" y="-443.8" font-family="Times,serif" font-size="14.00" fill="#000000">13 (ketika)</text>
</g>
<!-- 13&#45;&gt;13 -->
<g id="edge14" class="edge">
<title>13&#45;&gt;13</title>
<path fill="none" stroke="#000000" d="M433.1366,-455.8058C443.3505,-455.3597 451.0864,-452.7578 451.0864,-448 451.0864,-445.0264 448.0646,-442.8949 443.3046,-441.6055"/>
<polygon fill="#000000" stroke="#000000" points="443.5229,-438.1024 433.1366,-440.1942 442.5604,-445.0359 443.5229,-438.1024"/>
<text text-anchor="middle" x="465.4692" y="-443.8" font-family="Times,serif" font-size="14.00" fill="#000000">mark</text>
</g>
</g>
</svg>
