<?xml version="1.0" encoding="UTF-8" standalone="no"?>
<!DOCTYPE svg PUBLIC "-//W3C//DTD SVG 1.1//EN"
 "http://www.w3.org/Graphics/SVG/1.1/DTD/svg11.dtd">
<!-- Generated by graphviz version 2.40.1 (20161225.0304)
 -->
<!-- Title: G Pages: 1 -->
<svg width="603pt" height="474pt"
 viewBox="0.00 0.00 603.34 474.00" xmlns="http://www.w3.org/2000/svg" xmlns:xlink="http://www.w3.org/1999/xlink">
<g id="graph0" class="graph" transform="scale(1 1) rotate(0) translate(4 470)">
<title>G</title>
<polygon fill="#ffffff" stroke="transparent" points="-4,4 -4,-470 599.3364,-470 599.3364,4 -4,4"/>
<!-- 0 -->
<g id="node1" class="node">
<title>0</title>
<text text-anchor="middle" x="143.5708" y="-443.8" font-family="Times,serif" font-size="14.00" fill="#000000">0 (None)</text>
</g>
<!-- 3 -->
<g id="node2" class="node">
<title>3</title>
<text text-anchor="middle" x="143.5708" y="-357.8" font-family="Times,serif" font-size="14.00" fill="#000000">3 (menasihati)</text>
</g>
<!-- 0&#45;&gt;3 -->
<g id="edge1" class="edge">
<title>0&#45;&gt;3</title>
<path fill="none" stroke="#000000" d="M143.5708,-429.7616C143.5708,-418.3597 143.5708,-403.4342 143.5708,-390.494"/>
<polygon fill="#000000" stroke="#000000" points="147.0709,-390.2121 143.5708,-380.2121 140.0709,-390.2121 147.0709,-390.2121"/>
<text text-anchor="middle" x="154.8467" y="-400.8" font-family="Times,serif" font-size="14.00" fill="#000000">root</text>
</g>
<!-- 2 -->
<g id="node4" class="node">
<title>2</title>
<text text-anchor="middle" x="43.5708" y="-271.8" font-family="Times,serif" font-size="14.00" fill="#000000">2 (Mahathir)</text>
</g>
<!-- 3&#45;&gt;2 -->
<g id="edge3" class="edge">
<title>3&#45;&gt;2</title>
<path fill="none" stroke="#000000" d="M122.3634,-343.7616C107.9121,-331.3335 88.5929,-314.719 72.7015,-301.0524"/>
<polygon fill="#000000" stroke="#000000" points="74.6117,-298.0789 64.7477,-294.2121 70.0474,-303.3862 74.6117,-298.0789"/>
<text text-anchor="middle" x="114.7397" y="-314.8" font-family="Times,serif" font-size="14.00" fill="#000000">nsubj</text>
</g>
<!-- 4 -->
<g id="node5" class="node">
<title>4</title>
<text text-anchor="middle" x="143.5708" y="-271.8" font-family="Times,serif" font-size="14.00" fill="#000000">4 (mereka)</text>
</g>
<!-- 3&#45;&gt;4 -->
<g id="edge4" class="edge">
<title>3&#45;&gt;4</title>
<path fill="none" stroke="#000000" d="M143.5708,-343.7616C143.5708,-332.3597 143.5708,-317.4342 143.5708,-304.494"/>
<polygon fill="#000000" stroke="#000000" points="147.0709,-304.2121 143.5708,-294.2121 140.0709,-304.2121 147.0709,-304.2121"/>
<text text-anchor="middle" x="152.5156" y="-314.8" font-family="Times,serif" font-size="14.00" fill="#000000">obj</text>
</g>
<!-- 6 -->
<g id="node6" class="node">
<title>6</title>
<text text-anchor="middle" x="240.5708" y="-271.8" font-family="Times,serif" font-size="14.00" fill="#000000">6 (berhenti)</text>
</g>
<!-- 3&#45;&gt;6 -->
<g id="edge5" class="edge">
<title>3&#45;&gt;6</title>
<path fill="none" stroke="#000000" d="M164.142,-343.7616C178.1598,-331.3335 196.8993,-314.719 212.314,-301.0524"/>
<polygon fill="#000000" stroke="#000000" points="214.8686,-303.4651 220.0292,-294.2121 210.2247,-298.2273 214.8686,-303.4651"/>
<text text-anchor="middle" x="217.6226" y="-314.8" font-family="Times,serif" font-size="14.00" fill="#000000">xcomp</text>
</g>
<!-- 1 -->
<g id="node3" class="node">
<title>1</title>
<text text-anchor="middle" x="43.5708" y="-185.8" font-family="Times,serif" font-size="14.00" fill="#000000">1 (Dr)</text>
</g>
<!-- 2&#45;&gt;1 -->
<g id="edge2" class="edge">
<title>2&#45;&gt;1</title>
<path fill="none" stroke="#000000" d="M43.5708,-257.7616C43.5708,-246.3597 43.5708,-231.4342 43.5708,-218.494"/>
<polygon fill="#000000" stroke="#000000" points="47.0709,-218.2121 43.5708,-208.2121 40.0709,-218.2121 47.0709,-218.2121"/>
<text text-anchor="middle" x="52.1226" y="-228.8" font-family="Times,serif" font-size="14.00" fill="#000000">det</text>
</g>
<!-- 5 -->
<g id="node7" class="node">
<title>5</title>
<text text-anchor="middle" x="146.5708" y="-185.8" font-family="Times,serif" font-size="14.00" fill="#000000">5 (supaya)</text>
</g>
<!-- 6&#45;&gt;5 -->
<g id="edge6" class="edge">
<title>6&#45;&gt;5</title>
<path fill="none" stroke="#000000" d="M220.6358,-257.7616C207.0516,-245.3335 188.8916,-228.719 173.9536,-215.0524"/>
<polygon fill="#000000" stroke="#000000" points="176.2177,-212.3799 166.477,-208.2121 171.4926,-217.5446 176.2177,-212.3799"/>
<text text-anchor="middle" x="211.6157" y="-228.8" font-family="Times,serif" font-size="14.00" fill="#000000">case</text>
</g>
<!-- 7 -->
<g id="node8" class="node">
<title>7</title>
<text text-anchor="middle" x="240.5708" y="-185.8" font-family="Times,serif" font-size="14.00" fill="#000000">7 (berehat)</text>
</g>
<!-- 6&#45;&gt;7 -->
<g id="edge7" class="edge">
<title>6&#45;&gt;7</title>
<path fill="none" stroke="#000000" d="M240.5708,-257.7616C240.5708,-246.3597 240.5708,-231.4342 240.5708,-218.494"/>
<polygon fill="#000000" stroke="#000000" points="244.0709,-218.2121 240.5708,-208.2121 237.0709,-218.2121 244.0709,-218.2121"/>
<text text-anchor="middle" x="259.6226" y="-228.8" font-family="Times,serif" font-size="14.00" fill="#000000">xcomp</text>
</g>
<!-- 9 -->
<g id="node9" class="node">
<title>9</title>
<text text-anchor="middle" x="328.5708" y="-185.8" font-family="Times,serif" font-size="14.00" fill="#000000">9 (tidur)</text>
</g>
<!-- 6&#45;&gt;9 -->
<g id="edge8" class="edge">
<title>6&#45;&gt;9</title>
<path fill="none" stroke="#000000" d="M262.804,-257.7927C269.3156,-252.2352 276.3526,-246.0035 282.5708,-240 290.4626,-232.3807 298.6912,-223.6986 305.9705,-215.7315"/>
<polygon fill="#000000" stroke="#000000" points="308.7846,-217.8374 312.8857,-208.0686 303.5877,-213.1477 308.7846,-217.8374"/>
<text text-anchor="middle" x="308.6226" y="-228.8" font-family="Times,serif" font-size="14.00" fill="#000000">conj</text>
</g>
<!-- 8 -->
<g id="node10" class="node">
<title>8</title>
<text text-anchor="middle" x="122.5708" y="-99.8" font-family="Times,serif" font-size="14.00" fill="#000000">8 (dan)</text>
</g>
<!-- 9&#45;&gt;8 -->
<g id="edge9" class="edge">
<title>9&#45;&gt;8</title>
<path fill="none" stroke="#000000" d="M297.1967,-175.6923C294.2892,-174.4237 291.3808,-173.1758 288.5708,-172 234.6171,-149.423 217.5842,-146.7989 159.9479,-122.0022"/>
<polygon fill="#000000" stroke="#000000" points="161.3067,-118.7765 150.7402,-118.0024 158.5177,-125.1969 161.3067,-118.7765"/>
<text text-anchor="middle" x="248.7847" y="-142.8" font-family="Times,serif" font-size="14.00" fill="#000000">cc</text>
</g>
<!-- 10 -->
<g id="node11" class="node">
<title>10</title>
<text text-anchor="middle" x="213.5708" y="-99.8" font-family="Times,serif" font-size="14.00" fill="#000000">10 (sebentar)</text>
</g>
<!-- 9&#45;&gt;10 -->
<g id="edge10" class="edge">
<title>9&#45;&gt;10</title>
<path fill="none" stroke="#000000" d="M303.7839,-171.9497C295.9824,-166.2357 287.3473,-159.8776 279.4673,-154 268.276,-145.6527 256.0813,-136.4344 245.2592,-128.2106"/>
<polygon fill="#000000" stroke="#000000" points="247.3679,-125.417 237.2905,-122.1465 243.1288,-130.9875 247.3679,-125.417"/>
<text text-anchor="middle" x="302.1226" y="-142.8" font-family="Times,serif" font-size="14.00" fill="#000000">advmod</text>
</g>
<!-- 12 -->
<g id="node12" class="node">
<title>12</title>
<text text-anchor="middle" x="328.5708" y="-99.8" font-family="Times,serif" font-size="14.00" fill="#000000">12 (mengantuk)</text>
</g>
<!-- 9&#45;&gt;12 -->
<g id="edge11" class="edge">
<title>9&#45;&gt;12</title>
<path fill="none" stroke="#000000" d="M328.5708,-171.7616C328.5708,-160.3597 328.5708,-145.4342 328.5708,-132.494"/>
<polygon fill="#000000" stroke="#000000" points="332.0709,-132.2121 328.5708,-122.2121 325.0709,-132.2121 332.0709,-132.2121"/>
<text text-anchor="middle" x="344.1226" y="-142.8" font-family="Times,serif" font-size="14.00" fill="#000000">amod</text>
</g>
<!-- 13 -->
<g id="node13" class="node">
<title>13</title>
<text text-anchor="middle" x="437.5708" y="-99.8" font-family="Times,serif" font-size="14.00" fill="#000000">13 (ketika)</text>
</g>
<!-- 9&#45;&gt;13 -->
<g id="edge12" class="edge">
<title>9&#45;&gt;13</title>
<path fill="none" stroke="#000000" d="M351.4208,-171.9716C367.4078,-159.358 388.9552,-142.3573 406.5009,-128.5139"/>
<polygon fill="#000000" stroke="#000000" points="409.0682,-130.9466 414.7509,-122.0047 404.7323,-125.4511 409.0682,-130.9466"/>
<text text-anchor="middle" x="404.9536" y="-142.8" font-family="Times,serif" font-size="14.00" fill="#000000">mark</text>
</g>
<!-- 14 -->
<g id="node14" class="node">
<title>14</title>
<text text-anchor="middle" x="544.5708" y="-99.8" font-family="Times,serif" font-size="14.00" fill="#000000">14 (memandu.)</text>
</g>
<!-- 9&#45;&gt;14 -->
<g id="edge13" class="edge">
<title>9&#45;&gt;14</title>
<path fill="none" stroke="#000000" d="M359.8954,-178.3957C378.4592,-171.4525 402.4165,-162.3768 423.5708,-154 446.204,-145.0376 471.077,-134.8232 492.3546,-125.9729"/>
<polygon fill="#000000" stroke="#000000" points="493.9733,-129.0901 501.8569,-122.012 491.28,-122.629 493.9733,-129.0901"/>
<text text-anchor="middle" x="472.7295" y="-142.8" font-family="Times,serif" font-size="14.00" fill="#000000">advcl</text>
</g>
<!-- 11 -->
<g id="node15" class="node">
<title>11</title>
<text text-anchor="middle" x="328.5708" y="-13.8" font-family="Times,serif" font-size="14.00" fill="#000000">11 (sekiranya)</text>
</g>
<!-- 12&#45;&gt;11 -->
<g id="edge14" class="edge">
<title>12&#45;&gt;11</title>
<path fill="none" stroke="#000000" d="M328.5708,-85.7616C328.5708,-74.3597 328.5708,-59.4342 328.5708,-46.494"/>
<polygon fill="#000000" stroke="#000000" points="332.0709,-46.2121 328.5708,-36.2121 325.0709,-46.2121 332.0709,-46.2121"/>
<text text-anchor="middle" x="342.9536" y="-56.8" font-family="Times,serif" font-size="14.00" fill="#000000">mark</text>
</g>
</g>
</svg>
