<?xml version="1.0" encoding="UTF-8" standalone="no"?>
<!DOCTYPE svg PUBLIC "-//W3C//DTD SVG 1.1//EN"
 "http://www.w3.org/Graphics/SVG/1.1/DTD/svg11.dtd">
<!-- Generated by graphviz version 2.40.1 (20161225.0304)
 -->
<!-- Title: G Pages: 1 -->
<svg width="675pt" height="474pt"
 viewBox="0.00 0.00 675.28 474.00" xmlns="http://www.w3.org/2000/svg" xmlns:xlink="http://www.w3.org/1999/xlink">
<g id="graph0" class="graph" transform="scale(1 1) rotate(0) translate(4 470)">
<title>G</title>
<polygon fill="#ffffff" stroke="transparent" points="-4,4 -4,-470 671.2813,-470 671.2813,4 -4,4"/>
<!-- 0 -->
<g id="node1" class="node">
<title>0</title>
<text text-anchor="middle" x="166" y="-443.8" font-family="Times,serif" font-size="14.00" fill="#000000">0 (None)</text>
</g>
<!-- 3 -->
<g id="node2" class="node">
<title>3</title>
<text text-anchor="middle" x="166" y="-357.8" font-family="Times,serif" font-size="14.00" fill="#000000">3 (menasihati)</text>
</g>
<!-- 0&#45;&gt;3 -->
<g id="edge1" class="edge">
<title>0&#45;&gt;3</title>
<path fill="none" stroke="#000000" d="M166,-429.7616C166,-418.3597 166,-403.4342 166,-390.494"/>
<polygon fill="#000000" stroke="#000000" points="169.5001,-390.2121 166,-380.2121 162.5001,-390.2121 169.5001,-390.2121"/>
<text text-anchor="middle" x="177.2759" y="-400.8" font-family="Times,serif" font-size="14.00" fill="#000000">root</text>
</g>
<!-- 1 -->
<g id="node3" class="node">
<title>1</title>
<text text-anchor="middle" x="27" y="-271.8" font-family="Times,serif" font-size="14.00" fill="#000000">1 (Dr)</text>
</g>
<!-- 3&#45;&gt;1 -->
<g id="edge2" class="edge">
<title>3&#45;&gt;1</title>
<path fill="none" stroke="#000000" d="M134.6472,-343.9333C124.9817,-338.2741 114.3384,-331.9509 104.6621,-326 90.9004,-317.5365 75.9419,-307.9905 62.8602,-299.5248"/>
<polygon fill="#000000" stroke="#000000" points="64.4343,-296.3738 54.1412,-293.8631 60.622,-302.2446 64.4343,-296.3738"/>
<text text-anchor="middle" x="120.1689" y="-314.8" font-family="Times,serif" font-size="14.00" fill="#000000">nsubj</text>
</g>
<!-- 2 -->
<g id="node4" class="node">
<title>2</title>
<text text-anchor="middle" x="116" y="-271.8" font-family="Times,serif" font-size="14.00" fill="#000000">2 (Mahathir)</text>
</g>
<!-- 3&#45;&gt;2 -->
<g id="edge3" class="edge">
<title>3&#45;&gt;2</title>
<path fill="none" stroke="#000000" d="M155.3963,-343.7616C148.5021,-331.9036 139.3921,-316.2345 131.6692,-302.951"/>
<polygon fill="#000000" stroke="#000000" points="134.6405,-301.098 126.5884,-294.2121 128.5889,-304.6164 134.6405,-301.098"/>
<text text-anchor="middle" x="152.9448" y="-314.8" font-family="Times,serif" font-size="14.00" fill="#000000">flat</text>
</g>
<!-- 4 -->
<g id="node5" class="node">
<title>4</title>
<text text-anchor="middle" x="216" y="-271.8" font-family="Times,serif" font-size="14.00" fill="#000000">4 (mereka)</text>
</g>
<!-- 3&#45;&gt;4 -->
<g id="edge4" class="edge">
<title>3&#45;&gt;4</title>
<path fill="none" stroke="#000000" d="M176.6037,-343.7616C183.4979,-331.9036 192.6079,-316.2345 200.3308,-302.951"/>
<polygon fill="#000000" stroke="#000000" points="203.4111,-304.6164 205.4116,-294.2121 197.3595,-301.098 203.4111,-304.6164"/>
<text text-anchor="middle" x="202.5518" y="-314.8" font-family="Times,serif" font-size="14.00" fill="#000000">det</text>
</g>
<!-- 14 -->
<g id="node6" class="node">
<title>14</title>
<text text-anchor="middle" x="322" y="-271.8" font-family="Times,serif" font-size="14.00" fill="#000000">14 (memandu)</text>
</g>
<!-- 3&#45;&gt;14 -->
<g id="edge5" class="edge">
<title>3&#45;&gt;14</title>
<path fill="none" stroke="#000000" d="M198.7027,-343.9716C222.4152,-330.8993 254.675,-313.115 280.249,-299.0165"/>
<polygon fill="#000000" stroke="#000000" points="282.2727,-301.8976 289.3403,-294.0047 278.8932,-295.7674 282.2727,-301.8976"/>
<text text-anchor="middle" x="269.1587" y="-314.8" font-family="Times,serif" font-size="14.00" fill="#000000">advcl</text>
</g>
<!-- 5 -->
<g id="node7" class="node">
<title>5</title>
<text text-anchor="middle" x="393" y="-185.8" font-family="Times,serif" font-size="14.00" fill="#000000">5 (supaya)</text>
</g>
<!-- 6 -->
<g id="node8" class="node">
<title>6</title>
<text text-anchor="middle" x="430" y="-271.8" font-family="Times,serif" font-size="14.00" fill="#000000">6 (berhenti)</text>
</g>
<!-- 6&#45;&gt;5 -->
<g id="edge6" class="edge">
<title>6&#45;&gt;5</title>
<path fill="none" stroke="#000000" d="M422.1533,-257.7616C417.1497,-246.1316 410.5689,-230.8357 404.926,-217.72"/>
<polygon fill="#000000" stroke="#000000" points="408.0026,-216.0148 400.8354,-208.2121 401.5725,-218.7813 408.0026,-216.0148"/>
<text text-anchor="middle" x="428.3828" y="-228.8" font-family="Times,serif" font-size="14.00" fill="#000000">mark</text>
</g>
<!-- 7 -->
<g id="node9" class="node">
<title>7</title>
<text text-anchor="middle" x="487" y="-185.8" font-family="Times,serif" font-size="14.00" fill="#000000">7 (berehat)</text>
</g>
<!-- 6&#45;&gt;7 -->
<g id="edge7" class="edge">
<title>6&#45;&gt;7</title>
<path fill="none" stroke="#000000" d="M442.0882,-257.7616C450.0232,-245.7896 460.5329,-229.9328 469.3906,-216.5685"/>
<polygon fill="#000000" stroke="#000000" points="472.3219,-218.4811 474.9292,-208.2121 466.4871,-214.6139 472.3219,-218.4811"/>
<text text-anchor="middle" x="476.5518" y="-228.8" font-family="Times,serif" font-size="14.00" fill="#000000">amod</text>
</g>
<!-- 9 -->
<g id="node10" class="node">
<title>9</title>
<text text-anchor="middle" x="487" y="-99.8" font-family="Times,serif" font-size="14.00" fill="#000000">9 (tidur)</text>
</g>
<!-- 7&#45;&gt;9 -->
<g id="edge8" class="edge">
<title>7&#45;&gt;9</title>
<path fill="none" stroke="#000000" d="M487,-171.7616C487,-160.3597 487,-145.4342 487,-132.494"/>
<polygon fill="#000000" stroke="#000000" points="490.5001,-132.2121 487,-122.2121 483.5001,-132.2121 490.5001,-132.2121"/>
<text text-anchor="middle" x="499.0518" y="-142.8" font-family="Times,serif" font-size="14.00" fill="#000000">conj</text>
</g>
<!-- 8 -->
<g id="node11" class="node">
<title>8</title>
<text text-anchor="middle" x="438" y="-13.8" font-family="Times,serif" font-size="14.00" fill="#000000">8 (dan)</text>
</g>
<!-- 9&#45;&gt;8 -->
<g id="edge9" class="edge">
<title>9&#45;&gt;8</title>
<path fill="none" stroke="#000000" d="M476.6084,-85.7616C469.852,-73.9036 460.9243,-58.2345 453.3558,-44.951"/>
<polygon fill="#000000" stroke="#000000" points="456.3682,-43.1681 448.3767,-36.2121 450.2862,-46.6334 456.3682,-43.1681"/>
<text text-anchor="middle" x="471.2139" y="-56.8" font-family="Times,serif" font-size="14.00" fill="#000000">cc</text>
</g>
<!-- 12 -->
<g id="node12" class="node">
<title>12</title>
<text text-anchor="middle" x="537" y="-13.8" font-family="Times,serif" font-size="14.00" fill="#000000">12 (mengantuk)</text>
</g>
<!-- 9&#45;&gt;12 -->
<g id="edge10" class="edge">
<title>9&#45;&gt;12</title>
<path fill="none" stroke="#000000" d="M497.6037,-85.7616C504.4979,-73.9036 513.6079,-58.2345 521.3308,-44.951"/>
<polygon fill="#000000" stroke="#000000" points="524.4111,-46.6164 526.4116,-36.2121 518.3595,-43.098 524.4111,-46.6164"/>
<text text-anchor="middle" x="529.1587" y="-56.8" font-family="Times,serif" font-size="14.00" fill="#000000">advcl</text>
</g>
<!-- 10 -->
<g id="node13" class="node">
<title>10</title>
<text text-anchor="middle" x="430" y="-357.8" font-family="Times,serif" font-size="14.00" fill="#000000">10 (sebentar)</text>
</g>
<!-- 10&#45;&gt;6 -->
<g id="edge11" class="edge">
<title>10&#45;&gt;6</title>
<path fill="none" stroke="#000000" d="M430,-343.7616C430,-332.3597 430,-317.4342 430,-304.494"/>
<polygon fill="#000000" stroke="#000000" points="433.5001,-304.2121 430,-294.2121 426.5001,-304.2121 433.5001,-304.2121"/>
<text text-anchor="middle" x="445.1587" y="-314.8" font-family="Times,serif" font-size="14.00" fill="#000000">advcl</text>
</g>
<!-- 11 -->
<g id="node14" class="node">
<title>11</title>
<text text-anchor="middle" x="430" y="-443.8" font-family="Times,serif" font-size="14.00" fill="#000000">11 (sekiranya)</text>
</g>
<!-- 11&#45;&gt;10 -->
<g id="edge12" class="edge">
<title>11&#45;&gt;10</title>
<path fill="none" stroke="#000000" d="M430,-429.7616C430,-418.3597 430,-403.4342 430,-390.494"/>
<polygon fill="#000000" stroke="#000000" points="433.5001,-390.2121 430,-380.2121 426.5001,-390.2121 433.5001,-390.2121"/>
<text text-anchor="middle" x="452.5518" y="-400.8" font-family="Times,serif" font-size="14.00" fill="#000000">advmod</text>
</g>
<!-- 11&#45;&gt;11 -->
<g id="edge13" class="edge">
<title>11&#45;&gt;11</title>
<path fill="none" stroke="#000000" d="M478.0372,-455.6424C488.4355,-454.8951 495.9766,-452.3477 495.9766,-448 495.9766,-445.2827 493.0309,-443.2686 488.2829,-441.9578"/>
<polygon fill="#000000" stroke="#000000" points="488.4575,-438.4427 478.0372,-440.3576 487.3773,-445.3588 488.4575,-438.4427"/>
<text text-anchor="middle" x="511.1455" y="-443.8" font-family="Times,serif" font-size="14.00" fill="#000000">nsubj</text>
</g>
<!-- 13 -->
<g id="node15" class="node">
<title>13</title>
<text text-anchor="middle" x="582" y="-443.8" font-family="Times,serif" font-size="14.00" fill="#000000">13 (ketika)</text>
</g>
<!-- 13&#45;&gt;13 -->
<g id="edge14" class="edge">
<title>13&#45;&gt;13</title>
<path fill="none" stroke="#000000" d="M620.5658,-455.8058C630.7797,-455.3597 638.5156,-452.7578 638.5156,-448 638.5156,-445.0264 635.4938,-442.8949 630.7338,-441.6055"/>
<polygon fill="#000000" stroke="#000000" points="630.9521,-438.1024 620.5658,-440.1942 629.9896,-445.0359 630.9521,-438.1024"/>
<text text-anchor="middle" x="652.8984" y="-443.8" font-family="Times,serif" font-size="14.00" fill="#000000">mark</text>
</g>
</g>
</svg>
