<?xml version="1.0" encoding="UTF-8" standalone="no"?>
<!DOCTYPE svg PUBLIC "-//W3C//DTD SVG 1.1//EN"
 "http://www.w3.org/Graphics/SVG/1.1/DTD/svg11.dtd">
<!-- Generated by graphviz version 2.40.1 (20161225.0304)
 -->
<!-- Title: G Pages: 1 -->
<svg width="548pt" height="388pt"
 viewBox="0.00 0.00 547.85 388.00" xmlns="http://www.w3.org/2000/svg" xmlns:xlink="http://www.w3.org/1999/xlink">
<g id="graph0" class="graph" transform="scale(1 1) rotate(0) translate(4 384)">
<title>G</title>
<polygon fill="#ffffff" stroke="transparent" points="-4,4 -4,-384 543.8521,-384 543.8521,4 -4,4"/>
<!-- 0 -->
<g id="node1" class="node">
<title>0</title>
<text text-anchor="middle" x="135.5708" y="-357.8" font-family="Times,serif" font-size="14.00" fill="#000000">0 (None)</text>
</g>
<!-- 3 -->
<g id="node2" class="node">
<title>3</title>
<text text-anchor="middle" x="135.5708" y="-271.8" font-family="Times,serif" font-size="14.00" fill="#000000">3 (menasihati)</text>
</g>
<!-- 0&#45;&gt;3 -->
<g id="edge1" class="edge">
<title>0&#45;&gt;3</title>
<path fill="none" stroke="#000000" d="M135.5708,-343.7616C135.5708,-332.3597 135.5708,-317.4342 135.5708,-304.494"/>
<polygon fill="#000000" stroke="#000000" points="139.0709,-304.2121 135.5708,-294.2121 132.0709,-304.2121 139.0709,-304.2121"/>
<text text-anchor="middle" x="146.8467" y="-314.8" font-family="Times,serif" font-size="14.00" fill="#000000">root</text>
</g>
<!-- 1 -->
<g id="node3" class="node">
<title>1</title>
<text text-anchor="middle" x="45.5708" y="-185.8" font-family="Times,serif" font-size="14.00" fill="#000000">1 (Dr)</text>
</g>
<!-- 3&#45;&gt;1 -->
<g id="edge3" class="edge">
<title>3&#45;&gt;1</title>
<path fill="none" stroke="#000000" d="M116.4841,-257.7616C103.5973,-245.4475 86.4094,-229.0235 72.1828,-215.4293"/>
<polygon fill="#000000" stroke="#000000" points="74.2779,-212.5902 64.63,-208.2121 69.4419,-217.6512 74.2779,-212.5902"/>
<text text-anchor="middle" x="111.7397" y="-228.8" font-family="Times,serif" font-size="14.00" fill="#000000">nsubj</text>
</g>
<!-- 4 -->
<g id="node5" class="node">
<title>4</title>
<text text-anchor="middle" x="135.5708" y="-185.8" font-family="Times,serif" font-size="14.00" fill="#000000">4 (mereka)</text>
</g>
<!-- 3&#45;&gt;4 -->
<g id="edge4" class="edge">
<title>3&#45;&gt;4</title>
<path fill="none" stroke="#000000" d="M135.5708,-257.7616C135.5708,-246.3597 135.5708,-231.4342 135.5708,-218.494"/>
<polygon fill="#000000" stroke="#000000" points="139.0709,-218.2121 135.5708,-208.2121 132.0709,-218.2121 139.0709,-218.2121"/>
<text text-anchor="middle" x="144.1226" y="-228.8" font-family="Times,serif" font-size="14.00" fill="#000000">det</text>
</g>
<!-- 6 -->
<g id="node6" class="node">
<title>6</title>
<text text-anchor="middle" x="235.5708" y="-185.8" font-family="Times,serif" font-size="14.00" fill="#000000">6 (berhenti)</text>
</g>
<!-- 3&#45;&gt;6 -->
<g id="edge5" class="edge">
<title>3&#45;&gt;6</title>
<path fill="none" stroke="#000000" d="M156.7782,-257.7616C171.2295,-245.3335 190.5487,-228.719 206.4401,-215.0524"/>
<polygon fill="#000000" stroke="#000000" points="209.0942,-217.3862 214.3939,-208.2121 204.5299,-212.0789 209.0942,-217.3862"/>
<text text-anchor="middle" x="206.7295" y="-228.8" font-family="Times,serif" font-size="14.00" fill="#000000">advcl</text>
</g>
<!-- 2 -->
<g id="node4" class="node">
<title>2</title>
<text text-anchor="middle" x="43.5708" y="-99.8" font-family="Times,serif" font-size="14.00" fill="#000000">2 (Mahathir)</text>
</g>
<!-- 1&#45;&gt;2 -->
<g id="edge2" class="edge">
<title>1&#45;&gt;2</title>
<path fill="none" stroke="#000000" d="M45.1467,-171.7616C44.8815,-160.3597 44.5344,-145.4342 44.2335,-132.494"/>
<polygon fill="#000000" stroke="#000000" points="47.726,-132.128 43.9943,-122.2121 40.7279,-132.2908 47.726,-132.128"/>
<text text-anchor="middle" x="54.5156" y="-142.8" font-family="Times,serif" font-size="14.00" fill="#000000">flat</text>
</g>
<!-- 5 -->
<g id="node7" class="node">
<title>5</title>
<text text-anchor="middle" x="142.5708" y="-99.8" font-family="Times,serif" font-size="14.00" fill="#000000">5 (supaya)</text>
</g>
<!-- 6&#45;&gt;5 -->
<g id="edge6" class="edge">
<title>6&#45;&gt;5</title>
<path fill="none" stroke="#000000" d="M215.8479,-171.7616C202.4082,-159.3335 184.4414,-142.719 169.6623,-129.0524"/>
<polygon fill="#000000" stroke="#000000" points="171.9836,-126.4318 162.2653,-122.2121 167.231,-131.5712 171.9836,-126.4318"/>
<text text-anchor="middle" x="209.9536" y="-142.8" font-family="Times,serif" font-size="14.00" fill="#000000">mark</text>
</g>
<!-- 7 -->
<g id="node8" class="node">
<title>7</title>
<text text-anchor="middle" x="236.5708" y="-99.8" font-family="Times,serif" font-size="14.00" fill="#000000">7 (berehat)</text>
</g>
<!-- 6&#45;&gt;7 -->
<g id="edge7" class="edge">
<title>6&#45;&gt;7</title>
<path fill="none" stroke="#000000" d="M235.7829,-171.7616C235.9155,-160.3597 236.089,-145.4342 236.2395,-132.494"/>
<polygon fill="#000000" stroke="#000000" points="239.7424,-132.2522 236.359,-122.2121 232.7429,-132.1707 239.7424,-132.2522"/>
<text text-anchor="middle" x="245.5156" y="-142.8" font-family="Times,serif" font-size="14.00" fill="#000000">obj</text>
</g>
<!-- 9 -->
<g id="node9" class="node">
<title>9</title>
<text text-anchor="middle" x="324.5708" y="-99.8" font-family="Times,serif" font-size="14.00" fill="#000000">9 (tidur)</text>
</g>
<!-- 6&#45;&gt;9 -->
<g id="edge8" class="edge">
<title>6&#45;&gt;9</title>
<path fill="none" stroke="#000000" d="M254.4454,-171.7616C267.1891,-159.4475 284.186,-143.0235 298.2545,-129.4293"/>
<polygon fill="#000000" stroke="#000000" points="300.9642,-131.6779 305.7234,-122.2121 296.1,-126.644 300.9642,-131.6779"/>
<text text-anchor="middle" x="297.6226" y="-142.8" font-family="Times,serif" font-size="14.00" fill="#000000">conj</text>
</g>
<!-- 8 -->
<g id="node10" class="node">
<title>8</title>
<text text-anchor="middle" x="274.5708" y="-13.8" font-family="Times,serif" font-size="14.00" fill="#000000">8 (dan)</text>
</g>
<!-- 9&#45;&gt;8 -->
<g id="edge9" class="edge">
<title>9&#45;&gt;8</title>
<path fill="none" stroke="#000000" d="M313.9671,-85.7616C307.0729,-73.9036 297.9629,-58.2345 290.24,-44.951"/>
<polygon fill="#000000" stroke="#000000" points="293.2113,-43.098 285.1592,-36.2121 287.1597,-46.6164 293.2113,-43.098"/>
<text text-anchor="middle" x="308.7847" y="-56.8" font-family="Times,serif" font-size="14.00" fill="#000000">cc</text>
</g>
<!-- 12 -->
<g id="node11" class="node">
<title>12</title>
<text text-anchor="middle" x="373.5708" y="-13.8" font-family="Times,serif" font-size="14.00" fill="#000000">12 (mengantuk)</text>
</g>
<!-- 9&#45;&gt;12 -->
<g id="edge10" class="edge">
<title>9&#45;&gt;12</title>
<path fill="none" stroke="#000000" d="M334.9624,-85.7616C341.7188,-73.9036 350.6465,-58.2345 358.215,-44.951"/>
<polygon fill="#000000" stroke="#000000" points="361.2846,-46.6334 363.1941,-36.2121 355.2026,-43.1681 361.2846,-46.6334"/>
<text text-anchor="middle" x="370.2295" y="-56.8" font-family="Times,serif" font-size="14.00" fill="#000000">ccomp</text>
</g>
<!-- 10 -->
<g id="node12" class="node">
<title>10</title>
<text text-anchor="middle" x="246.5708" y="-271.8" font-family="Times,serif" font-size="14.00" fill="#000000">10 (sebentar)</text>
</g>
<!-- 11 -->
<g id="node13" class="node">
<title>11</title>
<text text-anchor="middle" x="302.5708" y="-357.8" font-family="Times,serif" font-size="14.00" fill="#000000">11 (sekiranya)</text>
</g>
<!-- 11&#45;&gt;10 -->
<g id="edge11" class="edge">
<title>11&#45;&gt;10</title>
<path fill="none" stroke="#000000" d="M290.6946,-343.7616C282.9731,-331.9036 272.77,-316.2345 264.1203,-302.951"/>
<polygon fill="#000000" stroke="#000000" points="266.8196,-300.6822 258.4298,-294.2121 260.9536,-304.502 266.8196,-300.6822"/>
<text text-anchor="middle" x="301.1226" y="-314.8" font-family="Times,serif" font-size="14.00" fill="#000000">advmod</text>
</g>
<!-- 11&#45;&gt;11 -->
<g id="edge12" class="edge">
<title>11&#45;&gt;11</title>
<path fill="none" stroke="#000000" d="M350.608,-369.6424C361.0063,-368.8951 368.5474,-366.3477 368.5474,-362 368.5474,-359.2827 365.6017,-357.2686 360.8537,-355.9578"/>
<polygon fill="#000000" stroke="#000000" points="361.0283,-352.4427 350.608,-354.3576 359.9481,-359.3588 361.0283,-352.4427"/>
<text text-anchor="middle" x="383.7163" y="-357.8" font-family="Times,serif" font-size="14.00" fill="#000000">nsubj</text>
</g>
<!-- 14 -->
<g id="node14" class="node">
<title>14</title>
<text text-anchor="middle" x="358.5708" y="-271.8" font-family="Times,serif" font-size="14.00" fill="#000000">14 (memandu)</text>
</g>
<!-- 11&#45;&gt;14 -->
<g id="edge13" class="edge">
<title>11&#45;&gt;14</title>
<path fill="none" stroke="#000000" d="M315.4746,-343.8113C319.4192,-338.1471 323.7286,-331.8518 327.5708,-326 332.3795,-318.6762 337.4463,-310.6466 342.0582,-303.2064"/>
<polygon fill="#000000" stroke="#000000" points="345.3434,-304.546 347.6032,-294.195 339.3816,-300.8776 345.3434,-304.546"/>
<text text-anchor="middle" x="351.7295" y="-314.8" font-family="Times,serif" font-size="14.00" fill="#000000">advcl</text>
</g>
<!-- 13 -->
<g id="node15" class="node">
<title>13</title>
<text text-anchor="middle" x="454.5708" y="-357.8" font-family="Times,serif" font-size="14.00" fill="#000000">13 (ketika)</text>
</g>
<!-- 13&#45;&gt;13 -->
<g id="edge14" class="edge">
<title>13&#45;&gt;13</title>
<path fill="none" stroke="#000000" d="M493.1366,-369.8058C503.3505,-369.3597 511.0864,-366.7578 511.0864,-362 511.0864,-359.0264 508.0646,-356.8949 503.3046,-355.6055"/>
<polygon fill="#000000" stroke="#000000" points="503.5229,-352.1024 493.1366,-354.1942 502.5604,-359.0359 503.5229,-352.1024"/>
<text text-anchor="middle" x="525.4692" y="-357.8" font-family="Times,serif" font-size="14.00" fill="#000000">mark</text>
</g>
</g>
</svg>
