<?xml version="1.0" encoding="UTF-8" standalone="no"?>
<!DOCTYPE svg PUBLIC "-//W3C//DTD SVG 1.1//EN"
 "http://www.w3.org/Graphics/SVG/1.1/DTD/svg11.dtd">
<!-- Generated by graphviz version 2.40.1 (20161225.0304)
 -->
<!-- Title: G Pages: 1 -->
<svg width="746pt" height="388pt"
 viewBox="0.00 0.00 745.53 388.00" xmlns="http://www.w3.org/2000/svg" xmlns:xlink="http://www.w3.org/1999/xlink">
<g id="graph0" class="graph" transform="scale(1 1) rotate(0) translate(4 384)">
<title>G</title>
<polygon fill="#ffffff" stroke="transparent" points="-4,4 -4,-384 741.5347,-384 741.5347,4 -4,4"/>
<!-- 0 -->
<g id="node1" class="node">
<title>0</title>
<text text-anchor="middle" x="152.5156" y="-357.8" font-family="Times,serif" font-size="14.00" fill="#000000">0 (None)</text>
</g>
<!-- 3 -->
<g id="node2" class="node">
<title>3</title>
<text text-anchor="middle" x="152.5156" y="-271.8" font-family="Times,serif" font-size="14.00" fill="#000000">3 (menasihati)</text>
</g>
<!-- 0&#45;&gt;3 -->
<g id="edge1" class="edge">
<title>0&#45;&gt;3</title>
<path fill="none" stroke="#000000" d="M152.5156,-343.7616C152.5156,-332.3597 152.5156,-317.4342 152.5156,-304.494"/>
<polygon fill="#000000" stroke="#000000" points="156.0157,-304.2121 152.5156,-294.2121 149.0157,-304.2121 156.0157,-304.2121"/>
<text text-anchor="middle" x="163.7915" y="-314.8" font-family="Times,serif" font-size="14.00" fill="#000000">root</text>
</g>
<!-- 2 -->
<g id="node5" class="node">
<title>2</title>
<text text-anchor="middle" x="52.5156" y="-185.8" font-family="Times,serif" font-size="14.00" fill="#000000">2 (Mahathir)</text>
</g>
<!-- 3&#45;&gt;2 -->
<g id="edge4" class="edge">
<title>3&#45;&gt;2</title>
<path fill="none" stroke="#000000" d="M131.3082,-257.7616C116.8569,-245.3335 97.5378,-228.719 81.6463,-215.0524"/>
<polygon fill="#000000" stroke="#000000" points="83.5565,-212.0789 73.6925,-208.2121 78.9922,-217.3862 83.5565,-212.0789"/>
<text text-anchor="middle" x="123.6846" y="-228.8" font-family="Times,serif" font-size="14.00" fill="#000000">nsubj</text>
</g>
<!-- 13 -->
<g id="node6" class="node">
<title>13</title>
<text text-anchor="middle" x="152.5156" y="-185.8" font-family="Times,serif" font-size="14.00" fill="#000000">13 (ketika)</text>
</g>
<!-- 3&#45;&gt;13 -->
<g id="edge5" class="edge">
<title>3&#45;&gt;13</title>
<path fill="none" stroke="#000000" d="M152.5156,-257.7616C152.5156,-246.3597 152.5156,-231.4342 152.5156,-218.494"/>
<polygon fill="#000000" stroke="#000000" points="156.0157,-218.2121 152.5156,-208.2121 149.0157,-218.2121 156.0157,-218.2121"/>
<text text-anchor="middle" x="166.8984" y="-228.8" font-family="Times,serif" font-size="14.00" fill="#000000">mark</text>
</g>
<!-- 14 -->
<g id="node7" class="node">
<title>14</title>
<text text-anchor="middle" x="258.5156" y="-185.8" font-family="Times,serif" font-size="14.00" fill="#000000">14 (memandu)</text>
</g>
<!-- 3&#45;&gt;14 -->
<g id="edge6" class="edge">
<title>3&#45;&gt;14</title>
<path fill="none" stroke="#000000" d="M174.7367,-257.9716C190.2837,-245.358 211.2381,-228.3573 228.3009,-214.5139"/>
<polygon fill="#000000" stroke="#000000" points="230.7633,-217.0231 236.3238,-208.0047 226.353,-211.5872 230.7633,-217.0231"/>
<text text-anchor="middle" x="227.6743" y="-228.8" font-family="Times,serif" font-size="14.00" fill="#000000">advcl</text>
</g>
<!-- 1 -->
<g id="node3" class="node">
<title>1</title>
<text text-anchor="middle" x="52.5156" y="-99.8" font-family="Times,serif" font-size="14.00" fill="#000000">1 (Dr)</text>
</g>
<!-- 12 -->
<g id="node4" class="node">
<title>12</title>
<text text-anchor="middle" x="52.5156" y="-13.8" font-family="Times,serif" font-size="14.00" fill="#000000">12 (mengantuk)</text>
</g>
<!-- 1&#45;&gt;12 -->
<g id="edge2" class="edge">
<title>1&#45;&gt;12</title>
<path fill="none" stroke="#000000" d="M52.5156,-85.7616C52.5156,-74.3597 52.5156,-59.4342 52.5156,-46.494"/>
<polygon fill="#000000" stroke="#000000" points="56.0157,-46.2121 52.5156,-36.2121 49.0157,-46.2121 56.0157,-46.2121"/>
<text text-anchor="middle" x="60.6743" y="-56.8" font-family="Times,serif" font-size="14.00" fill="#000000">acl</text>
</g>
<!-- 2&#45;&gt;1 -->
<g id="edge3" class="edge">
<title>2&#45;&gt;1</title>
<path fill="none" stroke="#000000" d="M52.5156,-171.7616C52.5156,-160.3597 52.5156,-145.4342 52.5156,-132.494"/>
<polygon fill="#000000" stroke="#000000" points="56.0157,-132.2121 52.5156,-122.2121 49.0157,-132.2121 56.0157,-132.2121"/>
<text text-anchor="middle" x="61.0674" y="-142.8" font-family="Times,serif" font-size="14.00" fill="#000000">det</text>
</g>
<!-- 4 -->
<g id="node8" class="node">
<title>4</title>
<text text-anchor="middle" x="357.5156" y="-357.8" font-family="Times,serif" font-size="14.00" fill="#000000">4 (mereka)</text>
</g>
<!-- 4&#45;&gt;4 -->
<g id="edge7" class="edge">
<title>4&#45;&gt;4</title>
<path fill="none" stroke="#000000" d="M396.0768,-369.8058C406.2894,-369.3597 414.0244,-366.7578 414.0244,-362 414.0244,-359.0264 411.0029,-356.8949 406.2435,-355.6055"/>
<polygon fill="#000000" stroke="#000000" points="406.4631,-352.1025 396.0768,-354.1942 405.5005,-359.036 406.4631,-352.1025"/>
<text text-anchor="middle" x="422.9692" y="-357.8" font-family="Times,serif" font-size="14.00" fill="#000000">obj</text>
</g>
<!-- 5 -->
<g id="node9" class="node">
<title>5</title>
<text text-anchor="middle" x="526.5156" y="-271.8" font-family="Times,serif" font-size="14.00" fill="#000000">5 (supaya)</text>
</g>
<!-- 6 -->
<g id="node10" class="node">
<title>6</title>
<text text-anchor="middle" x="622.5156" y="-271.8" font-family="Times,serif" font-size="14.00" fill="#000000">6 (berhenti)</text>
</g>
<!-- 7 -->
<g id="node11" class="node">
<title>7</title>
<text text-anchor="middle" x="425.5156" y="-271.8" font-family="Times,serif" font-size="14.00" fill="#000000">7 (berehat)</text>
</g>
<!-- 9 -->
<g id="node12" class="node">
<title>9</title>
<text text-anchor="middle" x="529.5156" y="-357.8" font-family="Times,serif" font-size="14.00" fill="#000000">9 (tidur)</text>
</g>
<!-- 7&#45;&gt;9 -->
<g id="edge8" class="edge">
<title>7&#45;&gt;9</title>
<path fill="none" stroke="#000000" d="M447.2887,-294.0047C462.5357,-306.6128 483.0938,-323.6127 499.8395,-337.4601"/>
<polygon fill="#000000" stroke="#000000" points="497.7769,-340.2962 507.7138,-343.9716 502.2378,-334.9016 497.7769,-340.2962"/>
<text text-anchor="middle" x="496.5674" y="-314.8" font-family="Times,serif" font-size="14.00" fill="#000000">conj</text>
</g>
<!-- 10 -->
<g id="node13" class="node">
<title>10</title>
<text text-anchor="middle" x="370.5156" y="-185.8" font-family="Times,serif" font-size="14.00" fill="#000000">10 (sebentar)</text>
</g>
<!-- 7&#45;&gt;10 -->
<g id="edge9" class="edge">
<title>7&#45;&gt;10</title>
<path fill="none" stroke="#000000" d="M413.8515,-257.7616C406.2679,-245.9036 396.247,-230.2345 387.7518,-216.951"/>
<polygon fill="#000000" stroke="#000000" points="390.4993,-214.7509 382.1629,-208.2121 384.6021,-218.5223 390.4993,-214.7509"/>
<text text-anchor="middle" x="413.5605" y="-228.8" font-family="Times,serif" font-size="14.00" fill="#000000">case</text>
</g>
<!-- 11 -->
<g id="node14" class="node">
<title>11</title>
<text text-anchor="middle" x="481.5156" y="-185.8" font-family="Times,serif" font-size="14.00" fill="#000000">11 (sekiranya)</text>
</g>
<!-- 7&#45;&gt;11 -->
<g id="edge10" class="edge">
<title>7&#45;&gt;11</title>
<path fill="none" stroke="#000000" d="M437.3918,-257.7616C445.1133,-245.9036 455.3164,-230.2345 463.9661,-216.951"/>
<polygon fill="#000000" stroke="#000000" points="467.1328,-218.502 469.6566,-208.2121 461.2668,-214.6822 467.1328,-218.502"/>
<text text-anchor="middle" x="473.4604" y="-228.8" font-family="Times,serif" font-size="14.00" fill="#000000">nmod</text>
</g>
<!-- 9&#45;&gt;5 -->
<g id="edge11" class="edge">
<title>9&#45;&gt;5</title>
<path fill="none" stroke="#000000" d="M528.8794,-343.7616C528.4817,-332.3597 527.961,-317.4342 527.5096,-304.494"/>
<polygon fill="#000000" stroke="#000000" points="530.9975,-304.084 527.1509,-294.2121 524.0018,-304.3281 530.9975,-304.084"/>
<text text-anchor="middle" x="542.8984" y="-314.8" font-family="Times,serif" font-size="14.00" fill="#000000">mark</text>
</g>
<!-- 9&#45;&gt;6 -->
<g id="edge12" class="edge">
<title>9&#45;&gt;6</title>
<path fill="none" stroke="#000000" d="M549.2385,-343.7616C562.6782,-331.3335 580.645,-314.719 595.4241,-301.0524"/>
<polygon fill="#000000" stroke="#000000" points="597.8554,-303.5712 602.8211,-294.2121 593.1029,-298.4318 597.8554,-303.5712"/>
<text text-anchor="middle" x="597.6743" y="-314.8" font-family="Times,serif" font-size="14.00" fill="#000000">advcl</text>
</g>
<!-- 9&#45;&gt;7 -->
<g id="edge13" class="edge">
<title>9&#45;&gt;7</title>
<path fill="none" stroke="#000000" d="M498.3576,-354.7279C472.287,-347.9679 438.0093,-337.27 429.4121,-326 424.765,-319.9081 422.8523,-312.0962 422.3433,-304.4666"/>
<polygon fill="#000000" stroke="#000000" points="425.8437,-304.3719 422.3942,-294.3543 418.8438,-304.3365 425.8437,-304.3719"/>
<text text-anchor="middle" x="448.5674" y="-314.8" font-family="Times,serif" font-size="14.00" fill="#000000">xcomp</text>
</g>
<!-- 8 -->
<g id="node15" class="node">
<title>8</title>
<text text-anchor="middle" x="709.5156" y="-271.8" font-family="Times,serif" font-size="14.00" fill="#000000">8 (dan)</text>
</g>
<!-- 9&#45;&gt;8 -->
<g id="edge14" class="edge">
<title>9&#45;&gt;8</title>
<path fill="none" stroke="#000000" d="M560.853,-349.9218C577.5555,-343.2623 598.3491,-334.6151 616.5156,-326 635.2425,-317.1192 655.568,-306.33 672.4273,-297.0504"/>
<polygon fill="#000000" stroke="#000000" points="674.3568,-299.9826 681.4049,-292.0721 670.9621,-293.8609 674.3568,-299.9826"/>
<text text-anchor="middle" x="648.7295" y="-314.8" font-family="Times,serif" font-size="14.00" fill="#000000">cc</text>
</g>
</g>
</svg>
