<?xml version="1.0" encoding="UTF-8" standalone="no"?>
<!DOCTYPE svg PUBLIC "-//W3C//DTD SVG 1.1//EN"
 "http://www.w3.org/Graphics/SVG/1.1/DTD/svg11.dtd">
<!-- Generated by graphviz version 2.40.1 (20161225.0304)
 -->
<!-- Title: G Pages: 1 -->
<svg width="633pt" height="474pt"
 viewBox="0.00 0.00 632.77 474.00" xmlns="http://www.w3.org/2000/svg" xmlns:xlink="http://www.w3.org/1999/xlink">
<g id="graph0" class="graph" transform="scale(1 1) rotate(0) translate(4 470)">
<title>G</title>
<polygon fill="#ffffff" stroke="transparent" points="-4,4 -4,-470 628.7656,-470 628.7656,4 -4,4"/>
<!-- 0 -->
<g id="node1" class="node">
<title>0</title>
<text text-anchor="middle" x="166" y="-443.8" font-family="Times,serif" font-size="14.00" fill="#000000">0 (None)</text>
</g>
<!-- 3 -->
<g id="node2" class="node">
<title>3</title>
<text text-anchor="middle" x="166" y="-357.8" font-family="Times,serif" font-size="14.00" fill="#000000">3 (menasihati)</text>
</g>
<!-- 0&#45;&gt;3 -->
<g id="edge1" class="edge">
<title>0&#45;&gt;3</title>
<path fill="none" stroke="#000000" d="M166,-429.7616C166,-418.3597 166,-403.4342 166,-390.494"/>
<polygon fill="#000000" stroke="#000000" points="169.5001,-390.2121 166,-380.2121 162.5001,-390.2121 169.5001,-390.2121"/>
<text text-anchor="middle" x="177.2759" y="-400.8" font-family="Times,serif" font-size="14.00" fill="#000000">root</text>
</g>
<!-- 1 -->
<g id="node3" class="node">
<title>1</title>
<text text-anchor="middle" x="27" y="-271.8" font-family="Times,serif" font-size="14.00" fill="#000000">1 (Dr)</text>
</g>
<!-- 3&#45;&gt;1 -->
<g id="edge2" class="edge">
<title>3&#45;&gt;1</title>
<path fill="none" stroke="#000000" d="M134.6472,-343.9333C124.9817,-338.2741 114.3384,-331.9509 104.6621,-326 90.9004,-317.5365 75.9419,-307.9905 62.8602,-299.5248"/>
<polygon fill="#000000" stroke="#000000" points="64.4343,-296.3738 54.1412,-293.8631 60.622,-302.2446 64.4343,-296.3738"/>
<text text-anchor="middle" x="120.1689" y="-314.8" font-family="Times,serif" font-size="14.00" fill="#000000">nsubj</text>
</g>
<!-- 2 -->
<g id="node4" class="node">
<title>2</title>
<text text-anchor="middle" x="116" y="-271.8" font-family="Times,serif" font-size="14.00" fill="#000000">2 (Mahathir)</text>
</g>
<!-- 3&#45;&gt;2 -->
<g id="edge3" class="edge">
<title>3&#45;&gt;2</title>
<path fill="none" stroke="#000000" d="M155.3963,-343.7616C148.5021,-331.9036 139.3921,-316.2345 131.6692,-302.951"/>
<polygon fill="#000000" stroke="#000000" points="134.6405,-301.098 126.5884,-294.2121 128.5889,-304.6164 134.6405,-301.098"/>
<text text-anchor="middle" x="152.9448" y="-314.8" font-family="Times,serif" font-size="14.00" fill="#000000">flat</text>
</g>
<!-- 4 -->
<g id="node5" class="node">
<title>4</title>
<text text-anchor="middle" x="216" y="-271.8" font-family="Times,serif" font-size="14.00" fill="#000000">4 (mereka)</text>
</g>
<!-- 3&#45;&gt;4 -->
<g id="edge4" class="edge">
<title>3&#45;&gt;4</title>
<path fill="none" stroke="#000000" d="M176.6037,-343.7616C183.4979,-331.9036 192.6079,-316.2345 200.3308,-302.951"/>
<polygon fill="#000000" stroke="#000000" points="203.4111,-304.6164 205.4116,-294.2121 197.3595,-301.098 203.4111,-304.6164"/>
<text text-anchor="middle" x="202.9448" y="-314.8" font-family="Times,serif" font-size="14.00" fill="#000000">obj</text>
</g>
<!-- 6 -->
<g id="node6" class="node">
<title>6</title>
<text text-anchor="middle" x="313" y="-271.8" font-family="Times,serif" font-size="14.00" fill="#000000">6 (berhenti)</text>
</g>
<!-- 3&#45;&gt;6 -->
<g id="edge5" class="edge">
<title>3&#45;&gt;6</title>
<path fill="none" stroke="#000000" d="M196.816,-343.9716C219.0625,-330.9566 249.2927,-313.271 273.3403,-299.2023"/>
<polygon fill="#000000" stroke="#000000" points="275.3605,-302.0754 282.2246,-294.0047 271.8257,-296.0334 275.3605,-302.0754"/>
<text text-anchor="middle" x="268.0518" y="-314.8" font-family="Times,serif" font-size="14.00" fill="#000000">xcomp</text>
</g>
<!-- 5 -->
<g id="node7" class="node">
<title>5</title>
<text text-anchor="middle" x="219" y="-185.8" font-family="Times,serif" font-size="14.00" fill="#000000">5 (supaya)</text>
</g>
<!-- 6&#45;&gt;5 -->
<g id="edge6" class="edge">
<title>6&#45;&gt;5</title>
<path fill="none" stroke="#000000" d="M293.065,-257.7616C279.4808,-245.3335 261.3208,-228.719 246.3828,-215.0524"/>
<polygon fill="#000000" stroke="#000000" points="248.6469,-212.3799 238.9062,-208.2121 243.9218,-217.5446 248.6469,-212.3799"/>
<text text-anchor="middle" x="284.0449" y="-228.8" font-family="Times,serif" font-size="14.00" fill="#000000">case</text>
</g>
<!-- 7 -->
<g id="node8" class="node">
<title>7</title>
<text text-anchor="middle" x="313" y="-185.8" font-family="Times,serif" font-size="14.00" fill="#000000">7 (berehat)</text>
</g>
<!-- 6&#45;&gt;7 -->
<g id="edge7" class="edge">
<title>6&#45;&gt;7</title>
<path fill="none" stroke="#000000" d="M313,-257.7616C313,-246.3597 313,-231.4342 313,-218.494"/>
<polygon fill="#000000" stroke="#000000" points="316.5001,-218.2121 313,-208.2121 309.5001,-218.2121 316.5001,-218.2121"/>
<text text-anchor="middle" x="335.5518" y="-228.8" font-family="Times,serif" font-size="14.00" fill="#000000">advmod</text>
</g>
<!-- 9 -->
<g id="node9" class="node">
<title>9</title>
<text text-anchor="middle" x="401" y="-185.8" font-family="Times,serif" font-size="14.00" fill="#000000">9 (tidur)</text>
</g>
<!-- 6&#45;&gt;9 -->
<g id="edge8" class="edge">
<title>6&#45;&gt;9</title>
<path fill="none" stroke="#000000" d="M340.5122,-257.8277C347.8227,-252.4647 355.489,-246.3262 362,-240 369.3837,-232.8258 376.5772,-224.221 382.7341,-216.1881"/>
<polygon fill="#000000" stroke="#000000" points="385.5834,-218.2218 388.7395,-208.1079 379.9652,-214.0461 385.5834,-218.2218"/>
<text text-anchor="middle" x="386.0518" y="-228.8" font-family="Times,serif" font-size="14.00" fill="#000000">conj</text>
</g>
<!-- 8 -->
<g id="node10" class="node">
<title>8</title>
<text text-anchor="middle" x="310" y="-99.8" font-family="Times,serif" font-size="14.00" fill="#000000">8 (dan)</text>
</g>
<!-- 9&#45;&gt;8 -->
<g id="edge9" class="edge">
<title>9&#45;&gt;8</title>
<path fill="none" stroke="#000000" d="M381.7012,-171.7616C368.6712,-159.4475 351.2924,-143.0235 336.9077,-129.4293"/>
<polygon fill="#000000" stroke="#000000" points="338.9429,-126.5369 329.2709,-122.2121 334.1349,-131.6245 338.9429,-126.5369"/>
<text text-anchor="middle" x="367.2139" y="-142.8" font-family="Times,serif" font-size="14.00" fill="#000000">cc</text>
</g>
<!-- 10 -->
<g id="node11" class="node">
<title>10</title>
<text text-anchor="middle" x="401" y="-99.8" font-family="Times,serif" font-size="14.00" fill="#000000">10 (sebentar)</text>
</g>
<!-- 9&#45;&gt;10 -->
<g id="edge10" class="edge">
<title>9&#45;&gt;10</title>
<path fill="none" stroke="#000000" d="M401,-171.7616C401,-160.3597 401,-145.4342 401,-132.494"/>
<polygon fill="#000000" stroke="#000000" points="404.5001,-132.2121 401,-122.2121 397.5001,-132.2121 404.5001,-132.2121"/>
<text text-anchor="middle" x="423.5518" y="-142.8" font-family="Times,serif" font-size="14.00" fill="#000000">advmod</text>
</g>
<!-- 12 -->
<g id="node12" class="node">
<title>12</title>
<text text-anchor="middle" x="516" y="-99.8" font-family="Times,serif" font-size="14.00" fill="#000000">12 (mengantuk)</text>
</g>
<!-- 9&#45;&gt;12 -->
<g id="edge11" class="edge">
<title>9&#45;&gt;12</title>
<path fill="none" stroke="#000000" d="M425.7284,-171.9411C433.5132,-166.2267 442.1315,-159.8705 450,-154 461.2014,-145.643 473.4135,-136.4224 484.2532,-128.1993"/>
<polygon fill="#000000" stroke="#000000" points="486.389,-130.9722 492.2354,-122.1364 482.155,-125.3979 486.389,-130.9722"/>
<text text-anchor="middle" x="484.5518" y="-142.8" font-family="Times,serif" font-size="14.00" fill="#000000">amod</text>
</g>
<!-- 11 -->
<g id="node13" class="node">
<title>11</title>
<text text-anchor="middle" x="457" y="-13.8" font-family="Times,serif" font-size="14.00" fill="#000000">11 (sekiranya)</text>
</g>
<!-- 12&#45;&gt;11 -->
<g id="edge12" class="edge">
<title>12&#45;&gt;11</title>
<path fill="none" stroke="#000000" d="M503.4876,-85.7616C495.2742,-73.7896 484.3958,-57.9328 475.2272,-44.5685"/>
<polygon fill="#000000" stroke="#000000" points="478.0376,-42.4781 469.4943,-36.2121 472.2654,-46.4381 478.0376,-42.4781"/>
<text text-anchor="middle" x="513.5518" y="-56.8" font-family="Times,serif" font-size="14.00" fill="#000000">advmod</text>
</g>
<!-- 14 -->
<g id="node14" class="node">
<title>14</title>
<text text-anchor="middle" x="574" y="-13.8" font-family="Times,serif" font-size="14.00" fill="#000000">14 (memandu.)</text>
</g>
<!-- 12&#45;&gt;14 -->
<g id="edge13" class="edge">
<title>12&#45;&gt;14</title>
<path fill="none" stroke="#000000" d="M528.3003,-85.7616C536.3745,-73.7896 547.0686,-57.9328 556.0817,-44.5685"/>
<polygon fill="#000000" stroke="#000000" points="559.0277,-46.4598 561.7174,-36.2121 553.2242,-42.5458 559.0277,-46.4598"/>
<text text-anchor="middle" x="563.5518" y="-56.8" font-family="Times,serif" font-size="14.00" fill="#000000">amod</text>
</g>
<!-- 13 -->
<g id="node15" class="node">
<title>13</title>
<text text-anchor="middle" x="256" y="-443.8" font-family="Times,serif" font-size="14.00" fill="#000000">13 (ketika)</text>
</g>
<!-- 13&#45;&gt;13 -->
<g id="edge14" class="edge">
<title>13&#45;&gt;13</title>
<path fill="none" stroke="#000000" d="M294.5658,-455.8058C304.7797,-455.3597 312.5156,-452.7578 312.5156,-448 312.5156,-445.0264 309.4938,-442.8949 304.7338,-441.6055"/>
<polygon fill="#000000" stroke="#000000" points="304.9521,-438.1024 294.5658,-440.1942 303.9896,-445.0359 304.9521,-438.1024"/>
<text text-anchor="middle" x="326.8984" y="-443.8" font-family="Times,serif" font-size="14.00" fill="#000000">mark</text>
</g>
</g>
</svg>
