<?xml version="1.0" encoding="UTF-8" standalone="no"?>
<!DOCTYPE svg PUBLIC "-//W3C//DTD SVG 1.1//EN"
 "http://www.w3.org/Graphics/SVG/1.1/DTD/svg11.dtd">
<!-- Generated by graphviz version 2.42.3 (20191010.1750)
 -->
<!-- Title: G Pages: 1 -->
<svg width="2516pt" height="474pt"
 viewBox="0.00 0.00 2516.33 474.00" xmlns="http://www.w3.org/2000/svg" xmlns:xlink="http://www.w3.org/1999/xlink">
<g id="graph0" class="graph" transform="scale(1 1) rotate(0) translate(4 470)">
<title>G</title>
<polygon fill="white" stroke="transparent" points="-4,4 -4,-470 2512.33,-470 2512.33,4 -4,4"/>
<!-- 0 -->
<g id="node1" class="node">
<title>0</title>
<text text-anchor="middle" x="116.46" y="-443.8" font-family="Times,serif" font-size="14.00">0 (None)</text>
</g>
<!-- 21 -->
<g id="node2" class="node">
<title>21</title>
<text text-anchor="middle" x="116.46" y="-357.8" font-family="Times,serif" font-size="14.00">21 (menitipkan)</text>
</g>
<!-- 0&#45;&gt;21 -->
<g id="edge1" class="edge">
<title>0&#45;&gt;21</title>
<path fill="none" stroke="black" d="M116.46,-429.6C116.46,-418.26 116.46,-403.23 116.46,-390.32"/>
<polygon fill="black" stroke="black" points="119.96,-390.1 116.46,-380.1 112.96,-390.1 119.96,-390.1"/>
<text text-anchor="middle" x="127.73" y="-400.8" font-family="Times,serif" font-size="14.00">root</text>
</g>
<!-- 8 -->
<g id="node10" class="node">
<title>8</title>
<text text-anchor="middle" x="40.46" y="-271.8" font-family="Times,serif" font-size="14.00">8 (Perdana)</text>
</g>
<!-- 21&#45;&gt;8 -->
<g id="edge21" class="edge">
<title>21&#45;&gt;8</title>
<path fill="none" stroke="black" d="M100.71,-343.6C89.73,-331.46 74.93,-315.1 62.75,-301.64"/>
<polygon fill="black" stroke="black" points="65.23,-299.16 55.92,-294.1 60.04,-303.86 65.23,-299.16"/>
<text text-anchor="middle" x="98.63" y="-314.8" font-family="Times,serif" font-size="14.00">nsubj</text>
</g>
<!-- 22 -->
<g id="node24" class="node">
<title>22</title>
<text text-anchor="middle" x="142.46" y="-271.8" font-family="Times,serif" font-size="14.00">22 (pesanan)</text>
</g>
<!-- 21&#45;&gt;22 -->
<g id="edge22" class="edge">
<title>21&#45;&gt;22</title>
<path fill="none" stroke="black" d="M121.84,-343.6C125.39,-332.14 130.1,-316.93 134.12,-303.93"/>
<polygon fill="black" stroke="black" points="137.55,-304.68 137.17,-294.1 130.87,-302.61 137.55,-304.68"/>
<text text-anchor="middle" x="140.4" y="-314.8" font-family="Times,serif" font-size="14.00">obj</text>
</g>
<!-- 1 -->
<g id="node3" class="node">
<title>1</title>
<text text-anchor="middle" x="272.46" y="-357.8" font-family="Times,serif" font-size="14.00">1 (Kuala)</text>
</g>
<!-- 2 -->
<g id="node4" class="node">
<title>2</title>
<text text-anchor="middle" x="272.46" y="-271.8" font-family="Times,serif" font-size="14.00">2 (Lumpur:)</text>
</g>
<!-- 1&#45;&gt;2 -->
<g id="edge2" class="edge">
<title>1&#45;&gt;2</title>
<path fill="none" stroke="black" d="M272.46,-343.6C272.46,-332.26 272.46,-317.23 272.46,-304.32"/>
<polygon fill="black" stroke="black" points="275.96,-304.1 272.46,-294.1 268.96,-304.1 275.96,-304.1"/>
<text text-anchor="middle" x="281.4" y="-314.8" font-family="Times,serif" font-size="14.00">flat</text>
</g>
<!-- 3 -->
<g id="node5" class="node">
<title>3</title>
<text text-anchor="middle" x="761.46" y="-357.8" font-family="Times,serif" font-size="14.00">3 (Sempena)</text>
</g>
<!-- 5 -->
<g id="node6" class="node">
<title>5</title>
<text text-anchor="middle" x="761.46" y="-271.8" font-family="Times,serif" font-size="14.00">5 (Aidilfitri)</text>
</g>
<!-- 3&#45;&gt;5 -->
<g id="edge3" class="edge">
<title>3&#45;&gt;5</title>
<path fill="none" stroke="black" d="M761.46,-343.6C761.46,-332.26 761.46,-317.23 761.46,-304.32"/>
<polygon fill="black" stroke="black" points="764.96,-304.1 761.46,-294.1 757.96,-304.1 764.96,-304.1"/>
<text text-anchor="middle" x="791.01" y="-314.8" font-family="Times,serif" font-size="14.00">compound</text>
</g>
<!-- 7 -->
<g id="node9" class="node">
<title>7</title>
<text text-anchor="middle" x="761.46" y="-185.8" font-family="Times,serif" font-size="14.00">7 (depan,)</text>
</g>
<!-- 5&#45;&gt;7 -->
<g id="edge7" class="edge">
<title>5&#45;&gt;7</title>
<path fill="none" stroke="black" d="M761.46,-257.6C761.46,-246.26 761.46,-231.23 761.46,-218.32"/>
<polygon fill="black" stroke="black" points="764.96,-218.1 761.46,-208.1 757.96,-218.1 764.96,-218.1"/>
<text text-anchor="middle" x="791.01" y="-228.8" font-family="Times,serif" font-size="14.00">compound</text>
</g>
<!-- 4 -->
<g id="node7" class="node">
<title>4</title>
<text text-anchor="middle" x="825.46" y="-443.8" font-family="Times,serif" font-size="14.00">4 (sambutan)</text>
</g>
<!-- 4&#45;&gt;3 -->
<g id="edge4" class="edge">
<title>4&#45;&gt;3</title>
<path fill="none" stroke="black" d="M812.2,-429.6C803.13,-417.69 790.95,-401.71 780.81,-388.4"/>
<polygon fill="black" stroke="black" points="783.33,-385.93 774.48,-380.1 777.76,-390.17 783.33,-385.93"/>
<text text-anchor="middle" x="809.5" y="-400.8" font-family="Times,serif" font-size="14.00">case</text>
</g>
<!-- 4&#45;&gt;4 -->
<g id="edge5" class="edge">
<title>4&#45;&gt;4</title>
<path fill="none" stroke="black" d="M870.29,-455.7C880.61,-455.04 888.2,-452.47 888.2,-448 888.2,-445.21 885.23,-443.16 880.49,-441.85"/>
<polygon fill="black" stroke="black" points="880.7,-438.34 870.29,-440.3 879.65,-445.26 880.7,-438.34"/>
<text text-anchor="middle" x="897.14" y="-443.8" font-family="Times,serif" font-size="14.00">obl</text>
</g>
<!-- 6 -->
<g id="node8" class="node">
<title>6</title>
<text text-anchor="middle" x="862.46" y="-357.8" font-family="Times,serif" font-size="14.00">6 (minggu)</text>
</g>
<!-- 4&#45;&gt;6 -->
<g id="edge6" class="edge">
<title>4&#45;&gt;6</title>
<path fill="none" stroke="black" d="M833.12,-429.6C838.22,-418.03 845,-402.62 850.77,-389.54"/>
<polygon fill="black" stroke="black" points="854.1,-390.66 854.93,-380.1 847.69,-387.84 854.1,-390.66"/>
<text text-anchor="middle" x="876.01" y="-400.8" font-family="Times,serif" font-size="14.00">compound</text>
</g>
<!-- 9 -->
<g id="node11" class="node">
<title>9</title>
<text text-anchor="middle" x="1105.46" y="-185.8" font-family="Times,serif" font-size="14.00">9 (Menteri)</text>
</g>
<!-- 15 -->
<g id="node12" class="node">
<title>15</title>
<text text-anchor="middle" x="1043.46" y="-99.8" font-family="Times,serif" font-size="14.00">15 (Menteri)</text>
</g>
<!-- 9&#45;&gt;15 -->
<g id="edge8" class="edge">
<title>9&#45;&gt;15</title>
<path fill="none" stroke="black" d="M1092.61,-171.6C1083.82,-159.69 1072.03,-143.71 1062.2,-130.4"/>
<polygon fill="black" stroke="black" points="1064.83,-128.06 1056.07,-122.1 1059.2,-132.22 1064.83,-128.06"/>
<text text-anchor="middle" x="1090.51" y="-142.8" font-family="Times,serif" font-size="14.00">conj</text>
</g>
<!-- 25 -->
<g id="node13" class="node">
<title>25</title>
<text text-anchor="middle" x="1142.46" y="-99.8" font-family="Times,serif" font-size="14.00">25 (orang)</text>
</g>
<!-- 9&#45;&gt;25 -->
<g id="edge9" class="edge">
<title>9&#45;&gt;25</title>
<path fill="none" stroke="black" d="M1113.12,-171.6C1118.22,-160.03 1125,-144.62 1130.77,-131.54"/>
<polygon fill="black" stroke="black" points="1134.1,-132.66 1134.93,-122.1 1127.69,-129.84 1134.1,-132.66"/>
<text text-anchor="middle" x="1142.4" y="-142.8" font-family="Times,serif" font-size="14.00">nmod</text>
</g>
<!-- 14 -->
<g id="node19" class="node">
<title>14</title>
<text text-anchor="middle" x="1043.46" y="-13.8" font-family="Times,serif" font-size="14.00">14 (dan)</text>
</g>
<!-- 15&#45;&gt;14 -->
<g id="edge12" class="edge">
<title>15&#45;&gt;14</title>
<path fill="none" stroke="black" d="M1043.46,-85.6C1043.46,-74.26 1043.46,-59.23 1043.46,-46.32"/>
<polygon fill="black" stroke="black" points="1046.96,-46.1 1043.46,-36.1 1039.96,-46.1 1046.96,-46.1"/>
<text text-anchor="middle" x="1049.67" y="-56.8" font-family="Times,serif" font-size="14.00">cc</text>
</g>
<!-- 10 -->
<g id="node14" class="node">
<title>10</title>
<text text-anchor="middle" x="1196.46" y="-185.8" font-family="Times,serif" font-size="14.00">10 (Tun)</text>
</g>
<!-- 11 -->
<g id="node15" class="node">
<title>11</title>
<text text-anchor="middle" x="1001.46" y="-357.8" font-family="Times,serif" font-size="14.00">11 (Dr)</text>
</g>
<!-- 12 -->
<g id="node16" class="node">
<title>12</title>
<text text-anchor="middle" x="1095.46" y="-357.8" font-family="Times,serif" font-size="14.00">12 (Mahathir)</text>
</g>
<!-- 13 -->
<g id="node17" class="node">
<title>13</title>
<text text-anchor="middle" x="978.46" y="-271.8" font-family="Times,serif" font-size="14.00">13 (Mohamad)</text>
</g>
<!-- 12&#45;&gt;13 -->
<g id="edge10" class="edge">
<title>12&#45;&gt;13</title>
<path fill="none" stroke="black" d="M1071.5,-343.8C1053.91,-331.17 1029.83,-313.89 1010.58,-300.06"/>
<polygon fill="black" stroke="black" points="1012.55,-297.17 1002.38,-294.18 1008.47,-302.85 1012.55,-297.17"/>
<text text-anchor="middle" x="1053.4" y="-314.8" font-family="Times,serif" font-size="14.00">flat</text>
</g>
<!-- 19 -->
<g id="node18" class="node">
<title>19</title>
<text text-anchor="middle" x="1095.46" y="-443.8" font-family="Times,serif" font-size="14.00">19 (Siew)</text>
</g>
<!-- 13&#45;&gt;19 -->
<g id="edge11" class="edge">
<title>13&#45;&gt;19</title>
<path fill="none" stroke="black" d="M964.48,-294.24C948.89,-315.73 928,-352.91 945.57,-380 968.43,-415.26 1014.68,-432.13 1049.79,-440.1"/>
<polygon fill="black" stroke="black" points="1049.33,-443.58 1059.83,-442.21 1050.76,-436.73 1049.33,-443.58"/>
<text text-anchor="middle" x="955.4" y="-357.8" font-family="Times,serif" font-size="14.00">flat</text>
</g>
<!-- 19&#45;&gt;11 -->
<g id="edge17" class="edge">
<title>19&#45;&gt;11</title>
<path fill="none" stroke="black" d="M1075.98,-429.6C1062.15,-417.24 1043.41,-400.49 1028.19,-386.88"/>
<polygon fill="black" stroke="black" points="1030.38,-384.15 1020.59,-380.1 1025.71,-389.37 1030.38,-384.15"/>
<text text-anchor="middle" x="1063.4" y="-400.8" font-family="Times,serif" font-size="14.00">flat</text>
</g>
<!-- 19&#45;&gt;12 -->
<g id="edge18" class="edge">
<title>19&#45;&gt;12</title>
<path fill="none" stroke="black" d="M1095.46,-429.6C1095.46,-418.26 1095.46,-403.23 1095.46,-390.32"/>
<polygon fill="black" stroke="black" points="1098.96,-390.1 1095.46,-380.1 1091.96,-390.1 1098.96,-390.1"/>
<text text-anchor="middle" x="1104.4" y="-400.8" font-family="Times,serif" font-size="14.00">flat</text>
</g>
<!-- 18 -->
<g id="node22" class="node">
<title>18</title>
<text text-anchor="middle" x="1196.46" y="-357.8" font-family="Times,serif" font-size="14.00">18 (Loke)</text>
</g>
<!-- 19&#45;&gt;18 -->
<g id="edge19" class="edge">
<title>19&#45;&gt;18</title>
<path fill="none" stroke="black" d="M1116.38,-429.6C1131.38,-417.12 1151.75,-400.18 1168.19,-386.51"/>
<polygon fill="black" stroke="black" points="1170.45,-389.18 1175.9,-380.1 1165.98,-383.8 1170.45,-389.18"/>
<text text-anchor="middle" x="1161.4" y="-400.8" font-family="Times,serif" font-size="14.00">flat</text>
</g>
<!-- 20 -->
<g id="node23" class="node">
<title>20</title>
<text text-anchor="middle" x="1286.46" y="-357.8" font-family="Times,serif" font-size="14.00">20 (Fook)</text>
</g>
<!-- 19&#45;&gt;20 -->
<g id="edge20" class="edge">
<title>19&#45;&gt;20</title>
<path fill="none" stroke="black" d="M1130.94,-431.4C1162.19,-417.65 1207.88,-397.56 1241.66,-382.7"/>
<polygon fill="black" stroke="black" points="1243.1,-385.89 1250.85,-378.66 1240.28,-379.48 1243.1,-385.89"/>
<text text-anchor="middle" x="1211.4" y="-400.8" font-family="Times,serif" font-size="14.00">flat</text>
</g>
<!-- 16 -->
<g id="node20" class="node">
<title>16</title>
<text text-anchor="middle" x="1196.46" y="-271.8" font-family="Times,serif" font-size="14.00">16 (Pengangkutan)</text>
</g>
<!-- 16&#45;&gt;9 -->
<g id="edge13" class="edge">
<title>16&#45;&gt;9</title>
<path fill="none" stroke="black" d="M1177.6,-257.6C1164.21,-245.24 1146.07,-228.49 1131.33,-214.88"/>
<polygon fill="black" stroke="black" points="1133.7,-212.31 1123.98,-208.1 1128.95,-217.45 1133.7,-212.31"/>
<text text-anchor="middle" x="1165.4" y="-228.8" font-family="Times,serif" font-size="14.00">flat</text>
</g>
<!-- 16&#45;&gt;10 -->
<g id="edge14" class="edge">
<title>16&#45;&gt;10</title>
<path fill="none" stroke="black" d="M1196.46,-257.6C1196.46,-246.26 1196.46,-231.23 1196.46,-218.32"/>
<polygon fill="black" stroke="black" points="1199.96,-218.1 1196.46,-208.1 1192.96,-218.1 1199.96,-218.1"/>
<text text-anchor="middle" x="1205.4" y="-228.8" font-family="Times,serif" font-size="14.00">flat</text>
</g>
<!-- 17 -->
<g id="node21" class="node">
<title>17</title>
<text text-anchor="middle" x="1292.46" y="-185.8" font-family="Times,serif" font-size="14.00">17 (Anthony)</text>
</g>
<!-- 16&#45;&gt;17 -->
<g id="edge15" class="edge">
<title>16&#45;&gt;17</title>
<path fill="none" stroke="black" d="M1216.35,-257.6C1230.47,-245.24 1249.61,-228.49 1265.16,-214.88"/>
<polygon fill="black" stroke="black" points="1267.7,-217.31 1272.92,-208.1 1263.09,-212.05 1267.7,-217.31"/>
<text text-anchor="middle" x="1259.4" y="-228.8" font-family="Times,serif" font-size="14.00">flat</text>
</g>
<!-- 18&#45;&gt;16 -->
<g id="edge16" class="edge">
<title>18&#45;&gt;16</title>
<path fill="none" stroke="black" d="M1196.46,-343.6C1196.46,-332.26 1196.46,-317.23 1196.46,-304.32"/>
<polygon fill="black" stroke="black" points="1199.96,-304.1 1196.46,-294.1 1192.96,-304.1 1199.96,-304.1"/>
<text text-anchor="middle" x="1205.4" y="-314.8" font-family="Times,serif" font-size="14.00">flat</text>
</g>
<!-- 23 -->
<g id="node25" class="node">
<title>23</title>
<text text-anchor="middle" x="1374.46" y="-357.8" font-family="Times,serif" font-size="14.00">23 (khas)</text>
</g>
<!-- 24 -->
<g id="node26" class="node">
<title>24</title>
<text text-anchor="middle" x="1634.46" y="-271.8" font-family="Times,serif" font-size="14.00">24 (kepada)</text>
</g>
<!-- 26 -->
<g id="node27" class="node">
<title>26</title>
<text text-anchor="middle" x="1446.46" y="-443.8" font-family="Times,serif" font-size="14.00">26 (ramai)</text>
</g>
<!-- 26&#45;&gt;23 -->
<g id="edge23" class="edge">
<title>26&#45;&gt;23</title>
<path fill="none" stroke="black" d="M1431.54,-429.6C1421.24,-417.58 1407.38,-401.41 1395.9,-388.02"/>
<polygon fill="black" stroke="black" points="1398.28,-385.41 1389.11,-380.1 1392.96,-389.97 1398.28,-385.41"/>
<text text-anchor="middle" x="1431.01" y="-400.8" font-family="Times,serif" font-size="14.00">amod</text>
</g>
<!-- 26&#45;&gt;26 -->
<g id="edge24" class="edge">
<title>26&#45;&gt;26</title>
<path fill="none" stroke="black" d="M1483.71,-455.83C1493.96,-455.45 1501.8,-452.84 1501.8,-448 1501.8,-444.98 1498.74,-442.82 1493.94,-441.54"/>
<polygon fill="black" stroke="black" points="1494.08,-438.03 1483.71,-440.17 1493.15,-444.97 1494.08,-438.03"/>
<text text-anchor="middle" x="1531.36" y="-443.8" font-family="Times,serif" font-size="14.00">compound</text>
</g>
<!-- 29 -->
<g id="node28" class="node">
<title>29</title>
<text text-anchor="middle" x="1467.46" y="-357.8" font-family="Times,serif" font-size="14.00">29 (pulang)</text>
</g>
<!-- 26&#45;&gt;29 -->
<g id="edge25" class="edge">
<title>26&#45;&gt;29</title>
<path fill="none" stroke="black" d="M1450.81,-429.6C1453.67,-418.14 1457.48,-402.93 1460.72,-389.93"/>
<polygon fill="black" stroke="black" points="1464.15,-390.65 1463.18,-380.1 1457.36,-388.95 1464.15,-390.65"/>
<text text-anchor="middle" x="1466.62" y="-400.8" font-family="Times,serif" font-size="14.00">acl</text>
</g>
<!-- 27 -->
<g id="node29" class="node">
<title>27</title>
<text text-anchor="middle" x="1803.46" y="-357.8" font-family="Times,serif" font-size="14.00">27 (yang)</text>
</g>
<!-- 28 -->
<g id="node30" class="node">
<title>28</title>
<text text-anchor="middle" x="1730.46" y="-271.8" font-family="Times,serif" font-size="14.00">28 (mahu)</text>
</g>
<!-- 30 -->
<g id="node31" class="node">
<title>30</title>
<text text-anchor="middle" x="1862.46" y="-443.8" font-family="Times,serif" font-size="14.00">30 (ke)</text>
</g>
<!-- 30&#45;&gt;27 -->
<g id="edge26" class="edge">
<title>30&#45;&gt;27</title>
<path fill="none" stroke="black" d="M1841.82,-429.68C1836.28,-424.38 1830.59,-418.28 1826.12,-412 1821.23,-405.13 1816.97,-397.03 1813.51,-389.42"/>
<polygon fill="black" stroke="black" points="1816.71,-388 1809.57,-380.17 1810.27,-390.74 1816.71,-388"/>
<text text-anchor="middle" x="1841.63" y="-400.8" font-family="Times,serif" font-size="14.00">nsubj</text>
</g>
<!-- 31 -->
<g id="node32" class="node">
<title>31</title>
<text text-anchor="middle" x="1903.46" y="-357.8" font-family="Times,serif" font-size="14.00">31 (kampung)</text>
</g>
<!-- 30&#45;&gt;31 -->
<g id="edge27" class="edge">
<title>30&#45;&gt;31</title>
<path fill="none" stroke="black" d="M1859.56,-429.9C1858.68,-420.12 1858.96,-407.87 1863.57,-398 1865.36,-394.15 1867.81,-390.55 1870.61,-387.24"/>
<polygon fill="black" stroke="black" points="1873.16,-389.63 1877.65,-380.04 1868.16,-384.74 1873.16,-389.63"/>
<text text-anchor="middle" x="1873.4" y="-400.8" font-family="Times,serif" font-size="14.00">obl</text>
</g>
<!-- 31&#45;&gt;30 -->
<g id="edge28" class="edge">
<title>31&#45;&gt;30</title>
<path fill="none" stroke="black" d="M1896.03,-380.38C1891.91,-389.82 1886.59,-401.64 1881.46,-412 1880.06,-414.82 1878.56,-417.75 1877.04,-420.65"/>
<polygon fill="black" stroke="black" points="1873.83,-419.22 1872.19,-429.69 1880,-422.53 1873.83,-419.22"/>
<text text-anchor="middle" x="1900.5" y="-400.8" font-family="Times,serif" font-size="14.00">case</text>
</g>
<!-- 32 -->
<g id="node33" class="node">
<title>32</title>
<text text-anchor="middle" x="1852.46" y="-271.8" font-family="Times,serif" font-size="14.00">32 (halaman)</text>
</g>
<!-- 31&#45;&gt;32 -->
<g id="edge29" class="edge">
<title>31&#45;&gt;32</title>
<path fill="none" stroke="black" d="M1892.89,-343.6C1885.73,-331.8 1876.15,-316.02 1868.11,-302.78"/>
<polygon fill="black" stroke="black" points="1871.02,-300.83 1862.84,-294.1 1865.03,-304.46 1871.02,-300.83"/>
<text text-anchor="middle" x="1911.01" y="-314.8" font-family="Times,serif" font-size="14.00">compound</text>
</g>
<!-- 33 -->
<g id="node34" class="node">
<title>33</title>
<text text-anchor="middle" x="1981.46" y="-271.8" font-family="Times,serif" font-size="14.00">33 (masing&#45;masing.)</text>
</g>
<!-- 31&#45;&gt;33 -->
<g id="edge30" class="edge">
<title>31&#45;&gt;33</title>
<path fill="none" stroke="black" d="M1925.53,-343.67C1931.9,-338.28 1938.68,-332.13 1944.46,-326 1951.33,-318.71 1958.14,-310.16 1964.01,-302.27"/>
<polygon fill="black" stroke="black" points="1966.94,-304.2 1969.97,-294.05 1961.27,-300.09 1966.94,-304.2"/>
<text text-anchor="middle" x="1965.01" y="-314.8" font-family="Times,serif" font-size="14.00">det</text>
</g>
<!-- 34 -->
<g id="node35" class="node">
<title>34</title>
<text text-anchor="middle" x="1608.46" y="-357.8" font-family="Times,serif" font-size="14.00">34 (Dalam)</text>
</g>
<!-- 35 -->
<g id="node36" class="node">
<title>35</title>
<text text-anchor="middle" x="362.46" y="-357.8" font-family="Times,serif" font-size="14.00">35 (video)</text>
</g>
<!-- 36 -->
<g id="node37" class="node">
<title>36</title>
<text text-anchor="middle" x="1708.46" y="-357.8" font-family="Times,serif" font-size="14.00">36 (pendek)</text>
</g>
<!-- 36&#45;&gt;24 -->
<g id="edge31" class="edge">
<title>36&#45;&gt;24</title>
<path fill="none" stroke="black" d="M1693.12,-343.6C1682.44,-331.46 1668.03,-315.1 1656.16,-301.64"/>
<polygon fill="black" stroke="black" points="1658.75,-299.29 1649.52,-294.1 1653.5,-303.91 1658.75,-299.29"/>
<text text-anchor="middle" x="1688.5" y="-314.8" font-family="Times,serif" font-size="14.00">case</text>
</g>
<!-- 36&#45;&gt;28 -->
<g id="edge32" class="edge">
<title>36&#45;&gt;28</title>
<path fill="none" stroke="black" d="M1713.02,-343.6C1716.01,-332.14 1720,-316.93 1723.4,-303.93"/>
<polygon fill="black" stroke="black" points="1726.83,-304.66 1725.98,-294.1 1720.06,-302.88 1726.83,-304.66"/>
<text text-anchor="middle" x="1744.01" y="-314.8" font-family="Times,serif" font-size="14.00">advmod</text>
</g>
<!-- 37 -->
<g id="node38" class="node">
<title>37</title>
<text text-anchor="middle" x="1629.46" y="-443.8" font-family="Times,serif" font-size="14.00">37 (terbitan)</text>
</g>
<!-- 37&#45;&gt;34 -->
<g id="edge33" class="edge">
<title>37&#45;&gt;34</title>
<path fill="none" stroke="black" d="M1625.11,-429.6C1622.24,-418.14 1618.44,-402.93 1615.19,-389.93"/>
<polygon fill="black" stroke="black" points="1618.55,-388.95 1612.73,-380.1 1611.76,-390.65 1618.55,-388.95"/>
<text text-anchor="middle" x="1632.5" y="-400.8" font-family="Times,serif" font-size="14.00">case</text>
</g>
<!-- 37&#45;&gt;36 -->
<g id="edge34" class="edge">
<title>37&#45;&gt;36</title>
<path fill="none" stroke="black" d="M1645.83,-429.6C1657.24,-417.46 1672.62,-401.1 1685.29,-387.64"/>
<polygon fill="black" stroke="black" points="1688.08,-389.78 1692.38,-380.1 1682.98,-384.98 1688.08,-389.78"/>
<text text-anchor="middle" x="1690.01" y="-400.8" font-family="Times,serif" font-size="14.00">amod</text>
</g>
<!-- 37&#45;&gt;37 -->
<g id="edge35" class="edge">
<title>37&#45;&gt;37</title>
<path fill="none" stroke="black" d="M1672.07,-455.75C1682.49,-455.18 1690.25,-452.59 1690.25,-448 1690.25,-445.06 1687.06,-442.94 1682.04,-441.65"/>
<polygon fill="black" stroke="black" points="1682.46,-438.17 1672.07,-440.25 1681.48,-445.1 1682.46,-438.17"/>
<text text-anchor="middle" x="1719.8" y="-443.8" font-family="Times,serif" font-size="14.00">compound</text>
</g>
<!-- 38 -->
<g id="node39" class="node">
<title>38</title>
<text text-anchor="middle" x="2006.46" y="-443.8" font-family="Times,serif" font-size="14.00">38 (Jabatan)</text>
</g>
<!-- 38&#45;&gt;38 -->
<g id="edge36" class="edge">
<title>38&#45;&gt;38</title>
<path fill="none" stroke="black" d="M2048.79,-455.75C2059.15,-455.18 2066.86,-452.59 2066.86,-448 2066.86,-445.06 2063.7,-442.94 2058.7,-441.65"/>
<polygon fill="black" stroke="black" points="2059.19,-438.18 2048.79,-440.25 2058.21,-445.11 2059.19,-438.18"/>
<text text-anchor="middle" x="2075.8" y="-443.8" font-family="Times,serif" font-size="14.00">flat</text>
</g>
<!-- 43 -->
<g id="node40" class="node">
<title>43</title>
<text text-anchor="middle" x="2006.46" y="-357.8" font-family="Times,serif" font-size="14.00">43 (itu,)</text>
</g>
<!-- 38&#45;&gt;43 -->
<g id="edge37" class="edge">
<title>38&#45;&gt;43</title>
<path fill="none" stroke="black" d="M2006.46,-429.6C2006.46,-418.26 2006.46,-403.23 2006.46,-390.32"/>
<polygon fill="black" stroke="black" points="2009.96,-390.1 2006.46,-380.1 2002.96,-390.1 2009.96,-390.1"/>
<text text-anchor="middle" x="2015.01" y="-400.8" font-family="Times,serif" font-size="14.00">det</text>
</g>
<!-- 39 -->
<g id="node41" class="node">
<title>39</title>
<text text-anchor="middle" x="2150.46" y="-357.8" font-family="Times,serif" font-size="14.00">39 (Keselamatan)</text>
</g>
<!-- 42 -->
<g id="node42" class="node">
<title>42</title>
<text text-anchor="middle" x="2150.46" y="-271.8" font-family="Times,serif" font-size="14.00">42 ((JKJR))</text>
</g>
<!-- 39&#45;&gt;42 -->
<g id="edge38" class="edge">
<title>39&#45;&gt;42</title>
<path fill="none" stroke="black" d="M2150.46,-343.6C2150.46,-332.26 2150.46,-317.23 2150.46,-304.32"/>
<polygon fill="black" stroke="black" points="2153.96,-304.1 2150.46,-294.1 2146.96,-304.1 2153.96,-304.1"/>
<text text-anchor="middle" x="2166.01" y="-314.8" font-family="Times,serif" font-size="14.00">punct</text>
</g>
<!-- 40 -->
<g id="node43" class="node">
<title>40</title>
<text text-anchor="middle" x="2150.46" y="-443.8" font-family="Times,serif" font-size="14.00">40 (Jalan)</text>
</g>
<!-- 40&#45;&gt;39 -->
<g id="edge39" class="edge">
<title>40&#45;&gt;39</title>
<path fill="none" stroke="black" d="M2150.46,-429.6C2150.46,-418.26 2150.46,-403.23 2150.46,-390.32"/>
<polygon fill="black" stroke="black" points="2153.96,-390.1 2150.46,-380.1 2146.96,-390.1 2153.96,-390.1"/>
<text text-anchor="middle" x="2159.4" y="-400.8" font-family="Times,serif" font-size="14.00">flat</text>
</g>
<!-- 40&#45;&gt;40 -->
<g id="edge40" class="edge">
<title>40&#45;&gt;40</title>
<path fill="none" stroke="black" d="M2186.15,-455.84C2196.37,-455.54 2204.25,-452.92 2204.25,-448 2204.25,-444.92 2201.17,-442.75 2196.37,-441.48"/>
<polygon fill="black" stroke="black" points="2196.52,-437.97 2186.15,-440.16 2195.62,-444.91 2196.52,-437.97"/>
<text text-anchor="middle" x="2213.2" y="-443.8" font-family="Times,serif" font-size="14.00">flat</text>
</g>
<!-- 41 -->
<g id="node44" class="node">
<title>41</title>
<text text-anchor="middle" x="2275.46" y="-443.8" font-family="Times,serif" font-size="14.00">41 (Raya)</text>
</g>
<!-- 41&#45;&gt;41 -->
<g id="edge41" class="edge">
<title>41&#45;&gt;41</title>
<path fill="none" stroke="black" d="M2311.15,-455.84C2321.37,-455.54 2329.25,-452.92 2329.25,-448 2329.25,-444.92 2326.17,-442.75 2321.37,-441.48"/>
<polygon fill="black" stroke="black" points="2321.52,-437.97 2311.15,-440.16 2320.62,-444.91 2321.52,-437.97"/>
<text text-anchor="middle" x="2338.2" y="-443.8" font-family="Times,serif" font-size="14.00">flat</text>
</g>
<!-- 44 -->
<g id="node45" class="node">
<title>44</title>
<text text-anchor="middle" x="446.46" y="-357.8" font-family="Times,serif" font-size="14.00">44 (Dr)</text>
</g>
<!-- 45 -->
<g id="node46" class="node">
<title>45</title>
<text text-anchor="middle" x="446.46" y="-271.8" font-family="Times,serif" font-size="14.00">45 (Mahathir)</text>
</g>
<!-- 44&#45;&gt;45 -->
<g id="edge42" class="edge">
<title>44&#45;&gt;45</title>
<path fill="none" stroke="black" d="M446.46,-343.6C446.46,-332.26 446.46,-317.23 446.46,-304.32"/>
<polygon fill="black" stroke="black" points="449.96,-304.1 446.46,-294.1 442.96,-304.1 449.96,-304.1"/>
<text text-anchor="middle" x="455.4" y="-314.8" font-family="Times,serif" font-size="14.00">flat</text>
</g>
<!-- 46 -->
<g id="node47" class="node">
<title>46</title>
<text text-anchor="middle" x="545.46" y="-357.8" font-family="Times,serif" font-size="14.00">46 (menasihati)</text>
</g>
<!-- 47 -->
<g id="node48" class="node">
<title>47</title>
<text text-anchor="middle" x="657.46" y="-357.8" font-family="Times,serif" font-size="14.00">47 (mereka)</text>
</g>
<!-- 48 -->
<g id="node49" class="node">
<title>48</title>
<text text-anchor="middle" x="2186.46" y="-99.8" font-family="Times,serif" font-size="14.00">48 (supaya)</text>
</g>
<!-- 49 -->
<g id="node50" class="node">
<title>49</title>
<text text-anchor="middle" x="446.46" y="-443.8" font-family="Times,serif" font-size="14.00">49 (berhenti)</text>
</g>
<!-- 49&#45;&gt;1 -->
<g id="edge43" class="edge">
<title>49&#45;&gt;1</title>
<path fill="none" stroke="black" d="M402.2,-434.53C384.02,-428.7 363.02,-421.04 344.93,-412 330.35,-404.72 315.27,-394.94 302.67,-386.03"/>
<polygon fill="black" stroke="black" points="304.53,-383.06 294.37,-380.05 300.43,-388.74 304.53,-383.06"/>
<text text-anchor="middle" x="370.72" y="-400.8" font-family="Times,serif" font-size="14.00">parataxis</text>
</g>
<!-- 49&#45;&gt;35 -->
<g id="edge45" class="edge">
<title>49&#45;&gt;35</title>
<path fill="none" stroke="black" d="M429.05,-429.6C416.81,-417.35 400.26,-400.8 386.72,-387.26"/>
<polygon fill="black" stroke="black" points="389.1,-384.69 379.55,-380.1 384.15,-389.64 389.1,-384.69"/>
<text text-anchor="middle" x="419.4" y="-400.8" font-family="Times,serif" font-size="14.00">obl</text>
</g>
<!-- 49&#45;&gt;44 -->
<g id="edge46" class="edge">
<title>49&#45;&gt;44</title>
<path fill="none" stroke="black" d="M446.46,-429.6C446.46,-418.26 446.46,-403.23 446.46,-390.32"/>
<polygon fill="black" stroke="black" points="449.96,-390.1 446.46,-380.1 442.96,-390.1 449.96,-390.1"/>
<text text-anchor="middle" x="461.63" y="-400.8" font-family="Times,serif" font-size="14.00">nsubj</text>
</g>
<!-- 49&#45;&gt;46 -->
<g id="edge44" class="edge">
<title>49&#45;&gt;46</title>
<path fill="none" stroke="black" d="M466.97,-429.6C481.54,-417.24 501.27,-400.49 517.31,-386.88"/>
<polygon fill="black" stroke="black" points="519.95,-389.23 525.31,-380.1 515.42,-383.9 519.95,-389.23"/>
<text text-anchor="middle" x="527.72" y="-400.8" font-family="Times,serif" font-size="14.00">parataxis</text>
</g>
<!-- 49&#45;&gt;47 -->
<g id="edge47" class="edge">
<title>49&#45;&gt;47</title>
<path fill="none" stroke="black" d="M490.75,-434.7C511.29,-428.57 535.88,-420.63 557.46,-412 577.33,-404.05 598.71,-393.81 616.59,-384.75"/>
<polygon fill="black" stroke="black" points="618.28,-387.82 625.59,-380.14 615.09,-381.59 618.28,-387.82"/>
<text text-anchor="middle" x="597.4" y="-400.8" font-family="Times,serif" font-size="14.00">obj</text>
</g>
<!-- 49&#45;&gt;49 -->
<g id="edge48" class="edge">
<title>49&#45;&gt;49</title>
<path fill="none" stroke="black" d="M490.73,-455.72C501.13,-455.08 508.8,-452.51 508.8,-448 508.8,-445.11 505.65,-443.01 500.66,-441.72"/>
<polygon fill="black" stroke="black" points="501.13,-438.25 490.73,-440.28 500.12,-445.18 501.13,-438.25"/>
<text text-anchor="middle" x="527.86" y="-443.8" font-family="Times,serif" font-size="14.00">xcomp</text>
</g>
<!-- 50 -->
<g id="node51" class="node">
<title>50</title>
<text text-anchor="middle" x="2287.46" y="-99.8" font-family="Times,serif" font-size="14.00">50 (berehat)</text>
</g>
<!-- 51 -->
<g id="node52" class="node">
<title>51</title>
<text text-anchor="middle" x="2287.46" y="-185.8" font-family="Times,serif" font-size="14.00">51 (dan)</text>
</g>
<!-- 51&#45;&gt;48 -->
<g id="edge49" class="edge">
<title>51&#45;&gt;48</title>
<path fill="none" stroke="black" d="M2266.53,-171.6C2251.53,-159.12 2231.17,-142.18 2214.73,-128.51"/>
<polygon fill="black" stroke="black" points="2216.94,-125.8 2207.01,-122.1 2212.46,-131.18 2216.94,-125.8"/>
<text text-anchor="middle" x="2255.5" y="-142.8" font-family="Times,serif" font-size="14.00">case</text>
</g>
<!-- 51&#45;&gt;50 -->
<g id="edge50" class="edge">
<title>51&#45;&gt;50</title>
<path fill="none" stroke="black" d="M2287.46,-171.6C2287.46,-160.26 2287.46,-145.23 2287.46,-132.32"/>
<polygon fill="black" stroke="black" points="2290.96,-132.1 2287.46,-122.1 2283.96,-132.1 2290.96,-132.1"/>
<text text-anchor="middle" x="2306.51" y="-142.8" font-family="Times,serif" font-size="14.00">xcomp</text>
</g>
<!-- 52 -->
<g id="node53" class="node">
<title>52</title>
<text text-anchor="middle" x="2382.46" y="-99.8" font-family="Times,serif" font-size="14.00">52 (tidur)</text>
</g>
<!-- 51&#45;&gt;52 -->
<g id="edge51" class="edge">
<title>51&#45;&gt;52</title>
<path fill="none" stroke="black" d="M2308.57,-171.76C2315.31,-166.17 2322.75,-159.89 2329.46,-154 2338.54,-146.02 2348.31,-137.1 2356.95,-129.08"/>
<polygon fill="black" stroke="black" points="2359.59,-131.4 2364.52,-122.02 2354.82,-126.28 2359.59,-131.4"/>
<text text-anchor="middle" x="2356.51" y="-142.8" font-family="Times,serif" font-size="14.00">conj</text>
</g>
<!-- 53 -->
<g id="node54" class="node">
<title>53</title>
<text text-anchor="middle" x="2381.46" y="-185.8" font-family="Times,serif" font-size="14.00">53 (sebentar)</text>
</g>
<!-- 54 -->
<g id="node55" class="node">
<title>54</title>
<text text-anchor="middle" x="2349.46" y="-357.8" font-family="Times,serif" font-size="14.00">54 (sekiranya)</text>
</g>
<!-- 55 -->
<g id="node56" class="node">
<title>55</title>
<text text-anchor="middle" x="2349.46" y="-271.8" font-family="Times,serif" font-size="14.00">55 (mengantuk)</text>
</g>
<!-- 54&#45;&gt;55 -->
<g id="edge52" class="edge">
<title>54&#45;&gt;55</title>
<path fill="none" stroke="black" d="M2349.46,-343.6C2349.46,-332.26 2349.46,-317.23 2349.46,-304.32"/>
<polygon fill="black" stroke="black" points="2352.96,-304.1 2349.46,-294.1 2345.96,-304.1 2352.96,-304.1"/>
<text text-anchor="middle" x="2368.12" y="-314.8" font-family="Times,serif" font-size="14.00">ccomp</text>
</g>
<!-- 55&#45;&gt;51 -->
<g id="edge53" class="edge">
<title>55&#45;&gt;51</title>
<path fill="none" stroke="black" d="M2336.61,-257.6C2327.82,-245.69 2316.03,-229.71 2306.2,-216.4"/>
<polygon fill="black" stroke="black" points="2308.83,-214.06 2300.07,-208.1 2303.2,-218.22 2308.83,-214.06"/>
<text text-anchor="middle" x="2328.67" y="-228.8" font-family="Times,serif" font-size="14.00">cc</text>
</g>
<!-- 55&#45;&gt;53 -->
<g id="edge54" class="edge">
<title>55&#45;&gt;53</title>
<path fill="none" stroke="black" d="M2356.09,-257.6C2360.49,-246.03 2366.36,-230.62 2371.35,-217.54"/>
<polygon fill="black" stroke="black" points="2374.66,-218.69 2374.94,-208.1 2368.11,-216.19 2374.66,-218.69"/>
<text text-anchor="middle" x="2390.01" y="-228.8" font-family="Times,serif" font-size="14.00">advmod</text>
</g>
<!-- 56 -->
<g id="node57" class="node">
<title>56</title>
<text text-anchor="middle" x="2454.46" y="-357.8" font-family="Times,serif" font-size="14.00">56 (ketika)</text>
</g>
<!-- 57 -->
<g id="node58" class="node">
<title>57</title>
<text text-anchor="middle" x="2415.46" y="-443.8" font-family="Times,serif" font-size="14.00">57 (memandu.)</text>
</g>
<!-- 57&#45;&gt;54 -->
<g id="edge55" class="edge">
<title>57&#45;&gt;54</title>
<path fill="none" stroke="black" d="M2401.78,-429.6C2392.34,-417.58 2379.64,-401.41 2369.11,-388.02"/>
<polygon fill="black" stroke="black" points="2371.82,-385.8 2362.89,-380.1 2366.32,-390.12 2371.82,-385.8"/>
<text text-anchor="middle" x="2400.84" y="-400.8" font-family="Times,serif" font-size="14.00">mark</text>
</g>
<!-- 57&#45;&gt;56 -->
<g id="edge56" class="edge">
<title>57&#45;&gt;56</title>
<path fill="none" stroke="black" d="M2423.54,-429.6C2428.91,-418.03 2436.06,-402.62 2442.13,-389.54"/>
<polygon fill="black" stroke="black" points="2445.48,-390.64 2446.52,-380.1 2439.13,-387.69 2445.48,-390.64"/>
<text text-anchor="middle" x="2451.84" y="-400.8" font-family="Times,serif" font-size="14.00">mark</text>
</g>
<!-- 57&#45;&gt;57 -->
<g id="edge57" class="edge">
<title>57&#45;&gt;57</title>
<path fill="none" stroke="black" d="M2466.14,-455.6C2476.66,-454.8 2484.22,-452.27 2484.22,-448 2484.22,-445.27 2481.12,-443.25 2476.12,-441.94"/>
<polygon fill="black" stroke="black" points="2476.55,-438.46 2466.14,-440.4 2475.49,-445.38 2476.55,-438.46"/>
<text text-anchor="middle" x="2496.27" y="-443.8" font-family="Times,serif" font-size="14.00">conj</text>
</g>
</g>
</svg>
