<?xml version="1.0" encoding="UTF-8" standalone="no"?>
<!DOCTYPE svg PUBLIC "-//W3C//DTD SVG 1.1//EN"
 "http://www.w3.org/Graphics/SVG/1.1/DTD/svg11.dtd">
<!-- Generated by graphviz version 2.40.1 (20161225.0304)
 -->
<!-- Title: G Pages: 1 -->
<svg width="3101pt" height="560pt"
 viewBox="0.00 0.00 3101.42 560.00" xmlns="http://www.w3.org/2000/svg" xmlns:xlink="http://www.w3.org/1999/xlink">
<g id="graph0" class="graph" transform="scale(1 1) rotate(0) translate(4 556)">
<title>G</title>
<polygon fill="#ffffff" stroke="transparent" points="-4,4 -4,-556 3097.4209,-556 3097.4209,4 -4,4"/>
<!-- 0 -->
<g id="node1" class="node">
<title>0</title>
<text text-anchor="middle" x="52.9053" y="-529.8" font-family="Times,serif" font-size="14.00" fill="#000000">0 (None)</text>
</g>
<!-- 21 -->
<g id="node2" class="node">
<title>21</title>
<text text-anchor="middle" x="52.9053" y="-443.8" font-family="Times,serif" font-size="14.00" fill="#000000">21 (menitipkan)</text>
</g>
<!-- 0&#45;&gt;21 -->
<g id="edge1" class="edge">
<title>0&#45;&gt;21</title>
<path fill="none" stroke="#000000" d="M52.9053,-515.7616C52.9053,-504.3597 52.9053,-489.4342 52.9053,-476.494"/>
<polygon fill="#000000" stroke="#000000" points="56.4054,-476.2121 52.9053,-466.2121 49.4054,-476.2121 56.4054,-476.2121"/>
<text text-anchor="middle" x="64.1812" y="-486.8" font-family="Times,serif" font-size="14.00" fill="#000000">root</text>
</g>
<!-- 1 -->
<g id="node3" class="node">
<title>1</title>
<text text-anchor="middle" x="158.9053" y="-443.8" font-family="Times,serif" font-size="14.00" fill="#000000">1 (Kuala)</text>
</g>
<!-- 2 -->
<g id="node4" class="node">
<title>2</title>
<text text-anchor="middle" x="54.9053" y="-357.8" font-family="Times,serif" font-size="14.00" fill="#000000">2 (Lumpur:)</text>
</g>
<!-- 1&#45;&gt;2 -->
<g id="edge2" class="edge">
<title>1&#45;&gt;2</title>
<path fill="none" stroke="#000000" d="M137.1035,-429.9716C121.8498,-417.358 101.2908,-400.3573 84.5499,-386.5139"/>
<polygon fill="#000000" stroke="#000000" points="86.6153,-383.6801 76.6784,-380.0047 82.1544,-389.0746 86.6153,-383.6801"/>
<text text-anchor="middle" x="122.8501" y="-400.8" font-family="Times,serif" font-size="14.00" fill="#000000">flat</text>
</g>
<!-- 3 -->
<g id="node5" class="node">
<title>3</title>
<text text-anchor="middle" x="158.9053" y="-357.8" font-family="Times,serif" font-size="14.00" fill="#000000">3 (Sempena)</text>
</g>
<!-- 1&#45;&gt;3 -->
<g id="edge3" class="edge">
<title>1&#45;&gt;3</title>
<path fill="none" stroke="#000000" d="M158.9053,-429.7616C158.9053,-418.3597 158.9053,-403.4342 158.9053,-390.494"/>
<polygon fill="#000000" stroke="#000000" points="162.4054,-390.2121 158.9053,-380.2121 155.4054,-390.2121 162.4054,-390.2121"/>
<text text-anchor="middle" x="184.1709" y="-400.8" font-family="Times,serif" font-size="14.00" fill="#000000">parataxis</text>
</g>
<!-- 4 -->
<g id="node6" class="node">
<title>4</title>
<text text-anchor="middle" x="569.9053" y="-529.8" font-family="Times,serif" font-size="14.00" fill="#000000">4 (sambutan)</text>
</g>
<!-- 4&#45;&gt;4 -->
<g id="edge4" class="edge">
<title>4&#45;&gt;4</title>
<path fill="none" stroke="#000000" d="M614.7397,-541.7015C625.0623,-541.0379 632.645,-538.4707 632.645,-534 632.645,-531.2058 629.683,-529.1552 624.9414,-527.8481"/>
<polygon fill="#000000" stroke="#000000" points="625.152,-524.3401 614.7397,-526.2985 624.1007,-531.2607 625.152,-524.3401"/>
<text text-anchor="middle" x="641.5898" y="-529.8" font-family="Times,serif" font-size="14.00" fill="#000000">obj</text>
</g>
<!-- 6 -->
<g id="node7" class="node">
<title>6</title>
<text text-anchor="middle" x="569.9053" y="-443.8" font-family="Times,serif" font-size="14.00" fill="#000000">6 (minggu)</text>
</g>
<!-- 4&#45;&gt;6 -->
<g id="edge5" class="edge">
<title>4&#45;&gt;6</title>
<path fill="none" stroke="#000000" d="M569.9053,-515.7616C569.9053,-504.3597 569.9053,-489.4342 569.9053,-476.494"/>
<polygon fill="#000000" stroke="#000000" points="573.4054,-476.2121 569.9053,-466.2121 566.4054,-476.2121 573.4054,-476.2121"/>
<text text-anchor="middle" x="599.457" y="-486.8" font-family="Times,serif" font-size="14.00" fill="#000000">compound</text>
</g>
<!-- 5 -->
<g id="node8" class="node">
<title>5</title>
<text text-anchor="middle" x="709.9053" y="-529.8" font-family="Times,serif" font-size="14.00" fill="#000000">5 (Aidilfitri)</text>
</g>
<!-- 5&#45;&gt;5 -->
<g id="edge6" class="edge">
<title>5&#45;&gt;5</title>
<path fill="none" stroke="#000000" d="M752.2522,-541.752C762.6115,-541.1777 770.3208,-538.5938 770.3208,-534 770.3208,-531.0571 767.1569,-528.9391 762.1593,-527.6458"/>
<polygon fill="#000000" stroke="#000000" points="762.6431,-524.1795 752.2522,-526.248 761.6651,-531.1109 762.6431,-524.1795"/>
<text text-anchor="middle" x="799.8726" y="-529.8" font-family="Times,serif" font-size="14.00" fill="#000000">compound</text>
</g>
<!-- 7 -->
<g id="node9" class="node">
<title>7</title>
<text text-anchor="middle" x="883.9053" y="-529.8" font-family="Times,serif" font-size="14.00" fill="#000000">7 (depan,)</text>
</g>
<!-- 7&#45;&gt;7 -->
<g id="edge7" class="edge">
<title>7&#45;&gt;7</title>
<path fill="none" stroke="#000000" d="M920.2439,-541.8361C930.4482,-541.4929 938.2813,-538.8809 938.2813,-534 938.2813,-530.9495 935.2215,-528.7852 930.4353,-527.5072"/>
<polygon fill="#000000" stroke="#000000" points="930.6155,-524.0007 920.2439,-526.1639 929.7007,-530.9407 930.6155,-524.0007"/>
<text text-anchor="middle" x="953.833" y="-529.8" font-family="Times,serif" font-size="14.00" fill="#000000">amod</text>
</g>
<!-- 8 -->
<g id="node10" class="node">
<title>8</title>
<text text-anchor="middle" x="257.9053" y="-443.8" font-family="Times,serif" font-size="14.00" fill="#000000">8 (Perdana)</text>
</g>
<!-- 15 -->
<g id="node11" class="node">
<title>15</title>
<text text-anchor="middle" x="263.9053" y="-357.8" font-family="Times,serif" font-size="14.00" fill="#000000">15 (Menteri)</text>
</g>
<!-- 8&#45;&gt;15 -->
<g id="edge8" class="edge">
<title>8&#45;&gt;15</title>
<path fill="none" stroke="#000000" d="M259.1777,-429.7616C259.9732,-418.3597 261.0145,-403.4342 261.9173,-390.494"/>
<polygon fill="#000000" stroke="#000000" points="265.4301,-390.4315 262.6347,-380.2121 258.4471,-389.9442 265.4301,-390.4315"/>
<text text-anchor="middle" x="273.957" y="-400.8" font-family="Times,serif" font-size="14.00" fill="#000000">conj</text>
</g>
<!-- 16 -->
<g id="node18" class="node">
<title>16</title>
<text text-anchor="middle" x="263.9053" y="-271.8" font-family="Times,serif" font-size="14.00" fill="#000000">16 (Pengangkutan)</text>
</g>
<!-- 15&#45;&gt;16 -->
<g id="edge14" class="edge">
<title>15&#45;&gt;16</title>
<path fill="none" stroke="#000000" d="M263.9053,-343.7616C263.9053,-332.3597 263.9053,-317.4342 263.9053,-304.494"/>
<polygon fill="#000000" stroke="#000000" points="267.4054,-304.2121 263.9053,-294.2121 260.4054,-304.2121 267.4054,-304.2121"/>
<text text-anchor="middle" x="272.8501" y="-314.8" font-family="Times,serif" font-size="14.00" fill="#000000">flat</text>
</g>
<!-- 9 -->
<g id="node12" class="node">
<title>9</title>
<text text-anchor="middle" x="1026.9053" y="-529.8" font-family="Times,serif" font-size="14.00" fill="#000000">9 (Menteri)</text>
</g>
<!-- 9&#45;&gt;9 -->
<g id="edge9" class="edge">
<title>9&#45;&gt;9</title>
<path fill="none" stroke="#000000" d="M1067.0729,-541.7808C1077.299,-541.2694 1084.9761,-538.6758 1084.9761,-534 1084.9761,-531.0776 1081.9772,-528.9686 1077.2315,-527.673"/>
<polygon fill="#000000" stroke="#000000" points="1077.4679,-524.1712 1067.0729,-526.2192 1076.4762,-531.1006 1077.4679,-524.1712"/>
<text text-anchor="middle" x="1093.9209" y="-529.8" font-family="Times,serif" font-size="14.00" fill="#000000">flat</text>
</g>
<!-- 10 -->
<g id="node13" class="node">
<title>10</title>
<text text-anchor="middle" x="1152.9053" y="-529.8" font-family="Times,serif" font-size="14.00" fill="#000000">10 (Tun)</text>
</g>
<!-- 10&#45;&gt;10 -->
<g id="edge10" class="edge">
<title>10&#45;&gt;10</title>
<path fill="none" stroke="#000000" d="M1185.4125,-541.8673C1195.4603,-541.7084 1203.3506,-539.0859 1203.3506,-534 1203.3506,-530.8213 1200.2684,-528.6049 1195.5038,-527.3508"/>
<polygon fill="#000000" stroke="#000000" points="1195.7599,-523.8564 1185.4125,-526.1327 1194.921,-530.8059 1195.7599,-523.8564"/>
<text text-anchor="middle" x="1212.2954" y="-529.8" font-family="Times,serif" font-size="14.00" fill="#000000">flat</text>
</g>
<!-- 11 -->
<g id="node14" class="node">
<title>11</title>
<text text-anchor="middle" x="1152.9053" y="-443.8" font-family="Times,serif" font-size="14.00" fill="#000000">11 (Dr)</text>
</g>
<!-- 10&#45;&gt;11 -->
<g id="edge11" class="edge">
<title>10&#45;&gt;11</title>
<path fill="none" stroke="#000000" d="M1152.9053,-515.7616C1152.9053,-504.3597 1152.9053,-489.4342 1152.9053,-476.494"/>
<polygon fill="#000000" stroke="#000000" points="1156.4054,-476.2121 1152.9053,-466.2121 1149.4054,-476.2121 1156.4054,-476.2121"/>
<text text-anchor="middle" x="1161.8501" y="-486.8" font-family="Times,serif" font-size="14.00" fill="#000000">flat</text>
</g>
<!-- 12 -->
<g id="node15" class="node">
<title>12</title>
<text text-anchor="middle" x="1152.9053" y="-357.8" font-family="Times,serif" font-size="14.00" fill="#000000">12 (Mahathir)</text>
</g>
<!-- 11&#45;&gt;12 -->
<g id="edge12" class="edge">
<title>11&#45;&gt;12</title>
<path fill="none" stroke="#000000" d="M1152.9053,-429.7616C1152.9053,-418.3597 1152.9053,-403.4342 1152.9053,-390.494"/>
<polygon fill="#000000" stroke="#000000" points="1156.4054,-390.2121 1152.9053,-380.2121 1149.4054,-390.2121 1156.4054,-390.2121"/>
<text text-anchor="middle" x="1161.8501" y="-400.8" font-family="Times,serif" font-size="14.00" fill="#000000">flat</text>
</g>
<!-- 13 -->
<g id="node16" class="node">
<title>13</title>
<text text-anchor="middle" x="1152.9053" y="-271.8" font-family="Times,serif" font-size="14.00" fill="#000000">13 (Mohamad)</text>
</g>
<!-- 12&#45;&gt;13 -->
<g id="edge13" class="edge">
<title>12&#45;&gt;13</title>
<path fill="none" stroke="#000000" d="M1152.9053,-343.7616C1152.9053,-332.3597 1152.9053,-317.4342 1152.9053,-304.494"/>
<polygon fill="#000000" stroke="#000000" points="1156.4054,-304.2121 1152.9053,-294.2121 1149.4054,-304.2121 1156.4054,-304.2121"/>
<text text-anchor="middle" x="1161.8501" y="-314.8" font-family="Times,serif" font-size="14.00" fill="#000000">flat</text>
</g>
<!-- 14 -->
<g id="node17" class="node">
<title>14</title>
<text text-anchor="middle" x="216.9053" y="-185.8" font-family="Times,serif" font-size="14.00" fill="#000000">14 (dan)</text>
</g>
<!-- 16&#45;&gt;14 -->
<g id="edge15" class="edge">
<title>16&#45;&gt;14</title>
<path fill="none" stroke="#000000" d="M253.9378,-257.7616C247.5195,-246.0176 239.0584,-230.5355 231.8441,-217.3349"/>
<polygon fill="#000000" stroke="#000000" points="234.7254,-215.3087 226.8584,-208.2121 228.5828,-218.6657 234.7254,-215.3087"/>
<text text-anchor="middle" x="250.1191" y="-228.8" font-family="Times,serif" font-size="14.00" fill="#000000">cc</text>
</g>
<!-- 17 -->
<g id="node19" class="node">
<title>17</title>
<text text-anchor="middle" x="311.9053" y="-185.8" font-family="Times,serif" font-size="14.00" fill="#000000">17 (Anthony)</text>
</g>
<!-- 16&#45;&gt;17 -->
<g id="edge16" class="edge">
<title>16&#45;&gt;17</title>
<path fill="none" stroke="#000000" d="M274.0848,-257.7616C280.7033,-245.9036 289.4488,-230.2345 296.8628,-216.951"/>
<polygon fill="#000000" stroke="#000000" points="299.9229,-218.6499 301.7404,-208.2121 293.8105,-215.2383 299.9229,-218.6499"/>
<text text-anchor="middle" x="299.8501" y="-228.8" font-family="Times,serif" font-size="14.00" fill="#000000">flat</text>
</g>
<!-- 18 -->
<g id="node20" class="node">
<title>18</title>
<text text-anchor="middle" x="311.9053" y="-99.8" font-family="Times,serif" font-size="14.00" fill="#000000">18 (Loke)</text>
</g>
<!-- 17&#45;&gt;18 -->
<g id="edge17" class="edge">
<title>17&#45;&gt;18</title>
<path fill="none" stroke="#000000" d="M311.9053,-171.7616C311.9053,-160.3597 311.9053,-145.4342 311.9053,-132.494"/>
<polygon fill="#000000" stroke="#000000" points="315.4054,-132.2121 311.9053,-122.2121 308.4054,-132.2121 315.4054,-132.2121"/>
<text text-anchor="middle" x="320.8501" y="-142.8" font-family="Times,serif" font-size="14.00" fill="#000000">flat</text>
</g>
<!-- 19 -->
<g id="node21" class="node">
<title>19</title>
<text text-anchor="middle" x="267.9053" y="-13.8" font-family="Times,serif" font-size="14.00" fill="#000000">19 (Siew)</text>
</g>
<!-- 18&#45;&gt;19 -->
<g id="edge18" class="edge">
<title>18&#45;&gt;19</title>
<path fill="none" stroke="#000000" d="M302.574,-85.7616C296.5654,-74.0176 288.6444,-58.5355 281.8906,-45.3349"/>
<polygon fill="#000000" stroke="#000000" points="284.8938,-43.5204 277.2231,-36.2121 278.662,-46.7088 284.8938,-43.5204"/>
<text text-anchor="middle" x="301.8501" y="-56.8" font-family="Times,serif" font-size="14.00" fill="#000000">flat</text>
</g>
<!-- 20 -->
<g id="node22" class="node">
<title>20</title>
<text text-anchor="middle" x="356.9053" y="-13.8" font-family="Times,serif" font-size="14.00" fill="#000000">20 (Fook)</text>
</g>
<!-- 18&#45;&gt;20 -->
<g id="edge19" class="edge">
<title>18&#45;&gt;20</title>
<path fill="none" stroke="#000000" d="M321.4486,-85.7616C327.5937,-74.0176 335.6949,-58.5355 342.6021,-45.3349"/>
<polygon fill="#000000" stroke="#000000" points="345.8405,-46.6951 347.3757,-36.2121 339.6383,-43.4497 345.8405,-46.6951"/>
<text text-anchor="middle" x="346.8501" y="-56.8" font-family="Times,serif" font-size="14.00" fill="#000000">flat</text>
</g>
<!-- 22 -->
<g id="node23" class="node">
<title>22</title>
<text text-anchor="middle" x="305.9053" y="-529.8" font-family="Times,serif" font-size="14.00" fill="#000000">22 (pesanan)</text>
</g>
<!-- 22&#45;&gt;1 -->
<g id="edge20" class="edge">
<title>22&#45;&gt;1</title>
<path fill="none" stroke="#000000" d="M275.0893,-515.9716C252.8428,-502.9566 222.6126,-485.271 198.565,-471.2023"/>
<polygon fill="#000000" stroke="#000000" points="200.0795,-468.0334 189.6807,-466.0047 196.5447,-474.0754 200.0795,-468.0334"/>
<text text-anchor="middle" x="257.0742" y="-486.8" font-family="Times,serif" font-size="14.00" fill="#000000">nsubj</text>
</g>
<!-- 22&#45;&gt;8 -->
<g id="edge21" class="edge">
<title>22&#45;&gt;8</title>
<path fill="none" stroke="#000000" d="M295.7257,-515.7616C289.1073,-503.9036 280.3617,-488.2345 272.9477,-474.951"/>
<polygon fill="#000000" stroke="#000000" points="276.0001,-473.2383 268.0702,-466.2121 269.8877,-476.6499 276.0001,-473.2383"/>
<text text-anchor="middle" x="300.0742" y="-486.8" font-family="Times,serif" font-size="14.00" fill="#000000">nsubj</text>
</g>
<!-- 22&#45;&gt;22 -->
<g id="edge22" class="edge">
<title>22&#45;&gt;22</title>
<path fill="none" stroke="#000000" d="M349.8992,-541.7193C360.2362,-541.0848 367.8623,-538.5117 367.8623,-534 367.8623,-531.1802 364.8833,-529.1176 360.1254,-527.8124"/>
<polygon fill="#000000" stroke="#000000" points="360.3073,-524.3006 349.8992,-526.2807 359.2704,-531.2234 360.3073,-524.3006"/>
<text text-anchor="middle" x="376.8071" y="-529.8" font-family="Times,serif" font-size="14.00" fill="#000000">obj</text>
</g>
<!-- 25 -->
<g id="node24" class="node">
<title>25</title>
<text text-anchor="middle" x="353.9053" y="-443.8" font-family="Times,serif" font-size="14.00" fill="#000000">25 (orang)</text>
</g>
<!-- 22&#45;&gt;25 -->
<g id="edge23" class="edge">
<title>22&#45;&gt;25</title>
<path fill="none" stroke="#000000" d="M316.0848,-515.7616C322.7033,-503.9036 331.4488,-488.2345 338.8628,-474.951"/>
<polygon fill="#000000" stroke="#000000" points="341.9229,-476.6499 343.7404,-466.2121 335.8105,-473.2383 341.9229,-476.6499"/>
<text text-anchor="middle" x="348.8501" y="-486.8" font-family="Times,serif" font-size="14.00" fill="#000000">nmod</text>
</g>
<!-- 46 -->
<g id="node25" class="node">
<title>46</title>
<text text-anchor="middle" x="460.9053" y="-443.8" font-family="Times,serif" font-size="14.00" fill="#000000">46 (menasihati)</text>
</g>
<!-- 22&#45;&gt;46 -->
<g id="edge24" class="edge">
<title>22&#45;&gt;46</title>
<path fill="none" stroke="#000000" d="M338.3984,-515.9716C361.9588,-502.8993 394.0119,-485.115 419.422,-471.0165"/>
<polygon fill="#000000" stroke="#000000" points="421.4088,-473.9169 428.455,-466.0047 418.0126,-467.7959 421.4088,-473.9169"/>
<text text-anchor="middle" x="403.0122" y="-486.8" font-family="Times,serif" font-size="14.00" fill="#000000">dep</text>
</g>
<!-- 23 -->
<g id="node26" class="node">
<title>23</title>
<text text-anchor="middle" x="1272.9053" y="-529.8" font-family="Times,serif" font-size="14.00" fill="#000000">23 (khas)</text>
</g>
<!-- 23&#45;&gt;23 -->
<g id="edge25" class="edge">
<title>23&#45;&gt;23</title>
<path fill="none" stroke="#000000" d="M1307.3223,-541.8514C1317.3676,-541.58 1325.1484,-538.9629 1325.1484,-534 1325.1484,-530.8982 1322.109,-528.7127 1317.377,-527.4435"/>
<polygon fill="#000000" stroke="#000000" points="1317.6875,-523.9547 1307.3223,-526.1486 1316.7933,-530.8973 1317.6875,-523.9547"/>
<text text-anchor="middle" x="1340.7002" y="-529.8" font-family="Times,serif" font-size="14.00" fill="#000000">amod</text>
</g>
<!-- 24 -->
<g id="node27" class="node">
<title>24</title>
<text text-anchor="middle" x="1345.9053" y="-443.8" font-family="Times,serif" font-size="14.00" fill="#000000">24 (kepada)</text>
</g>
<!-- 26 -->
<g id="node28" class="node">
<title>26</title>
<text text-anchor="middle" x="1411.9053" y="-529.8" font-family="Times,serif" font-size="14.00" fill="#000000">26 (ramai)</text>
</g>
<!-- 26&#45;&gt;24 -->
<g id="edge26" class="edge">
<title>26&#45;&gt;24</title>
<path fill="none" stroke="#000000" d="M1397.9084,-515.7616C1388.633,-503.6756 1376.3193,-487.6304 1366.0026,-474.1874"/>
<polygon fill="#000000" stroke="#000000" points="1368.7468,-472.0143 1359.882,-466.2121 1363.1936,-476.2761 1368.7468,-472.0143"/>
<text text-anchor="middle" x="1394.9502" y="-486.8" font-family="Times,serif" font-size="14.00" fill="#000000">case</text>
</g>
<!-- 26&#45;&gt;26 -->
<g id="edge27" class="edge">
<title>26&#45;&gt;26</title>
<path fill="none" stroke="#000000" d="M1449.1539,-541.8269C1459.4125,-541.4488 1467.252,-538.8398 1467.252,-534 1467.252,-530.9751 1464.1897,-528.8216 1459.3884,-527.5396"/>
<polygon fill="#000000" stroke="#000000" points="1459.5292,-524.0274 1449.1539,-526.1731 1458.6027,-530.9658 1459.5292,-524.0274"/>
<text text-anchor="middle" x="1496.8037" y="-529.8" font-family="Times,serif" font-size="14.00" fill="#000000">compound</text>
</g>
<!-- 29 -->
<g id="node29" class="node">
<title>29</title>
<text text-anchor="middle" x="1445.9053" y="-443.8" font-family="Times,serif" font-size="14.00" fill="#000000">29 (pulang)</text>
</g>
<!-- 26&#45;&gt;29 -->
<g id="edge28" class="edge">
<title>26&#45;&gt;29</title>
<path fill="none" stroke="#000000" d="M1419.1158,-515.7616C1423.7137,-504.1316 1429.7609,-488.8357 1434.9462,-475.72"/>
<polygon fill="#000000" stroke="#000000" points="1438.2834,-476.7985 1438.7051,-466.2121 1431.7736,-474.2249 1438.2834,-476.7985"/>
<text text-anchor="middle" x="1440.064" y="-486.8" font-family="Times,serif" font-size="14.00" fill="#000000">acl</text>
</g>
<!-- 28 -->
<g id="node31" class="node">
<title>28</title>
<text text-anchor="middle" x="1396.9053" y="-357.8" font-family="Times,serif" font-size="14.00" fill="#000000">28 (mahu)</text>
</g>
<!-- 29&#45;&gt;28 -->
<g id="edge29" class="edge">
<title>29&#45;&gt;28</title>
<path fill="none" stroke="#000000" d="M1435.5136,-429.7616C1428.7573,-417.9036 1419.8296,-402.2345 1412.2611,-388.951"/>
<polygon fill="#000000" stroke="#000000" points="1415.2735,-387.1681 1407.2819,-380.2121 1409.1915,-390.6334 1415.2735,-387.1681"/>
<text text-anchor="middle" x="1447.457" y="-400.8" font-family="Times,serif" font-size="14.00" fill="#000000">advmod</text>
</g>
<!-- 31 -->
<g id="node32" class="node">
<title>31</title>
<text text-anchor="middle" x="1498.9053" y="-357.8" font-family="Times,serif" font-size="14.00" fill="#000000">31 (kampung)</text>
</g>
<!-- 29&#45;&gt;31 -->
<g id="edge30" class="edge">
<title>29&#45;&gt;31</title>
<path fill="none" stroke="#000000" d="M1461.1638,-429.8246C1465.5172,-424.268 1470.1058,-418.0287 1473.9053,-412 1478.4168,-404.8414 1482.7551,-396.7592 1486.5149,-389.213"/>
<polygon fill="#000000" stroke="#000000" points="1489.7423,-390.5781 1490.9373,-380.0509 1483.4382,-387.5352 1489.7423,-390.5781"/>
<text text-anchor="middle" x="1490.8501" y="-400.8" font-family="Times,serif" font-size="14.00" fill="#000000">obl</text>
</g>
<!-- 27 -->
<g id="node30" class="node">
<title>27</title>
<text text-anchor="middle" x="1550.9053" y="-443.8" font-family="Times,serif" font-size="14.00" fill="#000000">27 (yang)</text>
</g>
<!-- 30 -->
<g id="node33" class="node">
<title>30</title>
<text text-anchor="middle" x="1603.9053" y="-529.8" font-family="Times,serif" font-size="14.00" fill="#000000">30 (ke)</text>
</g>
<!-- 30&#45;&gt;27 -->
<g id="edge31" class="edge">
<title>30&#45;&gt;27</title>
<path fill="none" stroke="#000000" d="M1575.6282,-521.362C1566.2546,-515.6517 1556.869,-507.9213 1551.5674,-498 1548.0634,-491.4428 1546.8297,-483.6771 1546.7395,-476.2454"/>
<polygon fill="#000000" stroke="#000000" points="1550.2418,-476.2878 1547.2559,-466.1224 1543.2509,-475.9311 1550.2418,-476.2878"/>
<text text-anchor="middle" x="1567.0742" y="-486.8" font-family="Times,serif" font-size="14.00" fill="#000000">nsubj</text>
</g>
<!-- 32 -->
<g id="node34" class="node">
<title>32</title>
<text text-anchor="middle" x="1666.9053" y="-443.8" font-family="Times,serif" font-size="14.00" fill="#000000">32 (halaman)</text>
</g>
<!-- 30&#45;&gt;32 -->
<g id="edge32" class="edge">
<title>30&#45;&gt;32</title>
<path fill="none" stroke="#000000" d="M1600.0734,-515.7087C1598.9518,-505.6889 1599.2556,-493.4291 1604.8018,-484 1607.3153,-479.7267 1610.5473,-475.9122 1614.2137,-472.5171"/>
<polygon fill="#000000" stroke="#000000" points="1616.6069,-475.0859 1622.2589,-466.1245 1612.2522,-469.6053 1616.6069,-475.0859"/>
<text text-anchor="middle" x="1634.457" y="-486.8" font-family="Times,serif" font-size="14.00" fill="#000000">compound</text>
</g>
<!-- 32&#45;&gt;30 -->
<g id="edge33" class="edge">
<title>32&#45;&gt;30</title>
<path fill="none" stroke="#000000" d="M1669.7657,-466.3379C1670.4026,-476.3723 1669.5871,-488.6311 1663.9053,-498 1658.5194,-506.8809 1650.0384,-513.8452 1641.1305,-519.1826"/>
<polygon fill="#000000" stroke="#000000" points="1639.3341,-516.1745 1632.1791,-523.9884 1642.6452,-522.3419 1639.3341,-516.1745"/>
<text text-anchor="middle" x="1681.9502" y="-486.8" font-family="Times,serif" font-size="14.00" fill="#000000">case</text>
</g>
<!-- 33 -->
<g id="node35" class="node">
<title>33</title>
<text text-anchor="middle" x="1666.9053" y="-357.8" font-family="Times,serif" font-size="14.00" fill="#000000">33 (masing&#45;masing.)</text>
</g>
<!-- 32&#45;&gt;33 -->
<g id="edge34" class="edge">
<title>32&#45;&gt;33</title>
<path fill="none" stroke="#000000" d="M1666.9053,-429.7616C1666.9053,-418.3597 1666.9053,-403.4342 1666.9053,-390.494"/>
<polygon fill="#000000" stroke="#000000" points="1670.4054,-390.2121 1666.9053,-380.2121 1663.4054,-390.2121 1670.4054,-390.2121"/>
<text text-anchor="middle" x="1675.457" y="-400.8" font-family="Times,serif" font-size="14.00" fill="#000000">det</text>
</g>
<!-- 34 -->
<g id="node36" class="node">
<title>34</title>
<text text-anchor="middle" x="1769.9053" y="-443.8" font-family="Times,serif" font-size="14.00" fill="#000000">34 (Dalam)</text>
</g>
<!-- 35 -->
<g id="node37" class="node">
<title>35</title>
<text text-anchor="middle" x="2070.9053" y="-443.8" font-family="Times,serif" font-size="14.00" fill="#000000">35 (video)</text>
</g>
<!-- 36 -->
<g id="node38" class="node">
<title>36</title>
<text text-anchor="middle" x="1870.9053" y="-529.8" font-family="Times,serif" font-size="14.00" fill="#000000">36 (pendek)</text>
</g>
<!-- 36&#45;&gt;34 -->
<g id="edge35" class="edge">
<title>36&#45;&gt;34</title>
<path fill="none" stroke="#000000" d="M1849.4858,-515.7616C1834.89,-503.3335 1815.3776,-486.719 1799.3273,-473.0524"/>
<polygon fill="#000000" stroke="#000000" points="1801.1768,-470.0303 1791.2939,-466.2121 1796.6387,-475.36 1801.1768,-470.0303"/>
<text text-anchor="middle" x="1838.9502" y="-486.8" font-family="Times,serif" font-size="14.00" fill="#000000">case</text>
</g>
<!-- 36&#45;&gt;36 -->
<g id="edge36" class="edge">
<title>36&#45;&gt;36</title>
<path fill="none" stroke="#000000" d="M1912.6988,-541.752C1922.9227,-541.1777 1930.5313,-538.5938 1930.5313,-534 1930.5313,-531.1289 1927.5592,-529.0429 1922.834,-527.7419"/>
<polygon fill="#000000" stroke="#000000" points="1923.1023,-524.2437 1912.6988,-526.248 1922.0815,-531.1689 1923.1023,-524.2437"/>
<text text-anchor="middle" x="1946.083" y="-529.8" font-family="Times,serif" font-size="14.00" fill="#000000">amod</text>
</g>
<!-- 37 -->
<g id="node39" class="node">
<title>37</title>
<text text-anchor="middle" x="1870.9053" y="-443.8" font-family="Times,serif" font-size="14.00" fill="#000000">37 (terbitan)</text>
</g>
<!-- 36&#45;&gt;37 -->
<g id="edge37" class="edge">
<title>36&#45;&gt;37</title>
<path fill="none" stroke="#000000" d="M1870.9053,-515.7616C1870.9053,-504.3597 1870.9053,-489.4342 1870.9053,-476.494"/>
<polygon fill="#000000" stroke="#000000" points="1874.4054,-476.2121 1870.9053,-466.2121 1867.4054,-476.2121 1874.4054,-476.2121"/>
<text text-anchor="middle" x="1900.457" y="-486.8" font-family="Times,serif" font-size="14.00" fill="#000000">compound</text>
</g>
<!-- 38 -->
<g id="node40" class="node">
<title>38</title>
<text text-anchor="middle" x="1973.9053" y="-443.8" font-family="Times,serif" font-size="14.00" fill="#000000">38 (Jabatan)</text>
</g>
<!-- 36&#45;&gt;38 -->
<g id="edge38" class="edge">
<title>36&#45;&gt;38</title>
<path fill="none" stroke="#000000" d="M1908.1047,-515.8297C1916.9968,-510.6721 1926.1512,-504.6326 1933.9053,-498 1941.9306,-491.1354 1949.5081,-482.4801 1955.8649,-474.3085"/>
<polygon fill="#000000" stroke="#000000" points="1958.8416,-476.1716 1962.0151,-466.0631 1953.2306,-471.9862 1958.8416,-476.1716"/>
<text text-anchor="middle" x="1956.8501" y="-486.8" font-family="Times,serif" font-size="14.00" fill="#000000">flat</text>
</g>
<!-- 39 -->
<g id="node41" class="node">
<title>39</title>
<text text-anchor="middle" x="2551.9053" y="-357.8" font-family="Times,serif" font-size="14.00" fill="#000000">39 (Keselamatan)</text>
</g>
<!-- 43 -->
<g id="node42" class="node">
<title>43</title>
<text text-anchor="middle" x="2551.9053" y="-271.8" font-family="Times,serif" font-size="14.00" fill="#000000">43 (itu,)</text>
</g>
<!-- 39&#45;&gt;43 -->
<g id="edge39" class="edge">
<title>39&#45;&gt;43</title>
<path fill="none" stroke="#000000" d="M2551.9053,-343.7616C2551.9053,-332.3597 2551.9053,-317.4342 2551.9053,-304.494"/>
<polygon fill="#000000" stroke="#000000" points="2555.4054,-304.2121 2551.9053,-294.2121 2548.4054,-304.2121 2555.4054,-304.2121"/>
<text text-anchor="middle" x="2560.457" y="-314.8" font-family="Times,serif" font-size="14.00" fill="#000000">det</text>
</g>
<!-- 42 -->
<g id="node45" class="node">
<title>42</title>
<text text-anchor="middle" x="2551.9053" y="-185.8" font-family="Times,serif" font-size="14.00" fill="#000000">42 ((JKJR))</text>
</g>
<!-- 43&#45;&gt;42 -->
<g id="edge43" class="edge">
<title>43&#45;&gt;42</title>
<path fill="none" stroke="#000000" d="M2551.9053,-257.7616C2551.9053,-246.3597 2551.9053,-231.4342 2551.9053,-218.494"/>
<polygon fill="#000000" stroke="#000000" points="2555.4054,-218.2121 2551.9053,-208.2121 2548.4054,-218.2121 2555.4054,-218.2121"/>
<text text-anchor="middle" x="2567.457" y="-228.8" font-family="Times,serif" font-size="14.00" fill="#000000">punct</text>
</g>
<!-- 40 -->
<g id="node43" class="node">
<title>40</title>
<text text-anchor="middle" x="2551.9053" y="-443.8" font-family="Times,serif" font-size="14.00" fill="#000000">40 (Jalan)</text>
</g>
<!-- 40&#45;&gt;39 -->
<g id="edge40" class="edge">
<title>40&#45;&gt;39</title>
<path fill="none" stroke="#000000" d="M2551.9053,-429.7616C2551.9053,-418.3597 2551.9053,-403.4342 2551.9053,-390.494"/>
<polygon fill="#000000" stroke="#000000" points="2555.4054,-390.2121 2551.9053,-380.2121 2548.4054,-390.2121 2555.4054,-390.2121"/>
<text text-anchor="middle" x="2560.8501" y="-400.8" font-family="Times,serif" font-size="14.00" fill="#000000">flat</text>
</g>
<!-- 41 -->
<g id="node44" class="node">
<title>41</title>
<text text-anchor="middle" x="2551.9053" y="-529.8" font-family="Times,serif" font-size="14.00" fill="#000000">41 (Raya)</text>
</g>
<!-- 41&#45;&gt;40 -->
<g id="edge41" class="edge">
<title>41&#45;&gt;40</title>
<path fill="none" stroke="#000000" d="M2551.9053,-515.7616C2551.9053,-504.3597 2551.9053,-489.4342 2551.9053,-476.494"/>
<polygon fill="#000000" stroke="#000000" points="2555.4054,-476.2121 2551.9053,-466.2121 2548.4054,-476.2121 2555.4054,-476.2121"/>
<text text-anchor="middle" x="2560.8501" y="-486.8" font-family="Times,serif" font-size="14.00" fill="#000000">flat</text>
</g>
<!-- 41&#45;&gt;41 -->
<g id="edge42" class="edge">
<title>41&#45;&gt;41</title>
<path fill="none" stroke="#000000" d="M2587.6006,-541.8442C2597.8201,-541.5366 2605.7002,-538.9219 2605.7002,-534 2605.7002,-530.9238 2602.622,-528.7489 2597.8184,-527.4752"/>
<polygon fill="#000000" stroke="#000000" points="2597.9665,-523.9653 2587.6006,-526.1558 2597.07,-530.9077 2597.9665,-523.9653"/>
<text text-anchor="middle" x="2614.645" y="-529.8" font-family="Times,serif" font-size="14.00" fill="#000000">flat</text>
</g>
<!-- 44 -->
<g id="node46" class="node">
<title>44</title>
<text text-anchor="middle" x="2154.9053" y="-443.8" font-family="Times,serif" font-size="14.00" fill="#000000">44 (Dr)</text>
</g>
<!-- 45 -->
<g id="node47" class="node">
<title>45</title>
<text text-anchor="middle" x="2248.9053" y="-443.8" font-family="Times,serif" font-size="14.00" fill="#000000">45 (Mahathir)</text>
</g>
<!-- 47 -->
<g id="node48" class="node">
<title>47</title>
<text text-anchor="middle" x="2355.9053" y="-443.8" font-family="Times,serif" font-size="14.00" fill="#000000">47 (mereka)</text>
</g>
<!-- 48 -->
<g id="node49" class="node">
<title>48</title>
<text text-anchor="middle" x="2456.9053" y="-443.8" font-family="Times,serif" font-size="14.00" fill="#000000">48 (supaya)</text>
</g>
<!-- 49 -->
<g id="node50" class="node">
<title>49</title>
<text text-anchor="middle" x="2248.9053" y="-529.8" font-family="Times,serif" font-size="14.00" fill="#000000">49 (berhenti)</text>
</g>
<!-- 49&#45;&gt;35 -->
<g id="edge44" class="edge">
<title>49&#45;&gt;35</title>
<path fill="none" stroke="#000000" d="M2211.5906,-515.9716C2184.0861,-502.6829 2146.5031,-484.5248 2117.101,-470.3193"/>
<polygon fill="#000000" stroke="#000000" points="2118.3923,-467.0561 2107.8655,-465.8572 2115.347,-473.359 2118.3923,-467.0561"/>
<text text-anchor="middle" x="2179.8501" y="-486.8" font-family="Times,serif" font-size="14.00" fill="#000000">obl</text>
</g>
<!-- 49&#45;&gt;44 -->
<g id="edge45" class="edge">
<title>49&#45;&gt;44</title>
<path fill="none" stroke="#000000" d="M2228.9703,-515.7616C2215.3861,-503.3335 2197.2261,-486.719 2182.2881,-473.0524"/>
<polygon fill="#000000" stroke="#000000" points="2184.5522,-470.3799 2174.8115,-466.2121 2179.827,-475.5446 2184.5522,-470.3799"/>
<text text-anchor="middle" x="2223.0742" y="-486.8" font-family="Times,serif" font-size="14.00" fill="#000000">nsubj</text>
</g>
<!-- 49&#45;&gt;45 -->
<g id="edge46" class="edge">
<title>49&#45;&gt;45</title>
<path fill="none" stroke="#000000" d="M2248.9053,-515.7616C2248.9053,-504.3597 2248.9053,-489.4342 2248.9053,-476.494"/>
<polygon fill="#000000" stroke="#000000" points="2252.4054,-476.2121 2248.9053,-466.2121 2245.4054,-476.2121 2252.4054,-476.2121"/>
<text text-anchor="middle" x="2264.0742" y="-486.8" font-family="Times,serif" font-size="14.00" fill="#000000">nsubj</text>
</g>
<!-- 49&#45;&gt;47 -->
<g id="edge47" class="edge">
<title>49&#45;&gt;47</title>
<path fill="none" stroke="#000000" d="M2271.336,-515.9716C2287.0296,-503.358 2308.1817,-486.3573 2325.4055,-472.5139"/>
<polygon fill="#000000" stroke="#000000" points="2327.9023,-474.9975 2333.5041,-466.0047 2323.517,-469.5414 2327.9023,-474.9975"/>
<text text-anchor="middle" x="2317.8501" y="-486.8" font-family="Times,serif" font-size="14.00" fill="#000000">obj</text>
</g>
<!-- 49&#45;&gt;48 -->
<g id="edge48" class="edge">
<title>49&#45;&gt;48</title>
<path fill="none" stroke="#000000" d="M2292.5089,-515.9716C2325.8287,-502.1951 2371.8058,-483.1854 2406.667,-468.7716"/>
<polygon fill="#000000" stroke="#000000" points="2408.2813,-471.8916 2416.1852,-464.8362 2405.6066,-465.4227 2408.2813,-471.8916"/>
<text text-anchor="middle" x="2377.9502" y="-486.8" font-family="Times,serif" font-size="14.00" fill="#000000">case</text>
</g>
<!-- 49&#45;&gt;49 -->
<g id="edge49" class="edge">
<title>49&#45;&gt;49</title>
<path fill="none" stroke="#000000" d="M2293.1758,-541.7193C2303.5779,-541.0848 2311.252,-538.5117 2311.252,-534 2311.252,-531.1097 2308.1025,-529.015 2303.104,-527.7159"/>
<polygon fill="#000000" stroke="#000000" points="2303.5737,-524.2475 2293.1758,-526.2807 2302.5722,-531.1755 2303.5737,-524.2475"/>
<text text-anchor="middle" x="2330.3037" y="-529.8" font-family="Times,serif" font-size="14.00" fill="#000000">xcomp</text>
</g>
<!-- 50 -->
<g id="node51" class="node">
<title>50</title>
<text text-anchor="middle" x="2682.9053" y="-529.8" font-family="Times,serif" font-size="14.00" fill="#000000">50 (berehat)</text>
</g>
<!-- 50&#45;&gt;50 -->
<g id="edge50" class="edge">
<title>50&#45;&gt;50</title>
<path fill="none" stroke="#000000" d="M2724.9671,-541.752C2735.2567,-541.1777 2742.9141,-538.5938 2742.9141,-534 2742.9141,-531.1289 2739.9229,-529.0429 2735.1674,-527.7419"/>
<polygon fill="#000000" stroke="#000000" points="2735.3688,-524.2341 2724.9671,-526.248 2734.3543,-531.1603 2735.3688,-524.2341"/>
<text text-anchor="middle" x="2761.9658" y="-529.8" font-family="Times,serif" font-size="14.00" fill="#000000">xcomp</text>
</g>
<!-- 51 -->
<g id="node52" class="node">
<title>51</title>
<text text-anchor="middle" x="2830.9053" y="-529.8" font-family="Times,serif" font-size="14.00" fill="#000000">51 (dan)</text>
</g>
<!-- 52 -->
<g id="node53" class="node">
<title>52</title>
<text text-anchor="middle" x="2811.9053" y="-443.8" font-family="Times,serif" font-size="14.00" fill="#000000">52 (tidur)</text>
</g>
<!-- 51&#45;&gt;52 -->
<g id="edge51" class="edge">
<title>51&#45;&gt;52</title>
<path fill="none" stroke="#000000" d="M2813.7453,-515.9C2809.694,-510.5373 2805.9352,-504.3808 2803.8018,-498 2801.516,-491.1638 2801.5248,-483.5793 2802.5931,-476.4265"/>
<polygon fill="#000000" stroke="#000000" points="2806.07,-476.9083 2804.7725,-466.3932 2799.2295,-475.4224 2806.07,-476.9083"/>
<text text-anchor="middle" x="2815.957" y="-486.8" font-family="Times,serif" font-size="14.00" fill="#000000">conj</text>
</g>
<!-- 52&#45;&gt;51 -->
<g id="edge52" class="edge">
<title>52&#45;&gt;51</title>
<path fill="none" stroke="#000000" d="M2821.5244,-466.2363C2824.0373,-471.7946 2826.4476,-478.0195 2827.9053,-484 2829.5933,-490.9254 2830.5079,-498.542 2830.9713,-505.6972"/>
<polygon fill="#000000" stroke="#000000" points="2827.4749,-505.861 2831.3649,-515.7159 2834.4695,-505.5861 2827.4749,-505.861"/>
<text text-anchor="middle" x="2837.1191" y="-486.8" font-family="Times,serif" font-size="14.00" fill="#000000">cc</text>
</g>
<!-- 53 -->
<g id="node54" class="node">
<title>53</title>
<text text-anchor="middle" x="2811.9053" y="-357.8" font-family="Times,serif" font-size="14.00" fill="#000000">53 (sebentar)</text>
</g>
<!-- 52&#45;&gt;53 -->
<g id="edge53" class="edge">
<title>52&#45;&gt;53</title>
<path fill="none" stroke="#000000" d="M2811.9053,-429.7616C2811.9053,-418.3597 2811.9053,-403.4342 2811.9053,-390.494"/>
<polygon fill="#000000" stroke="#000000" points="2815.4054,-390.2121 2811.9053,-380.2121 2808.4054,-390.2121 2815.4054,-390.2121"/>
<text text-anchor="middle" x="2834.457" y="-400.8" font-family="Times,serif" font-size="14.00" fill="#000000">advmod</text>
</g>
<!-- 55 -->
<g id="node55" class="node">
<title>55</title>
<text text-anchor="middle" x="2811.9053" y="-271.8" font-family="Times,serif" font-size="14.00" fill="#000000">55 (mengantuk)</text>
</g>
<!-- 53&#45;&gt;55 -->
<g id="edge54" class="edge">
<title>53&#45;&gt;55</title>
<path fill="none" stroke="#000000" d="M2811.9053,-343.7616C2811.9053,-332.3597 2811.9053,-317.4342 2811.9053,-304.494"/>
<polygon fill="#000000" stroke="#000000" points="2815.4054,-304.2121 2811.9053,-294.2121 2808.4054,-304.2121 2815.4054,-304.2121"/>
<text text-anchor="middle" x="2827.064" y="-314.8" font-family="Times,serif" font-size="14.00" fill="#000000">advcl</text>
</g>
<!-- 54 -->
<g id="node56" class="node">
<title>54</title>
<text text-anchor="middle" x="2949.9053" y="-443.8" font-family="Times,serif" font-size="14.00" fill="#000000">54 (sekiranya)</text>
</g>
<!-- 56 -->
<g id="node57" class="node">
<title>56</title>
<text text-anchor="middle" x="3054.9053" y="-443.8" font-family="Times,serif" font-size="14.00" fill="#000000">56 (ketika)</text>
</g>
<!-- 57 -->
<g id="node58" class="node">
<title>57</title>
<text text-anchor="middle" x="2959.9053" y="-529.8" font-family="Times,serif" font-size="14.00" fill="#000000">57 (memandu.)</text>
</g>
<!-- 57&#45;&gt;54 -->
<g id="edge55" class="edge">
<title>57&#45;&gt;54</title>
<path fill="none" stroke="#000000" d="M2957.7845,-515.7616C2956.4587,-504.3597 2954.7232,-489.4342 2953.2185,-476.494"/>
<polygon fill="#000000" stroke="#000000" points="2956.6546,-475.7409 2952.023,-466.2121 2949.7015,-476.5495 2956.6546,-475.7409"/>
<text text-anchor="middle" x="2970.2881" y="-486.8" font-family="Times,serif" font-size="14.00" fill="#000000">mark</text>
</g>
<!-- 57&#45;&gt;56 -->
<g id="edge56" class="edge">
<title>57&#45;&gt;56</title>
<path fill="none" stroke="#000000" d="M2980.0523,-515.7616C2993.7811,-503.3335 3012.1342,-486.719 3027.2311,-473.0524"/>
<polygon fill="#000000" stroke="#000000" points="3029.7226,-475.518 3034.7873,-466.2121 3025.0248,-470.3286 3029.7226,-475.518"/>
<text text-anchor="middle" x="3028.2881" y="-486.8" font-family="Times,serif" font-size="14.00" fill="#000000">mark</text>
</g>
<!-- 57&#45;&gt;57 -->
<g id="edge57" class="edge">
<title>57&#45;&gt;57</title>
<path fill="none" stroke="#000000" d="M3010.5834,-541.5981C3021.1049,-540.7983 3028.6709,-538.2656 3028.6709,-534 3028.6709,-531.2673 3025.5658,-529.2459 3020.5678,-527.9356"/>
<polygon fill="#000000" stroke="#000000" points="3020.9989,-524.4608 3010.5834,-526.4019 3019.936,-531.3797 3020.9989,-524.4608"/>
<text text-anchor="middle" x="3043.8296" y="-529.8" font-family="Times,serif" font-size="14.00" fill="#000000">advcl</text>
</g>
</g>
</svg>
