<?xml version="1.0" encoding="UTF-8" standalone="no"?>
<!DOCTYPE svg PUBLIC "-//W3C//DTD SVG 1.1//EN"
 "http://www.w3.org/Graphics/SVG/1.1/DTD/svg11.dtd">
<!-- Generated by graphviz version 2.40.1 (20161225.0304)
 -->
<!-- Title: G Pages: 1 -->
<svg width="5035pt" height="388pt"
 viewBox="0.00 0.00 5034.71 388.00" xmlns="http://www.w3.org/2000/svg" xmlns:xlink="http://www.w3.org/1999/xlink">
<g id="graph0" class="graph" transform="scale(1 1) rotate(0) translate(4 384)">
<title>G</title>
<polygon fill="#ffffff" stroke="transparent" points="-4,4 -4,-384 5030.7104,-384 5030.7104,4 -4,4"/>
<!-- 0 -->
<g id="node1" class="node">
<title>0</title>
<text text-anchor="middle" x="1349.4673" y="-357.8" font-family="Times,serif" font-size="14.00" fill="#000000">0 (None)</text>
</g>
<!-- 1 -->
<g id="node2" class="node">
<title>1</title>
<text text-anchor="middle" x="661.4673" y="-185.8" font-family="Times,serif" font-size="14.00" fill="#000000">1 (Kuala&#45;PROPN)</text>
</g>
<!-- 2 -->
<g id="node3" class="node">
<title>2</title>
<text text-anchor="middle" x="1604.4673" y="-185.8" font-family="Times,serif" font-size="14.00" fill="#000000">2 (Lumpur&#45;PROPN)</text>
</g>
<!-- 3 -->
<g id="node4" class="node">
<title>3</title>
<text text-anchor="middle" x="68.4673" y="-271.8" font-family="Times,serif" font-size="14.00" fill="#000000">3 (Sempena&#45;PROPN)</text>
</g>
<!-- 4 -->
<g id="node5" class="node">
<title>4</title>
<text text-anchor="middle" x="2969.4673" y="-185.8" font-family="Times,serif" font-size="14.00" fill="#000000">4 (sambutan&#45;NOUN)</text>
</g>
<!-- 5 -->
<g id="node6" class="node">
<title>5</title>
<text text-anchor="middle" x="222.4673" y="-271.8" font-family="Times,serif" font-size="14.00" fill="#000000">5 (Aidilfitri&#45;PROPN)</text>
</g>
<!-- 6 -->
<g id="node7" class="node">
<title>6</title>
<text text-anchor="middle" x="1296.4673" y="-99.8" font-family="Times,serif" font-size="14.00" fill="#000000">6 (minggu&#45;NOUN)</text>
</g>
<!-- 47 -->
<g id="node8" class="node">
<title>47</title>
<text text-anchor="middle" x="1296.4673" y="-13.8" font-family="Times,serif" font-size="14.00" fill="#000000">47 (mereka&#45;PRON)</text>
</g>
<!-- 6&#45;&gt;47 -->
<g id="edge1" class="edge">
<title>6&#45;&gt;47</title>
<path fill="none" stroke="#000000" d="M1296.4673,-85.7616C1296.4673,-74.3597 1296.4673,-59.4342 1296.4673,-46.494"/>
<polygon fill="#000000" stroke="#000000" points="1299.9674,-46.2121 1296.4673,-36.2121 1292.9674,-46.2121 1299.9674,-46.2121"/>
<text text-anchor="middle" x="1299.9673" y="-56.8" font-family="Times,serif" font-size="14.00" fill="#000000">_</text>
</g>
<!-- 7 -->
<g id="node9" class="node">
<title>7</title>
<text text-anchor="middle" x="3459.4673" y="-271.8" font-family="Times,serif" font-size="14.00" fill="#000000">7 (depan&#45;ADJ)</text>
</g>
<!-- 8 -->
<g id="node10" class="node">
<title>8</title>
<text text-anchor="middle" x="373.4673" y="-271.8" font-family="Times,serif" font-size="14.00" fill="#000000">8 (Perdana&#45;PROPN)</text>
</g>
<!-- 9 -->
<g id="node11" class="node">
<title>9</title>
<text text-anchor="middle" x="521.4673" y="-271.8" font-family="Times,serif" font-size="14.00" fill="#000000">9 (Menteri&#45;PROPN)</text>
</g>
<!-- 10 -->
<g id="node12" class="node">
<title>10</title>
<text text-anchor="middle" x="661.4673" y="-271.8" font-family="Times,serif" font-size="14.00" fill="#000000">10 (Tun&#45;PROPN)</text>
</g>
<!-- 10&#45;&gt;1 -->
<g id="edge2" class="edge">
<title>10&#45;&gt;1</title>
<path fill="none" stroke="#000000" d="M661.4673,-257.7616C661.4673,-246.3597 661.4673,-231.4342 661.4673,-218.494"/>
<polygon fill="#000000" stroke="#000000" points="664.9674,-218.2121 661.4673,-208.2121 657.9674,-218.2121 664.9674,-218.2121"/>
<text text-anchor="middle" x="664.9673" y="-228.8" font-family="Times,serif" font-size="14.00" fill="#000000">_</text>
</g>
<!-- 11 -->
<g id="node13" class="node">
<title>11</title>
<text text-anchor="middle" x="993.4673" y="-185.8" font-family="Times,serif" font-size="14.00" fill="#000000">11 (Dr&#45;PROPN)</text>
</g>
<!-- 12 -->
<g id="node14" class="node">
<title>12</title>
<text text-anchor="middle" x="808.4673" y="-271.8" font-family="Times,serif" font-size="14.00" fill="#000000">12 (Mahathir&#45;PROPN)</text>
</g>
<!-- 13 -->
<g id="node15" class="node">
<title>13</title>
<text text-anchor="middle" x="973.4673" y="-271.8" font-family="Times,serif" font-size="14.00" fill="#000000">13 (Mohamad&#45;PROPN)</text>
</g>
<!-- 14 -->
<g id="node16" class="node">
<title>14</title>
<text text-anchor="middle" x="3583.4673" y="-271.8" font-family="Times,serif" font-size="14.00" fill="#000000">14 (dan&#45;CCONJ)</text>
</g>
<!-- 14&#45;&gt;4 -->
<g id="edge3" class="edge">
<title>14&#45;&gt;4</title>
<path fill="none" stroke="#000000" d="M3527.2489,-259.7168C3524.2907,-259.0843 3521.3506,-258.5057 3518.4673,-258 3416.1648,-240.0569 3388.7613,-250.8677 3285.4673,-240 3181.6872,-229.0811 3153.0073,-227.618 3047.0885,-208.2197"/>
<polygon fill="#000000" stroke="#000000" points="3047.4068,-204.7195 3036.9381,-206.3497 3046.1384,-211.6037 3047.4068,-204.7195"/>
<text text-anchor="middle" x="3288.9673" y="-228.8" font-family="Times,serif" font-size="14.00" fill="#000000">_</text>
</g>
<!-- 22 -->
<g id="node17" class="node">
<title>22</title>
<text text-anchor="middle" x="3121.4673" y="-185.8" font-family="Times,serif" font-size="14.00" fill="#000000">22 (pesanan&#45;NOUN)</text>
</g>
<!-- 14&#45;&gt;22 -->
<g id="edge4" class="edge">
<title>14&#45;&gt;22</title>
<path fill="none" stroke="#000000" d="M3527.2068,-259.9366C3524.2596,-259.2467 3521.3334,-258.5957 3518.4673,-258 3462.2208,-246.3092 3447.2571,-248.6755 3390.4673,-240 3307.2035,-227.2802 3283.7923,-225.4418 3197.9875,-208.2474"/>
<polygon fill="#000000" stroke="#000000" points="3198.5628,-204.7931 3188.0683,-206.2476 3197.1793,-211.655 3198.5628,-204.7931"/>
<text text-anchor="middle" x="3393.9673" y="-228.8" font-family="Times,serif" font-size="14.00" fill="#000000">_</text>
</g>
<!-- 25 -->
<g id="node18" class="node">
<title>25</title>
<text text-anchor="middle" x="3265.4673" y="-185.8" font-family="Times,serif" font-size="14.00" fill="#000000">25 (orang&#45;NOUN)</text>
</g>
<!-- 14&#45;&gt;25 -->
<g id="edge5" class="edge">
<title>14&#45;&gt;25</title>
<path fill="none" stroke="#000000" d="M3527.1043,-260.3637C3524.1838,-259.5623 3521.2914,-258.7705 3518.4673,-258 3456.5574,-241.1082 3386.0383,-222.1802 3335.2058,-208.5917"/>
<polygon fill="#000000" stroke="#000000" points="3335.8748,-205.1477 3325.3102,-205.9473 3334.0676,-211.9104 3335.8748,-205.1477"/>
<text text-anchor="middle" x="3452.9673" y="-228.8" font-family="Times,serif" font-size="14.00" fill="#000000">_</text>
</g>
<!-- 32 -->
<g id="node19" class="node">
<title>32</title>
<text text-anchor="middle" x="3411.4673" y="-185.8" font-family="Times,serif" font-size="14.00" fill="#000000">32 (halaman&#45;NOUN)</text>
</g>
<!-- 14&#45;&gt;32 -->
<g id="edge6" class="edge">
<title>14&#45;&gt;32</title>
<path fill="none" stroke="#000000" d="M3547.4104,-257.9716C3521.0366,-244.7846 3485.0726,-226.8027 3456.7601,-212.6464"/>
<polygon fill="#000000" stroke="#000000" points="3457.9862,-209.3464 3447.4767,-208.0047 3454.8557,-215.6074 3457.9862,-209.3464"/>
<text text-anchor="middle" x="3511.9673" y="-228.8" font-family="Times,serif" font-size="14.00" fill="#000000">_</text>
</g>
<!-- 33 -->
<g id="node20" class="node">
<title>33</title>
<text text-anchor="middle" x="3583.4673" y="-185.8" font-family="Times,serif" font-size="14.00" fill="#000000">33 (masing&#45;masing&#45;NOUN)</text>
</g>
<!-- 14&#45;&gt;33 -->
<g id="edge7" class="edge">
<title>14&#45;&gt;33</title>
<path fill="none" stroke="#000000" d="M3583.4673,-257.7616C3583.4673,-246.3597 3583.4673,-231.4342 3583.4673,-218.494"/>
<polygon fill="#000000" stroke="#000000" points="3586.9674,-218.2121 3583.4673,-208.2121 3579.9674,-218.2121 3586.9674,-218.2121"/>
<text text-anchor="middle" x="3586.9673" y="-228.8" font-family="Times,serif" font-size="14.00" fill="#000000">_</text>
</g>
<!-- 42 -->
<g id="node21" class="node">
<title>42</title>
<text text-anchor="middle" x="3744.4673" y="-185.8" font-family="Times,serif" font-size="14.00" fill="#000000">42 (Jkjr&#45;PROPN)</text>
</g>
<!-- 14&#45;&gt;42 -->
<g id="edge8" class="edge">
<title>14&#45;&gt;42</title>
<path fill="none" stroke="#000000" d="M3617.2182,-257.9716C3641.798,-244.842 3675.2767,-226.959 3701.725,-212.8313"/>
<polygon fill="#000000" stroke="#000000" points="3703.5894,-215.8035 3710.7608,-208.0047 3700.2913,-209.6291 3703.5894,-215.8035"/>
<text text-anchor="middle" x="3677.9673" y="-228.8" font-family="Times,serif" font-size="14.00" fill="#000000">_</text>
</g>
<!-- 46 -->
<g id="node22" class="node">
<title>46</title>
<text text-anchor="middle" x="3893.4673" y="-185.8" font-family="Times,serif" font-size="14.00" fill="#000000">46 (menasihati&#45;NOUN)</text>
</g>
<!-- 14&#45;&gt;46 -->
<g id="edge9" class="edge">
<title>14&#45;&gt;46</title>
<path fill="none" stroke="#000000" d="M3639.6059,-260.426C3689.7257,-246.5219 3763.5141,-226.0515 3818.637,-210.7594"/>
<polygon fill="#000000" stroke="#000000" points="3819.6545,-214.1094 3828.3549,-208.0634 3817.7832,-207.3641 3819.6545,-214.1094"/>
<text text-anchor="middle" x="3760.9673" y="-228.8" font-family="Times,serif" font-size="14.00" fill="#000000">_</text>
</g>
<!-- 50 -->
<g id="node23" class="node">
<title>50</title>
<text text-anchor="middle" x="4050.4673" y="-185.8" font-family="Times,serif" font-size="14.00" fill="#000000">50 (berehat&#45;NOUN)</text>
</g>
<!-- 14&#45;&gt;50 -->
<g id="edge10" class="edge">
<title>14&#45;&gt;50</title>
<path fill="none" stroke="#000000" d="M3639.7345,-259.9687C3642.68,-259.2705 3645.6039,-258.6089 3648.4673,-258 3701.2179,-246.783 3715.1491,-248.1002 3768.4673,-240 3857.7777,-226.4317 3883.0134,-226.1821 3975.4888,-208.1084"/>
<polygon fill="#000000" stroke="#000000" points="3976.4314,-211.49 3985.5652,-206.1212 3975.0769,-204.6223 3976.4314,-211.49"/>
<text text-anchor="middle" x="3872.9673" y="-228.8" font-family="Times,serif" font-size="14.00" fill="#000000">_</text>
</g>
<!-- 54 -->
<g id="node24" class="node">
<title>54</title>
<text text-anchor="middle" x="4203.4673" y="-185.8" font-family="Times,serif" font-size="14.00" fill="#000000">54 (sekiranya&#45;NOUN)</text>
</g>
<!-- 14&#45;&gt;54 -->
<g id="edge11" class="edge">
<title>14&#45;&gt;54</title>
<path fill="none" stroke="#000000" d="M3639.6858,-259.7179C3642.644,-259.0852 3645.584,-258.5062 3648.4673,-258 3750.3304,-240.1166 3777.6042,-250.7279 3880.4673,-240 3986.0633,-228.9871 4015.1228,-227.3701 4122.5293,-208.2825"/>
<polygon fill="#000000" stroke="#000000" points="4123.2442,-211.7103 4132.4726,-206.5058 4122.0129,-204.8195 4123.2442,-211.7103"/>
<text text-anchor="middle" x="4010.9673" y="-228.8" font-family="Times,serif" font-size="14.00" fill="#000000">_</text>
</g>
<!-- 44 -->
<g id="node52" class="node">
<title>44</title>
<text text-anchor="middle" x="4203.4673" y="-99.8" font-family="Times,serif" font-size="14.00" fill="#000000">44 (Dr&#45;PROPN)</text>
</g>
<!-- 54&#45;&gt;44 -->
<g id="edge56" class="edge">
<title>54&#45;&gt;44</title>
<path fill="none" stroke="#000000" d="M4203.4673,-171.7616C4203.4673,-160.3597 4203.4673,-145.4342 4203.4673,-132.494"/>
<polygon fill="#000000" stroke="#000000" points="4206.9674,-132.2121 4203.4673,-122.2121 4199.9674,-132.2121 4206.9674,-132.2121"/>
<text text-anchor="middle" x="4206.9673" y="-142.8" font-family="Times,serif" font-size="14.00" fill="#000000">_</text>
</g>
<!-- 15 -->
<g id="node25" class="node">
<title>15</title>
<text text-anchor="middle" x="1134.4673" y="-271.8" font-family="Times,serif" font-size="14.00" fill="#000000">15 (Menteri&#45;PROPN)</text>
</g>
<!-- 15&#45;&gt;11 -->
<g id="edge12" class="edge">
<title>15&#45;&gt;11</title>
<path fill="none" stroke="#000000" d="M1104.9091,-257.9716C1083.6646,-245.014 1054.8296,-227.4267 1031.8134,-213.3884"/>
<polygon fill="#000000" stroke="#000000" points="1033.3464,-210.2238 1022.9866,-208.0047 1029.7014,-216.1999 1033.3464,-210.2238"/>
<text text-anchor="middle" x="1075.9673" y="-228.8" font-family="Times,serif" font-size="14.00" fill="#000000">_</text>
</g>
<!-- 31 -->
<g id="node26" class="node">
<title>31</title>
<text text-anchor="middle" x="1134.4673" y="-185.8" font-family="Times,serif" font-size="14.00" fill="#000000">31 (kampung&#45;NOUN)</text>
</g>
<!-- 15&#45;&gt;31 -->
<g id="edge13" class="edge">
<title>15&#45;&gt;31</title>
<path fill="none" stroke="#000000" d="M1134.4673,-257.7616C1134.4673,-246.3597 1134.4673,-231.4342 1134.4673,-218.494"/>
<polygon fill="#000000" stroke="#000000" points="1137.9674,-218.2121 1134.4673,-208.2121 1130.9674,-218.2121 1137.9674,-218.2121"/>
<text text-anchor="middle" x="1137.9673" y="-228.8" font-family="Times,serif" font-size="14.00" fill="#000000">_</text>
</g>
<!-- 55 -->
<g id="node27" class="node">
<title>55</title>
<text text-anchor="middle" x="1296.4673" y="-185.8" font-family="Times,serif" font-size="14.00" fill="#000000">55 (mengantuk&#45;VERB)</text>
</g>
<!-- 15&#45;&gt;55 -->
<g id="edge14" class="edge">
<title>15&#45;&gt;55</title>
<path fill="none" stroke="#000000" d="M1168.4278,-257.9716C1193.1603,-244.842 1226.8469,-226.959 1253.4596,-212.8313"/>
<polygon fill="#000000" stroke="#000000" points="1255.36,-215.785 1262.5515,-208.0047 1252.0778,-209.6022 1255.36,-215.785"/>
<text text-anchor="middle" x="1228.9673" y="-228.8" font-family="Times,serif" font-size="14.00" fill="#000000">_</text>
</g>
<!-- 55&#45;&gt;6 -->
<g id="edge57" class="edge">
<title>55&#45;&gt;6</title>
<path fill="none" stroke="#000000" d="M1296.4673,-171.7616C1296.4673,-160.3597 1296.4673,-145.4342 1296.4673,-132.494"/>
<polygon fill="#000000" stroke="#000000" points="1299.9674,-132.2121 1296.4673,-122.2121 1292.9674,-132.2121 1299.9674,-132.2121"/>
<text text-anchor="middle" x="1299.9673" y="-142.8" font-family="Times,serif" font-size="14.00" fill="#000000">_</text>
</g>
<!-- 16 -->
<g id="node28" class="node">
<title>16</title>
<text text-anchor="middle" x="1306.4673" y="-271.8" font-family="Times,serif" font-size="14.00" fill="#000000">16 (Pengangkutan&#45;PROPN)</text>
</g>
<!-- 17 -->
<g id="node29" class="node">
<title>17</title>
<text text-anchor="middle" x="1471.4673" y="-357.8" font-family="Times,serif" font-size="14.00" fill="#000000">17 (Anthony&#45;PROPN)</text>
</g>
<!-- 17&#45;&gt;3 -->
<g id="edge15" class="edge">
<title>17&#45;&gt;3</title>
<path fill="none" stroke="#000000" d="M1400.4975,-345.2461C1397.455,-344.7766 1394.4355,-344.357 1391.4673,-344 1172.1233,-317.6161 617.8127,-341.9934 397.4673,-326 288.4804,-318.0894 258.8334,-314.0138 147.2622,-294.0617"/>
<polygon fill="#000000" stroke="#000000" points="147.7545,-290.5942 137.294,-292.2761 146.5202,-297.4845 147.7545,-290.5942"/>
<text text-anchor="middle" x="400.9673" y="-314.8" font-family="Times,serif" font-size="14.00" fill="#000000">_</text>
</g>
<!-- 17&#45;&gt;5 -->
<g id="edge16" class="edge">
<title>17&#45;&gt;5</title>
<path fill="none" stroke="#000000" d="M1400.4961,-345.2576C1397.454,-344.785 1394.4349,-344.3616 1391.4673,-344 1203.923,-321.1493 729.8485,-340.4054 541.4673,-326 436.4605,-317.9702 407.8527,-313.7347 299.9827,-294.0099"/>
<polygon fill="#000000" stroke="#000000" points="300.4618,-290.5395 289.9949,-292.1811 299.201,-297.425 300.4618,-290.5395"/>
<text text-anchor="middle" x="544.9673" y="-314.8" font-family="Times,serif" font-size="14.00" fill="#000000">_</text>
</g>
<!-- 17&#45;&gt;8 -->
<g id="edge17" class="edge">
<title>17&#45;&gt;8</title>
<path fill="none" stroke="#000000" d="M1400.4941,-345.2743C1397.4525,-344.7971 1394.4341,-344.3682 1391.4673,-344 1081.7409,-305.561 1000.6074,-350.4911 689.4673,-326 584.4787,-317.7359 555.7704,-314.1717 448.6708,-294.1418"/>
<polygon fill="#000000" stroke="#000000" points="449.2289,-290.6855 438.7552,-292.2826 447.9389,-297.5656 449.2289,-290.6855"/>
<text text-anchor="middle" x="692.9673" y="-314.8" font-family="Times,serif" font-size="14.00" fill="#000000">_</text>
</g>
<!-- 17&#45;&gt;9 -->
<g id="edge18" class="edge">
<title>17&#45;&gt;9</title>
<path fill="none" stroke="#000000" d="M1400.4911,-345.298C1397.4504,-344.8143 1394.4329,-344.3776 1391.4673,-344 1143.122,-312.3809 1077.93,-347.0603 828.4673,-326 727.4634,-317.473 699.8167,-313.7189 596.6464,-294.1447"/>
<polygon fill="#000000" stroke="#000000" points="597.2363,-290.6943 586.7585,-292.2646 595.9287,-297.5711 597.2363,-290.6943"/>
<text text-anchor="middle" x="831.9673" y="-314.8" font-family="Times,serif" font-size="14.00" fill="#000000">_</text>
</g>
<!-- 17&#45;&gt;10 -->
<g id="edge19" class="edge">
<title>17&#45;&gt;10</title>
<path fill="none" stroke="#000000" d="M1400.4837,-345.3542C1397.445,-344.8552 1394.43,-344.3998 1391.4673,-344 1222.588,-321.2099 1178.33,-339.6483 1008.4673,-326 886.3562,-316.1885 852.6043,-317.6338 728.8014,-294.1192"/>
<polygon fill="#000000" stroke="#000000" points="729.4188,-290.6739 718.9389,-292.2299 728.1018,-297.5489 729.4188,-290.6739"/>
<text text-anchor="middle" x="1011.9673" y="-314.8" font-family="Times,serif" font-size="14.00" fill="#000000">_</text>
</g>
<!-- 17&#45;&gt;12 -->
<g id="edge20" class="edge">
<title>17&#45;&gt;12</title>
<path fill="none" stroke="#000000" d="M1400.4659,-345.4785C1397.4321,-344.9454 1394.423,-344.449 1391.4673,-344 1292.7235,-329.0006 1266.8704,-335.712 1167.4673,-326 1046.9491,-314.225 1013.8448,-314.5998 890.595,-294.1001"/>
<polygon fill="#000000" stroke="#000000" points="890.8209,-290.5892 880.3799,-292.388 889.6637,-297.4929 890.8209,-290.5892"/>
<text text-anchor="middle" x="1170.9673" y="-314.8" font-family="Times,serif" font-size="14.00" fill="#000000">_</text>
</g>
<!-- 17&#45;&gt;13 -->
<g id="edge21" class="edge">
<title>17&#45;&gt;13</title>
<path fill="none" stroke="#000000" d="M1400.4227,-345.7334C1397.4007,-345.1305 1394.4059,-344.5498 1391.4673,-344 1374.3577,-340.7989 1117.4117,-303.3914 1058.4856,-293.986"/>
<polygon fill="#000000" stroke="#000000" points="1058.9661,-290.5179 1048.5269,-292.3272 1057.8159,-297.4228 1058.9661,-290.5179"/>
<text text-anchor="middle" x="1274.9673" y="-314.8" font-family="Times,serif" font-size="14.00" fill="#000000">_</text>
</g>
<!-- 17&#45;&gt;15 -->
<g id="edge22" class="edge">
<title>17&#45;&gt;15</title>
<path fill="none" stroke="#000000" d="M1400.821,-343.9716C1345.9257,-329.9627 1269.825,-310.5423 1213.0192,-296.0459"/>
<polygon fill="#000000" stroke="#000000" points="1213.5595,-292.5717 1203.0046,-293.4902 1211.8286,-299.3543 1213.5595,-292.5717"/>
<text text-anchor="middle" x="1326.9673" y="-314.8" font-family="Times,serif" font-size="14.00" fill="#000000">_</text>
</g>
<!-- 17&#45;&gt;16 -->
<g id="edge23" class="edge">
<title>17&#45;&gt;16</title>
<path fill="none" stroke="#000000" d="M1436.8779,-343.9716C1411.5774,-330.7846 1377.0771,-312.8027 1349.9168,-298.6464"/>
<polygon fill="#000000" stroke="#000000" points="1351.4966,-295.523 1341.0112,-294.0047 1348.2612,-301.7304 1351.4966,-295.523"/>
<text text-anchor="middle" x="1402.9673" y="-314.8" font-family="Times,serif" font-size="14.00" fill="#000000">_</text>
</g>
<!-- 17&#45;&gt;17 -->
<g id="edge24" class="edge">
<title>17&#45;&gt;17</title>
<path fill="none" stroke="#000000" d="M1542.182,-369.1809C1552.9583,-368.0851 1560.2759,-365.6914 1560.2759,-362 1560.2759,-359.6352 1557.2727,-357.803 1552.281,-356.5034"/>
<polygon fill="#000000" stroke="#000000" points="1552.6215,-353.0119 1542.182,-354.8191 1551.4699,-359.9165 1552.6215,-353.0119"/>
<text text-anchor="middle" x="1563.7759" y="-357.8" font-family="Times,serif" font-size="14.00" fill="#000000">_</text>
</g>
<!-- 18 -->
<g id="node30" class="node">
<title>18</title>
<text text-anchor="middle" x="1471.4673" y="-271.8" font-family="Times,serif" font-size="14.00" fill="#000000">18 (Loke&#45;PROPN)</text>
</g>
<!-- 17&#45;&gt;18 -->
<g id="edge25" class="edge">
<title>17&#45;&gt;18</title>
<path fill="none" stroke="#000000" d="M1471.4673,-343.7616C1471.4673,-332.3597 1471.4673,-317.4342 1471.4673,-304.494"/>
<polygon fill="#000000" stroke="#000000" points="1474.9674,-304.2121 1471.4673,-294.2121 1467.9674,-304.2121 1474.9674,-304.2121"/>
<text text-anchor="middle" x="1474.9673" y="-314.8" font-family="Times,serif" font-size="14.00" fill="#000000">_</text>
</g>
<!-- 19 -->
<g id="node31" class="node">
<title>19</title>
<text text-anchor="middle" x="1610.4673" y="-271.8" font-family="Times,serif" font-size="14.00" fill="#000000">19 (Siew&#45;PROPN)</text>
</g>
<!-- 17&#45;&gt;19 -->
<g id="edge26" class="edge">
<title>17&#45;&gt;19</title>
<path fill="none" stroke="#000000" d="M1500.6062,-343.9716C1521.5493,-331.014 1549.9753,-313.4267 1572.6651,-299.3884"/>
<polygon fill="#000000" stroke="#000000" points="1574.7042,-302.2426 1581.3667,-294.0047 1571.0212,-296.2898 1574.7042,-302.2426"/>
<text text-anchor="middle" x="1552.9673" y="-314.8" font-family="Times,serif" font-size="14.00" fill="#000000">_</text>
</g>
<!-- 20 -->
<g id="node32" class="node">
<title>20</title>
<text text-anchor="middle" x="1749.4673" y="-271.8" font-family="Times,serif" font-size="14.00" fill="#000000">20 (Fook&#45;PROPN)</text>
</g>
<!-- 17&#45;&gt;20 -->
<g id="edge27" class="edge">
<title>17&#45;&gt;20</title>
<path fill="none" stroke="#000000" d="M1529.7452,-343.9716C1574.0408,-330.2686 1635.0734,-311.388 1681.575,-297.0027"/>
<polygon fill="#000000" stroke="#000000" points="1682.7472,-300.3038 1691.2661,-294.0047 1680.6784,-293.6164 1682.7472,-300.3038"/>
<text text-anchor="middle" x="1630.9673" y="-314.8" font-family="Times,serif" font-size="14.00" fill="#000000">_</text>
</g>
<!-- 35 -->
<g id="node33" class="node">
<title>35</title>
<text text-anchor="middle" x="1887.4673" y="-271.8" font-family="Times,serif" font-size="14.00" fill="#000000">35 (video&#45;NOUN)</text>
</g>
<!-- 17&#45;&gt;35 -->
<g id="edge28" class="edge">
<title>17&#45;&gt;35</title>
<path fill="none" stroke="#000000" d="M1542.4055,-349.5515C1610.6608,-337.2527 1716.953,-317.2606 1817.7669,-294.3275"/>
<polygon fill="#000000" stroke="#000000" points="1818.8513,-297.6699 1827.8183,-292.027 1817.2895,-290.8464 1818.8513,-297.6699"/>
<text text-anchor="middle" x="1737.9673" y="-314.8" font-family="Times,serif" font-size="14.00" fill="#000000">_</text>
</g>
<!-- 37 -->
<g id="node34" class="node">
<title>37</title>
<text text-anchor="middle" x="2030.4673" y="-271.8" font-family="Times,serif" font-size="14.00" fill="#000000">37 (terbitan&#45;NOUN)</text>
</g>
<!-- 17&#45;&gt;37 -->
<g id="edge29" class="edge">
<title>17&#45;&gt;37</title>
<path fill="none" stroke="#000000" d="M1542.154,-354.5699C1634.9135,-344.2674 1802.8612,-323.7156 1955.1584,-294.1733"/>
<polygon fill="#000000" stroke="#000000" points="1956.0249,-297.5702 1965.1663,-292.2144 1954.6802,-290.7006 1956.0249,-297.5702"/>
<text text-anchor="middle" x="1854.9673" y="-314.8" font-family="Times,serif" font-size="14.00" fill="#000000">_</text>
</g>
<!-- 38 -->
<g id="node35" class="node">
<title>38</title>
<text text-anchor="middle" x="2181.4673" y="-271.8" font-family="Times,serif" font-size="14.00" fill="#000000">38 (Jabatan&#45;PROPN)</text>
</g>
<!-- 17&#45;&gt;38 -->
<g id="edge30" class="edge">
<title>17&#45;&gt;38</title>
<path fill="none" stroke="#000000" d="M1542.2059,-357.8085C1659.7108,-350.0861 1902.2269,-330.9177 2104.4673,-294 2104.5686,-293.9815 2104.6699,-293.963 2104.7714,-293.9444"/>
<polygon fill="#000000" stroke="#000000" points="2105.1997,-297.4263 2114.3567,-292.0973 2103.8751,-290.5528 2105.1997,-297.4263"/>
<text text-anchor="middle" x="1987.9673" y="-314.8" font-family="Times,serif" font-size="14.00" fill="#000000">_</text>
</g>
<!-- 39 -->
<g id="node36" class="node">
<title>39</title>
<text text-anchor="middle" x="2349.4673" y="-271.8" font-family="Times,serif" font-size="14.00" fill="#000000">39 (Keselamatan&#45;PROPN)</text>
</g>
<!-- 17&#45;&gt;39 -->
<g id="edge31" class="edge">
<title>17&#45;&gt;39</title>
<path fill="none" stroke="#000000" d="M1542.3335,-359.2472C1678.9078,-353.2065 1988.0424,-335.9651 2256.8193,-294.0369"/>
<polygon fill="#000000" stroke="#000000" points="2257.431,-297.4838 2266.765,-292.4712 2256.3423,-290.569 2257.431,-297.4838"/>
<text text-anchor="middle" x="2133.9673" y="-314.8" font-family="Times,serif" font-size="14.00" fill="#000000">_</text>
</g>
<!-- 40 -->
<g id="node37" class="node">
<title>40</title>
<text text-anchor="middle" x="2510.4673" y="-271.8" font-family="Times,serif" font-size="14.00" fill="#000000">40 (Jalan&#45;PROPN)</text>
</g>
<!-- 17&#45;&gt;40 -->
<g id="edge32" class="edge">
<title>17&#45;&gt;40</title>
<path fill="none" stroke="#000000" d="M1542.4545,-359.4218C1664.8525,-354.6999 1923.4646,-343.5101 2141.4673,-326 2271.4336,-315.561 2307.2261,-317.7007 2439.3925,-294.0569"/>
<polygon fill="#000000" stroke="#000000" points="2440.2796,-297.4534 2449.4989,-292.2328 2439.0362,-290.5647 2440.2796,-297.4534"/>
<text text-anchor="middle" x="2320.9673" y="-314.8" font-family="Times,serif" font-size="14.00" fill="#000000">_</text>
</g>
<!-- 45 -->
<g id="node38" class="node">
<title>45</title>
<text text-anchor="middle" x="2661.4673" y="-271.8" font-family="Times,serif" font-size="14.00" fill="#000000">45 (Mahathir&#45;PROPN)</text>
</g>
<!-- 17&#45;&gt;45 -->
<g id="edge33" class="edge">
<title>17&#45;&gt;45</title>
<path fill="none" stroke="#000000" d="M1542.1383,-361.0462C1688.8897,-358.622 2037.2538,-350.5622 2328.4673,-326 2437.7812,-316.78 2467.5741,-313.56 2579.5435,-294.0884"/>
<polygon fill="#000000" stroke="#000000" points="2580.2971,-297.5099 2589.5472,-292.3439 2579.0945,-290.614 2580.2971,-297.5099"/>
<text text-anchor="middle" x="2471.9673" y="-314.8" font-family="Times,serif" font-size="14.00" fill="#000000">_</text>
</g>
<!-- 52 -->
<g id="node39" class="node">
<title>52</title>
<text text-anchor="middle" x="2808.4673" y="-271.8" font-family="Times,serif" font-size="14.00" fill="#000000">52 (tidur&#45;NOUN)</text>
</g>
<!-- 17&#45;&gt;52 -->
<g id="edge34" class="edge">
<title>17&#45;&gt;52</title>
<path fill="none" stroke="#000000" d="M1542.1598,-361.5484C1706.7667,-360.0442 2128.3557,-353.5796 2479.4673,-326 2593.6468,-317.0313 2625.2084,-316.6752 2741.3505,-294.0816"/>
<polygon fill="#000000" stroke="#000000" points="2742.2093,-297.48 2751.3498,-292.1227 2740.8635,-290.6105 2742.2093,-297.48"/>
<text text-anchor="middle" x="2637.9673" y="-314.8" font-family="Times,serif" font-size="14.00" fill="#000000">_</text>
</g>
<!-- 20&#45;&gt;2 -->
<g id="edge35" class="edge">
<title>20&#45;&gt;2</title>
<path fill="none" stroke="#000000" d="M1719.0705,-257.9716C1697.1267,-244.9566 1667.3078,-227.271 1643.5874,-213.2023"/>
<polygon fill="#000000" stroke="#000000" points="1645.2105,-210.0957 1634.824,-208.0047 1641.6396,-216.1164 1645.2105,-210.0957"/>
<text text-anchor="middle" x="1689.9673" y="-228.8" font-family="Times,serif" font-size="14.00" fill="#000000">_</text>
</g>
<!-- 29 -->
<g id="node40" class="node">
<title>29</title>
<text text-anchor="middle" x="1749.4673" y="-185.8" font-family="Times,serif" font-size="14.00" fill="#000000">29 (pulang&#45;VERB)</text>
</g>
<!-- 20&#45;&gt;29 -->
<g id="edge36" class="edge">
<title>20&#45;&gt;29</title>
<path fill="none" stroke="#000000" d="M1749.4673,-257.7616C1749.4673,-246.3597 1749.4673,-231.4342 1749.4673,-218.494"/>
<polygon fill="#000000" stroke="#000000" points="1752.9674,-218.2121 1749.4673,-208.2121 1745.9674,-218.2121 1752.9674,-218.2121"/>
<text text-anchor="middle" x="1752.9673" y="-228.8" font-family="Times,serif" font-size="14.00" fill="#000000">_</text>
</g>
<!-- 41 -->
<g id="node41" class="node">
<title>41</title>
<text text-anchor="middle" x="1889.4673" y="-185.8" font-family="Times,serif" font-size="14.00" fill="#000000">41 (Raya&#45;PROPN)</text>
</g>
<!-- 20&#45;&gt;41 -->
<g id="edge37" class="edge">
<title>20&#45;&gt;41</title>
<path fill="none" stroke="#000000" d="M1778.8159,-257.9716C1799.9096,-245.014 1828.5401,-227.4267 1851.3931,-213.3884"/>
<polygon fill="#000000" stroke="#000000" points="1853.4685,-216.2212 1860.1573,-208.0047 1849.8046,-210.2566 1853.4685,-216.2212"/>
<text text-anchor="middle" x="1831.9673" y="-228.8" font-family="Times,serif" font-size="14.00" fill="#000000">_</text>
</g>
<!-- 21 -->
<g id="node42" class="node">
<title>21</title>
<text text-anchor="middle" x="2504.4673" y="-185.8" font-family="Times,serif" font-size="14.00" fill="#000000">21 (menitipkan&#45;VERB)</text>
</g>
<!-- 45&#45;&gt;21 -->
<g id="edge38" class="edge">
<title>45&#45;&gt;21</title>
<path fill="none" stroke="#000000" d="M2628.5549,-257.9716C2604.5858,-244.842 2571.9389,-226.959 2546.1476,-212.8313"/>
<polygon fill="#000000" stroke="#000000" points="2547.7882,-209.7393 2537.3363,-208.0047 2544.4252,-215.8785 2547.7882,-209.7393"/>
<text text-anchor="middle" x="2595.9673" y="-228.8" font-family="Times,serif" font-size="14.00" fill="#000000">_</text>
</g>
<!-- 49 -->
<g id="node53" class="node">
<title>49</title>
<text text-anchor="middle" x="2661.4673" y="-185.8" font-family="Times,serif" font-size="14.00" fill="#000000">49 (berhenti&#45;VERB)</text>
</g>
<!-- 45&#45;&gt;49 -->
<g id="edge39" class="edge">
<title>45&#45;&gt;49</title>
<path fill="none" stroke="#000000" d="M2661.4673,-257.7616C2661.4673,-246.3597 2661.4673,-231.4342 2661.4673,-218.494"/>
<polygon fill="#000000" stroke="#000000" points="2664.9674,-218.2121 2661.4673,-208.2121 2657.9674,-218.2121 2664.9674,-218.2121"/>
<text text-anchor="middle" x="2664.9673" y="-228.8" font-family="Times,serif" font-size="14.00" fill="#000000">_</text>
</g>
<!-- 57 -->
<g id="node54" class="node">
<title>57</title>
<text text-anchor="middle" x="2814.4673" y="-185.8" font-family="Times,serif" font-size="14.00" fill="#000000">57 (memandu&#45;VERB)</text>
</g>
<!-- 45&#45;&gt;57 -->
<g id="edge40" class="edge">
<title>45&#45;&gt;57</title>
<path fill="none" stroke="#000000" d="M2693.5411,-257.9716C2716.7976,-244.8993 2748.437,-227.115 2773.5192,-213.0165"/>
<polygon fill="#000000" stroke="#000000" points="2775.4334,-215.9557 2782.4357,-208.0047 2772.0034,-209.8536 2775.4334,-215.9557"/>
<text text-anchor="middle" x="2750.9673" y="-228.8" font-family="Times,serif" font-size="14.00" fill="#000000">_</text>
</g>
<!-- 23 -->
<g id="node43" class="node">
<title>23</title>
<text text-anchor="middle" x="3706.4673" y="-271.8" font-family="Times,serif" font-size="14.00" fill="#000000">23 (khas&#45;ADJ)</text>
</g>
<!-- 24 -->
<g id="node44" class="node">
<title>24</title>
<text text-anchor="middle" x="3831.4673" y="-271.8" font-family="Times,serif" font-size="14.00" fill="#000000">24 (kepada&#45;ADP)</text>
</g>
<!-- 26 -->
<g id="node45" class="node">
<title>26</title>
<text text-anchor="middle" x="3959.4673" y="-271.8" font-family="Times,serif" font-size="14.00" fill="#000000">26 (ramai&#45;ADJ)</text>
</g>
<!-- 27 -->
<g id="node46" class="node">
<title>27</title>
<text text-anchor="middle" x="4824.4673" y="-185.8" font-family="Times,serif" font-size="14.00" fill="#000000">27 (yang&#45;PRON)</text>
</g>
<!-- 28 -->
<g id="node47" class="node">
<title>28</title>
<text text-anchor="middle" x="4084.4673" y="-271.8" font-family="Times,serif" font-size="14.00" fill="#000000">28 (mahu&#45;ADV)</text>
</g>
<!-- 30 -->
<g id="node48" class="node">
<title>30</title>
<text text-anchor="middle" x="4201.4673" y="-271.8" font-family="Times,serif" font-size="14.00" fill="#000000">30 (ke&#45;ADP)</text>
</g>
<!-- 34 -->
<g id="node49" class="node">
<title>34</title>
<text text-anchor="middle" x="4320.4673" y="-271.8" font-family="Times,serif" font-size="14.00" fill="#000000">34 (Dalam&#45;ADP)</text>
</g>
<!-- 36 -->
<g id="node50" class="node">
<title>36</title>
<text text-anchor="middle" x="4451.4673" y="-271.8" font-family="Times,serif" font-size="14.00" fill="#000000">36 (pendek&#45;ADJ)</text>
</g>
<!-- 43 -->
<g id="node51" class="node">
<title>43</title>
<text text-anchor="middle" x="4571.4673" y="-271.8" font-family="Times,serif" font-size="14.00" fill="#000000">43 (itu&#45;DET)</text>
</g>
<!-- 48 -->
<g id="node55" class="node">
<title>48</title>
<text text-anchor="middle" x="4201.4673" y="-357.8" font-family="Times,serif" font-size="14.00" fill="#000000">48 (supaya&#45;SCONJ)</text>
</g>
<!-- 48&#45;&gt;7 -->
<g id="edge41" class="edge">
<title>48&#45;&gt;7</title>
<path fill="none" stroke="#000000" d="M4136.6224,-360.6951C4016.0503,-357.1545 3749.4824,-344.0847 3519.1203,-293.9511"/>
<polygon fill="#000000" stroke="#000000" points="3519.7358,-290.5028 3509.2168,-291.7678 3518.2287,-297.3387 3519.7358,-290.5028"/>
<text text-anchor="middle" x="3688.9673" y="-314.8" font-family="Times,serif" font-size="14.00" fill="#000000">_</text>
</g>
<!-- 48&#45;&gt;14 -->
<g id="edge42" class="edge">
<title>48&#45;&gt;14</title>
<path fill="none" stroke="#000000" d="M4136.5364,-357.9056C4034.4197,-350.6146 3830.1624,-332.5871 3649.679,-294.1401"/>
<polygon fill="#000000" stroke="#000000" points="3650.255,-290.6839 3639.7418,-291.9971 3648.7793,-297.5266 3650.255,-290.6839"/>
<text text-anchor="middle" x="3832.9673" y="-314.8" font-family="Times,serif" font-size="14.00" fill="#000000">_</text>
</g>
<!-- 48&#45;&gt;23 -->
<g id="edge43" class="edge">
<title>48&#45;&gt;23</title>
<path fill="none" stroke="#000000" d="M4136.8511,-354.9495C4053.0774,-345.1424 3902.4493,-325.2421 3765.8224,-294.1568"/>
<polygon fill="#000000" stroke="#000000" points="3766.5408,-290.7307 3756.0106,-291.8993 3764.9712,-297.5525 3766.5408,-290.7307"/>
<text text-anchor="middle" x="3923.9673" y="-314.8" font-family="Times,serif" font-size="14.00" fill="#000000">_</text>
</g>
<!-- 48&#45;&gt;24 -->
<g id="edge44" class="edge">
<title>48&#45;&gt;24</title>
<path fill="none" stroke="#000000" d="M4136.6235,-348.4032C4077.1654,-335.7291 3986.4603,-315.8767 3899.1758,-294.38"/>
<polygon fill="#000000" stroke="#000000" points="3899.9238,-290.9595 3889.3759,-291.9557 3898.2428,-297.7547 3899.9238,-290.9595"/>
<text text-anchor="middle" x="4034.9673" y="-314.8" font-family="Times,serif" font-size="14.00" fill="#000000">_</text>
</g>
<!-- 48&#45;&gt;26 -->
<g id="edge45" class="edge">
<title>48&#45;&gt;26</title>
<path fill="none" stroke="#000000" d="M4150.7362,-343.9716C4112.4994,-330.3833 4059.9358,-311.7037 4019.5867,-297.3647"/>
<polygon fill="#000000" stroke="#000000" points="4020.7263,-294.0554 4010.1316,-294.0047 4018.3823,-300.6513 4020.7263,-294.0554"/>
<text text-anchor="middle" x="4098.9673" y="-314.8" font-family="Times,serif" font-size="14.00" fill="#000000">_</text>
</g>
<!-- 48&#45;&gt;28 -->
<g id="edge46" class="edge">
<title>48&#45;&gt;28</title>
<path fill="none" stroke="#000000" d="M4176.9403,-343.9716C4159.5459,-331.186 4136.0191,-313.8928 4117.0495,-299.9493"/>
<polygon fill="#000000" stroke="#000000" points="4119.0924,-297.1072 4108.962,-294.0047 4114.9466,-302.7474 4119.0924,-297.1072"/>
<text text-anchor="middle" x="4153.9673" y="-314.8" font-family="Times,serif" font-size="14.00" fill="#000000">_</text>
</g>
<!-- 48&#45;&gt;30 -->
<g id="edge47" class="edge">
<title>48&#45;&gt;30</title>
<path fill="none" stroke="#000000" d="M4201.4673,-343.7616C4201.4673,-332.3597 4201.4673,-317.4342 4201.4673,-304.494"/>
<polygon fill="#000000" stroke="#000000" points="4204.9674,-304.2121 4201.4673,-294.2121 4197.9674,-304.2121 4204.9674,-304.2121"/>
<text text-anchor="middle" x="4204.9673" y="-314.8" font-family="Times,serif" font-size="14.00" fill="#000000">_</text>
</g>
<!-- 48&#45;&gt;34 -->
<g id="edge48" class="edge">
<title>48&#45;&gt;34</title>
<path fill="none" stroke="#000000" d="M4226.4136,-343.9716C4244.1053,-331.186 4268.0342,-313.8928 4287.3281,-299.9493"/>
<polygon fill="#000000" stroke="#000000" points="4289.4989,-302.6989 4295.5538,-294.0047 4285.3987,-297.0254 4289.4989,-302.6989"/>
<text text-anchor="middle" x="4271.9673" y="-314.8" font-family="Times,serif" font-size="14.00" fill="#000000">_</text>
</g>
<!-- 48&#45;&gt;36 -->
<g id="edge49" class="edge">
<title>48&#45;&gt;36</title>
<path fill="none" stroke="#000000" d="M4253.8755,-343.9716C4293.4596,-330.3546 4347.9067,-311.6248 4389.6241,-297.274"/>
<polygon fill="#000000" stroke="#000000" points="4390.8105,-300.5673 4399.1281,-294.0047 4388.5334,-293.948 4390.8105,-300.5673"/>
<text text-anchor="middle" x="4344.9673" y="-314.8" font-family="Times,serif" font-size="14.00" fill="#000000">_</text>
</g>
<!-- 48&#45;&gt;43 -->
<g id="edge50" class="edge">
<title>48&#45;&gt;43</title>
<path fill="none" stroke="#000000" d="M4266.1208,-350.2441C4328.1495,-338.4783 4424.5344,-318.9226 4516.7285,-294.0595"/>
<polygon fill="#000000" stroke="#000000" points="4517.7694,-297.4036 4526.4991,-291.4 4515.9309,-290.6493 4517.7694,-297.4036"/>
<text text-anchor="middle" x="4443.9673" y="-314.8" font-family="Times,serif" font-size="14.00" fill="#000000">_</text>
</g>
<!-- 48&#45;&gt;48 -->
<g id="edge51" class="edge">
<title>48&#45;&gt;48</title>
<path fill="none" stroke="#000000" d="M4266.2079,-369.2862C4276.7796,-368.2432 4284.0449,-365.8145 4284.0449,-362 4284.0449,-359.5564 4281.0632,-357.6814 4276.1407,-356.3752"/>
<polygon fill="#000000" stroke="#000000" points="4276.6483,-352.9116 4266.2079,-354.7138 4275.4934,-359.8156 4276.6483,-352.9116"/>
<text text-anchor="middle" x="4287.5449" y="-357.8" font-family="Times,serif" font-size="14.00" fill="#000000">_</text>
</g>
<!-- 51 -->
<g id="node56" class="node">
<title>51</title>
<text text-anchor="middle" x="4690.4673" y="-271.8" font-family="Times,serif" font-size="14.00" fill="#000000">51 (dan&#45;CCONJ)</text>
</g>
<!-- 48&#45;&gt;51 -->
<g id="edge52" class="edge">
<title>48&#45;&gt;51</title>
<path fill="none" stroke="#000000" d="M4266.2757,-354.351C4347.8564,-344.1124 4492.3214,-323.9592 4624.2916,-294.1706"/>
<polygon fill="#000000" stroke="#000000" points="4625.2035,-297.5526 4634.1746,-291.9161 4623.6466,-290.7279 4625.2035,-297.5526"/>
<text text-anchor="middle" x="4536.9673" y="-314.8" font-family="Times,serif" font-size="14.00" fill="#000000">_</text>
</g>
<!-- 53 -->
<g id="node57" class="node">
<title>53</title>
<text text-anchor="middle" x="4824.4673" y="-271.8" font-family="Times,serif" font-size="14.00" fill="#000000">53 (sebentar&#45;ADJ)</text>
</g>
<!-- 48&#45;&gt;53 -->
<g id="edge53" class="edge">
<title>48&#45;&gt;53</title>
<path fill="none" stroke="#000000" d="M4266.4159,-357.4458C4368.5825,-349.5323 4573.0276,-330.6669 4754.7135,-294.0355"/>
<polygon fill="#000000" stroke="#000000" points="4755.6189,-297.423 4764.718,-291.9955 4754.2203,-290.5641 4755.6189,-297.423"/>
<text text-anchor="middle" x="4653.9673" y="-314.8" font-family="Times,serif" font-size="14.00" fill="#000000">_</text>
</g>
<!-- 56 -->
<g id="node58" class="node">
<title>56</title>
<text text-anchor="middle" x="4964.4673" y="-271.8" font-family="Times,serif" font-size="14.00" fill="#000000">56 (ketika&#45;SCONJ)</text>
</g>
<!-- 48&#45;&gt;56 -->
<g id="edge54" class="edge">
<title>48&#45;&gt;56</title>
<path fill="none" stroke="#000000" d="M4266.4564,-359.7172C4388.0095,-354.5572 4657.8987,-338.8926 4892.1463,-294.1447"/>
<polygon fill="#000000" stroke="#000000" points="4893.0634,-297.5323 4902.2176,-292.1984 4891.7351,-290.6595 4893.0634,-297.5323"/>
<text text-anchor="middle" x="4784.9673" y="-314.8" font-family="Times,serif" font-size="14.00" fill="#000000">_</text>
</g>
<!-- 53&#45;&gt;27 -->
<g id="edge55" class="edge">
<title>53&#45;&gt;27</title>
<path fill="none" stroke="#000000" d="M4824.4673,-257.7616C4824.4673,-246.3597 4824.4673,-231.4342 4824.4673,-218.494"/>
<polygon fill="#000000" stroke="#000000" points="4827.9674,-218.2121 4824.4673,-208.2121 4820.9674,-218.2121 4827.9674,-218.2121"/>
<text text-anchor="middle" x="4827.9673" y="-228.8" font-family="Times,serif" font-size="14.00" fill="#000000">_</text>
</g>
</g>
</svg>
