<?xml version="1.0" encoding="UTF-8" standalone="no"?>
<!DOCTYPE svg PUBLIC "-//W3C//DTD SVG 1.1//EN"
 "http://www.w3.org/Graphics/SVG/1.1/DTD/svg11.dtd">
<!-- Generated by graphviz version 2.40.1 (20161225.0304)
 -->
<!-- Title: G Pages: 1 -->
<svg width="4042pt" height="474pt"
 viewBox="0.00 0.00 4042.20 474.00" xmlns="http://www.w3.org/2000/svg" xmlns:xlink="http://www.w3.org/1999/xlink">
<g id="graph0" class="graph" transform="scale(1 1) rotate(0) translate(4 470)">
<title>G</title>
<polygon fill="#ffffff" stroke="transparent" points="-4,4 -4,-470 4038.2002,-470 4038.2002,4 -4,4"/>
<!-- 0 -->
<g id="node1" class="node">
<title>0</title>
<text text-anchor="middle" x="663.2983" y="-443.8" font-family="Times,serif" font-size="14.00" fill="#000000">0 (None)</text>
</g>
<!-- 1 -->
<g id="node2" class="node">
<title>1</title>
<text text-anchor="middle" x="781.2983" y="-443.8" font-family="Times,serif" font-size="14.00" fill="#000000">1 (KUALA&#45;PROPN)</text>
</g>
<!-- 6 -->
<g id="node3" class="node">
<title>6</title>
<text text-anchor="middle" x="389.2983" y="-357.8" font-family="Times,serif" font-size="14.00" fill="#000000">6 (minggu&#45;NOUN)</text>
</g>
<!-- 1&#45;&gt;6 -->
<g id="edge1" class="edge">
<title>1&#45;&gt;6</title>
<path fill="none" stroke="#000000" d="M713.779,-431.8901C710.9155,-431.2443 708.0793,-430.6118 705.2983,-430 599.5273,-406.7316 569.7553,-405.0912 461.1464,-380.375"/>
<polygon fill="#000000" stroke="#000000" points="461.6219,-376.8933 451.0929,-378.0728 460.0593,-383.7167 461.6219,-376.8933"/>
<text text-anchor="middle" x="619.7983" y="-400.8" font-family="Times,serif" font-size="14.00" fill="#000000">_</text>
</g>
<!-- 16 -->
<g id="node4" class="node">
<title>16</title>
<text text-anchor="middle" x="552.2983" y="-357.8" font-family="Times,serif" font-size="14.00" fill="#000000">16 (Pengangkutan&#45;NOUN)</text>
</g>
<!-- 1&#45;&gt;16 -->
<g id="edge2" class="edge">
<title>1&#45;&gt;16</title>
<path fill="none" stroke="#000000" d="M733.2924,-429.9716C697.2624,-416.4406 647.7893,-397.8612 609.6721,-383.5465"/>
<polygon fill="#000000" stroke="#000000" points="610.8332,-380.2439 600.241,-380.0047 608.3721,-386.797 610.8332,-380.2439"/>
<text text-anchor="middle" x="684.7983" y="-400.8" font-family="Times,serif" font-size="14.00" fill="#000000">_</text>
</g>
<!-- 31 -->
<g id="node5" class="node">
<title>31</title>
<text text-anchor="middle" x="728.2983" y="-357.8" font-family="Times,serif" font-size="14.00" fill="#000000">31 (kampung&#45;NOUN)</text>
</g>
<!-- 1&#45;&gt;31 -->
<g id="edge3" class="edge">
<title>1&#45;&gt;31</title>
<path fill="none" stroke="#000000" d="M770.0584,-429.7616C762.7506,-417.9036 753.094,-402.2345 744.9077,-388.951"/>
<polygon fill="#000000" stroke="#000000" points="747.7482,-386.889 739.5221,-380.2121 741.789,-390.5616 747.7482,-386.889"/>
<text text-anchor="middle" x="761.7983" y="-400.8" font-family="Times,serif" font-size="14.00" fill="#000000">_</text>
</g>
<!-- 46 -->
<g id="node6" class="node">
<title>46</title>
<text text-anchor="middle" x="933.2983" y="-357.8" font-family="Times,serif" font-size="14.00" fill="#000000">46 (menasihati&#45;NOUN)</text>
</g>
<!-- 1&#45;&gt;46 -->
<g id="edge4" class="edge">
<title>1&#45;&gt;46</title>
<path fill="none" stroke="#000000" d="M815.5223,-429.9393C826.0791,-424.2803 837.7101,-417.9558 848.2983,-412 863.4978,-403.4503 880.0587,-393.7885 894.4913,-385.2532"/>
<polygon fill="#000000" stroke="#000000" points="896.3563,-388.2163 903.1714,-380.1043 892.785,-382.1959 896.3563,-388.2163"/>
<text text-anchor="middle" x="875.7983" y="-400.8" font-family="Times,serif" font-size="14.00" fill="#000000">_</text>
</g>
<!-- 54 -->
<g id="node7" class="node">
<title>54</title>
<text text-anchor="middle" x="1096.2983" y="-357.8" font-family="Times,serif" font-size="14.00" fill="#000000">54 (sekiranya&#45;NOUN)</text>
</g>
<!-- 1&#45;&gt;54 -->
<g id="edge5" class="edge">
<title>1&#45;&gt;54</title>
<path fill="none" stroke="#000000" d="M847.3327,-429.9716C897.9437,-416.154 967.8381,-397.0717 1020.6893,-382.6425"/>
<polygon fill="#000000" stroke="#000000" points="1021.6259,-386.0149 1030.351,-380.0047 1019.7822,-379.2621 1021.6259,-386.0149"/>
<text text-anchor="middle" x="961.7983" y="-400.8" font-family="Times,serif" font-size="14.00" fill="#000000">_</text>
</g>
<!-- 20 -->
<g id="node33" class="node">
<title>20</title>
<text text-anchor="middle" x="835.2983" y="-271.8" font-family="Times,serif" font-size="14.00" fill="#000000">20 (Fook&#45;PROPN)</text>
</g>
<!-- 16&#45;&gt;20 -->
<g id="edge29" class="edge">
<title>16&#45;&gt;20</title>
<path fill="none" stroke="#000000" d="M611.6244,-343.9716C656.811,-330.24 719.107,-311.309 766.4818,-296.9124"/>
<polygon fill="#000000" stroke="#000000" points="767.5001,-300.2611 776.0504,-294.0047 765.4647,-293.5635 767.5001,-300.2611"/>
<text text-anchor="middle" x="714.7983" y="-314.8" font-family="Times,serif" font-size="14.00" fill="#000000">_</text>
</g>
<!-- 32 -->
<g id="node34" class="node">
<title>32</title>
<text text-anchor="middle" x="403.2983" y="-271.8" font-family="Times,serif" font-size="14.00" fill="#000000">32 (halaman&#45;NOUN)</text>
</g>
<!-- 16&#45;&gt;32 -->
<g id="edge30" class="edge">
<title>16&#45;&gt;32</title>
<path fill="none" stroke="#000000" d="M521.0631,-343.9716C498.4146,-330.8993 467.6023,-313.115 443.1759,-299.0165"/>
<polygon fill="#000000" stroke="#000000" points="444.903,-295.9723 434.4925,-294.0047 441.4038,-302.035 444.903,-295.9723"/>
<text text-anchor="middle" x="490.7983" y="-314.8" font-family="Times,serif" font-size="14.00" fill="#000000">_</text>
</g>
<!-- 35 -->
<g id="node35" class="node">
<title>35</title>
<text text-anchor="middle" x="548.2983" y="-271.8" font-family="Times,serif" font-size="14.00" fill="#000000">35 (video&#45;NOUN)</text>
</g>
<!-- 16&#45;&gt;35 -->
<g id="edge31" class="edge">
<title>16&#45;&gt;35</title>
<path fill="none" stroke="#000000" d="M551.45,-343.7616C550.9197,-332.3597 550.2255,-317.4342 549.6236,-304.494"/>
<polygon fill="#000000" stroke="#000000" points="553.1063,-304.0387 549.1454,-294.2121 546.1139,-304.3639 553.1063,-304.0387"/>
<text text-anchor="middle" x="554.7983" y="-314.8" font-family="Times,serif" font-size="14.00" fill="#000000">_</text>
</g>
<!-- 37 -->
<g id="node36" class="node">
<title>37</title>
<text text-anchor="middle" x="691.2983" y="-271.8" font-family="Times,serif" font-size="14.00" fill="#000000">37 (terbitan&#45;NOUN)</text>
</g>
<!-- 16&#45;&gt;37 -->
<g id="edge32" class="edge">
<title>16&#45;&gt;37</title>
<path fill="none" stroke="#000000" d="M581.4373,-343.9716C602.3804,-331.014 630.8064,-313.4267 653.4961,-299.3884"/>
<polygon fill="#000000" stroke="#000000" points="655.5353,-302.2426 662.1977,-294.0047 651.8523,-296.2898 655.5353,-302.2426"/>
<text text-anchor="middle" x="633.7983" y="-314.8" font-family="Times,serif" font-size="14.00" fill="#000000">_</text>
</g>
<!-- 38 -->
<g id="node37" class="node">
<title>38</title>
<text text-anchor="middle" x="67.2983" y="-271.8" font-family="Times,serif" font-size="14.00" fill="#000000">38 (Jabatan&#45;PROPN)</text>
</g>
<!-- 16&#45;&gt;38 -->
<g id="edge33" class="edge">
<title>16&#45;&gt;38</title>
<path fill="none" stroke="#000000" d="M468.5855,-345.4877C465.7911,-344.9792 463.0228,-344.4819 460.2983,-344 320.2801,-319.2336 283.8422,-321.3127 144.2983,-294 144.1973,-293.9802 144.0962,-293.9604 143.995,-293.9406"/>
<polygon fill="#000000" stroke="#000000" points="144.9249,-290.5581 134.4281,-291.9957 143.5304,-297.4178 144.9249,-290.5581"/>
<text text-anchor="middle" x="348.7983" y="-314.8" font-family="Times,serif" font-size="14.00" fill="#000000">_</text>
</g>
<!-- 39 -->
<g id="node38" class="node">
<title>39</title>
<text text-anchor="middle" x="235.2983" y="-271.8" font-family="Times,serif" font-size="14.00" fill="#000000">39 (Keselamatan&#45;PROPN)</text>
</g>
<!-- 16&#45;&gt;39 -->
<g id="edge34" class="edge">
<title>16&#45;&gt;39</title>
<path fill="none" stroke="#000000" d="M485.8448,-343.9716C434.9124,-330.154 364.5742,-311.0717 311.3874,-296.6425"/>
<polygon fill="#000000" stroke="#000000" points="312.232,-293.2451 301.6644,-294.0047 310.3992,-300.0009 312.232,-293.2451"/>
<text text-anchor="middle" x="416.7983" y="-314.8" font-family="Times,serif" font-size="14.00" fill="#000000">_</text>
</g>
<!-- 43 -->
<g id="node52" class="node">
<title>43</title>
<text text-anchor="middle" x="958.2983" y="-271.8" font-family="Times,serif" font-size="14.00" fill="#000000">43 (itu&#45;DET)</text>
</g>
<!-- 46&#45;&gt;43 -->
<g id="edge41" class="edge">
<title>46&#45;&gt;43</title>
<path fill="none" stroke="#000000" d="M938.6002,-343.7616C941.9479,-332.2456 946.3404,-317.1353 950.1279,-304.1064"/>
<polygon fill="#000000" stroke="#000000" points="953.5735,-304.7916 953.0041,-294.2121 946.8518,-302.8376 953.5735,-304.7916"/>
<text text-anchor="middle" x="950.7983" y="-314.8" font-family="Times,serif" font-size="14.00" fill="#000000">_</text>
</g>
<!-- 21 -->
<g id="node43" class="node">
<title>21</title>
<text text-anchor="middle" x="1096.2983" y="-271.8" font-family="Times,serif" font-size="14.00" fill="#000000">21 (menitipkan&#45;VERB)</text>
</g>
<!-- 54&#45;&gt;21 -->
<g id="edge54" class="edge">
<title>54&#45;&gt;21</title>
<path fill="none" stroke="#000000" d="M1096.2983,-343.7616C1096.2983,-332.3597 1096.2983,-317.4342 1096.2983,-304.494"/>
<polygon fill="#000000" stroke="#000000" points="1099.7984,-304.2121 1096.2983,-294.2121 1092.7984,-304.2121 1099.7984,-304.2121"/>
<text text-anchor="middle" x="1099.7983" y="-314.8" font-family="Times,serif" font-size="14.00" fill="#000000">_</text>
</g>
<!-- 49 -->
<g id="node56" class="node">
<title>49</title>
<text text-anchor="middle" x="1253.2983" y="-271.8" font-family="Times,serif" font-size="14.00" fill="#000000">49 (berhenti&#45;VERB)</text>
</g>
<!-- 54&#45;&gt;49 -->
<g id="edge55" class="edge">
<title>54&#45;&gt;49</title>
<path fill="none" stroke="#000000" d="M1129.2107,-343.9716C1153.1799,-330.842 1185.8268,-312.959 1211.618,-298.8313"/>
<polygon fill="#000000" stroke="#000000" points="1213.3404,-301.8785 1220.4293,-294.0047 1209.9774,-295.7393 1213.3404,-301.8785"/>
<text text-anchor="middle" x="1187.7983" y="-314.8" font-family="Times,serif" font-size="14.00" fill="#000000">_</text>
</g>
<!-- 2 -->
<g id="node8" class="node">
<title>2</title>
<text text-anchor="middle" x="1257.2983" y="-357.8" font-family="Times,serif" font-size="14.00" fill="#000000">2 (LUMPUR&#45;PROPN)</text>
</g>
<!-- 3 -->
<g id="node9" class="node">
<title>3</title>
<text text-anchor="middle" x="1415.2983" y="-357.8" font-family="Times,serif" font-size="14.00" fill="#000000">3 (Sempena&#45;PROPN)</text>
</g>
<!-- 4 -->
<g id="node10" class="node">
<title>4</title>
<text text-anchor="middle" x="3304.2983" y="-443.8" font-family="Times,serif" font-size="14.00" fill="#000000">4 (sambutan&#45;NOUN)</text>
</g>
<!-- 33 -->
<g id="node11" class="node">
<title>33</title>
<text text-anchor="middle" x="3086.2983" y="-357.8" font-family="Times,serif" font-size="14.00" fill="#000000">33 (masing&#45;masing&#45;PROPN)</text>
</g>
<!-- 4&#45;&gt;33 -->
<g id="edge6" class="edge">
<title>4&#45;&gt;33</title>
<path fill="none" stroke="#000000" d="M3258.5984,-429.9716C3224.4444,-416.498 3177.6013,-398.0186 3141.378,-383.7287"/>
<polygon fill="#000000" stroke="#000000" points="3142.5249,-380.4187 3131.9381,-380.0047 3139.956,-386.9303 3142.5249,-380.4187"/>
<text text-anchor="middle" x="3212.7983" y="-400.8" font-family="Times,serif" font-size="14.00" fill="#000000">_</text>
</g>
<!-- 50 -->
<g id="node12" class="node">
<title>50</title>
<text text-anchor="middle" x="3258.2983" y="-357.8" font-family="Times,serif" font-size="14.00" fill="#000000">50 (berehat&#45;NOUN)</text>
</g>
<!-- 4&#45;&gt;50 -->
<g id="edge7" class="edge">
<title>4&#45;&gt;50</title>
<path fill="none" stroke="#000000" d="M3294.5429,-429.7616C3288.2612,-418.0176 3279.9801,-402.5355 3272.9193,-389.3349"/>
<polygon fill="#000000" stroke="#000000" points="3275.8425,-387.3792 3268.0397,-380.2121 3269.67,-390.6808 3275.8425,-387.3792"/>
<text text-anchor="middle" x="3287.7983" y="-400.8" font-family="Times,serif" font-size="14.00" fill="#000000">_</text>
</g>
<!-- 55 -->
<g id="node13" class="node">
<title>55</title>
<text text-anchor="middle" x="3414.2983" y="-357.8" font-family="Times,serif" font-size="14.00" fill="#000000">55 (mengantuk&#45;VERB)</text>
</g>
<!-- 4&#45;&gt;55 -->
<g id="edge8" class="edge">
<title>4&#45;&gt;55</title>
<path fill="none" stroke="#000000" d="M3327.3579,-429.9716C3343.4916,-417.358 3365.2367,-400.3573 3382.9434,-386.5139"/>
<polygon fill="#000000" stroke="#000000" points="3385.5467,-388.9213 3391.2691,-380.0047 3381.2353,-383.4066 3385.5467,-388.9213"/>
<text text-anchor="middle" x="3369.7983" y="-400.8" font-family="Times,serif" font-size="14.00" fill="#000000">_</text>
</g>
<!-- 28 -->
<g id="node47" class="node">
<title>28</title>
<text text-anchor="middle" x="3414.2983" y="-271.8" font-family="Times,serif" font-size="14.00" fill="#000000">28 (mahu&#45;ADV)</text>
</g>
<!-- 55&#45;&gt;28 -->
<g id="edge56" class="edge">
<title>55&#45;&gt;28</title>
<path fill="none" stroke="#000000" d="M3414.2983,-343.7616C3414.2983,-332.3597 3414.2983,-317.4342 3414.2983,-304.494"/>
<polygon fill="#000000" stroke="#000000" points="3417.7984,-304.2121 3414.2983,-294.2121 3410.7984,-304.2121 3417.7984,-304.2121"/>
<text text-anchor="middle" x="3417.7983" y="-314.8" font-family="Times,serif" font-size="14.00" fill="#000000">_</text>
</g>
<!-- 52 -->
<g id="node57" class="node">
<title>52</title>
<text text-anchor="middle" x="3284.2983" y="-271.8" font-family="Times,serif" font-size="14.00" fill="#000000">52 (tidur&#45;NOUN)</text>
</g>
<!-- 55&#45;&gt;52 -->
<g id="edge57" class="edge">
<title>55&#45;&gt;52</title>
<path fill="none" stroke="#000000" d="M3387.0461,-343.9716C3367.5457,-331.0713 3341.1087,-313.5822 3319.9349,-299.575"/>
<polygon fill="#000000" stroke="#000000" points="3321.786,-296.603 3311.5147,-294.0047 3317.9238,-302.4412 3321.786,-296.603"/>
<text text-anchor="middle" x="3360.7983" y="-314.8" font-family="Times,serif" font-size="14.00" fill="#000000">_</text>
</g>
<!-- 5 -->
<g id="node14" class="node">
<title>5</title>
<text text-anchor="middle" x="1569.2983" y="-357.8" font-family="Times,serif" font-size="14.00" fill="#000000">5 (Aidilfitri&#45;PROPN)</text>
</g>
<!-- 7 -->
<g id="node15" class="node">
<title>7</title>
<text text-anchor="middle" x="3613.2983" y="-99.8" font-family="Times,serif" font-size="14.00" fill="#000000">7 (depan&#45;NOUN)</text>
</g>
<!-- 8 -->
<g id="node16" class="node">
<title>8</title>
<text text-anchor="middle" x="1720.2983" y="-357.8" font-family="Times,serif" font-size="14.00" fill="#000000">8 (Perdana&#45;PROPN)</text>
</g>
<!-- 9 -->
<g id="node17" class="node">
<title>9</title>
<text text-anchor="middle" x="1868.2983" y="-357.8" font-family="Times,serif" font-size="14.00" fill="#000000">9 (Menteri&#45;PROPN)</text>
</g>
<!-- 10 -->
<g id="node18" class="node">
<title>10</title>
<text text-anchor="middle" x="2075.2983" y="-443.8" font-family="Times,serif" font-size="14.00" fill="#000000">10 (Tun&#45;PROPN)</text>
</g>
<!-- 10&#45;&gt;2 -->
<g id="edge9" class="edge">
<title>10&#45;&gt;2</title>
<path fill="none" stroke="#000000" d="M2018.0464,-445.6868C1895.1816,-440.0824 1597.1422,-423.0609 1339.5661,-380.1276"/>
<polygon fill="#000000" stroke="#000000" points="1340.0927,-376.6671 1329.6504,-378.4586 1338.9307,-383.57 1340.0927,-376.6671"/>
<text text-anchor="middle" x="1563.7983" y="-400.8" font-family="Times,serif" font-size="14.00" fill="#000000">_</text>
</g>
<!-- 10&#45;&gt;3 -->
<g id="edge10" class="edge">
<title>10&#45;&gt;3</title>
<path fill="none" stroke="#000000" d="M2017.9558,-443.6457C1914.9261,-435.3114 1691.6191,-414.9216 1494.1064,-380.049"/>
<polygon fill="#000000" stroke="#000000" points="1494.585,-376.5792 1484.1261,-378.2704 1493.3569,-383.4706 1494.585,-376.5792"/>
<text text-anchor="middle" x="1704.7983" y="-400.8" font-family="Times,serif" font-size="14.00" fill="#000000">_</text>
</g>
<!-- 10&#45;&gt;5 -->
<g id="edge11" class="edge">
<title>10&#45;&gt;5</title>
<path fill="none" stroke="#000000" d="M2017.818,-440.239C1935.287,-428.7898 1778.5783,-405.9097 1646.2983,-380 1646.1973,-379.9802 1646.0962,-379.9604 1645.995,-379.9405"/>
<polygon fill="#000000" stroke="#000000" points="1646.9253,-376.5581 1636.4283,-377.9946 1645.53,-383.4177 1646.9253,-376.5581"/>
<text text-anchor="middle" x="1826.7983" y="-400.8" font-family="Times,serif" font-size="14.00" fill="#000000">_</text>
</g>
<!-- 10&#45;&gt;8 -->
<g id="edge12" class="edge">
<title>10&#45;&gt;8</title>
<path fill="none" stroke="#000000" d="M2017.9778,-434.1498C1963.3507,-420.9456 1878.4996,-400.4236 1795.5137,-380.2937"/>
<polygon fill="#000000" stroke="#000000" points="1796.2106,-376.8613 1785.6673,-377.905 1794.5602,-383.664 1796.2106,-376.8613"/>
<text text-anchor="middle" x="1928.7983" y="-400.8" font-family="Times,serif" font-size="14.00" fill="#000000">_</text>
</g>
<!-- 10&#45;&gt;9 -->
<g id="edge13" class="edge">
<title>10&#45;&gt;9</title>
<path fill="none" stroke="#000000" d="M2031.9044,-429.9716C1999.6117,-416.5553 1955.3726,-398.1758 1921.0384,-383.9113"/>
<polygon fill="#000000" stroke="#000000" points="1922.2128,-380.6092 1911.6352,-380.0047 1919.5271,-387.0735 1922.2128,-380.6092"/>
<text text-anchor="middle" x="1987.7983" y="-400.8" font-family="Times,serif" font-size="14.00" fill="#000000">_</text>
</g>
<!-- 10&#45;&gt;10 -->
<g id="edge14" class="edge">
<title>10&#45;&gt;10</title>
<path fill="none" stroke="#000000" d="M2132.7848,-455.4424C2143.2795,-454.5003 2150.6401,-452.0195 2150.6401,-448 2150.6401,-445.425 2147.6193,-443.4815 2142.6889,-442.1694"/>
<polygon fill="#000000" stroke="#000000" points="2143.2172,-438.7094 2132.7848,-440.5576 2142.0927,-445.6185 2143.2172,-438.7094"/>
<text text-anchor="middle" x="2154.1401" y="-443.8" font-family="Times,serif" font-size="14.00" fill="#000000">_</text>
</g>
<!-- 11 -->
<g id="node19" class="node">
<title>11</title>
<text text-anchor="middle" x="2004.2983" y="-357.8" font-family="Times,serif" font-size="14.00" fill="#000000">11 (Dr&#45;PROPN)</text>
</g>
<!-- 10&#45;&gt;11 -->
<g id="edge15" class="edge">
<title>10&#45;&gt;11</title>
<path fill="none" stroke="#000000" d="M2060.2411,-429.7616C2050.263,-417.6756 2037.0165,-401.6304 2025.9182,-388.1874"/>
<polygon fill="#000000" stroke="#000000" points="2028.3995,-385.6954 2019.3339,-380.2121 2023.0014,-390.1519 2028.3995,-385.6954"/>
<text text-anchor="middle" x="2047.7983" y="-400.8" font-family="Times,serif" font-size="14.00" fill="#000000">_</text>
</g>
<!-- 12 -->
<g id="node20" class="node">
<title>12</title>
<text text-anchor="middle" x="2147.2983" y="-357.8" font-family="Times,serif" font-size="14.00" fill="#000000">12 (Mahathir&#45;PROPN)</text>
</g>
<!-- 10&#45;&gt;12 -->
<g id="edge16" class="edge">
<title>10&#45;&gt;12</title>
<path fill="none" stroke="#000000" d="M2090.5677,-429.7616C2100.6863,-417.6756 2114.1194,-401.6304 2125.374,-388.1874"/>
<polygon fill="#000000" stroke="#000000" points="2128.3153,-390.1265 2132.051,-380.2121 2122.9479,-385.6329 2128.3153,-390.1265"/>
<text text-anchor="middle" x="2119.7983" y="-400.8" font-family="Times,serif" font-size="14.00" fill="#000000">_</text>
</g>
<!-- 13 -->
<g id="node21" class="node">
<title>13</title>
<text text-anchor="middle" x="2312.2983" y="-357.8" font-family="Times,serif" font-size="14.00" fill="#000000">13 (Mohamad&#45;PROPN)</text>
</g>
<!-- 10&#45;&gt;13 -->
<g id="edge17" class="edge">
<title>10&#45;&gt;13</title>
<path fill="none" stroke="#000000" d="M2124.9813,-429.9716C2162.2701,-416.4406 2213.4715,-397.8612 2252.9203,-383.5465"/>
<polygon fill="#000000" stroke="#000000" points="2254.4744,-386.7059 2262.6808,-380.0047 2252.0866,-380.1257 2254.4744,-386.7059"/>
<text text-anchor="middle" x="2211.7983" y="-400.8" font-family="Times,serif" font-size="14.00" fill="#000000">_</text>
</g>
<!-- 15 -->
<g id="node22" class="node">
<title>15</title>
<text text-anchor="middle" x="2473.2983" y="-357.8" font-family="Times,serif" font-size="14.00" fill="#000000">15 (Menteri&#45;PROPN)</text>
</g>
<!-- 10&#45;&gt;15 -->
<g id="edge18" class="edge">
<title>10&#45;&gt;15</title>
<path fill="none" stroke="#000000" d="M2132.4919,-436.2601C2194.6185,-423.4231 2297.0532,-402.0122 2394.4522,-380.3932"/>
<polygon fill="#000000" stroke="#000000" points="2395.4662,-383.7533 2404.4676,-378.1654 2393.9462,-376.9203 2395.4662,-383.7533"/>
<text text-anchor="middle" x="2311.7983" y="-400.8" font-family="Times,serif" font-size="14.00" fill="#000000">_</text>
</g>
<!-- 17 -->
<g id="node23" class="node">
<title>17</title>
<text text-anchor="middle" x="2630.2983" y="-357.8" font-family="Times,serif" font-size="14.00" fill="#000000">17 (Anthony&#45;PROPN)</text>
</g>
<!-- 10&#45;&gt;17 -->
<g id="edge19" class="edge">
<title>10&#45;&gt;17</title>
<path fill="none" stroke="#000000" d="M2132.5666,-441.2875C2220.1378,-430.6962 2392.7391,-408.5347 2548.9909,-380.1678"/>
<polygon fill="#000000" stroke="#000000" points="2550.0509,-383.5321 2559.2582,-378.2904 2548.7917,-376.6463 2550.0509,-383.5321"/>
<text text-anchor="middle" x="2437.7983" y="-400.8" font-family="Times,serif" font-size="14.00" fill="#000000">_</text>
</g>
<!-- 18 -->
<g id="node24" class="node">
<title>18</title>
<text text-anchor="middle" x="2780.2983" y="-357.8" font-family="Times,serif" font-size="14.00" fill="#000000">18 (Loke&#45;PROPN)</text>
</g>
<!-- 10&#45;&gt;18 -->
<g id="edge20" class="edge">
<title>10&#45;&gt;18</title>
<path fill="none" stroke="#000000" d="M2132.6627,-444.9115C2242.8639,-438.3167 2491.7722,-420.2193 2709.3133,-380.0511"/>
<polygon fill="#000000" stroke="#000000" points="2710.1328,-383.4587 2719.3209,-378.1834 2708.8484,-376.5775 2710.1328,-383.4587"/>
<text text-anchor="middle" x="2593.7983" y="-400.8" font-family="Times,serif" font-size="14.00" fill="#000000">_</text>
</g>
<!-- 19 -->
<g id="node25" class="node">
<title>19</title>
<text text-anchor="middle" x="2919.2983" y="-357.8" font-family="Times,serif" font-size="14.00" fill="#000000">19 (Siew&#45;PROPN)</text>
</g>
<!-- 10&#45;&gt;19 -->
<g id="edge21" class="edge">
<title>10&#45;&gt;19</title>
<path fill="none" stroke="#000000" d="M2132.7435,-447.0311C2260.4848,-444.0034 2577.5707,-431.6563 2848.7827,-380.1702"/>
<polygon fill="#000000" stroke="#000000" points="2849.6556,-383.5666 2858.8161,-378.2434 2848.3354,-376.6922 2849.6556,-383.5666"/>
<text text-anchor="middle" x="2728.7983" y="-400.8" font-family="Times,serif" font-size="14.00" fill="#000000">_</text>
</g>
<!-- 27 -->
<g id="node31" class="node">
<title>27</title>
<text text-anchor="middle" x="2405.2983" y="-271.8" font-family="Times,serif" font-size="14.00" fill="#000000">27 (yang&#45;PRON)</text>
</g>
<!-- 15&#45;&gt;27 -->
<g id="edge27" class="edge">
<title>15&#45;&gt;27</title>
<path fill="none" stroke="#000000" d="M2458.8773,-343.7616C2449.3209,-331.6756 2436.634,-315.6304 2426.0046,-302.1874"/>
<polygon fill="#000000" stroke="#000000" points="2428.6465,-299.8854 2419.6986,-294.2121 2423.1555,-304.2271 2428.6465,-299.8854"/>
<text text-anchor="middle" x="2447.7983" y="-314.8" font-family="Times,serif" font-size="14.00" fill="#000000">_</text>
</g>
<!-- 47 -->
<g id="node32" class="node">
<title>47</title>
<text text-anchor="middle" x="2542.2983" y="-271.8" font-family="Times,serif" font-size="14.00" fill="#000000">47 (mereka&#45;PRON)</text>
</g>
<!-- 15&#45;&gt;47 -->
<g id="edge28" class="edge">
<title>15&#45;&gt;47</title>
<path fill="none" stroke="#000000" d="M2487.9315,-343.7616C2497.6284,-331.6756 2510.5018,-315.6304 2521.2875,-302.1874"/>
<polygon fill="#000000" stroke="#000000" points="2524.1582,-304.2023 2527.6863,-294.2121 2518.6983,-299.8216 2524.1582,-304.2023"/>
<text text-anchor="middle" x="2515.7983" y="-314.8" font-family="Times,serif" font-size="14.00" fill="#000000">_</text>
</g>
<!-- 14 -->
<g id="node26" class="node">
<title>14</title>
<text text-anchor="middle" x="3744.2983" y="-99.8" font-family="Times,serif" font-size="14.00" fill="#000000">14 (dan&#45;CCONJ)</text>
</g>
<!-- 14&#45;&gt;4 -->
<g id="edge22" class="edge">
<title>14&#45;&gt;4</title>
<path fill="none" stroke="#000000" d="M3737.5273,-122.1691C3731.7251,-139.3827 3724.2983,-166.0868 3724.2983,-190 3724.2983,-362 3724.2983,-362 3724.2983,-362 3724.2983,-396.5683 3503.1138,-426.2549 3381.7687,-439.9403"/>
<polygon fill="#000000" stroke="#000000" points="3381.3282,-436.4676 3371.7786,-441.0563 3382.1054,-443.4243 3381.3282,-436.4676"/>
<text text-anchor="middle" x="3727.7983" y="-271.8" font-family="Times,serif" font-size="14.00" fill="#000000">_</text>
</g>
<!-- 22 -->
<g id="node27" class="node">
<title>22</title>
<text text-anchor="middle" x="3830.2983" y="-13.8" font-family="Times,serif" font-size="14.00" fill="#000000">22 (pesanan&#45;NOUN)</text>
</g>
<!-- 14&#45;&gt;22 -->
<g id="edge23" class="edge">
<title>14&#45;&gt;22</title>
<path fill="none" stroke="#000000" d="M3762.5367,-85.7616C3774.8508,-73.4475 3791.2748,-57.0235 3804.8691,-43.4293"/>
<polygon fill="#000000" stroke="#000000" points="3807.49,-45.7581 3812.0862,-36.2121 3802.5403,-40.8083 3807.49,-45.7581"/>
<text text-anchor="middle" x="3796.7983" y="-56.8" font-family="Times,serif" font-size="14.00" fill="#000000">_</text>
</g>
<!-- 25 -->
<g id="node28" class="node">
<title>25</title>
<text text-anchor="middle" x="3974.2983" y="-13.8" font-family="Times,serif" font-size="14.00" fill="#000000">25 (orang&#45;NOUN)</text>
</g>
<!-- 14&#45;&gt;25 -->
<g id="edge24" class="edge">
<title>14&#45;&gt;25</title>
<path fill="none" stroke="#000000" d="M3792.5139,-85.9716C3828.7013,-72.4406 3878.3904,-53.8612 3916.674,-39.5465"/>
<polygon fill="#000000" stroke="#000000" points="3918.0055,-42.7854 3926.1463,-36.0047 3915.5538,-36.2287 3918.0055,-42.7854"/>
<text text-anchor="middle" x="3876.7983" y="-56.8" font-family="Times,serif" font-size="14.00" fill="#000000">_</text>
</g>
<!-- 40 -->
<g id="node29" class="node">
<title>40</title>
<text text-anchor="middle" x="3544.2983" y="-13.8" font-family="Times,serif" font-size="14.00" fill="#000000">40 (Jalan&#45;PROPN)</text>
</g>
<!-- 14&#45;&gt;40 -->
<g id="edge25" class="edge">
<title>14&#45;&gt;40</title>
<path fill="none" stroke="#000000" d="M3702.3718,-85.9716C3671.3045,-72.6126 3628.7931,-54.3328 3595.6807,-40.0944"/>
<polygon fill="#000000" stroke="#000000" points="3596.739,-36.7397 3586.1697,-36.0047 3593.9738,-43.1704 3596.739,-36.7397"/>
<text text-anchor="middle" x="3659.7983" y="-56.8" font-family="Times,serif" font-size="14.00" fill="#000000">_</text>
</g>
<!-- 42 -->
<g id="node30" class="node">
<title>42</title>
<text text-anchor="middle" x="3684.2983" y="-13.8" font-family="Times,serif" font-size="14.00" fill="#000000">42 (JKJR&#45;PROPN)</text>
</g>
<!-- 14&#45;&gt;42 -->
<g id="edge26" class="edge">
<title>14&#45;&gt;42</title>
<path fill="none" stroke="#000000" d="M3731.5739,-85.7616C3723.2213,-73.7896 3712.1584,-57.9328 3702.8345,-44.5685"/>
<polygon fill="#000000" stroke="#000000" points="3705.5968,-42.4107 3697.0045,-36.2121 3699.8559,-46.416 3705.5968,-42.4107"/>
<text text-anchor="middle" x="3721.7983" y="-56.8" font-family="Times,serif" font-size="14.00" fill="#000000">_</text>
</g>
<!-- 20&#45;&gt;1 -->
<g id="edge35" class="edge">
<title>20&#45;&gt;1</title>
<path fill="none" stroke="#000000" d="M830.997,-294.2012C825.922,-315.0927 816.946,-350.3013 807.2983,-380 802.9358,-393.4294 797.4293,-408.0879 792.6081,-420.3452"/>
<polygon fill="#000000" stroke="#000000" points="789.2124,-419.4117 788.7596,-429.9969 795.7146,-422.0044 789.2124,-419.4117"/>
<text text-anchor="middle" x="821.7983" y="-357.8" font-family="Times,serif" font-size="14.00" fill="#000000">_</text>
</g>
<!-- 29 -->
<g id="node39" class="node">
<title>29</title>
<text text-anchor="middle" x="620.2983" y="-185.8" font-family="Times,serif" font-size="14.00" fill="#000000">29 (pulang&#45;VERB)</text>
</g>
<!-- 20&#45;&gt;29 -->
<g id="edge36" class="edge">
<title>20&#45;&gt;29</title>
<path fill="none" stroke="#000000" d="M790.2273,-257.9716C756.5433,-244.498 710.3448,-226.0186 674.62,-211.7287"/>
<polygon fill="#000000" stroke="#000000" points="675.8947,-208.469 665.31,-208.0047 673.2949,-214.9683 675.8947,-208.469"/>
<text text-anchor="middle" x="744.7983" y="-228.8" font-family="Times,serif" font-size="14.00" fill="#000000">_</text>
</g>
<!-- 41 -->
<g id="node40" class="node">
<title>41</title>
<text text-anchor="middle" x="760.2983" y="-185.8" font-family="Times,serif" font-size="14.00" fill="#000000">41 (Raya&#45;PROPN)</text>
</g>
<!-- 20&#45;&gt;41 -->
<g id="edge37" class="edge">
<title>20&#45;&gt;41</title>
<path fill="none" stroke="#000000" d="M819.3928,-257.7616C808.7532,-245.5615 794.5954,-229.3273 782.805,-215.8076"/>
<polygon fill="#000000" stroke="#000000" points="785.3915,-213.4483 776.181,-208.2121 780.1158,-218.0492 785.3915,-213.4483"/>
<text text-anchor="middle" x="805.7983" y="-228.8" font-family="Times,serif" font-size="14.00" fill="#000000">_</text>
</g>
<!-- 45 -->
<g id="node41" class="node">
<title>45</title>
<text text-anchor="middle" x="911.2983" y="-185.8" font-family="Times,serif" font-size="14.00" fill="#000000">45 (Mahathir&#45;PROPN)</text>
</g>
<!-- 20&#45;&gt;45 -->
<g id="edge38" class="edge">
<title>20&#45;&gt;45</title>
<path fill="none" stroke="#000000" d="M851.416,-257.7616C862.1975,-245.5615 876.5439,-229.3273 888.4916,-215.8076"/>
<polygon fill="#000000" stroke="#000000" points="891.2046,-218.0231 895.2039,-208.2121 885.9593,-213.3877 891.2046,-218.0231"/>
<text text-anchor="middle" x="881.7983" y="-228.8" font-family="Times,serif" font-size="14.00" fill="#000000">_</text>
</g>
<!-- 51 -->
<g id="node42" class="node">
<title>51</title>
<text text-anchor="middle" x="1057.2983" y="-185.8" font-family="Times,serif" font-size="14.00" fill="#000000">51 (dan&#45;CCONJ)</text>
</g>
<!-- 20&#45;&gt;51 -->
<g id="edge39" class="edge">
<title>20&#45;&gt;51</title>
<path fill="none" stroke="#000000" d="M881.8368,-257.9716C916.6175,-244.498 964.3201,-226.0186 1001.2081,-211.7287"/>
<polygon fill="#000000" stroke="#000000" points="1002.7607,-214.8807 1010.8211,-208.0047 1000.232,-208.3534 1002.7607,-214.8807"/>
<text text-anchor="middle" x="963.7983" y="-228.8" font-family="Times,serif" font-size="14.00" fill="#000000">_</text>
</g>
<!-- 23 -->
<g id="node44" class="node">
<title>23</title>
<text text-anchor="middle" x="2459.2983" y="-99.8" font-family="Times,serif" font-size="14.00" fill="#000000">23 (khas&#45;ADJ)</text>
</g>
<!-- 24 -->
<g id="node45" class="node">
<title>24</title>
<text text-anchor="middle" x="2584.2983" y="-99.8" font-family="Times,serif" font-size="14.00" fill="#000000">24 (kepada&#45;ADP)</text>
</g>
<!-- 26 -->
<g id="node46" class="node">
<title>26</title>
<text text-anchor="middle" x="2712.2983" y="-99.8" font-family="Times,serif" font-size="14.00" fill="#000000">26 (ramai&#45;ADJ)</text>
</g>
<!-- 48 -->
<g id="node48" class="node">
<title>48</title>
<text text-anchor="middle" x="3141.2983" y="-185.8" font-family="Times,serif" font-size="14.00" fill="#000000">48 (supaya&#45;SCONJ)</text>
</g>
<!-- 28&#45;&gt;48 -->
<g id="edge40" class="edge">
<title>28&#45;&gt;48</title>
<path fill="none" stroke="#000000" d="M3359.7089,-258.8033C3316.1281,-245.0746 3254.8701,-225.7772 3208.3158,-211.1117"/>
<polygon fill="#000000" stroke="#000000" points="3209.206,-207.7227 3198.6165,-208.0563 3207.1028,-214.3992 3209.206,-207.7227"/>
<text text-anchor="middle" x="3297.7983" y="-228.8" font-family="Times,serif" font-size="14.00" fill="#000000">_</text>
</g>
<!-- 48&#45;&gt;7 -->
<g id="edge42" class="edge">
<title>48&#45;&gt;7</title>
<path fill="none" stroke="#000000" d="M3206.0217,-181.205C3284.4257,-170.0942 3420.6206,-149.3312 3546.0126,-122.1838"/>
<polygon fill="#000000" stroke="#000000" points="3546.7663,-125.6018 3555.7896,-120.0491 3545.2731,-118.7629 3546.7663,-125.6018"/>
<text text-anchor="middle" x="3451.7983" y="-142.8" font-family="Times,serif" font-size="14.00" fill="#000000">_</text>
</g>
<!-- 48&#45;&gt;14 -->
<g id="edge43" class="edge">
<title>48&#45;&gt;14</title>
<path fill="none" stroke="#000000" d="M3206.045,-185.2492C3305.7867,-177.1769 3502.9787,-158.2282 3678.1252,-122.1136"/>
<polygon fill="#000000" stroke="#000000" points="3678.9597,-125.5149 3688.0344,-120.0468 3677.5304,-118.6624 3678.9597,-125.5149"/>
<text text-anchor="middle" x="3581.7983" y="-142.8" font-family="Times,serif" font-size="14.00" fill="#000000">_</text>
</g>
<!-- 48&#45;&gt;23 -->
<g id="edge44" class="edge">
<title>48&#45;&gt;23</title>
<path fill="none" stroke="#000000" d="M3076.7111,-187.866C2964.3143,-183.0874 2725.7211,-168.2249 2518.6711,-122.1417"/>
<polygon fill="#000000" stroke="#000000" points="2519.3611,-118.7095 2508.836,-119.9236 2517.821,-125.538 2519.3611,-118.7095"/>
<text text-anchor="middle" x="2690.7983" y="-142.8" font-family="Times,serif" font-size="14.00" fill="#000000">_</text>
</g>
<!-- 48&#45;&gt;24 -->
<g id="edge45" class="edge">
<title>48&#45;&gt;24</title>
<path fill="none" stroke="#000000" d="M3076.3934,-184.2524C2983.8226,-175.34 2808.5788,-155.8204 2651.975,-122.2661"/>
<polygon fill="#000000" stroke="#000000" points="2652.6784,-118.8374 2642.1639,-120.14 2651.1958,-125.6786 2652.6784,-118.8374"/>
<text text-anchor="middle" x="2828.7983" y="-142.8" font-family="Times,serif" font-size="14.00" fill="#000000">_</text>
</g>
<!-- 48&#45;&gt;26 -->
<g id="edge46" class="edge">
<title>48&#45;&gt;26</title>
<path fill="none" stroke="#000000" d="M3076.5197,-180.2802C3004.9075,-169.0231 2886.0657,-148.8283 2774.6986,-121.9897"/>
<polygon fill="#000000" stroke="#000000" points="2775.5253,-118.5888 2764.9814,-119.6261 2773.8709,-125.3905 2775.5253,-118.5888"/>
<text text-anchor="middle" x="2918.7983" y="-142.8" font-family="Times,serif" font-size="14.00" fill="#000000">_</text>
</g>
<!-- 30 -->
<g id="node49" class="node">
<title>30</title>
<text text-anchor="middle" x="2827.2983" y="-99.8" font-family="Times,serif" font-size="14.00" fill="#000000">30 (ke&#45;ADP)</text>
</g>
<!-- 48&#45;&gt;30 -->
<g id="edge47" class="edge">
<title>48&#45;&gt;30</title>
<path fill="none" stroke="#000000" d="M3076.5942,-174.3374C3023.7897,-161.2535 2947.3798,-141.6318 2881.2983,-122 2881.2007,-121.971 2881.1029,-121.9419 2881.005,-121.9128"/>
<polygon fill="#000000" stroke="#000000" points="2882.3083,-118.6516 2871.7215,-119.0657 2880.2558,-125.344 2882.3083,-118.6516"/>
<text text-anchor="middle" x="2998.7983" y="-142.8" font-family="Times,serif" font-size="14.00" fill="#000000">_</text>
</g>
<!-- 34 -->
<g id="node50" class="node">
<title>34</title>
<text text-anchor="middle" x="2946.2983" y="-99.8" font-family="Times,serif" font-size="14.00" fill="#000000">34 (Dalam&#45;ADP)</text>
</g>
<!-- 48&#45;&gt;34 -->
<g id="edge48" class="edge">
<title>48&#45;&gt;34</title>
<path fill="none" stroke="#000000" d="M3100.4199,-171.9716C3070.1293,-158.6126 3028.6808,-140.3328 2996.3962,-126.0944"/>
<polygon fill="#000000" stroke="#000000" points="2997.685,-122.8376 2987.1229,-122.0047 2994.8603,-129.2424 2997.685,-122.8376"/>
<text text-anchor="middle" x="3059.7983" y="-142.8" font-family="Times,serif" font-size="14.00" fill="#000000">_</text>
</g>
<!-- 36 -->
<g id="node51" class="node">
<title>36</title>
<text text-anchor="middle" x="3077.2983" y="-99.8" font-family="Times,serif" font-size="14.00" fill="#000000">36 (pendek&#45;ADJ)</text>
</g>
<!-- 48&#45;&gt;36 -->
<g id="edge49" class="edge">
<title>48&#45;&gt;36</title>
<path fill="none" stroke="#000000" d="M3127.7256,-171.7616C3118.8162,-159.7896 3107.0158,-143.9328 3097.0703,-130.5685"/>
<polygon fill="#000000" stroke="#000000" points="3099.6295,-128.1449 3090.8515,-122.2121 3094.0139,-132.324 3099.6295,-128.1449"/>
<text text-anchor="middle" x="3116.7983" y="-142.8" font-family="Times,serif" font-size="14.00" fill="#000000">_</text>
</g>
<!-- 44 -->
<g id="node53" class="node">
<title>44</title>
<text text-anchor="middle" x="3205.2983" y="-99.8" font-family="Times,serif" font-size="14.00" fill="#000000">44 (Dr&#45;PROPN)</text>
</g>
<!-- 48&#45;&gt;44 -->
<g id="edge50" class="edge">
<title>48&#45;&gt;44</title>
<path fill="none" stroke="#000000" d="M3154.8711,-171.7616C3163.7805,-159.7896 3175.5809,-143.9328 3185.5264,-130.5685"/>
<polygon fill="#000000" stroke="#000000" points="3188.5828,-132.324 3191.7452,-122.2121 3182.9672,-128.1449 3188.5828,-132.324"/>
<text text-anchor="middle" x="3180.7983" y="-142.8" font-family="Times,serif" font-size="14.00" fill="#000000">_</text>
</g>
<!-- 53 -->
<g id="node54" class="node">
<title>53</title>
<text text-anchor="middle" x="3336.2983" y="-99.8" font-family="Times,serif" font-size="14.00" fill="#000000">53 (sebentar&#45;ADJ)</text>
</g>
<!-- 48&#45;&gt;53 -->
<g id="edge51" class="edge">
<title>48&#45;&gt;53</title>
<path fill="none" stroke="#000000" d="M3182.1767,-171.9716C3212.4674,-158.6126 3253.9159,-140.3328 3286.2005,-126.0944"/>
<polygon fill="#000000" stroke="#000000" points="3287.7364,-129.2424 3295.4738,-122.0047 3284.9117,-122.8376 3287.7364,-129.2424"/>
<text text-anchor="middle" x="3254.7983" y="-142.8" font-family="Times,serif" font-size="14.00" fill="#000000">_</text>
</g>
<!-- 56 -->
<g id="node55" class="node">
<title>56</title>
<text text-anchor="middle" x="3476.2983" y="-99.8" font-family="Times,serif" font-size="14.00" fill="#000000">56 (ketika&#45;SCONJ)</text>
</g>
<!-- 48&#45;&gt;56 -->
<g id="edge52" class="edge">
<title>48&#45;&gt;56</title>
<path fill="none" stroke="#000000" d="M3205.8897,-173.4183C3262.5956,-158.861 3344.9928,-137.7083 3403.909,-122.5835"/>
<polygon fill="#000000" stroke="#000000" points="3405.0732,-125.8982 3413.8888,-120.0216 3403.3326,-119.1181 3405.0732,-125.8982"/>
<text text-anchor="middle" x="3332.7983" y="-142.8" font-family="Times,serif" font-size="14.00" fill="#000000">_</text>
</g>
<!-- 57 -->
<g id="node58" class="node">
<title>57</title>
<text text-anchor="middle" x="3336.2983" y="-13.8" font-family="Times,serif" font-size="14.00" fill="#000000">57 (memandu&#45;VERB)</text>
</g>
<!-- 53&#45;&gt;57 -->
<g id="edge53" class="edge">
<title>53&#45;&gt;57</title>
<path fill="none" stroke="#000000" d="M3336.2983,-85.7616C3336.2983,-74.3597 3336.2983,-59.4342 3336.2983,-46.494"/>
<polygon fill="#000000" stroke="#000000" points="3339.7984,-46.2121 3336.2983,-36.2121 3332.7984,-46.2121 3339.7984,-46.2121"/>
<text text-anchor="middle" x="3339.7983" y="-56.8" font-family="Times,serif" font-size="14.00" fill="#000000">_</text>
</g>
</g>
</svg>
